<svg xmlns="http://www.w3.org/2000/svg" xmlns:xlink="http://www.w3.org/1999/xlink" id="svg" version="1.1" viewBox="107.88 36.02 292.12 327.97"><g id="svgg"><path id="path0" d="M129.058 36.275 C 128.917 36.416,128.107 36.504,127.258 36.471 C 125.412 36.398,124.367 37.340,124.404 39.043 C 124.417 39.679,124.314 41.100,124.173 42.200 L 123.917 44.200 121.459 44.254 C 116.098 44.372,116.444 44.023,116.197 49.580 C 116.104 51.655,115.937 52.218,115.341 52.452 C 114.670 52.716,114.666 52.746,115.300 52.772 C 116.277 52.811,116.182 53.600,115.200 53.600 C 114.760 53.600,114.400 53.396,114.400 53.147 C 114.400 52.333,111.159 53.059,110.109 54.109 C 109.059 55.159,108.333 58.400,109.147 58.400 C 109.396 58.400,109.603 58.805,109.606 59.300 C 109.611 60.028,109.686 60.085,110.000 59.600 C 110.213 59.270,110.391 59.203,110.394 59.451 C 110.397 59.699,110.095 60.149,109.723 60.451 C 109.263 60.824,109.143 60.840,109.347 60.500 C 109.512 60.225,109.470 60.000,109.253 60.000 C 109.036 60.000,108.776 59.685,108.676 59.300 C 108.561 58.860,108.476 58.999,108.446 59.676 C 108.421 60.268,108.603 60.878,108.851 61.032 C 109.160 61.223,109.098 61.425,108.654 61.674 C 107.527 62.305,107.678 337.678,108.806 338.806 C 109.425 339.425,109.468 339.600,109.000 339.600 C 108.635 339.600,108.412 339.953,108.432 340.500 C 108.449 340.995,108.554 341.175,108.665 340.900 C 108.981 340.116,109.600 340.315,109.600 341.200 C 109.600 341.640,109.396 342.000,109.148 342.000 C 108.409 342.000,109.065 344.805,110.048 345.851 C 111.122 346.994,113.164 347.430,114.790 346.863 C 115.826 346.502,116.002 346.539,116.014 347.121 C 116.028 347.753,116.306 352.956,116.408 354.477 C 116.436 354.891,116.675 355.069,117.024 354.935 C 117.338 354.815,117.479 354.527,117.336 354.296 C 117.188 354.057,117.267 353.995,117.521 354.151 C 117.765 354.302,117.852 354.719,117.715 355.078 C 117.547 355.515,117.619 355.635,117.932 355.442 C 118.189 355.283,118.400 355.334,118.400 355.555 C 118.400 355.791,119.501 355.924,121.083 355.878 L 123.767 355.800 124.236 358.139 C 124.493 359.426,124.615 360.821,124.506 361.239 C 124.363 361.785,124.518 362.002,125.053 362.006 C 125.625 362.011,125.673 362.093,125.257 362.356 C 124.879 362.596,124.849 362.783,125.157 362.974 C 125.401 363.124,125.780 363.136,126.000 363.000 C 126.220 362.864,126.400 362.963,126.400 363.220 C 126.400 363.518,126.761 363.596,127.400 363.436 C 127.964 363.294,128.400 363.358,128.400 363.582 C 128.400 363.844,152.937 363.982,200.200 363.988 C 239.840 363.993,272.000 363.843,272.000 363.654 C 272.000 363.465,272.479 363.403,273.065 363.515 C 273.903 363.675,274.081 363.587,273.897 363.108 C 273.653 362.474,274.267 361.600,274.956 361.600 C 275.175 361.600,275.021 361.843,274.616 362.139 C 274.130 362.494,274.029 362.771,274.319 362.950 C 274.897 363.307,275.728 361.731,275.473 360.759 C 275.364 360.342,275.461 360.000,275.688 360.000 C 275.943 360.000,276.028 359.234,275.910 358.000 C 275.693 355.749,275.399 355.909,279.700 355.930 C 281.577 355.939,282.006 355.818,282.032 355.270 C 282.051 354.854,282.140 354.790,282.265 355.100 C 282.542 355.786,283.065 355.728,283.353 354.979 C 283.509 354.571,283.422 354.444,283.095 354.609 C 282.823 354.747,282.901 354.612,283.268 354.309 C 283.761 353.903,283.932 353.132,283.918 351.379 C 283.881 346.568,283.826 346.731,285.374 347.022 C 288.341 347.578,291.125 345.635,290.564 343.399 C 290.396 342.731,290.470 342.204,290.755 342.028 C 291.010 341.870,291.244 341.079,291.274 340.271 C 291.305 339.462,291.475 338.800,291.653 338.800 C 292.410 338.800,292.060 214.458,291.302 214.087 C 290.916 213.898,289.248 213.698,287.596 213.643 L 284.591 213.542 282.879 215.171 C 281.937 216.067,280.904 216.800,280.583 216.800 C 280.262 216.800,280.000 216.941,280.000 217.113 C 280.000 217.285,279.145 217.677,278.100 217.985 C 276.265 218.525,274.000 220.284,274.000 221.169 C 274.000 221.813,269.289 226.400,268.629 226.400 C 268.314 226.400,267.819 226.635,267.529 226.922 C 267.238 227.210,266.415 227.789,265.700 228.209 C 264.985 228.629,264.400 229.104,264.400 229.266 C 264.400 229.427,263.365 229.878,262.100 230.269 C 260.835 230.659,259.710 231.089,259.600 231.225 C 259.490 231.360,257.780 231.803,255.800 232.209 C 253.820 232.615,252.110 233.068,252.000 233.215 C 251.890 233.363,251.155 233.694,250.366 233.951 C 248.593 234.529,246.403 236.296,246.392 237.158 C 246.388 237.511,245.848 239.321,245.192 241.181 L 244.000 244.562 244.000 280.281 L 244.000 316.000 200.000 316.000 L 156.000 316.000 156.000 200.000 L 156.000 84.000 200.000 84.000 L 244.000 84.000 244.006 124.500 C 244.012 165.234,244.073 167.143,245.355 166.821 C 245.551 166.772,245.839 166.939,245.996 167.193 C 246.542 168.078,252.002 168.134,252.958 167.265 C 253.421 166.844,254.193 166.297,254.674 166.050 C 255.155 165.802,255.772 164.982,256.044 164.228 C 256.317 163.474,256.824 162.759,257.170 162.640 C 257.913 162.384,259.146 161.602,259.912 160.900 C 260.212 160.625,260.648 160.400,260.882 160.400 C 261.377 160.400,264.399 157.551,264.400 157.083 C 264.400 156.395,268.227 152.400,268.886 152.400 C 269.379 152.400,272.399 149.549,272.400 149.083 C 272.400 148.348,276.245 144.400,276.959 144.400 C 277.654 144.400,279.958 141.708,280.246 140.558 C 280.379 140.031,280.610 139.600,280.761 139.600 C 280.912 139.600,281.368 138.795,281.774 137.811 C 282.180 136.827,282.654 136.109,282.827 136.217 C 283.000 136.324,283.258 136.049,283.398 135.605 C 283.539 135.162,283.996 134.616,284.415 134.392 C 285.356 133.889,286.971 131.145,287.608 128.969 C 287.870 128.072,288.831 126.542,289.742 125.569 C 290.653 124.596,291.472 123.440,291.561 123.000 C 291.898 121.344,291.968 61.600,291.634 61.600 C 291.442 61.600,291.178 61.321,291.047 60.979 C 290.916 60.638,290.955 60.448,291.132 60.558 C 291.310 60.668,291.377 60.227,291.282 59.579 C 291.096 58.307,290.418 57.951,290.372 59.100 C 290.348 59.699,290.294 59.684,290.000 59.000 C 289.527 57.900,289.527 57.269,290.000 58.000 C 290.720 59.114,290.463 57.229,289.724 55.979 C 288.954 54.675,287.155 53.779,286.107 54.178 C 285.549 54.391,285.503 54.344,285.888 53.956 C 286.719 53.119,289.609 54.306,290.088 55.680 C 290.303 56.296,290.641 56.800,290.840 56.800 C 291.718 56.800,290.063 54.151,288.780 53.501 C 287.274 52.737,285.200 52.563,285.200 53.200 C 285.200 53.420,284.941 53.600,284.625 53.600 C 284.007 53.600,284.006 53.597,283.951 49.413 C 283.924 47.347,283.744 46.485,283.257 46.083 C 282.896 45.785,282.843 45.666,283.140 45.819 C 283.582 46.046,283.592 45.933,283.197 45.194 C 282.849 44.544,282.628 44.432,282.405 44.791 C 282.164 45.182,282.049 45.172,281.879 44.745 C 281.700 44.298,281.585 44.308,281.237 44.800 C 280.873 45.314,280.811 45.296,280.806 44.672 C 280.801 44.035,280.484 43.955,278.300 44.039 L 275.800 44.134 275.929 42.067 C 275.999 40.930,275.889 40.000,275.684 40.000 C 275.479 40.000,275.398 39.544,275.505 38.986 C 275.626 38.351,275.433 37.678,274.987 37.186 C 274.217 36.335,273.138 36.120,273.300 36.850 C 273.355 37.098,273.169 37.384,272.888 37.487 C 272.606 37.591,272.426 37.454,272.488 37.183 C 272.549 36.912,272.064 36.540,271.408 36.355 C 270.033 35.969,129.444 35.890,129.058 36.275 M111.598 54.500 C 111.289 54.775,110.793 55.270,110.496 55.600 C 110.033 56.114,110.016 56.076,110.373 55.335 C 110.732 54.592,111.269 54.156,111.980 54.032 C 112.079 54.014,111.907 54.225,111.598 54.500 M340.000 68.403 C 339.670 68.599,338.516 68.874,337.435 69.014 C 334.783 69.358,333.362 70.775,333.004 73.435 C 332.621 76.287,332.554 76.395,331.113 76.454 C 330.173 76.493,330.056 76.558,330.700 76.682 C 331.898 76.913,331.844 77.460,330.600 77.698 C 329.895 77.833,329.600 77.713,329.600 77.292 C 329.600 76.466,326.904 76.918,325.911 77.911 C 324.918 78.904,324.466 81.600,325.292 81.600 C 325.713 81.600,325.833 81.895,325.698 82.600 C 325.460 83.844,324.913 83.898,324.682 82.700 C 324.550 82.012,324.496 82.091,324.454 83.033 C 324.373 84.870,325.503 84.645,326.021 82.721 C 326.268 81.806,326.610 81.283,326.861 81.438 C 327.095 81.582,327.131 81.813,326.943 81.950 C 326.754 82.088,326.568 82.380,326.530 82.600 C 326.491 82.820,326.345 83.292,326.206 83.649 C 326.022 84.121,326.229 84.350,326.965 84.491 C 327.638 84.620,327.885 84.537,327.703 84.242 C 327.554 83.999,327.874 84.079,328.415 84.421 C 329.051 84.821,329.826 84.953,330.600 84.791 C 331.919 84.517,333.359 85.019,332.986 85.623 C 332.856 85.833,333.031 86.114,333.375 86.246 C 333.719 86.378,334.000 86.698,334.000 86.958 C 334.000 87.218,334.360 88.137,334.800 89.000 C 335.240 89.863,335.600 90.847,335.600 91.186 C 335.600 91.968,337.591 93.864,338.957 94.384 C 339.531 94.602,340.000 95.065,340.000 95.414 C 340.000 95.762,340.180 95.936,340.400 95.800 C 340.620 95.664,340.800 95.754,340.800 96.000 C 340.800 96.246,341.002 96.323,341.248 96.170 C 341.687 95.899,344.400 98.499,344.400 99.190 C 344.400 99.379,345.120 100.284,346.000 101.200 C 346.880 102.116,347.600 102.953,347.600 103.061 C 347.600 103.520,348.688 104.285,349.704 104.540 C 350.307 104.691,350.800 105.002,350.800 105.231 C 350.800 105.460,350.575 105.512,350.300 105.347 C 349.948 105.135,349.959 105.243,350.338 105.710 C 350.634 106.076,351.084 106.335,351.338 106.287 C 351.592 106.239,351.786 106.604,351.768 107.098 C 351.751 107.592,351.801 107.933,351.879 107.854 C 351.957 107.776,352.930 108.579,354.041 109.639 C 355.152 110.698,356.452 111.687,356.930 111.835 C 357.976 112.160,360.390 114.411,360.396 115.067 C 360.398 115.324,361.075 116.249,361.900 117.121 C 362.725 117.994,363.589 119.027,363.820 119.417 C 364.052 119.807,364.677 120.193,365.211 120.275 C 365.744 120.356,366.329 120.687,366.510 121.011 C 366.691 121.335,367.091 121.600,367.397 121.600 C 367.704 121.600,368.235 122.000,368.577 122.489 C 368.920 122.978,369.200 123.208,369.200 123.000 C 369.200 121.948,370.336 124.439,370.547 125.954 C 370.682 126.919,371.018 127.988,371.296 128.331 C 371.717 128.851,371.701 128.895,371.200 128.600 C 370.711 128.312,370.688 128.355,371.074 128.833 C 371.335 129.156,371.619 129.946,371.705 130.588 L 371.861 131.757 375.131 131.820 C 378.070 131.877,378.400 131.808,378.400 131.142 C 378.400 130.686,378.686 130.400,379.142 130.400 C 379.800 130.400,379.875 130.093,379.803 127.700 C 379.709 124.571,379.980 122.520,380.399 123.198 C 380.837 123.906,384.000 124.235,384.000 123.573 C 384.000 123.158,384.107 123.147,384.480 123.520 C 384.744 123.784,385.239 123.986,385.580 123.968 C 385.992 123.947,386.032 123.869,385.700 123.735 C 385.425 123.624,385.200 123.168,385.200 122.722 C 385.200 121.952,385.240 121.958,386.006 122.856 C 386.495 123.429,386.770 123.564,386.706 123.200 C 386.645 122.853,386.853 122.645,387.200 122.706 C 387.564 122.770,387.429 122.495,386.856 122.006 C 385.958 121.240,385.952 121.200,386.722 121.200 C 387.168 121.200,387.624 121.425,387.735 121.700 C 387.869 122.032,387.947 121.992,387.968 121.580 C 387.986 121.239,387.784 120.744,387.520 120.480 C 387.147 120.107,387.158 120.000,387.573 120.000 C 387.963 120.000,388.048 119.574,387.892 118.411 C 387.655 116.642,386.843 115.600,385.702 115.600 C 384.921 115.600,382.997 112.736,383.465 112.269 C 383.602 112.132,383.540 111.790,383.328 111.510 C 383.115 111.229,382.905 110.390,382.860 109.645 C 382.759 107.954,382.544 107.600,381.619 107.600 C 381.216 107.600,380.782 107.330,380.655 107.000 C 380.529 106.670,380.048 106.400,379.586 106.400 C 378.575 106.400,377.409 105.809,376.370 104.770 C 375.946 104.346,375.443 104.000,375.252 104.000 C 375.061 104.000,374.670 103.145,374.384 102.100 C 373.731 99.711,372.641 98.595,370.600 98.222 C 369.720 98.061,368.694 97.630,368.319 97.265 C 367.945 96.899,367.371 96.379,367.045 96.108 C 366.719 95.838,366.329 94.803,366.180 93.808 C 366.031 92.814,365.703 92.000,365.451 92.000 C 365.199 92.000,364.778 91.657,364.517 91.239 C 364.242 90.798,363.355 90.361,362.413 90.202 C 361.517 90.051,360.563 89.680,360.292 89.377 C 360.021 89.075,359.530 88.514,359.200 88.131 C 358.870 87.748,358.419 86.617,358.197 85.617 C 357.943 84.469,357.575 83.793,357.197 83.782 C 356.869 83.772,356.644 83.550,356.698 83.289 C 356.751 83.028,356.301 82.705,355.698 82.571 C 353.434 82.070,352.000 81.526,352.000 81.169 C 352.000 80.966,351.721 80.800,351.380 80.800 C 351.034 80.800,350.498 80.135,350.169 79.300 C 349.845 78.475,349.421 77.514,349.227 77.164 C 349.033 76.815,348.746 75.510,348.591 74.264 C 348.435 73.019,348.104 71.973,347.854 71.939 C 347.604 71.906,347.199 71.858,346.954 71.833 C 346.709 71.808,346.197 71.529,345.816 71.213 C 345.210 70.711,345.079 70.716,344.778 71.253 C 344.266 72.168,342.626 71.914,342.476 70.898 C 342.340 69.975,341.200 68.772,341.200 69.551 C 341.200 69.798,341.380 70.000,341.600 70.000 C 342.302 70.000,342.029 71.156,341.226 71.586 C 340.273 72.096,339.582 72.126,340.377 71.623 C 340.853 71.322,340.868 71.068,340.465 70.184 C 340.095 69.372,340.088 68.975,340.437 68.555 C 340.960 67.926,340.862 67.892,340.000 68.403 M338.600 70.381 C 336.730 71.228,335.031 72.922,334.414 74.555 C 333.793 76.201,334.213 76.327,335.019 74.737 C 336.306 72.198,340.400 69.220,340.400 70.824 C 340.400 71.057,340.220 71.136,340.000 71.000 C 339.780 70.864,339.600 70.943,339.600 71.176 C 339.600 71.409,339.330 71.600,339.000 71.600 C 338.670 71.600,338.400 71.780,338.400 72.000 C 338.400 72.220,338.265 72.379,338.100 72.353 C 337.261 72.220,336.783 72.449,337.038 72.862 C 337.215 73.148,337.148 73.215,336.862 73.038 C 336.449 72.783,336.220 73.261,336.353 74.100 C 336.379 74.265,336.220 74.400,336.000 74.400 C 335.780 74.400,335.600 74.593,335.600 74.829 C 335.600 75.432,334.415 76.549,334.105 76.238 C 333.963 76.097,333.635 76.480,333.376 77.091 L 332.904 78.200 332.952 77.100 C 332.978 76.495,333.112 76.000,333.248 76.000 C 333.385 76.000,333.614 75.121,333.756 74.047 C 334.152 71.060,335.721 69.754,339.000 69.683 C 340.175 69.657,340.167 69.671,338.600 70.381 M328.800 78.000 C 328.800 78.407,328.281 78.546,327.200 78.431 C 326.711 78.378,326.700 78.434,327.143 78.733 C 327.486 78.965,327.535 79.193,327.277 79.352 C 327.052 79.491,326.792 79.469,326.700 79.302 C 326.607 79.136,326.575 79.196,326.629 79.436 C 326.757 80.009,326.110 81.043,325.811 80.744 C 325.358 80.291,326.400 78.374,327.294 78.015 C 328.506 77.528,328.800 77.525,328.800 78.000 M332.643 78.629 C 332.785 79.195,332.737 79.823,332.535 80.025 C 332.314 80.246,332.175 79.958,332.185 79.295 C 332.194 78.626,332.005 78.239,331.700 78.300 C 331.425 78.355,330.975 78.445,330.700 78.500 C 330.425 78.555,330.088 78.754,329.950 78.943 C 329.813 79.131,329.581 79.093,329.436 78.858 C 329.281 78.607,329.716 78.273,330.486 78.051 C 332.376 77.506,332.360 77.502,332.643 78.629 M328.800 79.171 C 328.800 79.686,327.638 80.800,327.102 80.800 C 326.859 80.800,327.083 80.350,327.600 79.800 C 328.629 78.705,328.800 78.615,328.800 79.171 M289.964 342.520 C 289.388 343.950,287.919 345.493,286.643 346.009 C 285.987 346.274,285.951 346.355,286.481 346.375 C 287.610 346.417,289.009 345.603,289.758 344.470 C 290.147 343.881,290.361 343.730,290.233 344.133 C 290.105 344.536,290.000 345.028,290.000 345.227 C 290.000 345.947,287.112 346.820,285.643 346.544 L 284.213 346.276 285.789 345.730 C 287.884 345.005,289.112 343.788,289.687 341.866 C 289.948 340.996,290.233 340.499,290.321 340.762 C 290.408 341.025,290.248 341.817,289.964 342.520 M111.618 345.949 C 112.116 346.419,112.077 346.435,111.347 346.060 C 110.878 345.819,110.383 345.302,110.246 344.911 C 110.030 344.292,110.065 344.278,110.517 344.800 C 110.803 345.130,111.298 345.647,111.618 345.949 M113.597 345.742 C 114.848 346.268,114.858 346.292,113.943 346.537 C 112.615 346.892,112.046 346.810,113.000 346.400 C 113.652 346.120,113.675 346.051,113.124 346.028 C 112.752 346.013,112.336 345.820,112.200 345.600 C 111.876 345.076,112.057 345.094,113.597 345.742 " stroke="none" fill="#94ccfc" fill-rule="evenodd"/><path id="path1" d="M353.883 52.626 C 349.550 53.326,348.928 53.995,348.626 58.279 L 348.472 60.452 345.889 60.545 C 341.751 60.695,340.072 62.646,340.473 66.842 C 340.551 67.665,340.522 68.331,340.408 68.322 C 340.293 68.313,339.840 68.339,339.400 68.381 L 338.600 68.456 339.400 68.774 C 339.840 68.949,340.643 68.927,341.184 68.724 C 343.328 67.922,349.235 68.429,351.397 69.600 C 353.269 70.615,356.000 72.838,356.000 73.347 C 356.000 73.743,358.579 76.400,358.964 76.400 C 359.167 76.400,359.618 76.662,359.966 76.982 C 363.290 80.035,364.000 80.758,364.000 81.089 C 364.000 81.299,364.453 81.678,365.006 81.930 C 365.559 82.182,366.218 82.841,366.470 83.394 C 366.722 83.947,367.110 84.400,367.332 84.400 C 367.864 84.400,372.000 88.854,372.000 89.427 C 372.000 89.671,372.434 90.070,372.965 90.311 C 373.496 90.553,374.048 91.122,374.192 91.576 C 374.336 92.029,374.714 92.400,375.031 92.400 C 375.348 92.400,375.916 92.760,376.293 93.200 C 376.670 93.640,377.188 94.000,377.445 94.000 C 377.826 94.000,378.840 95.075,380.392 97.125 C 380.506 97.276,380.948 97.592,381.373 97.827 C 381.799 98.061,382.339 98.587,382.573 98.994 C 382.808 99.402,383.743 100.470,384.650 101.367 C 385.558 102.265,386.425 103.405,386.577 103.900 C 386.729 104.395,387.002 104.800,387.182 104.800 C 387.363 104.800,387.629 105.430,387.774 106.200 C 387.918 106.970,388.163 107.616,388.318 107.636 C 388.562 107.667,392.197 107.880,394.015 107.970 C 394.353 107.986,394.657 108.364,394.691 108.809 C 394.730 109.336,394.586 109.518,394.276 109.332 C 394.014 109.175,394.055 109.361,394.368 109.746 C 394.858 110.350,394.858 110.428,394.368 110.323 C 393.983 110.239,393.805 110.554,393.816 111.300 C 393.827 112.096,393.634 112.400,393.116 112.400 C 392.695 112.400,392.400 112.695,392.400 113.116 C 392.400 113.634,392.096 113.827,391.300 113.816 C 390.554 113.805,390.239 113.983,390.323 114.368 C 390.428 114.858,390.350 114.858,389.746 114.368 C 389.232 113.951,389.131 113.940,389.363 114.327 C 389.586 114.697,389.465 114.816,388.955 114.727 C 388.522 114.651,388.172 114.877,388.088 115.286 C 387.963 115.893,388.313 115.962,391.173 115.888 C 392.948 115.843,394.400 115.675,394.400 115.515 C 394.400 115.356,394.701 115.341,395.069 115.482 C 395.577 115.677,395.677 115.577,395.482 115.069 C 395.341 114.701,395.365 114.400,395.536 114.400 C 395.707 114.400,395.865 113.365,395.887 112.100 C 395.964 107.620,395.768 108.000,398.000 108.000 L 400.000 108.000 400.000 90.000 L 400.000 72.000 398.000 72.000 L 396.000 72.000 396.000 70.449 C 396.000 68.723,395.271 67.844,394.185 68.261 C 393.719 68.440,393.562 68.384,393.737 68.102 C 394.486 66.889,391.647 63.142,389.424 62.408 C 388.745 62.184,388.012 61.596,387.795 61.100 C 387.500 60.428,387.037 60.185,385.967 60.141 C 383.889 60.056,380.000 56.176,380.000 54.188 C 380.000 53.301,379.756 52.698,379.299 52.453 C 378.241 51.887,357.585 52.028,353.883 52.626 M334.001 70.198 C 333.486 70.748,333.139 71.248,333.232 71.311 C 333.324 71.374,333.884 70.924,334.474 70.312 C 335.065 69.701,335.412 69.200,335.244 69.200 C 335.077 69.200,334.517 69.649,334.001 70.198 M336.931 69.878 C 335.678 70.122,334.138 71.810,333.849 73.256 C 333.469 75.154,333.631 76.010,334.040 74.269 C 334.501 72.312,336.312 70.501,338.269 70.040 C 339.824 69.675,338.684 69.537,336.931 69.878 M328.900 76.676 C 329.285 76.776,329.600 77.025,329.600 77.229 C 329.600 77.433,330.050 77.600,330.600 77.600 C 332.014 77.600,331.843 76.949,330.350 76.650 C 328.953 76.371,327.810 76.391,328.900 76.676 M327.294 78.015 C 326.443 78.357,325.350 80.283,325.769 80.703 C 325.875 80.808,326.081 80.415,326.229 79.829 C 326.397 79.158,326.960 78.560,327.748 78.214 C 329.131 77.608,328.737 77.435,327.294 78.015 M324.652 81.750 C 324.733 82.383,324.800 83.058,324.800 83.250 C 324.800 83.442,324.980 83.600,325.200 83.600 C 325.420 83.600,325.600 83.150,325.600 82.600 C 325.600 82.050,325.433 81.600,325.229 81.600 C 325.025 81.600,324.779 81.375,324.681 81.100 C 324.583 80.825,324.570 81.118,324.652 81.750 M323.876 84.258 C 323.784 84.349,322.657 84.595,321.371 84.805 C 318.316 85.302,317.304 86.305,316.813 89.322 C 316.333 92.270,316.235 92.400,314.476 92.402 C 310.345 92.408,308.922 93.656,308.480 97.660 L 308.200 100.200 305.800 100.435 C 301.290 100.878,300.886 101.265,300.463 105.543 L 300.200 108.200 297.800 108.435 C 294.673 108.742,293.691 109.083,293.179 110.039 C 292.734 110.872,291.621 119.836,291.608 122.700 C 291.603 123.789,291.420 124.400,291.100 124.400 C 290.261 124.400,288.355 127.139,287.306 129.854 C 286.756 131.279,285.617 133.179,284.754 134.113 C 283.898 135.041,282.951 136.070,282.651 136.400 C 282.351 136.730,281.866 137.675,281.572 138.500 C 281.279 139.325,280.924 140.000,280.784 140.000 C 280.643 140.000,280.313 140.473,280.049 141.052 C 279.442 142.384,277.555 144.400,276.915 144.400 C 276.647 144.400,276.235 144.760,276.000 145.200 C 275.765 145.640,275.304 146.000,274.976 146.000 C 274.648 146.000,274.207 146.455,273.996 147.010 C 273.785 147.566,273.339 148.125,273.006 148.253 C 272.673 148.381,272.400 148.691,272.400 148.943 C 272.399 149.520,269.457 152.400,268.867 152.400 C 268.626 152.400,268.235 152.760,268.000 153.200 C 267.765 153.640,267.304 154.000,266.976 154.000 C 266.648 154.000,266.207 154.455,265.996 155.010 C 265.785 155.566,265.339 156.125,265.006 156.253 C 264.673 156.381,264.400 156.691,264.400 156.943 C 264.399 157.478,261.477 160.400,260.942 160.400 C 260.742 160.400,260.270 160.760,259.893 161.200 C 259.516 161.640,258.957 162.000,258.651 162.000 C 258.345 162.000,257.585 162.675,256.962 163.500 C 254.040 167.367,253.025 168.000,249.747 168.000 C 246.121 168.000,244.609 167.343,244.263 165.617 C 244.038 164.488,243.896 164.400,242.310 164.402 C 237.928 164.408,236.879 165.330,236.463 169.543 L 236.200 172.200 233.800 172.435 C 229.290 172.878,228.886 173.265,228.463 177.543 L 228.200 180.200 225.543 180.463 C 220.487 180.963,220.430 181.111,220.117 194.493 L 219.885 204.385 218.443 204.620 C 215.271 205.135,214.868 205.276,214.038 206.160 C 212.296 208.014,211.937 212.842,212.075 232.563 C 212.226 254.144,211.261 251.800,219.999 251.800 C 227.814 251.800,227.728 251.850,227.940 247.188 L 228.085 244.000 236.166 244.000 L 244.247 244.000 245.323 240.811 C 245.916 239.057,246.400 237.373,246.400 237.069 C 246.400 236.287,248.667 234.505,250.366 233.951 C 251.155 233.694,251.890 233.363,252.000 233.215 C 252.110 233.068,253.820 232.615,255.800 232.209 C 257.780 231.803,259.490 231.360,259.600 231.225 C 259.710 231.089,260.835 230.659,262.100 230.269 C 263.365 229.878,264.400 229.427,264.400 229.266 C 264.400 229.104,264.985 228.629,265.700 228.209 C 266.415 227.789,267.238 227.210,267.529 226.922 C 267.819 226.635,268.304 226.400,268.606 226.400 C 268.908 226.400,269.390 226.073,269.677 225.674 C 269.965 225.274,270.532 224.823,270.938 224.672 C 271.344 224.520,271.768 224.045,271.880 223.617 C 271.992 223.188,272.515 222.555,273.042 222.209 C 273.569 221.864,274.000 221.392,274.000 221.160 C 274.000 220.265,276.405 218.396,278.160 217.926 C 279.172 217.656,280.000 217.291,280.000 217.117 C 280.000 216.943,280.270 216.800,280.600 216.800 C 280.930 216.800,281.929 216.071,282.820 215.180 L 284.441 213.559 287.569 213.635 C 289.290 213.676,290.929 213.568,291.211 213.393 C 291.535 213.193,291.625 213.236,291.455 213.511 C 291.308 213.749,291.370 214.058,291.593 214.196 C 291.834 214.345,292.000 213.963,292.000 213.263 L 292.000 212.080 295.567 211.940 C 299.927 211.769,299.769 211.927,299.940 207.567 L 300.080 204.000 303.411 204.000 C 307.786 204.000,308.000 203.786,308.000 199.411 L 308.000 196.080 311.567 195.940 C 315.923 195.769,315.769 195.922,315.938 191.606 L 316.077 188.077 319.606 187.938 C 323.919 187.769,323.769 187.919,323.938 183.606 L 324.077 180.077 327.606 179.938 C 331.919 179.769,331.769 179.919,331.938 175.606 L 332.077 172.077 335.606 171.938 C 339.919 171.769,339.769 171.919,339.938 167.606 L 340.077 164.077 343.606 163.938 C 347.919 163.769,347.769 163.919,347.938 159.606 L 348.077 156.077 351.606 155.938 C 355.919 155.769,355.769 155.919,355.938 151.606 L 356.077 148.077 359.606 147.938 C 363.919 147.769,363.769 147.919,363.938 143.606 L 364.077 140.077 367.606 139.938 C 371.921 139.769,371.769 139.921,371.939 135.584 C 372.061 132.465,371.958 131.778,371.083 129.917 C 370.536 128.753,369.694 126.942,369.213 125.893 C 368.398 124.118,366.091 122.000,364.974 122.000 C 364.732 122.000,364.008 121.445,363.367 120.766 C 362.725 120.087,361.345 118.665,360.300 117.606 C 359.255 116.546,358.400 115.486,358.400 115.249 C 358.400 115.012,357.908 114.499,357.307 114.109 C 356.705 113.719,355.337 112.545,354.266 111.500 C 353.195 110.455,352.157 109.600,351.959 109.600 C 351.762 109.600,351.600 109.437,351.600 109.237 C 351.600 109.038,349.485 106.714,346.900 104.072 C 344.315 101.431,341.982 99.029,341.715 98.735 C 341.448 98.441,340.576 97.660,339.778 97.000 C 338.979 96.340,337.500 95.035,336.491 94.100 C 335.482 93.165,334.532 92.400,334.380 92.400 C 334.228 92.400,333.985 91.512,333.841 90.426 C 333.697 89.340,333.315 87.945,332.992 87.326 C 332.669 86.707,332.404 85.877,332.402 85.482 C 332.400 84.896,332.087 84.772,330.700 84.813 C 329.765 84.840,328.460 84.746,327.800 84.603 C 326.120 84.240,324.074 84.060,323.876 84.258 M394.800 113.207 C 395.268 113.515,395.180 113.580,394.400 113.501 C 393.552 113.415,393.414 113.552,393.495 114.400 C 393.578 115.279,393.538 115.312,393.163 114.679 C 392.444 113.464,393.605 112.420,394.800 113.207 " stroke="none" fill="#fca304" fill-rule="evenodd"/><path id="path2" d="" stroke="none" fill="#c8b0100" fill-rule="evenodd"/><path id="path3" d="" stroke="none" fill="#c8b0100" fill-rule="evenodd"/><path id="path4" d="" stroke="none" fill="#c8b0100" fill-rule="evenodd"/></g></svg>