<svg xmlns="http://www.w3.org/2000/svg" xmlns:xlink="http://www.w3.org/1999/xlink" id="svg" version="1.1" viewBox="54.2 54.19 291.82 291.83"><g id="svgg"><path id="path0" d="M193.400 144.841 C 191.860 145.027,189.925 145.393,189.100 145.654 L 187.600 146.128 187.600 166.864 L 187.600 187.600 166.864 187.600 L 146.128 187.600 145.662 189.100 C 144.053 194.282,144.076 206.469,145.704 211.100 L 146.161 212.400 166.880 212.400 L 187.600 212.400 187.600 233.200 L 187.600 254.000 166.800 254.000 L 146.000 254.000 146.000 255.120 C 146.000 255.736,145.845 256.411,145.656 256.620 C 144.105 258.334,144.113 272.637,145.668 277.700 L 146.128 279.200 166.864 279.200 L 187.600 279.200 187.600 300.000 L 187.600 320.800 166.800 320.800 C 144.557 320.800,145.670 320.709,145.953 322.500 C 145.979 322.665,145.858 322.800,145.685 322.800 C 145.512 322.800,145.327 323.385,145.274 324.100 C 145.221 324.815,145.007 326.480,144.798 327.800 C 144.589 329.120,144.418 333.755,144.418 338.100 L 144.419 346.000 243.833 346.000 C 310.007 346.000,343.165 345.866,343.000 345.600 C 342.864 345.380,342.943 345.200,343.176 345.200 C 343.409 345.200,343.600 345.380,343.600 345.600 C 343.600 346.194,344.773 346.084,345.429 345.429 C 346.084 344.773,346.194 343.600,345.600 343.600 C 345.380 343.600,345.200 343.409,345.200 343.176 C 345.200 342.943,345.380 342.864,345.600 343.000 C 345.866 343.165,346.000 310.007,346.000 243.833 L 346.000 144.419 338.100 144.418 C 333.755 144.418,329.120 144.589,327.800 144.798 C 326.480 145.007,324.815 145.221,324.100 145.274 C 323.385 145.327,322.800 145.512,322.800 145.685 C 322.800 145.858,322.665 145.979,322.500 145.953 C 320.709 145.670,320.800 144.557,320.800 166.800 L 320.800 187.600 300.000 187.600 L 279.200 187.600 279.200 166.864 L 279.200 146.128 277.700 145.668 C 272.637 144.113,258.334 144.105,256.620 145.656 C 256.411 145.845,255.736 146.000,255.120 146.000 L 254.000 146.000 254.000 166.800 L 254.000 187.600 233.200 187.600 L 212.400 187.600 212.400 166.880 L 212.400 146.161 211.100 145.704 C 207.703 144.510,199.450 144.107,193.400 144.841 M254.000 233.200 L 254.000 254.000 233.200 254.000 L 212.400 254.000 212.400 233.200 L 212.400 212.400 233.200 212.400 L 254.000 212.400 254.000 233.200 M320.800 233.200 L 320.800 254.000 300.000 254.000 L 279.200 254.000 279.200 233.200 L 279.200 212.400 300.000 212.400 L 320.800 212.400 320.800 233.200 M254.000 300.000 L 254.000 320.800 233.200 320.800 L 212.400 320.800 212.400 300.000 L 212.400 279.200 233.200 279.200 L 254.000 279.200 254.000 300.000 M320.800 300.000 L 320.800 320.800 300.000 320.800 L 279.200 320.800 279.200 300.000 L 279.200 279.200 300.000 279.200 L 320.800 279.200 320.800 300.000 " stroke="none" fill="#94ccfc" fill-rule="evenodd"/><path id="path1" d="M130.500 54.300 C 168.725 54.356,231.275 54.356,269.500 54.300 C 307.725 54.244,276.450 54.198,200.000 54.198 C 123.550 54.198,92.275 54.244,130.500 54.300 M54.198 200.000 C 54.198 276.450,54.244 307.725,54.300 269.500 C 54.356 231.275,54.356 168.725,54.300 130.500 C 54.244 92.275,54.198 123.550,54.198 200.000 M77.440 77.440 L 76.000 78.880 76.000 100.293 L 76.000 121.706 77.428 123.053 L 78.857 124.400 100.328 124.396 L 121.800 124.391 123.100 123.053 L 124.400 121.715 124.400 100.286 L 124.400 78.857 123.053 77.428 L 121.706 76.000 100.293 76.000 L 78.880 76.000 77.440 77.440 M144.100 77.448 L 142.800 78.874 142.800 100.295 L 142.800 121.715 144.100 123.053 L 145.400 124.391 166.872 124.396 L 188.343 124.400 189.772 123.053 L 191.200 121.706 191.200 100.293 L 191.200 78.880 189.760 77.440 L 188.320 76.000 166.860 76.010 L 145.400 76.021 144.100 77.448 M210.700 77.584 L 209.200 79.153 209.200 100.377 L 209.200 121.602 210.683 123.001 L 212.167 124.400 233.600 124.400 L 255.033 124.400 256.517 123.001 L 258.000 121.602 258.000 100.369 L 258.000 79.137 256.462 77.569 L 254.925 76.000 233.562 76.007 L 212.200 76.014 210.700 77.584 M277.440 77.440 L 276.000 78.880 276.000 100.293 L 276.000 121.706 277.428 123.053 L 278.857 124.400 300.328 124.396 L 321.800 124.391 323.100 123.053 L 324.400 121.715 324.400 100.286 L 324.400 78.857 323.053 77.428 L 321.706 76.000 300.293 76.000 L 278.880 76.000 277.440 77.440 M77.428 144.147 L 76.000 145.494 76.000 166.907 L 76.000 188.320 77.440 189.760 L 78.880 191.200 100.293 191.200 L 121.706 191.200 123.053 189.772 L 124.400 188.343 124.396 166.872 L 124.391 145.400 123.053 144.100 L 121.715 142.800 100.286 142.800 L 78.857 142.800 77.428 144.147 M77.500 210.761 L 76.000 212.283 76.000 233.604 L 76.000 254.925 77.569 256.462 L 79.137 258.000 100.369 258.000 L 121.602 258.000 123.001 256.517 L 124.400 255.033 124.400 233.600 L 124.400 212.167 123.001 210.683 L 121.602 209.200 100.301 209.220 L 79.000 209.240 77.500 210.761 M77.440 277.440 L 76.000 278.880 76.000 300.293 L 76.000 321.706 77.428 323.053 L 78.857 324.400 100.328 324.396 L 121.800 324.391 123.100 323.053 L 124.400 321.715 124.400 300.286 L 124.400 278.857 123.053 277.428 L 121.706 276.000 100.293 276.000 L 78.880 276.000 77.440 277.440 " stroke="none" fill="#04bcd4" fill-rule="evenodd"/><path id="path2" d="M58.189 54.344 C 58.110 54.424,57.252 54.499,56.284 54.512 L 54.523 54.536 54.490 56.068 C 54.175 70.714,54.501 345.585,54.834 345.379 C 55.005 345.273,55.258 345.370,55.396 345.593 C 55.665 346.029,137.414 346.200,138.541 345.767 C 139.055 345.570,139.153 344.228,139.184 336.939 C 139.218 328.941,139.647 324.400,140.369 324.400 C 140.535 324.400,140.871 323.963,141.114 323.429 C 141.545 322.483,143.388 321.389,145.000 321.122 C 145.787 320.991,145.802 320.638,145.904 300.130 L 146.007 279.272 144.404 279.001 C 143.522 278.852,142.800 278.594,142.800 278.429 C 142.800 278.264,142.350 277.923,141.800 277.673 C 141.250 277.422,140.800 276.958,140.800 276.642 C 140.800 276.326,140.603 276.001,140.362 275.921 C 138.862 275.421,138.780 259.135,140.272 258.041 C 140.453 257.909,140.868 257.283,141.194 256.652 C 141.520 256.020,141.970 255.444,142.194 255.371 C 142.417 255.299,143.365 255.044,144.300 254.804 L 146.000 254.369 146.000 233.420 L 146.000 212.470 144.412 212.202 C 142.683 211.910,140.800 210.660,140.800 209.804 C 140.800 209.509,140.603 209.201,140.362 209.121 C 139.325 208.775,138.758 197.466,139.568 193.274 C 140.049 190.787,141.868 188.720,144.143 188.078 L 146.000 187.554 146.000 166.777 L 146.000 146.000 166.777 146.000 L 187.554 146.000 188.078 144.143 C 188.720 141.868,190.787 140.049,193.274 139.568 C 197.466 138.758,208.775 139.325,209.121 140.362 C 209.201 140.603,209.509 140.800,209.804 140.800 C 210.660 140.800,211.910 142.683,212.202 144.412 L 212.470 146.000 233.420 146.000 L 254.369 146.000 254.804 144.300 C 255.044 143.365,255.299 142.417,255.371 142.194 C 255.444 141.970,256.020 141.520,256.652 141.194 C 257.283 140.868,257.909 140.453,258.041 140.272 C 259.135 138.780,275.421 138.862,275.921 140.362 C 276.001 140.603,276.326 140.800,276.642 140.800 C 276.958 140.800,277.422 141.250,277.673 141.800 C 277.923 142.350,278.264 142.800,278.429 142.800 C 278.594 142.800,278.852 143.522,279.001 144.404 L 279.272 146.007 300.130 145.904 C 320.638 145.802,320.991 145.787,321.122 145.000 C 321.389 143.388,322.483 141.545,323.429 141.114 C 323.963 140.871,324.400 140.535,324.400 140.369 C 324.400 139.647,328.941 139.218,336.939 139.184 C 344.228 139.153,345.570 139.055,345.767 138.541 C 346.200 137.414,346.029 55.665,345.593 55.396 C 345.370 55.258,345.271 55.008,345.375 54.841 C 345.632 54.424,58.606 53.928,58.189 54.344 M122.400 74.781 C 122.400 74.991,122.985 75.442,123.700 75.783 C 126.029 76.896,126.000 76.585,126.000 100.285 C 126.000 122.796,126.005 122.728,124.366 124.366 C 122.728 126.005,122.796 126.000,100.285 126.000 C 76.585 126.000,76.896 126.029,75.783 123.700 C 75.442 122.985,74.991 122.400,74.781 122.400 C 74.544 122.400,74.400 114.005,74.400 100.200 C 74.400 85.309,74.535 78.000,74.810 78.000 C 75.035 78.000,75.392 77.547,75.603 76.993 C 75.813 76.439,76.439 75.813,76.993 75.603 C 77.547 75.392,78.000 75.035,78.000 74.810 C 78.000 74.535,85.309 74.400,100.200 74.400 C 114.005 74.400,122.400 74.544,122.400 74.781 M189.200 74.810 C 189.200 75.035,189.653 75.392,190.207 75.603 C 190.761 75.813,191.387 76.439,191.597 76.993 C 191.808 77.547,192.165 78.000,192.390 78.000 C 192.665 78.000,192.800 85.309,192.800 100.200 C 192.800 114.005,192.656 122.400,192.419 122.400 C 192.209 122.400,191.758 122.985,191.417 123.700 C 190.304 126.029,190.615 126.000,166.915 126.000 C 144.404 126.000,144.472 126.005,142.834 124.366 C 141.195 122.728,141.200 122.796,141.200 100.285 C 141.200 76.585,141.171 76.896,143.500 75.783 C 144.215 75.442,144.800 74.991,144.800 74.781 C 144.800 74.544,153.195 74.400,167.000 74.400 C 181.891 74.400,189.200 74.535,189.200 74.810 M255.600 74.751 C 255.600 74.945,256.137 75.325,256.794 75.597 C 259.223 76.604,259.200 76.371,259.200 100.216 C 259.200 124.461,259.275 123.847,256.118 125.537 C 254.887 126.195,212.313 126.195,211.082 125.537 C 207.925 123.847,208.000 124.461,208.000 100.216 C 208.000 76.371,207.977 76.604,210.406 75.597 C 211.063 75.325,211.600 74.945,211.600 74.751 C 211.600 74.554,221.225 74.400,233.600 74.400 C 245.975 74.400,255.600 74.554,255.600 74.751 M322.400 74.781 C 322.400 74.991,322.985 75.442,323.700 75.783 C 326.029 76.896,326.000 76.585,326.000 100.285 C 326.000 122.796,326.005 122.728,324.366 124.366 C 322.728 126.005,322.796 126.000,300.285 126.000 C 276.585 126.000,276.896 126.029,275.783 123.700 C 275.442 122.985,274.991 122.400,274.781 122.400 C 274.544 122.400,274.400 114.005,274.400 100.200 C 274.400 85.309,274.535 78.000,274.810 78.000 C 275.035 78.000,275.392 77.547,275.603 76.993 C 275.813 76.439,276.439 75.813,276.993 75.603 C 277.547 75.392,278.000 75.035,278.000 74.810 C 278.000 74.535,285.309 74.400,300.200 74.400 C 314.005 74.400,322.400 74.544,322.400 74.781 M122.872 141.700 C 123.966 142.336,124.864 143.234,125.500 144.328 C 126.224 145.574,126.224 188.158,125.500 189.718 C 125.225 190.311,124.415 191.075,123.700 191.417 C 122.985 191.758,122.400 192.209,122.400 192.419 C 122.400 192.656,114.005 192.800,100.200 192.800 C 85.309 192.800,78.000 192.665,78.000 192.390 C 78.000 192.165,77.547 191.808,76.993 191.597 C 76.439 191.387,75.813 190.761,75.603 190.207 C 75.392 189.653,75.035 189.200,74.810 189.200 C 74.535 189.200,74.400 181.891,74.400 167.000 C 74.400 153.195,74.544 144.800,74.781 144.800 C 74.991 144.800,75.441 144.213,75.782 143.495 C 76.123 142.777,76.806 141.989,77.301 141.744 C 78.667 141.067,121.711 141.026,122.872 141.700 M122.894 208.511 C 124.100 209.137,124.926 209.940,125.537 211.082 C 126.195 212.313,126.195 254.887,125.537 256.118 C 123.847 259.275,124.461 259.200,100.216 259.200 C 76.371 259.200,76.604 259.223,75.597 256.794 C 75.325 256.137,74.945 255.600,74.751 255.600 C 74.554 255.600,74.400 245.975,74.400 233.600 C 74.400 221.225,74.554 211.600,74.751 211.600 C 74.945 211.600,75.327 211.059,75.601 210.398 C 76.573 208.052,76.189 208.089,100.054 208.042 C 117.084 208.009,122.126 208.113,122.894 208.511 M122.400 274.781 C 122.400 274.991,122.985 275.442,123.700 275.783 C 126.029 276.896,126.000 276.585,126.000 300.285 C 126.000 322.796,126.005 322.728,124.366 324.366 C 122.728 326.005,122.796 326.000,100.285 326.000 C 76.585 326.000,76.896 326.029,75.783 323.700 C 75.442 322.985,74.991 322.400,74.781 322.400 C 74.544 322.400,74.400 314.005,74.400 300.200 C 74.400 285.309,74.535 278.000,74.810 278.000 C 75.035 278.000,75.392 277.547,75.603 276.993 C 75.813 276.439,76.439 275.813,76.993 275.603 C 77.547 275.392,78.000 275.035,78.000 274.810 C 78.000 274.535,85.309 274.400,100.200 274.400 C 114.005 274.400,122.400 274.544,122.400 274.781 " stroke="none" fill="#0494a4" fill-rule="evenodd"/><path id="path3" d="" stroke="none" fill="#74b0100" fill-rule="evenodd"/><path id="path4" d="M78.000 74.810 C 78.000 75.035,77.547 75.392,76.993 75.603 C 76.439 75.813,75.813 76.439,75.603 76.993 C 75.392 77.547,75.035 78.000,74.810 78.000 C 74.535 78.000,74.400 85.309,74.400 100.200 C 74.400 114.005,74.544 122.400,74.781 122.400 C 74.991 122.400,75.442 122.985,75.783 123.700 C 76.896 126.029,76.585 126.000,100.285 126.000 C 122.796 126.000,122.728 126.005,124.366 124.366 C 126.005 122.728,126.000 122.796,126.000 100.285 C 126.000 76.585,126.029 76.896,123.700 75.783 C 122.985 75.442,122.400 74.991,122.400 74.781 C 122.400 74.544,114.005 74.400,100.200 74.400 C 85.309 74.400,78.000 74.535,78.000 74.810 M144.800 74.781 C 144.800 74.991,144.215 75.442,143.500 75.783 C 141.171 76.896,141.200 76.585,141.200 100.285 C 141.200 122.796,141.195 122.728,142.834 124.366 C 144.472 126.005,144.404 126.000,166.915 126.000 C 190.615 126.000,190.304 126.029,191.417 123.700 C 191.758 122.985,192.209 122.400,192.419 122.400 C 192.656 122.400,192.800 114.005,192.800 100.200 C 192.800 85.309,192.665 78.000,192.390 78.000 C 192.165 78.000,191.808 77.547,191.597 76.993 C 191.387 76.439,190.761 75.813,190.207 75.603 C 189.653 75.392,189.200 75.035,189.200 74.810 C 189.200 74.535,181.891 74.400,167.000 74.400 C 153.195 74.400,144.800 74.544,144.800 74.781 M211.600 74.751 C 211.600 74.945,211.063 75.325,210.406 75.597 C 207.977 76.604,208.000 76.371,208.000 100.216 C 208.000 124.461,207.925 123.847,211.082 125.537 C 212.313 126.195,254.887 126.195,256.118 125.537 C 259.275 123.847,259.200 124.461,259.200 100.216 C 259.200 76.371,259.223 76.604,256.794 75.597 C 256.137 75.325,255.600 74.945,255.600 74.751 C 255.600 74.554,245.975 74.400,233.600 74.400 C 221.225 74.400,211.600 74.554,211.600 74.751 M278.000 74.810 C 278.000 75.035,277.547 75.392,276.993 75.603 C 276.439 75.813,275.813 76.439,275.603 76.993 C 275.392 77.547,275.035 78.000,274.810 78.000 C 274.535 78.000,274.400 85.309,274.400 100.200 C 274.400 114.005,274.544 122.400,274.781 122.400 C 274.991 122.400,275.442 122.985,275.783 123.700 C 276.896 126.029,276.585 126.000,300.285 126.000 C 322.796 126.000,322.728 126.005,324.366 124.366 C 326.005 122.728,326.000 122.796,326.000 100.285 C 326.000 76.585,326.029 76.896,323.700 75.783 C 322.985 75.442,322.400 74.991,322.400 74.781 C 322.400 74.544,314.005 74.400,300.200 74.400 C 285.309 74.400,278.000 74.535,278.000 74.810 M123.053 77.428 L 124.400 78.857 124.400 100.286 L 124.400 121.715 123.100 123.053 L 121.800 124.391 100.328 124.396 L 78.857 124.400 77.428 123.053 L 76.000 121.706 76.000 100.293 L 76.000 78.880 77.440 77.440 L 78.880 76.000 100.293 76.000 L 121.706 76.000 123.053 77.428 M189.760 77.440 L 191.200 78.880 191.200 100.293 L 191.200 121.706 189.772 123.053 L 188.343 124.400 166.872 124.396 L 145.400 124.391 144.100 123.053 L 142.800 121.715 142.800 100.295 L 142.800 78.874 144.100 77.448 L 145.400 76.021 166.860 76.010 L 188.320 76.000 189.760 77.440 M256.462 77.569 L 258.000 79.137 258.000 100.369 L 258.000 121.602 256.517 123.001 L 255.033 124.400 233.600 124.400 L 212.167 124.400 210.683 123.001 L 209.200 121.602 209.200 100.377 L 209.200 79.153 210.700 77.584 L 212.200 76.014 233.562 76.007 L 254.925 76.000 256.462 77.569 M323.053 77.428 L 324.400 78.857 324.400 100.286 L 324.400 121.715 323.100 123.053 L 321.800 124.391 300.328 124.396 L 278.857 124.400 277.428 123.053 L 276.000 121.706 276.000 100.293 L 276.000 78.880 277.440 77.440 L 278.880 76.000 300.293 76.000 L 321.706 76.000 323.053 77.428 M345.667 138.674 C 345.618 139.020,343.290 139.157,336.971 139.184 C 328.945 139.218,324.400 139.646,324.400 140.369 C 324.400 140.535,323.963 140.871,323.429 141.114 C 322.501 141.537,321.496 143.229,321.089 145.056 L 320.898 145.912 322.749 145.138 C 323.767 144.712,324.890 144.206,325.245 144.013 C 326.881 143.123,331.015 142.755,338.050 142.874 C 344.179 142.978,345.462 142.904,345.291 142.460 C 345.177 142.162,345.302 141.784,345.569 141.619 C 345.866 141.436,345.993 140.711,345.895 139.759 C 345.807 138.902,345.704 138.413,345.667 138.674 M193.126 139.579 C 191.394 139.916,188.885 141.713,188.434 142.939 C 187.589 145.236,187.546 146.037,188.290 145.638 C 192.512 143.373,196.143 142.636,201.897 142.878 C 206.156 143.057,207.117 143.305,210.943 145.211 L 212.485 145.980 212.213 144.490 C 211.890 142.721,211.014 141.253,210.077 140.908 C 209.705 140.771,209.287 140.490,209.149 140.284 C 208.504 139.326,197.025 138.820,193.126 139.579 M259.648 139.601 C 258.905 139.777,258.185 140.073,258.048 140.260 C 257.912 140.447,257.265 140.901,256.610 141.268 C 255.956 141.636,255.310 142.356,255.175 142.868 C 255.040 143.381,254.811 144.278,254.667 144.863 L 254.403 145.926 256.102 145.148 C 257.036 144.721,258.090 144.211,258.445 144.016 C 259.977 143.175,264.229 142.699,268.516 142.888 C 272.956 143.085,274.475 143.483,278.146 145.413 L 279.292 146.016 279.009 144.509 C 278.854 143.680,278.590 142.911,278.423 142.801 C 278.256 142.690,277.906 142.195,277.646 141.700 C 277.385 141.205,276.923 140.800,276.619 140.800 C 276.315 140.800,276.001 140.603,275.921 140.362 C 275.578 139.334,263.225 138.757,259.648 139.601 M77.301 141.744 C 76.806 141.989,76.123 142.777,75.782 143.495 C 75.441 144.213,74.991 144.800,74.781 144.800 C 74.544 144.800,74.400 153.195,74.400 167.000 C 74.400 181.891,74.535 189.200,74.810 189.200 C 75.035 189.200,75.392 189.653,75.603 190.207 C 75.813 190.761,76.439 191.387,76.993 191.597 C 77.547 191.808,78.000 192.165,78.000 192.390 C 78.000 192.665,85.309 192.800,100.200 192.800 C 114.005 192.800,122.400 192.656,122.400 192.419 C 122.400 192.209,122.985 191.758,123.700 191.417 C 124.415 191.075,125.225 190.311,125.500 189.718 C 126.224 188.158,126.224 145.574,125.500 144.328 C 124.864 143.234,123.966 142.336,122.872 141.700 C 121.711 141.026,78.667 141.067,77.301 141.744 M123.053 144.100 L 124.391 145.400 124.396 166.872 L 124.400 188.343 123.053 189.772 L 121.706 191.200 100.293 191.200 L 78.880 191.200 77.440 189.760 L 76.000 188.320 76.000 166.907 L 76.000 145.494 77.428 144.147 L 78.857 142.800 100.286 142.800 L 121.715 142.800 123.053 144.100 M143.844 188.131 C 141.880 188.724,140.014 190.969,139.568 193.274 C 138.795 197.275,139.301 208.488,140.284 209.149 C 140.490 209.287,140.771 209.705,140.908 210.077 C 141.253 211.014,142.721 211.890,144.490 212.213 L 145.980 212.485 145.211 210.943 C 143.305 207.117,143.057 206.156,142.878 201.897 C 142.636 196.148,143.370 192.526,145.632 188.300 C 146.061 187.500,145.966 187.491,143.844 188.131 M77.149 208.641 C 76.571 208.946,75.875 209.737,75.601 210.398 C 75.327 211.059,74.945 211.600,74.751 211.600 C 74.554 211.600,74.400 221.225,74.400 233.600 C 74.400 245.975,74.554 255.600,74.751 255.600 C 74.945 255.600,75.325 256.137,75.597 256.794 C 76.604 259.223,76.371 259.200,100.216 259.200 C 124.461 259.200,123.847 259.275,125.537 256.118 C 126.195 254.887,126.195 212.313,125.537 211.082 C 124.926 209.940,124.100 209.137,122.894 208.511 C 121.393 207.733,78.637 207.853,77.149 208.641 M123.001 210.683 L 124.400 212.167 124.400 233.600 L 124.400 255.033 123.001 256.517 L 121.602 258.000 100.369 258.000 L 79.137 258.000 77.569 256.462 L 76.000 254.925 76.000 233.604 L 76.000 212.283 77.500 210.761 L 79.000 209.240 100.301 209.220 L 121.602 209.200 123.001 210.683 M143.674 254.940 C 142.436 255.272,141.758 255.741,141.274 256.601 C 140.903 257.260,140.452 257.909,140.271 258.041 C 138.779 259.137,138.863 275.421,140.362 275.921 C 140.603 276.001,140.800 276.315,140.800 276.619 C 140.800 276.923,141.205 277.385,141.700 277.646 C 142.195 277.906,142.690 278.256,142.801 278.423 C 142.911 278.590,143.680 278.854,144.509 279.009 L 146.016 279.292 145.413 278.146 C 143.483 274.475,143.085 272.956,142.888 268.516 C 142.699 264.229,143.175 259.977,144.016 258.445 C 144.906 256.825,145.902 254.404,145.664 254.439 C 145.519 254.461,144.623 254.686,143.674 254.940 M78.000 274.810 C 78.000 275.035,77.547 275.392,76.993 275.603 C 76.439 275.813,75.813 276.439,75.603 276.993 C 75.392 277.547,75.035 278.000,74.810 278.000 C 74.535 278.000,74.400 285.309,74.400 300.200 C 74.400 314.005,74.544 322.400,74.781 322.400 C 74.991 322.400,75.442 322.985,75.783 323.700 C 76.896 326.029,76.585 326.000,100.285 326.000 C 122.796 326.000,122.728 326.005,124.366 324.366 C 126.005 322.728,126.000 322.796,126.000 300.285 C 126.000 276.585,126.029 276.896,123.700 275.783 C 122.985 275.442,122.400 274.991,122.400 274.781 C 122.400 274.544,114.005 274.400,100.200 274.400 C 85.309 274.400,78.000 274.535,78.000 274.810 M123.053 277.428 L 124.400 278.857 124.400 300.286 L 124.400 321.715 123.100 323.053 L 121.800 324.391 100.328 324.396 L 78.857 324.400 77.428 323.053 L 76.000 321.706 76.000 300.293 L 76.000 278.880 77.440 277.440 L 78.880 276.000 100.293 276.000 L 121.706 276.000 123.053 277.428 M145.000 321.074 C 143.247 321.470,141.533 322.508,141.114 323.429 C 140.871 323.963,140.535 324.400,140.369 324.400 C 139.647 324.400,139.218 328.942,139.184 336.947 C 139.158 343.171,139.016 345.604,138.674 345.744 C 138.413 345.850,138.965 345.951,139.900 345.968 C 140.904 345.987,141.600 345.817,141.600 345.553 C 141.600 345.308,141.915 345.189,142.300 345.290 C 142.951 345.461,142.991 344.957,142.874 338.037 C 142.755 331.015,143.123 326.881,144.013 325.245 C 144.412 324.511,145.996 320.776,145.878 320.846 C 145.835 320.872,145.440 320.974,145.000 321.074 " stroke="none" fill="#2cb0b8" fill-rule="evenodd"/></g></svg>