<svg xmlns="http://www.w3.org/2000/svg" xmlns:xlink="http://www.w3.org/1999/xlink" id="svg" version="1.1" viewBox="112.4 37.62 287.6 362.38"><g id="svgg"><path id="path0" d="M125.500 38.012 C 126.940 38.591,126.548 38.724,124.518 38.345 C 121.971 37.869,121.424 38.447,121.325 41.714 C 121.235 44.678,120.696 46.643,120.016 46.487 C 119.155 46.290,116.168 46.087,116.900 46.276 C 117.285 46.375,117.597 46.758,117.594 47.128 C 117.590 47.550,117.478 47.635,117.294 47.358 C 116.788 46.596,114.173 46.309,113.636 46.957 C 112.673 48.117,112.598 50.400,113.524 50.400 C 113.980 50.400,114.467 50.584,114.606 50.810 C 114.745 51.035,114.711 51.194,114.530 51.163 C 113.610 51.003,113.208 51.285,113.194 52.100 C 113.160 54.099,112.984 55.200,112.700 55.200 C 112.535 55.200,112.400 55.560,112.400 56.000 C 112.400 56.440,112.551 56.800,112.737 56.800 C 112.922 56.800,112.933 57.655,112.761 58.700 C 112.363 61.125,112.359 338.690,112.757 341.491 C 112.930 342.709,112.899 343.634,112.683 343.706 C 112.460 343.780,112.493 344.995,112.766 346.757 C 113.016 348.367,113.116 350.251,112.988 350.942 C 112.586 353.117,113.453 353.771,116.862 353.867 C 118.478 353.913,120.005 353.961,120.257 353.975 C 120.799 354.005,121.361 355.822,121.230 357.121 C 121.179 357.628,121.307 358.258,121.513 358.521 C 121.950 359.077,122.509 361.200,122.219 361.200 C 122.111 361.200,121.854 360.615,121.648 359.900 C 121.380 358.973,121.262 358.845,121.236 359.456 C 121.216 359.926,121.544 360.736,121.965 361.256 L 122.729 362.200 180.338 362.312 L 237.947 362.423 238.213 360.512 C 238.359 359.460,238.516 358.290,238.562 357.910 C 238.608 357.531,238.771 357.096,238.923 356.944 C 239.431 356.436,239.208 353.951,238.600 353.343 C 238.270 353.013,238.000 352.396,238.000 351.971 C 238.000 351.547,237.730 351.200,237.400 351.200 C 237.070 351.200,236.800 351.050,236.800 350.868 C 236.800 350.685,236.370 350.305,235.844 350.024 C 235.318 349.742,234.643 349.037,234.344 348.456 C 234.045 347.875,233.591 347.179,233.336 346.908 C 233.082 346.637,232.751 345.692,232.601 344.808 C 232.452 343.924,232.182 343.200,232.001 343.200 C 231.820 343.200,231.566 341.715,231.438 339.900 C 230.623 328.432,230.369 325.650,230.022 324.400 C 229.808 323.630,229.533 322.505,229.409 321.900 L 229.185 320.800 191.592 320.800 L 154.000 320.800 154.000 200.000 L 154.000 79.200 199.999 79.200 L 245.998 79.200 246.099 167.700 L 246.200 256.200 250.283 256.314 L 254.367 256.428 255.559 255.180 C 256.215 254.494,256.863 253.423,257.000 252.800 C 257.137 252.177,257.508 251.567,257.824 251.446 C 258.141 251.324,258.400 250.949,258.400 250.613 C 258.400 250.276,258.552 250.000,258.739 250.000 C 258.925 250.000,259.493 249.640,260.000 249.200 C 260.507 248.760,261.441 248.400,262.074 248.400 C 262.725 248.400,263.324 248.141,263.454 247.804 C 263.580 247.476,264.371 247.001,265.212 246.749 C 266.235 246.443,266.813 246.002,266.960 245.415 C 267.284 244.125,269.182 242.306,271.109 241.439 C 272.039 241.021,272.800 240.551,272.800 240.394 C 272.800 240.055,276.858 239.200,278.467 239.200 C 279.090 239.200,279.600 239.040,279.600 238.843 C 279.600 238.647,280.050 238.374,280.600 238.236 C 281.331 238.052,281.600 237.717,281.600 236.992 C 281.600 236.447,281.752 236.000,281.937 236.000 C 282.122 236.000,282.484 235.299,282.740 234.441 C 282.997 233.584,283.476 232.780,283.804 232.654 C 284.132 232.528,284.400 232.161,284.400 231.838 C 284.400 231.515,285.123 230.845,286.006 230.348 L 287.612 229.446 287.593 140.323 C 287.583 91.305,287.445 51.200,287.287 51.200 C 287.129 51.200,287.000 50.396,287.000 49.414 C 287.000 47.337,286.092 46.105,284.931 46.607 C 284.529 46.781,283.874 46.882,283.476 46.832 C 283.078 46.782,282.448 46.980,282.076 47.271 C 281.474 47.742,281.458 47.726,281.929 47.124 C 282.220 46.752,282.850 46.372,283.329 46.278 C 284.108 46.127,284.094 46.104,283.200 46.064 C 282.650 46.039,281.564 46.167,280.787 46.348 C 279.048 46.752,278.129 46.054,278.785 44.827 C 279.280 43.904,279.339 41.600,278.869 41.600 C 278.687 41.600,278.614 41.089,278.705 40.465 C 278.923 38.980,277.895 37.911,276.571 38.243 C 275.941 38.401,275.600 38.316,275.600 38.000 C 275.600 37.657,275.155 37.590,274.100 37.772 C 273.275 37.915,272.240 38.006,271.800 37.973 C 269.275 37.787,130.841 37.620,130.084 37.803 C 129.527 37.937,129.278 38.203,129.450 38.481 C 129.605 38.732,129.303 38.637,128.777 38.269 C 128.246 37.897,127.108 37.611,126.211 37.625 C 124.842 37.647,124.735 37.705,125.500 38.012 M123.111 38.949 C 122.732 39.237,122.248 39.906,122.036 40.436 C 121.666 41.362,121.650 41.366,121.625 40.529 C 121.598 39.590,122.562 38.392,123.329 38.413 C 123.588 38.420,123.490 38.661,123.111 38.949 M114.615 47.442 C 114.221 47.836,114.065 48.416,114.213 48.942 C 114.388 49.569,114.348 49.649,114.067 49.242 C 113.753 48.787,113.645 48.825,113.487 49.442 C 113.307 50.145,113.289 50.141,113.246 49.389 C 113.194 48.475,114.233 46.800,114.851 46.800 C 115.074 46.800,114.968 47.089,114.615 47.442 " stroke="none" fill="#94ccfb" fill-rule="evenodd"/><path id="path1" d="M287.298 230.493 C 287.040 231.212,286.622 233.150,286.369 234.800 C 285.823 238.351,284.530 240.473,282.300 241.478 C 281.475 241.850,280.800 242.271,280.800 242.413 C 280.800 242.555,280.089 242.906,279.221 243.193 C 278.352 243.480,277.548 243.959,277.433 244.257 C 277.319 244.556,277.025 244.800,276.781 244.800 C 276.537 244.800,275.527 245.610,274.536 246.600 C 273.546 247.591,272.300 248.510,271.768 248.644 C 271.236 248.777,270.800 249.047,270.800 249.243 C 270.800 249.440,270.564 249.600,270.275 249.600 C 269.987 249.600,269.402 249.915,268.975 250.300 C 268.549 250.685,267.665 251.270,267.012 251.600 C 265.216 252.508,262.351 255.130,259.200 258.753 C 258.430 259.639,257.620 260.375,257.400 260.388 C 257.180 260.402,256.588 260.849,256.084 261.380 C 255.175 262.339,248.800 263.043,246.956 262.387 C 246.149 262.101,238.542 262.914,238.129 263.331 C 237.948 263.514,237.710 265.404,237.600 267.531 L 237.400 271.400 235.190 271.638 C 229.423 272.258,229.217 273.273,229.207 301.042 L 229.200 320.684 230.957 322.492 C 231.924 323.486,232.836 324.682,232.984 325.150 C 233.132 325.617,233.402 326.000,233.583 326.000 C 233.764 326.000,234.151 326.810,234.443 327.800 C 234.735 328.790,235.115 329.600,235.287 329.600 C 235.459 329.600,235.600 330.116,235.600 330.748 C 235.600 332.931,236.819 338.876,237.382 339.439 C 237.693 339.750,238.062 340.364,238.201 340.802 C 238.340 341.241,238.602 341.600,238.783 341.600 C 238.964 341.600,239.351 342.410,239.643 343.400 C 239.935 344.390,240.296 345.200,240.444 345.200 C 240.593 345.200,241.031 346.505,241.418 348.100 C 241.805 349.695,242.308 351.121,242.536 351.270 C 243.236 351.726,243.083 357.227,242.326 358.800 C 241.366 360.795,240.125 361.995,238.733 362.273 L 237.527 362.515 237.663 366.225 C 237.830 370.752,237.604 370.528,242.216 370.730 L 246.000 370.895 246.000 374.860 C 246.000 378.032,246.121 378.872,246.606 379.057 C 246.939 379.185,247.413 380.090,247.659 381.067 C 248.218 383.289,249.936 385.045,252.121 385.629 C 253.044 385.876,254.122 386.420,254.516 386.839 C 255.114 387.476,255.809 387.600,258.764 387.600 L 262.297 387.600 262.578 391.198 C 262.936 395.775,263.195 396.000,268.089 396.000 L 271.600 396.000 271.600 398.000 L 271.600 400.000 316.800 400.000 L 362.000 400.000 362.000 398.000 L 362.000 396.000 365.600 396.000 C 370.454 396.000,370.800 395.668,370.800 391.000 L 370.800 387.600 374.773 387.600 C 378.242 387.600,378.775 387.509,378.974 386.883 C 379.113 386.446,379.919 385.974,381.041 385.674 C 383.382 385.048,385.048 383.382,385.674 381.041 C 385.974 379.919,386.446 379.113,386.883 378.974 C 387.509 378.775,387.600 378.242,387.600 374.773 L 387.600 370.800 390.984 370.800 C 395.677 370.800,396.000 370.435,396.000 365.125 L 396.000 361.200 398.000 361.200 L 400.000 361.200 400.000 316.400 L 400.000 271.600 398.000 271.600 L 396.000 271.600 396.000 268.089 C 396.000 263.209,395.785 262.963,391.207 262.601 L 387.600 262.315 387.600 258.773 C 387.600 255.809,387.476 255.114,386.839 254.516 C 386.420 254.122,385.876 253.044,385.629 252.121 C 385.045 249.936,383.289 248.218,381.067 247.659 C 380.090 247.413,379.185 246.939,379.057 246.606 C 378.872 246.121,378.031 246.000,374.851 246.000 L 370.877 246.000 370.739 242.185 C 370.571 237.573,370.616 237.614,365.735 237.606 L 362.070 237.600 361.807 235.900 C 360.767 229.179,362.778 229.502,320.783 229.325 L 287.766 229.187 287.298 230.493 M290.800 274.810 C 290.800 274.990,291.995 275.264,293.456 275.421 C 296.103 275.704,300.000 278.379,300.000 279.912 C 300.000 280.165,300.360 280.565,300.800 280.800 C 301.240 281.035,301.600 281.449,301.600 281.718 C 301.600 281.988,302.168 282.657,302.862 283.204 C 304.282 284.324,307.685 287.756,309.200 289.595 C 311.126 291.935,319.360 293.116,322.471 291.500 C 323.767 290.826,325.872 288.632,326.194 287.620 C 326.337 287.169,326.597 286.800,326.771 286.800 C 326.945 286.800,327.698 286.172,328.444 285.404 C 329.190 284.637,329.927 284.007,330.082 284.004 C 330.505 283.998,332.400 282.020,332.400 281.585 C 332.400 281.377,332.760 280.982,333.200 280.707 C 333.640 280.432,334.000 280.026,334.000 279.804 C 334.000 278.205,337.223 275.931,340.081 275.512 C 341.687 275.277,343.095 274.940,343.210 274.764 C 343.638 274.112,346.686 274.229,347.382 274.925 C 347.753 275.296,348.218 275.600,348.415 275.600 C 348.981 275.600,351.083 277.803,351.366 278.692 C 351.705 279.760,353.960 282.047,355.415 282.800 C 357.413 283.833,359.200 286.278,359.200 287.979 C 359.200 289.266,357.968 294.969,357.641 295.199 C 357.483 295.310,357.124 295.970,356.843 296.666 C 356.541 297.412,355.853 298.130,355.166 298.414 C 354.525 298.680,354.000 299.028,354.000 299.188 C 354.000 299.567,349.567 304.000,349.188 304.000 C 349.028 304.000,348.673 304.540,348.400 305.200 C 348.127 305.860,347.754 306.400,347.572 306.400 C 347.247 306.400,346.817 306.762,343.734 309.624 C 340.697 312.443,340.807 312.123,341.174 317.079 L 341.504 321.542 343.533 323.571 C 344.649 324.687,345.749 325.600,345.978 325.600 C 346.206 325.600,346.618 325.960,346.893 326.400 C 347.168 326.840,347.607 327.200,347.869 327.200 C 348.132 327.200,348.460 327.560,348.600 328.000 C 348.740 328.440,349.027 328.800,349.240 328.800 C 349.452 328.800,349.744 329.109,349.888 329.486 C 350.197 330.290,353.944 334.000,354.448 334.000 C 354.638 334.000,355.018 334.360,355.293 334.800 C 355.568 335.240,355.938 335.600,356.115 335.600 C 357.808 335.600,359.839 343.373,359.015 346.696 C 358.725 347.862,355.587 351.200,354.780 351.200 C 354.179 351.200,351.200 354.156,351.200 354.753 C 351.200 354.999,351.020 355.200,350.800 355.200 C 350.580 355.200,350.400 355.426,350.400 355.701 C 350.400 356.314,348.585 358.010,347.135 358.752 C 346.258 359.201,345.622 359.210,343.535 358.804 C 342.141 358.532,340.415 358.220,339.700 358.111 C 338.985 358.002,338.400 357.770,338.400 357.595 C 338.400 357.421,337.860 357.090,337.200 356.860 C 336.540 356.630,336.000 356.236,336.000 355.984 C 336.000 355.540,330.270 349.600,329.843 349.600 C 329.487 349.600,326.000 346.095,325.998 345.736 C 325.997 345.551,324.921 344.365,323.606 343.100 L 321.216 340.800 316.869 340.800 L 312.522 340.800 310.261 343.061 C 309.017 344.304,308.000 345.460,308.000 345.629 C 308.000 346.006,304.443 349.599,304.068 349.602 C 303.921 349.602,303.054 350.367,302.142 351.302 C 301.230 352.236,299.925 353.510,299.242 354.134 C 298.559 354.758,298.000 355.511,298.000 355.808 C 298.000 356.105,297.370 356.576,296.600 356.854 C 295.830 357.133,295.200 357.474,295.200 357.612 C 295.200 358.449,287.561 359.349,286.380 358.652 C 284.747 357.687,283.321 356.211,282.978 355.130 C 282.628 354.027,279.743 351.200,278.967 351.200 C 278.281 351.200,275.200 348.011,275.200 347.302 C 275.200 347.026,275.020 346.800,274.800 346.800 C 274.580 346.800,274.400 345.900,274.400 344.800 C 274.400 343.700,274.557 342.800,274.748 342.800 C 274.940 342.800,275.223 341.684,275.377 340.320 C 275.769 336.855,276.634 335.472,279.086 334.386 C 279.750 334.092,280.615 333.373,281.008 332.788 C 281.402 332.202,282.235 331.381,282.861 330.962 C 283.486 330.543,283.998 329.998,283.999 329.750 C 284.000 329.182,287.407 325.600,287.946 325.600 C 288.633 325.600,292.000 321.880,292.000 321.121 C 292.000 320.724,292.159 320.400,292.352 320.400 C 292.546 320.400,292.783 318.645,292.878 316.500 L 293.052 312.600 290.158 309.700 C 288.567 308.105,287.076 306.800,286.846 306.800 C 286.616 306.800,286.219 306.409,285.964 305.932 C 285.340 304.767,278.992 298.400,278.454 298.400 C 278.220 298.400,277.812 297.995,277.549 297.500 C 277.285 297.005,276.855 296.420,276.594 296.200 C 276.332 295.980,275.883 294.495,275.595 292.900 C 275.307 291.305,274.921 290.000,274.736 290.000 C 274.551 290.000,274.400 289.280,274.400 288.400 C 274.400 287.520,274.568 286.800,274.773 286.800 C 274.978 286.800,275.265 286.395,275.411 285.900 C 275.685 284.970,277.828 282.800,278.473 282.800 C 279.002 282.800,282.800 278.922,282.800 278.383 C 282.800 277.763,284.882 275.600,285.479 275.600 C 285.744 275.600,286.104 275.356,286.280 275.059 C 286.818 274.148,290.800 273.929,290.800 274.810 " stroke="none" fill="#f34637" fill-rule="evenodd"/><path id="path2" d="M271.105 37.883 C 271.602 37.979,272.322 37.975,272.705 37.875 C 273.087 37.775,272.680 37.696,271.800 37.701 C 270.920 37.705,270.607 37.787,271.105 37.883 M122.902 38.487 C 122.387 38.736,121.838 39.524,121.613 40.338 C 121.104 42.182,121.386 42.459,121.971 40.689 C 122.406 39.369,123.330 38.631,125.000 38.267 C 125.624 38.131,125.580 38.089,124.800 38.073 C 124.250 38.063,123.396 38.249,122.902 38.487 M118.900 46.276 C 119.285 46.376,119.915 46.376,120.300 46.276 C 120.685 46.175,120.370 46.093,119.600 46.093 C 118.830 46.093,118.515 46.175,118.900 46.276 M279.700 46.276 C 280.085 46.376,280.715 46.376,281.100 46.276 C 281.485 46.175,281.170 46.093,280.400 46.093 C 279.630 46.093,279.315 46.175,279.700 46.276 M114.800 46.806 C 114.378 47.082,114.615 47.123,115.600 46.942 C 117.325 46.625,117.651 46.398,116.367 46.406 C 115.835 46.409,115.130 46.589,114.800 46.806 M112.901 51.800 C 112.905 52.680,112.987 52.993,113.083 52.495 C 113.179 51.998,113.175 51.278,113.075 50.895 C 112.975 50.513,112.896 50.920,112.901 51.800 M112.509 58.400 C 112.509 59.390,112.587 59.795,112.682 59.300 C 112.778 58.805,112.778 57.995,112.682 57.500 C 112.587 57.005,112.509 57.410,112.509 58.400 M287.325 279.136 C 287.101 279.281,286.604 280.354,286.220 281.521 C 285.212 284.583,282.606 286.800,280.013 286.800 C 278.591 286.800,278.981 288.681,280.760 290.407 C 281.618 291.240,282.554 292.569,282.840 293.361 C 283.126 294.152,283.505 294.800,283.680 294.800 C 283.856 294.800,284.000 295.166,284.000 295.613 C 284.000 296.059,284.315 296.543,284.700 296.688 C 285.493 296.986,287.600 299.112,287.600 299.615 C 287.600 299.797,287.986 300.069,288.458 300.218 C 289.603 300.582,291.533 302.595,291.816 303.720 C 291.940 304.217,292.562 304.854,293.198 305.135 C 293.834 305.416,294.586 306.172,294.870 306.813 C 295.155 307.457,295.928 308.201,296.593 308.472 C 299.976 309.852,300.761 312.004,300.088 318.052 C 299.716 321.396,297.931 324.400,296.317 324.400 C 296.142 324.400,296.000 324.563,296.000 324.763 C 296.000 324.963,294.875 326.282,293.500 327.696 C 292.125 329.109,290.640 330.737,290.200 331.314 C 289.760 331.891,289.232 332.371,289.026 332.382 C 288.820 332.392,287.515 333.570,286.127 335.000 C 284.739 336.430,283.422 337.600,283.201 337.600 C 282.981 337.600,282.800 337.947,282.800 338.371 C 282.800 338.796,282.567 339.381,282.283 339.671 C 281.999 339.962,281.524 340.792,281.228 341.515 C 280.932 342.239,280.345 343.015,279.923 343.241 C 278.385 344.064,279.095 346.504,281.000 346.944 C 281.880 347.147,282.744 347.557,282.920 347.856 C 283.096 348.155,283.456 348.403,283.720 348.407 C 284.545 348.419,285.931 350.193,286.474 351.932 C 286.761 352.850,287.131 353.600,287.297 353.600 C 287.464 353.600,287.600 353.870,287.600 354.200 C 287.600 355.083,288.110 354.933,288.961 353.800 C 289.374 353.250,289.867 352.800,290.056 352.800 C 290.245 352.800,290.760 352.440,291.200 352.000 C 291.640 351.560,292.270 351.200,292.600 351.200 C 292.930 351.200,293.200 351.022,293.200 350.805 C 293.200 350.587,293.904 350.297,294.765 350.159 C 295.830 349.989,296.393 349.668,296.527 349.156 C 296.636 348.743,297.017 348.292,297.376 348.154 C 298.285 347.805,300.395 345.908,300.426 345.411 C 300.440 345.185,301.205 344.335,302.126 343.521 C 305.718 340.348,306.298 339.770,306.755 338.900 C 307.015 338.405,307.492 338.000,307.814 338.000 C 308.136 338.000,308.400 337.747,308.400 337.439 C 308.400 336.691,310.806 334.000,311.474 334.000 C 311.763 334.000,312.000 333.820,312.000 333.600 C 312.000 332.987,321.485 333.079,322.249 333.700 C 323.894 335.037,325.600 336.925,325.600 337.407 C 325.600 337.704,325.951 338.057,326.380 338.194 C 326.808 338.330,327.272 338.797,327.410 339.233 C 327.671 340.053,329.561 342.000,330.097 342.000 C 330.596 342.000,333.200 344.923,333.200 345.483 C 333.200 345.768,333.335 346.003,333.500 346.008 C 333.665 346.012,334.518 346.642,335.396 347.408 C 336.273 348.173,337.128 348.800,337.296 348.800 C 337.463 348.800,337.600 349.047,337.600 349.349 C 337.600 349.680,338.235 349.999,339.200 350.154 C 340.080 350.294,340.800 350.570,340.800 350.766 C 340.800 350.961,341.340 351.310,342.000 351.540 C 342.660 351.770,343.200 352.148,343.200 352.379 C 343.200 352.611,343.474 352.800,343.809 352.800 C 344.143 352.800,344.622 353.250,344.873 353.800 C 345.558 355.304,346.252 355.009,346.758 353.000 C 347.008 352.010,347.345 351.200,347.508 351.200 C 347.671 351.200,348.035 350.679,348.317 350.042 C 348.599 349.406,349.363 348.664,350.015 348.394 C 350.667 348.124,351.200 347.782,351.200 347.634 C 351.200 347.487,352.010 347.149,353.000 346.884 C 354.633 346.448,355.848 344.400,354.474 344.400 C 354.295 344.400,353.848 343.770,353.481 343.000 C 353.113 342.230,352.637 341.600,352.423 341.600 C 352.208 341.600,351.804 340.835,351.524 339.900 C 351.040 338.279,349.207 336.000,348.386 336.000 C 348.174 336.000,348.000 335.826,348.000 335.613 C 348.000 335.401,347.371 334.636,346.603 333.913 C 345.834 333.191,344.709 332.134,344.103 331.563 C 343.496 330.993,342.460 329.872,341.800 329.072 C 341.140 328.272,340.375 327.613,340.100 327.609 C 339.825 327.604,339.596 327.375,339.591 327.100 C 339.587 326.825,338.935 326.060,338.144 325.400 C 334.368 322.250,334.000 321.684,334.000 319.026 C 334.000 318.022,333.820 317.200,333.600 317.200 C 333.374 317.200,333.200 316.067,333.200 314.600 C 333.200 313.133,333.374 312.000,333.600 312.000 C 333.820 312.000,334.000 311.774,334.000 311.499 C 334.000 310.813,336.083 308.901,337.357 308.416 C 337.931 308.198,338.400 307.829,338.400 307.596 C 338.400 307.072,340.686 304.800,341.214 304.800 C 341.426 304.800,341.600 304.525,341.600 304.189 C 341.600 303.396,344.996 300.000,345.789 300.000 C 346.125 300.000,346.400 299.794,346.400 299.543 C 346.400 298.939,348.870 296.410,349.465 296.404 C 349.721 296.402,350.049 295.694,350.195 294.831 C 350.340 293.969,350.716 293.164,351.030 293.044 C 351.343 292.924,351.600 292.618,351.600 292.366 C 351.600 292.113,352.320 291.208,353.200 290.354 C 355.483 288.138,355.373 287.125,352.785 286.511 C 350.554 285.981,348.603 284.347,348.177 282.651 C 348.032 282.073,347.779 281.600,347.615 281.600 C 347.450 281.600,347.144 281.015,346.934 280.300 C 346.421 278.553,344.101 278.615,342.248 280.427 C 341.588 281.072,340.812 281.600,340.524 281.600 C 340.236 281.600,340.000 281.768,340.000 281.973 C 340.000 282.178,339.595 282.474,339.100 282.630 C 338.086 282.950,336.417 284.404,336.407 284.977 C 336.403 285.184,335.680 286.025,334.800 286.845 C 333.920 287.666,333.198 288.487,333.196 288.669 C 333.190 289.109,330.613 291.599,330.157 291.604 C 329.961 291.606,329.170 292.324,328.400 293.200 C 327.630 294.076,326.769 294.794,326.487 294.796 C 326.206 294.798,325.871 295.070,325.745 295.400 C 325.618 295.730,325.264 296.000,324.957 296.000 C 324.651 296.000,324.400 296.142,324.400 296.317 C 324.400 296.491,323.770 297.301,323.001 298.117 L 321.602 299.600 316.984 299.600 L 312.365 299.600 310.032 297.200 C 308.748 295.880,307.558 294.800,307.386 294.800 C 307.215 294.800,306.369 294.080,305.507 293.200 C 304.644 292.320,303.810 291.600,303.653 291.600 C 303.166 291.600,300.629 289.025,300.081 287.975 C 299.795 287.428,299.075 286.652,298.481 286.250 C 297.886 285.849,297.119 284.965,296.777 284.286 C 296.421 283.581,295.656 282.885,294.995 282.665 C 293.709 282.236,293.193 281.881,291.651 280.367 C 290.607 279.342,288.104 278.629,287.325 279.136 M112.509 342.000 C 112.509 342.990,112.587 343.395,112.682 342.900 C 112.778 342.405,112.778 341.595,112.682 341.100 C 112.587 340.605,112.509 341.010,112.509 342.000 M121.595 359.581 C 121.804 360.311,122.086 361.019,122.220 361.154 C 122.596 361.529,121.944 359.052,121.555 358.627 C 121.368 358.422,121.385 358.851,121.595 359.581 " stroke="none" fill="#fcf4f2" fill-rule="evenodd"/><path id="path3" d="M285.700 230.470 C 284.985 230.912,284.400 231.533,284.400 231.849 C 284.400 232.166,284.132 232.528,283.804 232.654 C 283.476 232.780,282.997 233.584,282.740 234.441 C 282.484 235.299,282.122 236.000,281.937 236.000 C 281.752 236.000,281.600 236.447,281.600 236.992 C 281.600 237.717,281.331 238.052,280.600 238.236 C 280.050 238.374,279.600 238.647,279.600 238.843 C 279.600 239.040,279.090 239.200,278.467 239.200 C 276.858 239.200,272.800 240.055,272.800 240.394 C 272.800 240.551,272.039 241.021,271.109 241.439 C 269.182 242.306,267.284 244.125,266.960 245.415 C 266.813 246.002,266.235 246.443,265.212 246.749 C 264.371 247.001,263.580 247.476,263.454 247.804 C 263.324 248.141,262.725 248.400,262.074 248.400 C 261.441 248.400,260.507 248.760,260.000 249.200 C 259.493 249.640,258.925 250.000,258.739 250.000 C 258.552 250.000,258.400 250.276,258.400 250.613 C 258.400 250.949,258.141 251.324,257.824 251.446 C 257.508 251.567,257.137 252.177,257.000 252.800 C 256.863 253.423,256.210 254.499,255.548 255.191 L 254.345 256.450 250.172 256.325 L 245.998 256.200 245.999 259.113 C 246.000 262.649,246.003 262.651,251.353 262.473 C 254.780 262.359,255.261 262.247,256.084 261.380 C 256.588 260.849,257.180 260.402,257.400 260.388 C 257.620 260.375,258.430 259.639,259.200 258.753 C 262.351 255.130,265.216 252.508,267.012 251.600 C 267.665 251.270,268.549 250.685,268.975 250.300 C 269.402 249.915,269.987 249.600,270.275 249.600 C 270.564 249.600,270.800 249.440,270.800 249.243 C 270.800 249.047,271.236 248.777,271.768 248.644 C 272.300 248.510,273.515 247.625,274.468 246.677 C 275.421 245.729,276.515 244.834,276.900 244.689 C 277.285 244.544,277.600 244.268,277.600 244.077 C 277.600 243.885,278.320 243.490,279.200 243.200 C 280.080 242.910,280.800 242.555,280.800 242.413 C 280.800 242.271,281.475 241.850,282.300 241.478 C 284.561 240.459,285.793 238.376,286.483 234.400 C 286.808 232.530,287.212 230.685,287.380 230.300 C 287.767 229.414,287.338 229.457,285.700 230.470 M287.125 274.350 C 286.836 274.442,286.456 274.761,286.280 275.059 C 286.104 275.356,285.744 275.600,285.479 275.600 C 284.882 275.600,282.800 277.763,282.800 278.383 C 282.800 278.922,279.002 282.800,278.473 282.800 C 277.828 282.800,275.685 284.970,275.411 285.900 C 275.265 286.395,274.978 286.800,274.773 286.800 C 274.568 286.800,274.400 287.520,274.400 288.400 C 274.400 289.280,274.551 290.000,274.736 290.000 C 274.921 290.000,275.307 291.305,275.595 292.900 C 275.883 294.495,276.332 295.980,276.594 296.200 C 276.855 296.420,277.285 297.005,277.549 297.500 C 277.812 297.995,278.220 298.400,278.454 298.400 C 278.992 298.400,285.340 304.767,285.964 305.932 C 286.219 306.409,286.616 306.800,286.846 306.800 C 287.076 306.800,288.567 308.105,290.158 309.700 L 293.052 312.600 292.878 316.500 C 292.783 318.645,292.546 320.400,292.352 320.400 C 292.159 320.400,292.000 320.724,292.000 321.121 C 292.000 321.880,288.633 325.600,287.946 325.600 C 287.407 325.600,284.000 329.182,283.999 329.750 C 283.998 329.998,283.486 330.543,282.861 330.962 C 282.235 331.381,281.402 332.202,281.008 332.788 C 280.615 333.373,279.750 334.092,279.086 334.386 C 276.634 335.472,275.769 336.855,275.377 340.320 C 275.223 341.684,274.940 342.800,274.748 342.800 C 274.557 342.800,274.400 343.700,274.400 344.800 C 274.400 345.900,274.580 346.800,274.800 346.800 C 275.020 346.800,275.200 347.026,275.200 347.302 C 275.200 348.011,278.281 351.200,278.967 351.200 C 279.743 351.200,282.628 354.027,282.978 355.130 C 283.321 356.211,284.747 357.687,286.380 358.652 C 287.561 359.349,295.200 358.449,295.200 357.612 C 295.200 357.474,295.830 357.133,296.600 356.854 C 297.370 356.576,298.000 356.105,298.000 355.808 C 298.000 355.511,298.559 354.758,299.242 354.134 C 299.925 353.510,301.230 352.236,302.142 351.302 C 303.054 350.367,303.921 349.602,304.068 349.602 C 304.443 349.599,308.000 346.006,308.000 345.629 C 308.000 345.460,309.017 344.304,310.261 343.061 L 312.522 340.800 316.869 340.800 L 321.216 340.800 323.606 343.100 C 324.921 344.365,325.997 345.551,325.998 345.736 C 326.000 346.095,329.487 349.600,329.843 349.600 C 330.270 349.600,336.000 355.540,336.000 355.984 C 336.000 356.236,336.540 356.630,337.200 356.860 C 337.860 357.090,338.400 357.421,338.400 357.595 C 338.400 357.770,338.985 358.002,339.700 358.111 C 340.415 358.220,342.141 358.532,343.535 358.804 C 345.622 359.210,346.258 359.201,347.135 358.752 C 348.585 358.010,350.400 356.314,350.400 355.701 C 350.400 355.426,350.580 355.200,350.800 355.200 C 351.020 355.200,351.200 354.999,351.200 354.753 C 351.200 354.156,354.179 351.200,354.780 351.200 C 355.587 351.200,358.725 347.862,359.015 346.696 C 359.839 343.373,357.808 335.600,356.115 335.600 C 355.938 335.600,355.568 335.240,355.293 334.800 C 355.018 334.360,354.638 334.000,354.448 334.000 C 353.944 334.000,350.197 330.290,349.888 329.486 C 349.744 329.109,349.452 328.800,349.240 328.800 C 349.027 328.800,348.740 328.440,348.600 328.000 C 348.460 327.560,348.132 327.200,347.869 327.200 C 347.607 327.200,347.168 326.840,346.893 326.400 C 346.618 325.960,346.206 325.600,345.978 325.600 C 345.749 325.600,344.649 324.687,343.533 323.571 L 341.504 321.542 341.174 317.079 C 340.807 312.123,340.697 312.443,343.734 309.624 C 346.817 306.762,347.247 306.400,347.572 306.400 C 347.754 306.400,348.127 305.860,348.400 305.200 C 348.673 304.540,349.028 304.000,349.188 304.000 C 349.567 304.000,354.000 299.567,354.000 299.188 C 354.000 299.028,354.525 298.680,355.166 298.414 C 355.853 298.130,356.541 297.412,356.843 296.666 C 357.124 295.970,357.483 295.310,357.641 295.199 C 357.968 294.969,359.200 289.266,359.200 287.979 C 359.200 286.278,357.413 283.833,355.415 282.800 C 353.960 282.047,351.705 279.760,351.366 278.692 C 351.083 277.803,348.981 275.600,348.415 275.600 C 348.218 275.600,347.753 275.296,347.382 274.925 C 346.686 274.229,343.638 274.112,343.210 274.764 C 343.095 274.940,341.687 275.277,340.081 275.512 C 337.223 275.931,334.000 278.205,334.000 279.804 C 334.000 280.026,333.640 280.432,333.200 280.707 C 332.760 280.982,332.400 281.377,332.400 281.585 C 332.400 282.020,330.505 283.998,330.082 284.004 C 329.927 284.007,329.190 284.637,328.444 285.404 C 327.698 286.172,326.945 286.800,326.771 286.800 C 326.597 286.800,326.337 287.169,326.194 287.620 C 324.600 292.640,312.833 294.008,309.200 289.595 C 307.685 287.756,304.282 284.324,302.862 283.204 C 302.168 282.657,301.600 281.988,301.600 281.718 C 301.600 281.449,301.240 281.035,300.800 280.800 C 300.360 280.565,300.000 280.165,300.000 279.912 C 300.000 278.379,296.103 275.704,293.456 275.421 C 291.995 275.264,290.800 274.990,290.800 274.810 C 290.800 274.447,287.945 274.090,287.125 274.350 M291.651 280.367 C 293.193 281.881,293.709 282.236,294.995 282.665 C 295.656 282.885,296.421 283.581,296.777 284.286 C 297.119 284.965,297.886 285.849,298.481 286.250 C 299.075 286.652,299.795 287.428,300.081 287.975 C 300.629 289.025,303.166 291.600,303.653 291.600 C 303.810 291.600,304.644 292.320,305.507 293.200 C 306.369 294.080,307.215 294.800,307.386 294.800 C 307.558 294.800,308.748 295.880,310.032 297.200 L 312.365 299.600 316.984 299.600 L 321.602 299.600 323.001 298.117 C 323.770 297.301,324.400 296.491,324.400 296.317 C 324.400 296.142,324.651 296.000,324.957 296.000 C 325.264 296.000,325.618 295.730,325.745 295.400 C 325.871 295.070,326.206 294.798,326.487 294.796 C 326.769 294.794,327.630 294.076,328.400 293.200 C 329.170 292.324,329.961 291.606,330.157 291.604 C 330.613 291.599,333.190 289.109,333.196 288.669 C 333.198 288.487,333.920 287.666,334.800 286.845 C 335.680 286.025,336.403 285.184,336.407 284.977 C 336.417 284.404,338.086 282.950,339.100 282.630 C 339.595 282.474,340.000 282.178,340.000 281.973 C 340.000 281.768,340.236 281.600,340.524 281.600 C 340.812 281.600,341.588 281.072,342.248 280.427 C 344.101 278.615,346.421 278.553,346.934 280.300 C 347.144 281.015,347.450 281.600,347.615 281.600 C 347.779 281.600,348.032 282.073,348.177 282.651 C 348.603 284.347,350.554 285.981,352.785 286.511 C 355.373 287.125,355.483 288.138,353.200 290.354 C 352.320 291.208,351.600 292.113,351.600 292.366 C 351.600 292.618,351.343 292.924,351.030 293.044 C 350.716 293.164,350.340 293.969,350.195 294.831 C 350.049 295.694,349.721 296.402,349.465 296.404 C 348.870 296.410,346.400 298.939,346.400 299.543 C 346.400 299.794,346.125 300.000,345.789 300.000 C 344.996 300.000,341.600 303.396,341.600 304.189 C 341.600 304.525,341.426 304.800,341.214 304.800 C 340.686 304.800,338.400 307.072,338.400 307.596 C 338.400 307.829,337.931 308.198,337.357 308.416 C 336.083 308.901,334.000 310.813,334.000 311.499 C 334.000 311.774,333.820 312.000,333.600 312.000 C 333.374 312.000,333.200 313.133,333.200 314.600 C 333.200 316.067,333.374 317.200,333.600 317.200 C 333.820 317.200,334.000 318.022,334.000 319.026 C 334.000 321.684,334.368 322.250,338.144 325.400 C 338.935 326.060,339.587 326.825,339.591 327.100 C 339.596 327.375,339.825 327.604,340.100 327.609 C 340.375 327.613,341.140 328.272,341.800 329.072 C 342.460 329.872,343.496 330.993,344.103 331.563 C 344.709 332.134,345.834 333.191,346.603 333.913 C 347.371 334.636,348.000 335.401,348.000 335.613 C 348.000 335.826,348.174 336.000,348.386 336.000 C 349.207 336.000,351.040 338.279,351.524 339.900 C 351.804 340.835,352.208 341.600,352.423 341.600 C 352.637 341.600,353.113 342.230,353.481 343.000 C 353.848 343.770,354.295 344.400,354.474 344.400 C 355.848 344.400,354.633 346.448,353.000 346.884 C 352.010 347.149,351.200 347.487,351.200 347.634 C 351.200 347.782,350.667 348.124,350.015 348.394 C 349.363 348.664,348.599 349.406,348.317 350.042 C 348.035 350.679,347.671 351.200,347.508 351.200 C 347.345 351.200,347.008 352.010,346.758 353.000 C 346.252 355.009,345.558 355.304,344.873 353.800 C 344.622 353.250,344.143 352.800,343.809 352.800 C 343.474 352.800,343.200 352.611,343.200 352.379 C 343.200 352.148,342.660 351.770,342.000 351.540 C 341.340 351.310,340.800 350.961,340.800 350.766 C 340.800 350.570,340.080 350.294,339.200 350.154 C 338.235 349.999,337.600 349.680,337.600 349.349 C 337.600 349.047,337.463 348.800,337.296 348.800 C 337.128 348.800,336.273 348.173,335.396 347.408 C 334.518 346.642,333.665 346.012,333.500 346.008 C 333.335 346.003,333.200 345.768,333.200 345.483 C 333.200 344.923,330.596 342.000,330.097 342.000 C 329.561 342.000,327.671 340.053,327.410 339.233 C 327.272 338.797,326.808 338.330,326.380 338.194 C 325.951 338.057,325.600 337.704,325.600 337.407 C 325.600 336.925,323.894 335.037,322.249 333.700 C 321.485 333.079,312.000 332.987,312.000 333.600 C 312.000 333.820,311.763 334.000,311.474 334.000 C 310.806 334.000,308.400 336.691,308.400 337.439 C 308.400 337.747,308.136 338.000,307.814 338.000 C 307.492 338.000,307.015 338.405,306.755 338.900 C 306.298 339.770,305.718 340.348,302.126 343.521 C 301.205 344.335,300.440 345.185,300.426 345.411 C 300.395 345.908,298.285 347.805,297.376 348.154 C 297.017 348.292,296.636 348.743,296.527 349.156 C 296.393 349.668,295.830 349.989,294.765 350.159 C 293.904 350.297,293.200 350.587,293.200 350.805 C 293.200 351.022,292.930 351.200,292.600 351.200 C 292.270 351.200,291.640 351.560,291.200 352.000 C 290.760 352.440,290.245 352.800,290.056 352.800 C 289.867 352.800,289.374 353.250,288.961 353.800 C 288.110 354.933,287.600 355.083,287.600 354.200 C 287.600 353.870,287.464 353.600,287.297 353.600 C 287.131 353.600,286.761 352.850,286.474 351.932 C 285.931 350.193,284.545 348.419,283.720 348.407 C 283.456 348.403,283.096 348.155,282.920 347.856 C 282.744 347.557,281.880 347.147,281.000 346.944 C 279.095 346.504,278.385 344.064,279.923 343.241 C 280.345 343.015,280.932 342.239,281.228 341.515 C 281.524 340.792,281.999 339.962,282.283 339.671 C 282.567 339.381,282.800 338.796,282.800 338.371 C 282.800 337.947,282.981 337.600,283.201 337.600 C 283.422 337.600,284.739 336.430,286.127 335.000 C 287.515 333.570,288.820 332.392,289.026 332.382 C 289.232 332.371,289.760 331.891,290.200 331.314 C 290.640 330.737,292.125 329.109,293.500 327.696 C 294.875 326.282,296.000 324.963,296.000 324.763 C 296.000 324.563,296.142 324.400,296.317 324.400 C 297.931 324.400,299.716 321.396,300.088 318.052 C 300.761 312.004,299.976 309.852,296.593 308.472 C 295.928 308.201,295.155 307.457,294.870 306.813 C 294.586 306.172,293.834 305.416,293.198 305.135 C 292.562 304.854,291.940 304.217,291.816 303.720 C 291.533 302.595,289.603 300.582,288.458 300.218 C 287.986 300.069,287.600 299.797,287.600 299.615 C 287.600 299.112,285.493 296.986,284.700 296.688 C 284.315 296.543,284.000 296.059,284.000 295.613 C 284.000 295.166,283.856 294.800,283.680 294.800 C 283.505 294.800,283.126 294.152,282.840 293.361 C 282.554 292.569,281.618 291.240,280.760 290.407 C 278.981 288.681,278.591 286.800,280.013 286.800 C 282.606 286.800,285.212 284.583,286.220 281.521 C 287.211 278.510,289.308 278.065,291.651 280.367 M229.655 322.900 C 230.549 327.274,230.810 329.486,231.198 335.981 C 231.428 339.821,231.776 343.061,231.971 343.182 C 232.167 343.303,232.455 344.085,232.611 344.921 C 232.768 345.756,233.100 346.655,233.348 346.920 C 233.597 347.184,234.045 347.875,234.344 348.456 C 234.643 349.037,235.318 349.742,235.844 350.024 C 236.370 350.305,236.800 350.685,236.800 350.868 C 236.800 351.050,237.070 351.200,237.400 351.200 C 237.730 351.200,238.000 351.547,238.000 351.971 C 238.000 352.396,238.270 353.013,238.600 353.343 C 239.209 353.952,239.431 356.436,238.922 356.945 C 238.769 357.098,238.615 357.443,238.579 357.712 C 237.895 362.908,237.895 362.910,239.726 361.935 C 242.305 360.561,244.428 352.503,242.536 351.270 C 242.308 351.121,241.805 349.695,241.418 348.100 C 241.031 346.505,240.593 345.200,240.444 345.200 C 240.296 345.200,239.935 344.390,239.643 343.400 C 239.351 342.410,238.964 341.600,238.783 341.600 C 238.602 341.600,238.340 341.241,238.201 340.802 C 238.062 340.364,237.693 339.750,237.382 339.439 C 236.819 338.876,235.600 332.931,235.600 330.748 C 235.600 330.116,235.459 329.600,235.287 329.600 C 235.115 329.600,234.735 328.790,234.443 327.800 C 234.151 326.810,233.780 326.000,233.620 326.000 C 233.460 326.000,233.123 325.549,232.872 324.998 C 232.370 323.898,230.039 321.200,229.589 321.200 C 229.434 321.200,229.464 321.965,229.655 322.900 " stroke="none" fill="#c8d0c8" fill-rule="evenodd"/><path id="path4" d="M285.700 230.470 C 284.985 230.912,284.400 231.533,284.400 231.849 C 284.400 232.166,284.132 232.528,283.804 232.654 C 283.476 232.780,282.997 233.584,282.740 234.441 C 282.484 235.299,282.122 236.000,281.937 236.000 C 281.752 236.000,281.600 236.447,281.600 236.992 C 281.600 237.717,281.331 238.052,280.600 238.236 C 280.050 238.374,279.600 238.647,279.600 238.843 C 279.600 239.040,279.090 239.200,278.467 239.200 C 276.858 239.200,272.800 240.055,272.800 240.394 C 272.800 240.551,272.039 241.021,271.109 241.439 C 269.182 242.306,267.284 244.125,266.960 245.415 C 266.813 246.002,266.235 246.443,265.212 246.749 C 264.371 247.001,263.580 247.476,263.454 247.804 C 263.324 248.141,262.725 248.400,262.074 248.400 C 261.441 248.400,260.507 248.760,260.000 249.200 C 259.493 249.640,258.925 250.000,258.739 250.000 C 258.552 250.000,258.400 250.276,258.400 250.613 C 258.400 250.949,258.141 251.324,257.824 251.446 C 257.508 251.567,257.137 252.177,257.000 252.800 C 256.863 253.423,256.210 254.499,255.548 255.191 L 254.345 256.450 250.172 256.325 L 245.998 256.200 245.999 259.113 C 246.000 262.649,246.003 262.651,251.353 262.473 C 254.780 262.359,255.261 262.247,256.084 261.380 C 256.588 260.849,257.180 260.402,257.400 260.388 C 257.620 260.375,258.430 259.639,259.200 258.753 C 262.351 255.130,265.216 252.508,267.012 251.600 C 267.665 251.270,268.549 250.685,268.975 250.300 C 269.402 249.915,269.987 249.600,270.275 249.600 C 270.564 249.600,270.800 249.440,270.800 249.243 C 270.800 249.047,271.236 248.777,271.768 248.644 C 272.300 248.510,273.515 247.625,274.468 246.677 C 275.421 245.729,276.515 244.834,276.900 244.689 C 277.285 244.544,277.600 244.268,277.600 244.077 C 277.600 243.885,278.320 243.490,279.200 243.200 C 280.080 242.910,280.800 242.555,280.800 242.413 C 280.800 242.271,281.475 241.850,282.300 241.478 C 284.561 240.459,285.793 238.376,286.483 234.400 C 286.808 232.530,287.212 230.685,287.380 230.300 C 287.767 229.414,287.338 229.457,285.700 230.470 M287.125 274.350 C 286.836 274.442,286.456 274.761,286.280 275.059 C 286.104 275.356,285.744 275.600,285.479 275.600 C 284.882 275.600,282.800 277.763,282.800 278.383 C 282.800 278.922,279.002 282.800,278.473 282.800 C 277.828 282.800,275.685 284.970,275.411 285.900 C 275.265 286.395,274.978 286.800,274.773 286.800 C 274.568 286.800,274.400 287.520,274.400 288.400 C 274.400 289.280,274.551 290.000,274.736 290.000 C 274.921 290.000,275.307 291.305,275.595 292.900 C 275.883 294.495,276.332 295.980,276.594 296.200 C 276.855 296.420,277.285 297.005,277.549 297.500 C 277.812 297.995,278.220 298.400,278.454 298.400 C 278.992 298.400,285.340 304.767,285.964 305.932 C 286.219 306.409,286.616 306.800,286.846 306.800 C 287.076 306.800,288.567 308.105,290.158 309.700 L 293.052 312.600 292.878 316.500 C 292.783 318.645,292.546 320.400,292.352 320.400 C 292.159 320.400,292.000 320.724,292.000 321.121 C 292.000 321.880,288.633 325.600,287.946 325.600 C 287.407 325.600,284.000 329.182,283.999 329.750 C 283.998 329.998,283.486 330.543,282.861 330.962 C 282.235 331.381,281.402 332.202,281.008 332.788 C 280.615 333.373,279.750 334.092,279.086 334.386 C 276.634 335.472,275.769 336.855,275.377 340.320 C 275.223 341.684,274.940 342.800,274.748 342.800 C 274.557 342.800,274.400 343.700,274.400 344.800 C 274.400 345.900,274.580 346.800,274.800 346.800 C 275.020 346.800,275.200 347.026,275.200 347.302 C 275.200 348.011,278.281 351.200,278.967 351.200 C 279.743 351.200,282.628 354.027,282.978 355.130 C 283.321 356.211,284.747 357.687,286.380 358.652 C 287.561 359.349,295.200 358.449,295.200 357.612 C 295.200 357.474,295.830 357.133,296.600 356.854 C 297.370 356.576,298.000 356.105,298.000 355.808 C 298.000 355.511,298.559 354.758,299.242 354.134 C 299.925 353.510,301.230 352.236,302.142 351.302 C 303.054 350.367,303.921 349.602,304.068 349.602 C 304.443 349.599,308.000 346.006,308.000 345.629 C 308.000 345.460,309.017 344.304,310.261 343.061 L 312.522 340.800 316.869 340.800 L 321.216 340.800 323.606 343.100 C 324.921 344.365,325.997 345.551,325.998 345.736 C 326.000 346.095,329.487 349.600,329.843 349.600 C 330.270 349.600,336.000 355.540,336.000 355.984 C 336.000 356.236,336.540 356.630,337.200 356.860 C 337.860 357.090,338.400 357.421,338.400 357.595 C 338.400 357.770,338.985 358.002,339.700 358.111 C 340.415 358.220,342.141 358.532,343.535 358.804 C 345.622 359.210,346.258 359.201,347.135 358.752 C 348.585 358.010,350.400 356.314,350.400 355.701 C 350.400 355.426,350.580 355.200,350.800 355.200 C 351.020 355.200,351.200 354.999,351.200 354.753 C 351.200 354.156,354.179 351.200,354.780 351.200 C 355.587 351.200,358.725 347.862,359.015 346.696 C 359.839 343.373,357.808 335.600,356.115 335.600 C 355.938 335.600,355.568 335.240,355.293 334.800 C 355.018 334.360,354.638 334.000,354.448 334.000 C 353.944 334.000,350.197 330.290,349.888 329.486 C 349.744 329.109,349.452 328.800,349.240 328.800 C 349.027 328.800,348.740 328.440,348.600 328.000 C 348.460 327.560,348.132 327.200,347.869 327.200 C 347.607 327.200,347.168 326.840,346.893 326.400 C 346.618 325.960,346.206 325.600,345.978 325.600 C 345.749 325.600,344.649 324.687,343.533 323.571 L 341.504 321.542 341.174 317.079 C 340.807 312.123,340.697 312.443,343.734 309.624 C 346.817 306.762,347.247 306.400,347.572 306.400 C 347.754 306.400,348.127 305.860,348.400 305.200 C 348.673 304.540,349.028 304.000,349.188 304.000 C 349.567 304.000,354.000 299.567,354.000 299.188 C 354.000 299.028,354.525 298.680,355.166 298.414 C 355.853 298.130,356.541 297.412,356.843 296.666 C 357.124 295.970,357.483 295.310,357.641 295.199 C 357.968 294.969,359.200 289.266,359.200 287.979 C 359.200 286.278,357.413 283.833,355.415 282.800 C 353.960 282.047,351.705 279.760,351.366 278.692 C 351.083 277.803,348.981 275.600,348.415 275.600 C 348.218 275.600,347.753 275.296,347.382 274.925 C 346.686 274.229,343.638 274.112,343.210 274.764 C 343.095 274.940,341.687 275.277,340.081 275.512 C 337.223 275.931,334.000 278.205,334.000 279.804 C 334.000 280.026,333.640 280.432,333.200 280.707 C 332.760 280.982,332.400 281.377,332.400 281.585 C 332.400 282.020,330.505 283.998,330.082 284.004 C 329.927 284.007,329.190 284.637,328.444 285.404 C 327.698 286.172,326.945 286.800,326.771 286.800 C 326.597 286.800,326.337 287.169,326.194 287.620 C 324.600 292.640,312.833 294.008,309.200 289.595 C 307.685 287.756,304.282 284.324,302.862 283.204 C 302.168 282.657,301.600 281.988,301.600 281.718 C 301.600 281.449,301.240 281.035,300.800 280.800 C 300.360 280.565,300.000 280.165,300.000 279.912 C 300.000 278.379,296.103 275.704,293.456 275.421 C 291.995 275.264,290.800 274.990,290.800 274.810 C 290.800 274.447,287.945 274.090,287.125 274.350 M291.651 280.367 C 293.193 281.881,293.709 282.236,294.995 282.665 C 295.656 282.885,296.421 283.581,296.777 284.286 C 297.119 284.965,297.886 285.849,298.481 286.250 C 299.075 286.652,299.795 287.428,300.081 287.975 C 300.629 289.025,303.166 291.600,303.653 291.600 C 303.810 291.600,304.644 292.320,305.507 293.200 C 306.369 294.080,307.215 294.800,307.386 294.800 C 307.558 294.800,308.748 295.880,310.032 297.200 L 312.365 299.600 316.984 299.600 L 321.602 299.600 323.001 298.117 C 323.770 297.301,324.400 296.491,324.400 296.317 C 324.400 296.142,324.651 296.000,324.957 296.000 C 325.264 296.000,325.618 295.730,325.745 295.400 C 325.871 295.070,326.206 294.798,326.487 294.796 C 326.769 294.794,327.630 294.076,328.400 293.200 C 329.170 292.324,329.961 291.606,330.157 291.604 C 330.613 291.599,333.190 289.109,333.196 288.669 C 333.198 288.487,333.920 287.666,334.800 286.845 C 335.680 286.025,336.403 285.184,336.407 284.977 C 336.417 284.404,338.086 282.950,339.100 282.630 C 339.595 282.474,340.000 282.178,340.000 281.973 C 340.000 281.768,340.236 281.600,340.524 281.600 C 340.812 281.600,341.588 281.072,342.248 280.427 C 344.101 278.615,346.421 278.553,346.934 280.300 C 347.144 281.015,347.450 281.600,347.615 281.600 C 347.779 281.600,348.032 282.073,348.177 282.651 C 348.603 284.347,350.554 285.981,352.785 286.511 C 355.373 287.125,355.483 288.138,353.200 290.354 C 352.320 291.208,351.600 292.113,351.600 292.366 C 351.600 292.618,351.343 292.924,351.030 293.044 C 350.716 293.164,350.340 293.969,350.195 294.831 C 350.049 295.694,349.721 296.402,349.465 296.404 C 348.870 296.410,346.400 298.939,346.400 299.543 C 346.400 299.794,346.125 300.000,345.789 300.000 C 344.996 300.000,341.600 303.396,341.600 304.189 C 341.600 304.525,341.426 304.800,341.214 304.800 C 340.686 304.800,338.400 307.072,338.400 307.596 C 338.400 307.829,337.931 308.198,337.357 308.416 C 336.083 308.901,334.000 310.813,334.000 311.499 C 334.000 311.774,333.820 312.000,333.600 312.000 C 333.374 312.000,333.200 313.133,333.200 314.600 C 333.200 316.067,333.374 317.200,333.600 317.200 C 333.820 317.200,334.000 318.022,334.000 319.026 C 334.000 321.684,334.368 322.250,338.144 325.400 C 338.935 326.060,339.587 326.825,339.591 327.100 C 339.596 327.375,339.825 327.604,340.100 327.609 C 340.375 327.613,341.140 328.272,341.800 329.072 C 342.460 329.872,343.496 330.993,344.103 331.563 C 344.709 332.134,345.834 333.191,346.603 333.913 C 347.371 334.636,348.000 335.401,348.000 335.613 C 348.000 335.826,348.174 336.000,348.386 336.000 C 349.207 336.000,351.040 338.279,351.524 339.900 C 351.804 340.835,352.208 341.600,352.423 341.600 C 352.637 341.600,353.113 342.230,353.481 343.000 C 353.848 343.770,354.295 344.400,354.474 344.400 C 355.848 344.400,354.633 346.448,353.000 346.884 C 352.010 347.149,351.200 347.487,351.200 347.634 C 351.200 347.782,350.667 348.124,350.015 348.394 C 349.363 348.664,348.599 349.406,348.317 350.042 C 348.035 350.679,347.671 351.200,347.508 351.200 C 347.345 351.200,347.008 352.010,346.758 353.000 C 346.252 355.009,345.558 355.304,344.873 353.800 C 344.622 353.250,344.143 352.800,343.809 352.800 C 343.474 352.800,343.200 352.611,343.200 352.379 C 343.200 352.148,342.660 351.770,342.000 351.540 C 341.340 351.310,340.800 350.961,340.800 350.766 C 340.800 350.570,340.080 350.294,339.200 350.154 C 338.235 349.999,337.600 349.680,337.600 349.349 C 337.600 349.047,337.463 348.800,337.296 348.800 C 337.128 348.800,336.273 348.173,335.396 347.408 C 334.518 346.642,333.665 346.012,333.500 346.008 C 333.335 346.003,333.200 345.768,333.200 345.483 C 333.200 344.923,330.596 342.000,330.097 342.000 C 329.561 342.000,327.671 340.053,327.410 339.233 C 327.272 338.797,326.808 338.330,326.380 338.194 C 325.951 338.057,325.600 337.704,325.600 337.407 C 325.600 336.925,323.894 335.037,322.249 333.700 C 321.485 333.079,312.000 332.987,312.000 333.600 C 312.000 333.820,311.763 334.000,311.474 334.000 C 310.806 334.000,308.400 336.691,308.400 337.439 C 308.400 337.747,308.136 338.000,307.814 338.000 C 307.492 338.000,307.015 338.405,306.755 338.900 C 306.298 339.770,305.718 340.348,302.126 343.521 C 301.205 344.335,300.440 345.185,300.426 345.411 C 300.395 345.908,298.285 347.805,297.376 348.154 C 297.017 348.292,296.636 348.743,296.527 349.156 C 296.393 349.668,295.830 349.989,294.765 350.159 C 293.904 350.297,293.200 350.587,293.200 350.805 C 293.200 351.022,292.930 351.200,292.600 351.200 C 292.270 351.200,291.640 351.560,291.200 352.000 C 290.760 352.440,290.245 352.800,290.056 352.800 C 289.867 352.800,289.374 353.250,288.961 353.800 C 288.110 354.933,287.600 355.083,287.600 354.200 C 287.600 353.870,287.464 353.600,287.297 353.600 C 287.131 353.600,286.761 352.850,286.474 351.932 C 285.931 350.193,284.545 348.419,283.720 348.407 C 283.456 348.403,283.096 348.155,282.920 347.856 C 282.744 347.557,281.880 347.147,281.000 346.944 C 279.095 346.504,278.385 344.064,279.923 343.241 C 280.345 343.015,280.932 342.239,281.228 341.515 C 281.524 340.792,281.999 339.962,282.283 339.671 C 282.567 339.381,282.800 338.796,282.800 338.371 C 282.800 337.947,282.981 337.600,283.201 337.600 C 283.422 337.600,284.739 336.430,286.127 335.000 C 287.515 333.570,288.820 332.392,289.026 332.382 C 289.232 332.371,289.760 331.891,290.200 331.314 C 290.640 330.737,292.125 329.109,293.500 327.696 C 294.875 326.282,296.000 324.963,296.000 324.763 C 296.000 324.563,296.142 324.400,296.317 324.400 C 297.931 324.400,299.716 321.396,300.088 318.052 C 300.761 312.004,299.976 309.852,296.593 308.472 C 295.928 308.201,295.155 307.457,294.870 306.813 C 294.586 306.172,293.834 305.416,293.198 305.135 C 292.562 304.854,291.940 304.217,291.816 303.720 C 291.533 302.595,289.603 300.582,288.458 300.218 C 287.986 300.069,287.600 299.797,287.600 299.615 C 287.600 299.112,285.493 296.986,284.700 296.688 C 284.315 296.543,284.000 296.059,284.000 295.613 C 284.000 295.166,283.856 294.800,283.680 294.800 C 283.505 294.800,283.126 294.152,282.840 293.361 C 282.554 292.569,281.618 291.240,280.760 290.407 C 278.981 288.681,278.591 286.800,280.013 286.800 C 282.606 286.800,285.212 284.583,286.220 281.521 C 287.211 278.510,289.308 278.065,291.651 280.367 M229.655 322.900 C 230.549 327.274,230.810 329.486,231.198 335.981 C 231.428 339.821,231.776 343.061,231.971 343.182 C 232.167 343.303,232.455 344.085,232.611 344.921 C 232.768 345.756,233.100 346.655,233.348 346.920 C 233.597 347.184,234.045 347.875,234.344 348.456 C 234.643 349.037,235.318 349.742,235.844 350.024 C 236.370 350.305,236.800 350.685,236.800 350.868 C 236.800 351.050,237.070 351.200,237.400 351.200 C 237.730 351.200,238.000 351.547,238.000 351.971 C 238.000 352.396,238.270 353.013,238.600 353.343 C 239.209 353.952,239.431 356.436,238.922 356.945 C 238.769 357.098,238.615 357.443,238.579 357.712 C 237.895 362.908,237.895 362.910,239.726 361.935 C 242.305 360.561,244.428 352.503,242.536 351.270 C 242.308 351.121,241.805 349.695,241.418 348.100 C 241.031 346.505,240.593 345.200,240.444 345.200 C 240.296 345.200,239.935 344.390,239.643 343.400 C 239.351 342.410,238.964 341.600,238.783 341.600 C 238.602 341.600,238.340 341.241,238.201 340.802 C 238.062 340.364,237.693 339.750,237.382 339.439 C 236.819 338.876,235.600 332.931,235.600 330.748 C 235.600 330.116,235.459 329.600,235.287 329.600 C 235.115 329.600,234.735 328.790,234.443 327.800 C 234.151 326.810,233.780 326.000,233.620 326.000 C 233.460 326.000,233.123 325.549,232.872 324.998 C 232.370 323.898,230.039 321.200,229.589 321.200 C 229.434 321.200,229.464 321.965,229.655 322.900 " stroke="none" fill="#c8d0c8" fill-rule="evenodd"/></g></svg>