<svg xmlns="http://www.w3.org/2000/svg" xmlns:xlink="http://www.w3.org/1999/xlink" id="svg" version="1.1" viewBox="161.76 55.02 77.76 74.47"><g id="svgg"><path id="path0" d="M195.021 55.571 L 194.911 56.121 193.387 56.121 C 191.669 56.121,190.929 56.328,190.793 56.847 C 190.731 57.084,190.511 57.219,190.124 57.257 C 189.645 57.304,189.531 57.406,189.449 57.863 C 189.365 58.334,189.279 58.406,188.853 58.361 C 188.411 58.314,188.354 58.370,188.354 58.846 C 188.354 59.406,188.011 59.674,187.529 59.489 C 187.321 59.409,187.254 59.520,187.254 59.938 C 187.254 60.406,187.167 60.513,186.703 60.614 C 186.176 60.730,186.153 60.776,186.153 61.715 C 186.153 62.654,186.131 62.699,185.603 62.815 C 185.067 62.933,185.053 62.965,185.053 64.022 C 185.053 65.106,185.052 65.108,184.503 65.108 L 183.952 65.108 183.952 70.390 C 183.952 75.872,183.985 76.112,184.723 76.112 C 184.995 76.112,185.053 76.267,185.053 77.006 C 185.053 78.440,185.237 79.056,185.720 79.240 C 186.043 79.362,186.153 79.545,186.153 79.959 C 186.153 80.453,186.213 80.514,186.703 80.514 C 187.192 80.514,187.254 80.575,187.254 81.064 C 187.254 81.553,187.315 81.614,187.804 81.614 C 188.294 81.614,188.354 81.675,188.354 82.169 C 188.354 82.638,188.438 82.740,188.904 82.834 C 189.273 82.907,189.454 83.053,189.454 83.277 C 189.454 83.716,189.636 83.810,190.734 83.940 C 191.535 84.035,191.655 84.103,191.655 84.463 C 191.655 85.001,191.954 85.099,193.596 85.099 C 194.653 85.099,194.956 85.157,194.956 85.361 C 194.956 86.437,200.342 86.652,200.494 85.582 C 200.546 85.222,200.693 85.182,202.293 85.083 C 204.233 84.964,204.614 84.853,204.770 84.359 C 204.839 84.141,205.088 84.000,205.465 83.963 C 205.952 83.916,206.062 83.821,206.110 83.402 C 206.154 83.020,206.267 82.898,206.578 82.898 C 207.239 82.898,207.980 82.472,208.095 82.025 C 208.154 81.796,208.393 81.563,208.628 81.504 C 209.072 81.392,209.445 80.634,209.445 79.844 C 209.445 79.538,209.550 79.413,209.806 79.413 C 210.381 79.413,210.588 78.768,210.517 77.195 C 210.440 75.504,210.228 75.197,209.041 75.063 C 208.442 74.995,208.186 74.870,208.059 74.579 C 207.838 74.077,206.193 73.746,205.496 74.064 C 205.095 74.246,205.044 74.385,205.044 75.271 C 205.044 76.250,205.032 76.272,204.539 76.238 C 204.118 76.209,204.025 76.285,203.978 76.696 C 203.935 77.071,203.793 77.216,203.382 77.306 C 202.976 77.396,202.843 77.529,202.843 77.846 C 202.843 78.167,202.712 78.293,202.293 78.377 C 201.823 78.471,201.742 78.570,201.742 79.058 C 201.742 79.623,201.735 79.627,201.005 79.504 C 199.522 79.254,198.444 79.548,198.419 80.210 L 198.398 80.789 198.281 80.243 C 198.144 79.605,197.169 79.325,195.644 79.487 C 194.889 79.567,194.773 79.535,194.773 79.244 C 194.773 78.755,194.301 78.440,193.527 78.413 C 192.927 78.392,192.837 78.327,192.750 77.847 C 192.667 77.385,192.578 77.312,192.154 77.357 C 191.674 77.408,191.655 77.377,191.652 76.531 C 191.649 75.521,191.539 75.294,190.967 75.116 C 190.607 75.003,190.555 74.863,190.555 74.002 C 190.555 72.789,190.298 72.071,189.819 71.946 C 189.488 71.860,189.454 71.693,189.454 70.153 L 189.454 68.455 190.005 68.345 C 190.542 68.237,190.555 68.209,190.555 67.142 C 190.555 66.200,190.607 66.033,190.932 65.930 C 191.360 65.794,191.655 65.155,191.655 64.362 C 191.655 63.886,191.719 63.824,192.205 63.824 C 192.694 63.824,192.756 63.763,192.756 63.274 C 192.756 62.785,192.817 62.724,193.306 62.724 C 193.793 62.724,193.856 62.661,193.856 62.182 C 193.856 61.652,193.878 61.640,194.911 61.586 C 195.909 61.534,195.968 61.505,196.023 61.027 C 196.080 60.535,196.110 60.523,197.261 60.523 L 198.441 60.523 198.441 61.073 L 198.441 61.623 200.092 61.623 L 201.742 61.623 201.742 62.173 C 201.742 62.662,201.803 62.724,202.293 62.724 C 202.782 62.724,202.843 62.785,202.843 63.274 C 202.843 63.763,202.904 63.824,203.393 63.824 C 203.881 63.824,203.943 63.885,203.943 64.371 C 203.943 65.095,204.141 65.133,207.611 65.069 L 210.454 65.016 210.505 62.316 L 210.555 59.615 210.085 59.497 C 209.827 59.432,209.379 59.426,209.091 59.484 C 208.083 59.686,207.271 59.432,207.209 58.896 C 207.178 58.629,207.030 58.403,206.878 58.389 C 206.726 58.375,206.505 58.355,206.385 58.343 C 206.266 58.331,206.142 58.095,206.110 57.818 C 206.065 57.421,205.944 57.301,205.548 57.255 C 205.214 57.217,205.044 57.090,205.044 56.879 C 205.044 56.340,204.643 56.121,203.661 56.121 C 202.849 56.121,202.691 56.061,202.521 55.689 C 202.255 55.104,201.707 55.021,198.138 55.021 L 195.131 55.021 195.021 55.571 M222.054 55.219 C 221.878 55.322,221.733 55.567,221.733 55.763 C 221.733 56.092,221.597 56.121,220.083 56.121 L 218.432 56.121 218.432 56.671 C 218.432 57.176,218.380 57.221,217.802 57.221 C 216.869 57.221,216.231 57.517,216.231 57.951 C 216.231 58.228,216.111 58.322,215.757 58.322 C 215.397 58.322,215.232 58.456,215.072 58.879 C 214.952 59.197,214.688 59.480,214.457 59.538 C 214.200 59.603,214.010 59.832,213.937 60.165 C 213.873 60.453,213.669 60.738,213.483 60.797 C 213.078 60.925,212.765 61.732,212.819 62.508 C 212.840 62.815,212.799 63.031,212.727 62.987 C 212.036 62.560,211.646 63.761,211.646 66.315 L 211.646 68.385 211.142 68.443 L 210.637 68.501 210.585 70.400 C 210.530 72.382,210.656 72.811,211.296 72.811 C 211.603 72.811,211.639 73.012,211.686 74.966 C 211.737 77.109,211.740 77.121,212.196 77.185 C 212.809 77.271,212.898 77.461,212.823 78.518 L 212.759 79.413 213.349 79.413 C 213.913 79.414,213.939 79.445,213.954 80.156 C 213.965 80.745,214.088 81.008,214.550 81.429 C 214.869 81.721,215.131 82.130,215.131 82.337 C 215.131 82.582,215.250 82.714,215.470 82.714 C 215.657 82.714,216.068 82.961,216.383 83.262 C 216.735 83.598,217.239 83.854,217.694 83.927 C 218.302 84.024,218.432 84.118,218.432 84.457 C 218.432 84.974,218.968 85.099,221.193 85.099 C 222.725 85.099,222.811 85.120,222.867 85.509 C 223.002 86.454,227.235 86.486,227.235 85.542 C 227.235 85.116,227.265 85.110,229.390 85.059 L 231.545 85.007 231.601 84.522 C 231.652 84.083,231.751 84.026,232.656 83.913 C 233.503 83.807,233.670 83.723,233.763 83.354 C 233.838 83.055,234.025 82.901,234.359 82.862 C 234.760 82.816,234.857 82.701,234.904 82.210 C 234.954 81.686,235.026 81.614,235.500 81.614 C 235.973 81.614,236.039 81.549,236.039 81.076 C 236.039 80.625,236.120 80.528,236.543 80.480 C 237.020 80.425,237.050 80.366,237.102 79.367 C 237.156 78.344,237.173 78.313,237.679 78.313 C 238.283 78.313,238.423 78.056,238.423 76.942 C 238.423 76.264,238.484 76.136,238.856 76.043 C 239.442 75.896,239.523 75.193,239.523 70.240 C 239.523 65.556,239.466 65.108,238.867 65.108 C 238.478 65.108,238.436 65.018,238.386 64.064 C 238.333 63.060,238.309 63.015,237.744 62.869 C 237.179 62.723,237.155 62.679,237.102 61.666 C 237.050 60.671,237.020 60.611,236.543 60.556 C 236.115 60.507,236.039 60.413,236.039 59.937 C 236.039 59.412,236.004 59.383,235.488 59.486 C 234.960 59.592,234.938 59.571,234.938 58.947 C 234.938 58.412,234.881 58.315,234.617 58.397 C 234.173 58.535,233.886 58.313,233.810 57.772 C 233.759 57.409,233.626 57.301,233.169 57.257 C 232.781 57.219,232.561 57.084,232.499 56.847 C 232.363 56.326,231.622 56.121,229.883 56.121 C 228.515 56.121,228.336 56.083,228.336 55.791 C 228.336 55.103,227.988 55.020,225.135 55.026 C 223.604 55.029,222.232 55.115,222.054 55.219 M161.761 58.322 L 161.761 60.523 162.861 60.523 L 163.961 60.523 163.961 69.957 L 163.961 79.391 163.090 79.507 C 162.611 79.571,162.114 79.657,161.985 79.698 C 161.806 79.755,161.763 80.391,161.801 82.390 L 161.852 85.007 172.704 85.007 C 178.672 85.007,183.624 84.938,183.708 84.854 C 183.897 84.665,183.912 76.570,183.724 75.901 C 183.533 75.222,182.786 75.011,180.559 75.011 C 177.474 75.011,177.361 75.103,177.213 77.717 L 177.116 79.413 173.840 79.413 L 170.564 79.413 170.564 76.112 L 170.564 72.811 174.415 72.811 L 178.267 72.811 178.267 70.280 C 178.267 67.053,178.617 67.309,174.195 67.309 L 170.564 67.309 170.564 63.916 L 170.564 60.523 173.844 60.523 L 177.123 60.523 177.209 62.861 C 177.334 66.236,177.203 66.116,180.784 66.116 C 184.026 66.116,183.844 66.408,183.921 61.084 C 183.962 58.234,183.916 56.763,183.777 56.504 C 183.573 56.122,183.534 56.121,172.667 56.121 L 161.761 56.121 161.761 58.322 M226.168 61.027 C 226.224 61.509,226.276 61.534,227.355 61.586 C 228.363 61.634,228.495 61.685,228.591 62.068 C 228.702 62.510,229.157 62.717,230.032 62.721 C 230.470 62.723,230.536 62.796,230.536 63.274 C 230.536 63.776,230.590 63.824,231.153 63.824 C 231.749 63.824,231.767 63.846,231.716 64.489 C 231.641 65.444,231.907 66.025,232.420 66.025 C 232.833 66.025,232.844 66.066,232.781 67.387 C 232.695 69.177,232.968 70.202,233.569 70.353 C 234.100 70.486,234.175 70.793,233.677 70.793 C 233.008 70.793,232.829 71.302,232.829 73.205 C 232.829 74.925,232.810 75.011,232.439 75.011 C 231.940 75.011,231.567 75.458,231.686 75.914 C 231.749 76.154,231.702 76.238,231.539 76.176 C 231.180 76.038,230.536 76.446,230.536 76.812 C 230.536 76.999,230.308 77.218,229.986 77.340 C 229.629 77.474,229.436 77.675,229.436 77.912 C 229.436 78.152,229.248 78.342,228.886 78.469 C 228.486 78.608,228.336 78.778,228.336 79.088 C 228.336 79.494,228.269 79.517,227.098 79.527 C 226.417 79.532,225.530 79.541,225.126 79.546 C 224.723 79.552,223.799 79.561,223.074 79.567 L 221.755 79.579 221.698 78.992 C 221.649 78.485,221.572 78.405,221.137 78.412 C 220.746 78.417,220.633 78.333,220.633 78.036 C 220.633 77.574,220.305 77.212,219.885 77.212 C 219.688 77.212,219.537 77.007,219.464 76.639 C 219.359 76.116,219.301 76.076,218.799 76.176 L 218.249 76.286 218.249 75.266 C 218.249 74.301,218.219 74.235,217.698 74.038 L 217.148 73.831 217.148 70.478 C 217.148 68.365,217.216 67.125,217.331 67.125 C 217.747 67.125,218.249 66.371,218.249 65.745 C 218.249 65.179,218.314 65.085,218.780 64.992 C 219.182 64.912,219.336 64.758,219.417 64.355 C 219.499 63.946,219.624 63.824,219.963 63.824 C 220.303 63.824,220.428 63.702,220.511 63.287 C 220.595 62.867,220.731 62.736,221.130 62.691 C 221.534 62.644,221.654 62.526,221.699 62.127 C 221.755 61.646,221.803 61.623,222.759 61.623 C 223.724 61.623,223.764 61.604,223.870 61.073 C 224.035 60.249,226.074 60.208,226.168 61.027 M166.570 99.534 C 166.156 99.614,166.153 99.633,166.203 102.306 L 166.254 104.998 167.309 105.053 L 168.363 105.108 168.363 114.544 L 168.363 123.980 167.263 123.980 L 166.162 123.980 166.162 126.734 L 166.162 129.487 171.619 129.439 L 177.075 129.390 177.125 126.685 L 177.176 123.980 175.521 123.980 L 173.865 123.980 173.865 120.587 L 173.865 117.194 178.715 117.194 C 182.329 117.194,183.599 117.137,183.702 116.970 C 183.885 116.674,184.030 112.760,183.880 112.161 L 183.762 111.692 178.814 111.692 L 173.865 111.692 173.865 108.391 L 173.865 105.089 177.808 105.089 L 181.751 105.089 181.751 107.290 L 181.751 109.491 184.503 109.491 L 187.254 109.491 187.254 111.692 L 187.254 113.893 188.354 113.893 L 189.454 113.893 189.457 119.716 C 189.460 125.744,189.473 125.868,190.119 126.069 C 190.406 126.159,190.534 126.387,190.609 126.944 C 190.736 127.893,191.042 128.200,191.987 128.327 C 192.628 128.413,192.744 128.497,192.791 128.909 L 192.847 129.390 196.240 129.445 C 200.490 129.514,201.105 129.436,201.460 128.783 L 201.728 128.290 201.735 128.890 L 201.742 129.489 205.548 129.440 L 209.354 129.390 209.354 126.731 L 209.354 124.072 208.301 124.017 L 207.248 123.962 207.201 116.222 L 207.153 108.482 203.372 108.433 L 199.591 108.383 199.476 109.075 C 199.329 109.964,199.330 111.704,199.477 112.930 L 199.593 113.893 200.667 113.893 L 201.742 113.893 201.742 118.386 L 201.742 122.879 201.204 122.879 C 200.411 122.879,199.772 123.174,199.637 123.603 C 199.527 123.948,199.372 123.980,197.787 123.980 L 196.057 123.980 196.057 122.879 L 196.057 121.779 195.507 121.779 L 194.956 121.779 194.956 115.085 L 194.956 108.391 191.105 108.391 L 187.254 108.391 187.254 104.010 L 187.254 99.630 186.841 99.520 C 186.377 99.395,167.222 99.409,166.570 99.534 M211.961 99.553 C 211.667 99.610,211.640 99.826,211.686 101.757 L 211.738 103.897 213.434 103.950 L 215.131 104.003 215.131 113.984 L 215.131 123.966 213.434 124.019 L 211.738 124.072 211.738 126.731 L 211.738 129.390 217.240 129.390 L 222.742 129.390 222.742 126.731 L 222.742 124.072 221.687 124.017 L 220.633 123.962 220.630 112.004 C 220.628 105.427,220.560 99.941,220.479 99.812 C 220.340 99.594,212.919 99.368,211.961 99.553 M224.235 99.556 C 223.958 99.610,223.928 99.861,223.974 101.757 L 224.026 103.897 225.080 103.952 L 226.135 104.007 226.135 113.984 L 226.135 123.962 225.080 124.017 L 224.026 124.072 224.026 126.731 L 224.026 129.390 229.482 129.439 L 234.938 129.487 234.938 126.734 L 234.938 123.980 233.289 123.980 L 231.639 123.980 231.592 111.769 L 231.545 99.559 228.047 99.527 C 226.123 99.510,224.408 99.523,224.235 99.556 " stroke="none" fill="#343434" fill-rule="evenodd"/><path id="path1" d="M221.962 79.540 C 222.139 79.586,222.428 79.586,222.604 79.540 C 222.781 79.493,222.636 79.456,222.283 79.456 C 221.930 79.456,221.786 79.493,221.962 79.540 M214.802 99.540 C 215.478 99.575,216.634 99.575,217.369 99.540 C 218.105 99.505,217.552 99.477,216.139 99.476 C 214.727 99.476,214.125 99.505,214.802 99.540 M226.906 99.540 C 227.583 99.575,228.738 99.575,229.474 99.540 C 230.210 99.505,229.656 99.477,228.244 99.476 C 226.832 99.476,226.230 99.505,226.906 99.540 M215.033 113.984 C 215.033 119.532,215.056 121.828,215.085 119.087 C 215.113 116.345,215.113 111.806,215.085 109.000 C 215.056 106.193,215.033 108.436,215.033 113.984 " stroke="none" fill="#383434" fill-rule="evenodd"/><path id="path2" d="M221.962 79.540 C 222.139 79.586,222.428 79.586,222.604 79.540 C 222.781 79.493,222.636 79.456,222.283 79.456 C 221.930 79.456,221.786 79.493,221.962 79.540 M214.802 99.540 C 215.478 99.575,216.634 99.575,217.369 99.540 C 218.105 99.505,217.552 99.477,216.139 99.476 C 214.727 99.476,214.125 99.505,214.802 99.540 M226.906 99.540 C 227.583 99.575,228.738 99.575,229.474 99.540 C 230.210 99.505,229.656 99.477,228.244 99.476 C 226.832 99.476,226.230 99.505,226.906 99.540 M215.033 113.984 C 215.033 119.532,215.056 121.828,215.085 119.087 C 215.113 116.345,215.113 111.806,215.085 109.000 C 215.056 106.193,215.033 108.436,215.033 113.984 " stroke="none" fill="#383434" fill-rule="evenodd"/><path id="path3" d="M221.962 79.540 C 222.139 79.586,222.428 79.586,222.604 79.540 C 222.781 79.493,222.636 79.456,222.283 79.456 C 221.930 79.456,221.786 79.493,221.962 79.540 M214.802 99.540 C 215.478 99.575,216.634 99.575,217.369 99.540 C 218.105 99.505,217.552 99.477,216.139 99.476 C 214.727 99.476,214.125 99.505,214.802 99.540 M226.906 99.540 C 227.583 99.575,228.738 99.575,229.474 99.540 C 230.210 99.505,229.656 99.477,228.244 99.476 C 226.832 99.476,226.230 99.505,226.906 99.540 M215.033 113.984 C 215.033 119.532,215.056 121.828,215.085 119.087 C 215.113 116.345,215.113 111.806,215.085 109.000 C 215.056 106.193,215.033 108.436,215.033 113.984 " stroke="none" fill="#383434" fill-rule="evenodd"/><path id="path4" d="M221.962 79.540 C 222.139 79.586,222.428 79.586,222.604 79.540 C 222.781 79.493,222.636 79.456,222.283 79.456 C 221.930 79.456,221.786 79.493,221.962 79.540 M214.802 99.540 C 215.478 99.575,216.634 99.575,217.369 99.540 C 218.105 99.505,217.552 99.477,216.139 99.476 C 214.727 99.476,214.125 99.505,214.802 99.540 M226.906 99.540 C 227.583 99.575,228.738 99.575,229.474 99.540 C 230.210 99.505,229.656 99.477,228.244 99.476 C 226.832 99.476,226.230 99.505,226.906 99.540 M215.033 113.984 C 215.033 119.532,215.056 121.828,215.085 119.087 C 215.113 116.345,215.113 111.806,215.085 109.000 C 215.056 106.193,215.033 108.436,215.033 113.984 " stroke="none" fill="#383434" fill-rule="evenodd"/></g></svg>