<svg xmlns="http://www.w3.org/2000/svg" xmlns:xlink="http://www.w3.org/1999/xlink" id="svg" version="1.1" viewBox="28.09 28.11 343.94 343.96"><g id="svgg"><path id="path0" d="M148.800 28.530 C 148.426 28.823,148.179 29.753,148.145 31.000 C 148.115 32.100,148.070 33.768,148.045 34.708 C 148.004 36.275,147.926 36.397,147.091 36.187 C 146.590 36.061,145.737 36.123,145.194 36.324 C 144.651 36.525,143.707 36.545,143.096 36.370 C 142.485 36.195,142.077 36.201,142.190 36.384 C 142.373 36.679,141.314 37.374,140.800 37.297 C 140.093 37.190,140.227 57.149,140.941 58.305 C 141.108 58.575,141.616 58.995,142.071 59.238 C 142.668 59.558,142.821 59.558,142.625 59.240 C 142.471 58.992,142.625 58.800,142.976 58.800 C 143.319 58.800,143.600 58.994,143.600 59.232 C 143.600 59.500,144.039 59.567,144.762 59.408 C 145.428 59.262,146.035 59.334,146.186 59.577 C 146.329 59.809,146.842 60.000,147.324 60.001 C 148.194 60.002,148.200 60.059,148.267 67.901 C 148.398 83.346,148.405 83.376,152.213 83.432 C 153.414 83.449,154.518 83.584,154.665 83.732 C 154.813 83.879,155.283 84.000,155.709 84.000 C 156.253 84.000,156.413 84.190,156.243 84.633 C 156.109 84.981,156.000 86.945,156.000 88.998 L 156.000 92.730 154.300 93.012 C 150.853 93.585,149.585 94.852,149.013 98.294 C 148.858 99.226,148.792 100.053,148.866 100.133 C 148.940 100.212,148.760 100.567,148.466 100.921 C 148.172 101.275,148.029 101.723,148.148 101.916 C 148.528 102.531,147.690 110.970,147.234 111.122 C 146.995 111.202,146.800 111.603,146.800 112.015 C 146.800 112.998,144.976 114.800,143.982 114.800 C 143.552 114.800,143.200 114.948,143.200 115.129 C 143.200 115.311,142.525 115.626,141.700 115.829 L 140.200 116.200 140.000 119.716 C 139.763 123.887,139.668 123.983,135.800 124.000 C 132.326 124.015,132.133 124.140,131.577 126.735 C 130.492 131.791,129.359 132.053,108.718 132.033 C 99.679 132.024,92.230 131.963,92.165 131.899 C 92.101 131.834,92.011 130.435,91.967 128.790 C 91.843 124.232,92.003 124.389,87.248 124.167 C 83.689 124.002,84.064 124.387,83.967 120.790 C 83.843 116.239,84.030 116.421,79.245 116.175 C 75.682 115.991,76.064 116.385,75.967 112.790 C 75.902 110.395,75.329 107.119,75.225 108.549 C 75.211 108.741,74.932 108.676,74.605 108.404 C 74.278 108.133,73.709 108.026,73.340 108.168 C 72.971 108.309,71.619 108.306,70.335 108.161 L 68.000 107.897 68.000 96.181 C 68.000 82.291,67.823 83.125,70.704 83.464 C 72.229 83.643,72.842 83.592,72.662 83.300 C 72.501 83.040,72.677 82.947,73.115 83.062 C 74.020 83.299,75.380 81.847,75.053 80.994 C 74.894 80.579,74.968 80.457,75.267 80.641 C 75.601 80.848,75.653 80.315,75.459 78.662 C 75.300 77.310,75.346 76.400,75.574 76.400 C 75.806 76.400,75.959 72.055,75.966 65.300 C 75.978 52.959,75.846 52.172,73.781 52.238 C 73.131 52.259,72.915 52.201,73.300 52.110 C 74.140 51.911,74.140 51.910,73.460 50.281 C 72.772 48.635,70.417 46.555,68.853 46.212 C 68.062 46.038,67.718 45.759,67.854 45.404 C 68.321 44.187,66.539 44.042,53.165 44.206 C 35.532 44.422,36.695 44.260,36.503 46.528 C 36.372 48.074,36.065 59.674,36.027 64.485 L 36.000 67.969 34.367 68.409 C 33.468 68.651,32.186 68.729,31.516 68.582 C 30.696 68.402,30.386 68.454,30.565 68.743 C 30.861 69.223,29.339 70.933,28.871 70.644 C 28.392 70.348,28.341 73.472,28.363 101.800 C 28.386 131.377,28.363 130.548,29.181 131.280 C 29.682 131.729,29.689 131.704,29.232 131.100 C 28.902 130.664,28.864 130.400,29.131 130.400 C 29.367 130.400,29.721 130.688,29.918 131.039 C 30.174 131.496,31.060 131.730,33.025 131.860 C 36.348 132.079,35.992 131.696,36.175 135.245 C 36.421 140.030,36.239 139.843,40.790 139.967 C 44.385 140.064,43.929 139.544,44.070 143.709 C 44.135 145.629,44.301 147.200,44.439 147.200 C 44.576 147.200,44.623 147.695,44.543 148.300 C 44.462 148.905,44.502 149.175,44.631 148.900 C 45.097 147.911,45.502 148.435,45.756 150.353 C 45.936 151.713,46.347 152.642,47.108 153.412 C 48.048 154.364,48.076 154.453,47.309 154.050 C 46.326 153.533,45.629 152.426,45.138 150.600 C 44.874 149.618,44.845 149.720,44.978 151.161 C 45.234 153.938,46.572 155.011,49.711 154.956 C 51.297 154.928,51.910 155.027,51.400 155.228 C 50.635 155.530,50.638 155.545,51.481 155.572 C 52.290 155.598,52.359 155.790,52.316 157.900 C 52.222 162.474,52.743 164.014,54.195 163.457 C 54.528 163.330,54.800 163.381,54.800 163.571 C 54.800 163.761,55.881 163.906,57.202 163.894 C 60.176 163.866,60.031 163.692,60.196 167.463 C 60.272 169.188,60.370 170.690,60.414 170.800 C 60.459 170.910,60.473 171.135,60.447 171.300 C 60.421 171.465,60.715 171.627,61.100 171.661 C 61.485 171.694,61.980 171.764,62.200 171.815 C 62.420 171.866,63.815 171.928,65.300 171.954 L 68.000 172.000 68.000 176.392 L 68.000 180.785 66.100 180.605 C 65.055 180.506,64.515 180.523,64.900 180.642 C 65.982 180.977,65.731 181.474,64.338 181.752 C 62.627 182.095,62.067 182.636,61.766 184.240 C 61.489 185.716,60.985 186.012,60.643 184.900 C 60.525 184.515,60.514 185.113,60.618 186.229 C 60.723 187.345,60.672 188.395,60.504 188.563 C 60.337 188.731,60.191 189.438,60.180 190.134 C 60.169 190.830,60.124 192.480,60.080 193.800 L 60.000 196.200 58.300 196.283 C 51.850 196.598,52.326 195.633,52.068 208.911 L 52.000 212.421 49.500 212.381 C 46.257 212.329,45.241 212.476,45.329 212.986 C 45.368 213.214,45.214 213.368,44.986 213.329 C 44.323 213.214,44.317 213.508,44.311 246.000 C 44.305 278.112,44.361 281.600,44.887 281.600 C 45.429 281.600,46.746 283.120,46.467 283.422 C 46.320 283.581,46.965 283.594,47.900 283.451 C 48.951 283.290,49.600 283.345,49.600 283.595 C 49.600 283.818,50.140 284.000,50.800 284.000 L 52.000 284.000 52.010 288.900 C 52.117 339.534,51.996 338.392,57.369 339.282 L 60.000 339.718 60.022 342.959 C 60.186 367.218,60.522 369.765,63.686 370.729 C 65.887 371.399,68.432 371.588,68.170 371.062 C 68.044 370.808,68.202 370.919,68.521 371.309 C 69.059 371.966,70.180 372.014,83.851 371.963 C 101.125 371.900,99.822 372.271,99.966 367.368 C 100.076 363.587,99.613 364.061,103.313 363.943 C 105.011 363.888,106.400 363.705,106.400 363.535 C 106.400 363.364,106.701 363.341,107.069 363.482 C 107.577 363.677,107.677 363.577,107.482 363.069 C 107.341 362.701,107.412 362.400,107.640 362.400 C 107.872 362.400,107.942 362.049,107.800 361.600 C 107.654 361.141,107.728 360.800,107.973 360.800 C 108.208 360.800,108.421 361.115,108.446 361.500 C 108.472 361.885,108.517 362.470,108.546 362.800 C 108.578 363.150,108.974 363.387,109.500 363.368 C 109.995 363.351,110.400 363.466,110.400 363.624 C 110.400 363.783,111.598 363.930,113.063 363.952 C 116.299 364.001,115.990 363.654,116.175 367.444 C 116.260 369.180,116.367 370.690,116.412 370.800 C 116.458 370.910,116.476 371.127,116.453 371.283 C 116.312 372.238,149.582 372.255,149.900 371.300 C 149.992 371.025,150.242 370.800,150.457 370.800 C 150.672 370.800,150.748 370.961,150.626 371.157 C 150.499 371.363,150.957 371.382,151.703 371.203 C 154.374 370.563,154.563 370.374,155.203 367.703 C 155.382 366.957,155.363 366.499,155.157 366.626 C 154.961 366.748,154.800 366.672,154.800 366.457 C 154.800 366.242,155.025 365.992,155.300 365.900 C 155.675 365.776,155.833 363.489,155.932 356.767 L 156.064 347.799 157.832 347.940 C 158.914 348.026,159.600 347.914,159.600 347.650 C 159.600 347.389,160.055 347.311,160.758 347.452 C 162.381 347.776,163.776 346.381,163.452 344.758 C 163.314 344.069,163.390 343.600,163.640 343.600 C 163.878 343.600,164.031 342.864,163.993 341.900 C 163.956 340.965,163.943 334.709,163.963 327.997 L 164.000 315.794 165.800 315.937 C 166.906 316.025,167.600 315.915,167.600 315.650 C 167.600 315.389,168.055 315.311,168.758 315.452 C 170.381 315.776,171.776 314.381,171.452 312.758 C 171.324 312.120,171.393 311.600,171.607 311.600 C 171.851 311.600,171.990 302.638,171.984 287.200 C 171.979 272.282,171.830 262.800,171.600 262.800 C 171.394 262.800,171.330 262.528,171.457 262.195 C 172.012 260.749,170.674 260.264,166.300 260.329 L 164.000 260.362 163.938 254.281 C 163.904 250.937,163.910 247.795,163.953 247.300 C 163.995 246.805,163.874 246.400,163.683 246.400 C 163.493 246.400,163.351 245.997,163.368 245.505 C 163.406 244.447,162.700 244.276,158.700 244.371 L 156.000 244.435 155.953 237.518 C 155.927 233.713,155.934 230.375,155.970 230.100 C 156.006 229.825,155.839 229.600,155.600 229.600 C 155.361 229.600,155.218 229.285,155.282 228.900 C 155.347 228.515,155.213 228.232,154.984 228.272 C 154.745 228.313,154.624 227.801,154.701 227.072 C 154.982 224.387,152.637 221.717,149.644 221.315 C 147.123 220.977,147.316 218.943,149.943 218.171 C 152.271 217.487,153.494 216.253,154.201 213.872 C 154.524 212.786,154.990 211.653,155.238 211.354 C 155.486 211.055,155.576 210.358,155.437 209.805 C 155.283 209.192,155.355 208.800,155.621 208.800 C 155.890 208.800,156.017 208.070,155.951 206.900 C 155.893 205.855,155.880 199.231,155.923 192.180 L 156.000 179.361 157.400 179.524 C 158.307 179.630,158.800 179.520,158.800 179.212 C 158.800 178.893,159.191 178.822,159.989 178.998 C 161.695 179.372,163.372 177.695,162.998 175.989 C 162.822 175.191,162.893 174.800,163.212 174.800 C 163.520 174.800,163.630 174.307,163.524 173.400 C 163.434 172.630,163.484 172.000,163.636 172.000 C 163.787 172.000,163.903 171.775,163.893 171.500 C 163.882 171.225,163.902 169.425,163.937 167.500 L 164.000 164.000 165.400 164.000 C 166.170 164.000,166.800 163.812,166.800 163.582 C 166.800 163.317,167.337 163.265,168.265 163.438 C 169.561 163.682,169.698 163.631,169.455 163.000 C 169.221 162.390,169.273 162.362,169.808 162.806 C 170.699 163.546,171.546 162.699,170.806 161.808 C 170.362 161.273,170.390 161.221,171.000 161.455 C 171.631 161.698,171.682 161.561,171.438 160.265 C 171.265 159.337,171.317 158.800,171.582 158.800 C 171.852 158.800,172.000 156.889,172.000 153.400 L 172.000 148.000 173.100 147.942 C 173.705 147.910,174.785 147.924,175.500 147.973 C 176.231 148.023,176.800 147.871,176.800 147.624 C 176.800 147.364,177.180 147.280,177.730 147.418 C 178.883 147.708,179.768 146.759,179.406 145.619 C 179.263 145.169,179.318 144.800,179.528 144.800 C 179.751 144.800,179.933 142.198,179.968 138.521 C 180.036 131.143,179.618 132.009,183.134 131.956 C 184.710 131.932,186.000 131.772,186.000 131.600 C 186.000 131.429,186.315 131.314,186.700 131.344 C 187.139 131.379,187.379 131.139,187.344 130.700 C 187.314 130.315,187.435 130.000,187.614 130.000 C 187.792 130.000,187.957 126.905,187.981 123.122 C 188.004 119.339,188.064 116.203,188.114 116.153 C 188.164 116.102,189.693 116.010,191.512 115.948 C 193.331 115.886,195.039 115.699,195.309 115.533 C 195.967 115.127,196.233 70.400,195.578 70.400 C 195.344 70.400,195.264 70.220,195.400 70.000 C 195.536 69.780,195.437 69.600,195.181 69.600 C 194.924 69.600,194.821 69.322,194.953 68.979 C 195.089 68.623,195.022 68.463,194.795 68.603 C 194.578 68.737,194.400 68.701,194.400 68.523 C 194.400 68.345,192.960 68.217,191.200 68.240 L 188.000 68.281 187.940 58.441 C 187.907 53.028,187.918 48.105,187.965 47.500 C 188.013 46.895,187.890 46.400,187.694 46.400 C 187.497 46.400,187.351 45.998,187.368 45.507 C 187.386 45.016,187.175 44.588,186.900 44.557 C 186.625 44.526,186.355 44.463,186.300 44.418 C 186.245 44.373,184.805 44.316,183.100 44.292 L 180.000 44.248 179.954 38.024 C 179.929 34.601,179.935 31.514,179.968 31.164 C 180.063 30.167,179.326 28.542,178.735 28.447 C 176.318 28.056,149.310 28.131,148.800 28.530 M340.785 28.532 C 340.447 28.789,340.240 29.336,340.324 29.747 C 340.416 30.196,340.309 30.391,340.056 30.235 C 338.306 29.153,332.786 34.943,334.484 36.078 C 334.818 36.301,334.575 36.384,333.800 36.311 C 332.847 36.223,332.624 36.344,332.718 36.900 C 332.782 37.285,332.631 37.600,332.382 37.600 C 332.086 37.600,332.007 38.119,332.153 39.100 C 332.275 39.925,332.246 41.662,332.088 42.959 L 331.800 45.318 329.934 45.861 C 327.765 46.493,326.154 48.172,325.774 50.198 C 325.632 50.953,325.276 51.771,324.982 52.015 C 324.688 52.259,324.546 52.715,324.667 53.029 C 324.787 53.343,324.678 53.600,324.425 53.600 C 324.125 53.600,324.042 54.056,324.188 54.900 C 324.311 55.615,324.274 57.351,324.106 58.759 L 323.800 61.318 321.934 61.861 C 319.765 62.493,318.154 64.172,317.774 66.198 C 317.632 66.953,317.276 67.771,316.982 68.015 C 316.688 68.259,316.546 68.715,316.667 69.029 C 316.787 69.343,316.730 69.600,316.539 69.600 C 316.348 69.600,316.194 71.358,316.196 73.508 L 316.200 77.415 315.000 77.290 C 312.391 77.020,309.712 79.398,309.318 82.335 C 309.110 83.883,309.611 84.650,310.137 83.590 C 310.249 83.365,310.293 83.410,310.236 83.690 C 310.178 83.971,309.787 84.200,309.366 84.201 C 308.945 84.201,308.578 84.426,308.550 84.701 C 308.523 84.975,308.450 85.335,308.390 85.500 C 308.329 85.665,308.255 86.520,308.224 87.400 C 308.194 88.280,308.131 89.881,308.085 90.957 L 308.000 92.914 305.500 92.686 C 304.125 92.561,303.233 92.553,303.517 92.668 C 304.139 92.920,303.408 94.000,302.615 94.000 C 301.977 94.000,301.264 95.608,300.969 97.713 C 300.839 98.641,300.627 99.670,300.497 100.000 C 300.232 100.672,300.182 101.329,300.075 105.552 L 300.000 108.503 297.600 108.232 C 295.932 108.043,295.200 108.097,295.200 108.409 C 295.200 108.655,294.795 108.805,294.300 108.741 C 293.134 108.590,292.377 109.074,292.653 109.794 C 292.773 110.106,292.720 110.595,292.535 110.881 C 292.351 111.166,292.200 112.480,292.200 113.800 L 292.200 116.200 289.000 116.217 C 287.240 116.226,285.476 116.271,285.080 116.317 C 284.240 116.414,282.758 119.426,283.106 120.331 C 283.278 120.779,283.157 120.869,282.649 120.674 C 282.235 120.515,282.057 120.569,282.205 120.808 C 282.531 121.335,281.323 122.523,280.793 122.196 C 280.566 122.055,280.430 122.179,280.490 122.470 C 280.554 122.779,280.311 122.952,279.909 122.885 C 279.530 122.821,278.791 123.050,278.268 123.392 C 277.443 123.933,274.744 124.020,257.759 124.055 C 246.566 124.077,238.004 124.251,237.742 124.461 C 237.490 124.663,237.049 124.777,236.761 124.714 C 236.473 124.651,236.229 124.945,236.219 125.366 C 236.208 125.787,235.971 126.178,235.690 126.236 C 235.410 126.293,235.365 126.249,235.590 126.137 C 236.650 125.611,235.883 125.110,234.335 125.318 C 231.401 125.712,229.202 128.198,229.201 131.124 C 229.200 131.904,229.036 132.346,228.800 132.200 C 228.580 132.064,228.399 132.098,228.398 132.276 C 228.396 132.454,227.429 132.614,226.249 132.630 C 222.046 132.689,220.690 134.036,220.630 138.210 C 220.614 139.369,220.465 140.235,220.300 140.135 C 220.135 140.035,220.000 140.140,220.000 140.369 C 220.000 140.624,219.264 140.715,218.100 140.605 C 217.055 140.506,216.515 140.523,216.900 140.642 C 218.012 140.986,217.717 141.489,216.240 141.766 C 214.636 142.067,214.095 142.627,213.752 144.338 C 213.474 145.728,212.970 145.987,212.657 144.900 C 212.545 144.515,212.487 145.153,212.527 146.317 L 212.600 148.434 210.200 148.574 C 205.881 148.828,204.823 149.873,204.585 154.127 L 204.454 156.454 202.127 156.585 C 197.891 156.822,196.822 157.891,196.585 162.127 L 196.454 164.454 194.127 164.585 C 189.900 164.822,188.822 165.893,188.587 170.091 C 188.516 171.351,188.389 172.521,188.305 172.691 C 188.222 172.861,188.163 174.672,188.176 176.716 C 188.203 180.965,188.329 180.837,184.316 180.686 C 181.156 180.567,180.627 181.155,180.513 184.914 C 180.403 188.551,180.006 219.293,180.003 224.445 L 180.000 228.290 177.815 228.547 C 173.438 229.061,172.786 229.911,172.552 235.400 C 172.468 237.380,172.504 238.775,172.633 238.500 C 173.031 237.648,173.600 237.949,173.600 239.013 C 173.600 240.490,174.665 242.800,175.346 242.800 C 175.669 242.800,176.038 243.025,176.167 243.300 C 176.333 243.657,176.462 243.671,176.618 243.347 C 176.774 243.021,177.279 243.007,178.418 243.296 L 180.000 243.697 180.054 246.749 C 180.249 257.643,182.268 260.686,188.477 259.445 C 189.095 259.321,189.600 259.388,189.600 259.593 C 189.600 259.810,192.290 259.958,196.000 259.946 C 199.520 259.935,202.401 259.807,202.402 259.663 C 202.404 259.518,203.510 259.346,204.861 259.281 C 209.360 259.063,211.200 257.495,211.200 253.880 C 211.200 253.139,211.333 252.401,211.495 252.238 C 211.858 251.875,211.864 251.811,211.939 247.500 L 212.000 244.000 213.133 244.000 C 213.757 244.000,214.391 243.875,214.544 243.723 C 214.696 243.571,215.621 243.431,216.601 243.413 C 218.820 243.371,219.371 242.835,219.411 240.679 C 219.429 239.743,219.583 238.751,219.755 238.474 C 219.926 238.197,220.026 237.302,219.977 236.485 C 219.928 235.668,219.913 227.779,219.944 218.953 L 220.000 202.905 221.615 202.689 C 224.533 202.297,226.297 200.533,226.689 197.615 C 226.899 196.049,226.951 196.000,228.429 196.000 C 229.267 196.000,230.071 195.809,230.214 195.577 C 230.365 195.334,230.972 195.262,231.638 195.408 C 232.411 195.578,232.800 195.505,232.800 195.189 C 232.800 194.915,233.075 194.820,233.451 194.964 C 234.345 195.307,235.270 194.450,234.982 193.544 C 234.846 193.114,234.940 192.800,235.205 192.800 C 235.503 192.800,235.574 192.394,235.408 191.638 C 235.262 190.972,235.334 190.365,235.577 190.214 C 235.809 190.071,236.000 189.513,236.000 188.976 C 236.000 188.439,236.200 188.000,236.445 188.000 C 236.751 188.000,236.785 188.466,236.554 189.500 C 236.370 190.325,236.215 193.610,236.210 196.800 C 236.204 199.990,236.155 206.487,236.100 211.237 L 236.000 219.873 234.396 220.354 C 233.513 220.618,232.208 220.727,231.496 220.595 C 228.636 220.066,228.487 220.560,228.292 231.200 L 228.200 236.200 226.600 236.270 C 221.218 236.507,220.680 236.740,220.487 238.921 C 220.323 240.759,220.135 245.280,220.062 249.081 L 220.000 252.362 217.700 252.344 C 211.926 252.296,212.352 251.369,212.081 264.555 L 212.000 268.510 209.752 268.246 C 208.291 268.074,207.313 268.141,206.957 268.436 C 206.656 268.685,206.151 268.790,205.834 268.669 C 205.221 268.433,204.239 269.306,204.653 269.720 C 204.788 269.855,204.747 270.288,204.561 270.683 C 204.376 271.077,204.216 272.570,204.206 274.000 C 204.197 275.430,204.147 278.442,204.095 280.694 L 204.000 284.787 201.214 284.694 C 198.778 284.612,198.312 284.715,197.514 285.511 C 196.500 286.522,196.600 285.335,196.214 301.000 L 195.997 309.800 194.488 310.446 C 192.878 311.134,190.400 313.652,190.400 314.598 C 190.400 314.912,189.995 315.546,189.500 316.007 C 189.005 316.468,188.548 317.330,188.485 317.923 C 188.393 318.778,188.060 334.744,188.011 340.669 C 188.002 341.756,187.803 342.003,186.626 342.391 C 180.997 344.249,181.027 351.761,186.671 353.623 C 187.852 354.013,188.001 354.226,188.011 355.531 C 188.021 356.743,188.334 367.706,188.427 370.073 C 188.463 370.975,189.445 371.745,190.195 371.457 C 190.528 371.330,190.800 371.389,190.800 371.590 C 190.800 371.804,198.078 371.963,208.400 371.974 C 218.294 371.985,226.000 371.839,226.000 371.641 C 226.000 371.447,226.315 371.314,226.700 371.344 C 227.139 371.379,227.379 371.139,227.344 370.700 C 227.314 370.315,227.429 370.000,227.601 370.000 C 227.772 370.000,227.933 368.631,227.958 366.959 C 228.013 363.311,228.069 363.200,229.836 363.200 C 232.064 363.200,233.957 362.204,234.564 360.714 C 235.311 358.877,235.622 355.603,235.051 355.587 C 234.803 355.580,234.917 355.334,235.305 355.040 C 235.692 354.746,235.979 354.166,235.941 353.753 C 235.904 353.339,235.902 348.221,235.937 342.380 L 236.000 331.761 237.398 331.924 C 238.167 332.014,239.112 331.951,239.498 331.784 C 239.884 331.617,240.594 331.519,241.075 331.566 C 242.315 331.686,243.724 330.162,243.493 328.951 C 243.391 328.418,243.476 327.877,243.681 327.750 C 243.887 327.623,244.026 326.772,243.991 325.859 C 243.955 324.947,243.943 320.411,243.963 315.780 L 244.000 307.361 245.400 307.524 C 246.307 307.630,246.800 307.520,246.800 307.212 C 246.800 306.893,247.191 306.822,247.989 306.998 C 249.695 307.372,251.372 305.695,250.998 303.989 C 250.822 303.191,250.893 302.800,251.212 302.800 C 251.520 302.800,251.630 302.307,251.524 301.400 C 251.434 300.630,251.471 300.000,251.606 300.000 C 251.741 300.000,251.898 298.247,251.955 296.104 C 252.079 291.472,251.621 292.065,255.153 291.962 C 258.152 291.874,259.957 290.946,259.896 289.523 C 259.884 289.235,259.902 287.821,259.937 286.380 L 260.000 283.761 261.398 283.924 C 262.167 284.014,263.112 283.949,263.498 283.780 C 263.884 283.611,264.368 283.513,264.574 283.561 C 265.591 283.801,266.862 283.157,266.421 282.626 C 266.071 282.203,266.129 282.097,266.686 282.142 C 267.193 282.183,267.406 281.908,267.421 281.190 C 267.432 280.634,267.554 279.998,267.691 279.776 C 267.829 279.553,267.956 276.871,267.974 273.815 C 268.013 267.239,267.453 268.096,271.800 267.956 C 274.590 267.866,275.461 267.701,275.672 267.220 C 275.928 266.635,276.150 268.981,276.185 272.635 C 276.193 273.535,276.470 274.604,276.800 275.012 C 277.333 275.671,277.333 275.715,276.800 275.408 C 276.299 275.119,276.304 275.189,276.831 275.831 C 277.178 276.254,277.670 277.331,277.924 278.224 C 278.503 280.257,279.815 281.512,282.054 282.173 C 284.008 282.750,284.656 284.430,284.235 287.835 C 284.095 288.966,284.234 289.756,284.686 290.401 C 285.106 291.001,285.149 291.216,284.807 291.005 C 284.443 290.779,284.371 290.830,284.579 291.165 C 284.745 291.434,285.133 291.558,285.440 291.440 C 285.748 291.322,286.000 291.411,286.000 291.638 C 286.000 291.865,286.315 292.018,286.700 291.979 C 287.085 291.940,288.480 291.929,289.800 291.954 L 292.200 292.001 292.261 303.901 C 292.363 323.762,292.290 323.400,296.214 323.400 C 297.416 323.400,298.400 323.535,298.400 323.700 C 298.400 323.865,298.760 324.000,299.200 324.000 C 300.104 324.000,300.013 321.479,300.060 347.800 C 300.081 359.160,300.184 361.556,300.684 362.349 C 301.144 363.078,301.157 363.227,300.741 362.991 C 300.307 362.744,300.298 362.788,300.696 363.217 C 301.004 363.549,302.440 363.812,304.496 363.912 C 308.451 364.105,307.940 363.615,308.161 367.422 C 308.263 369.170,308.380 370.690,308.420 370.800 C 308.461 370.910,308.476 371.129,308.452 371.286 C 308.429 371.443,308.677 371.468,309.005 371.343 C 309.332 371.217,309.600 371.305,309.600 371.539 C 309.600 372.386,339.594 372.156,339.632 371.309 C 339.649 370.919,339.744 370.794,339.842 371.032 C 340.056 371.548,343.859 371.117,345.140 370.432 C 346.640 369.630,348.166 364.312,347.032 363.842 C 346.794 363.744,346.914 363.649,347.298 363.632 C 348.118 363.594,348.386 312.000,347.566 312.000 C 347.320 312.000,347.270 311.435,347.437 310.542 C 347.641 309.455,347.588 309.160,347.229 309.382 C 346.933 309.565,346.787 309.471,346.851 309.140 C 347.363 306.489,344.465 302.274,341.784 301.771 C 339.891 301.415,340.019 302.422,339.989 287.663 C 339.972 279.195,339.817 274.334,339.558 274.174 C 339.334 274.035,339.267 273.405,339.408 272.762 C 339.567 272.039,339.500 271.600,339.232 271.600 C 338.994 271.600,338.800 271.319,338.800 270.976 C 338.800 270.625,338.992 270.471,339.240 270.625 C 339.558 270.821,339.558 270.668,339.238 270.071 C 338.573 268.829,338.061 268.644,335.094 268.573 C 331.687 268.491,332.035 269.352,331.982 260.881 C 331.953 256.195,331.790 253.600,331.525 253.600 C 331.299 253.600,331.218 253.330,331.345 253.000 C 331.485 252.635,331.345 252.400,330.987 252.400 C 330.664 252.400,330.400 252.209,330.400 251.976 C 330.400 251.743,330.600 251.676,330.844 251.827 C 331.159 252.022,331.203 251.594,330.996 250.351 C 330.414 246.848,329.163 245.588,325.700 245.012 L 324.000 244.730 323.942 239.065 C 323.910 235.949,323.924 232.815,323.973 232.100 C 324.022 231.385,323.874 230.800,323.644 230.800 C 323.414 230.800,323.330 230.528,323.457 230.195 C 324.012 228.749,322.674 228.264,318.300 228.329 L 316.000 228.362 316.000 219.634 L 316.000 210.905 317.615 210.689 C 321.250 210.201,323.013 207.534,323.389 201.953 C 323.443 201.158,323.619 200.293,323.780 200.032 C 323.941 199.771,324.024 198.532,323.964 197.279 C 323.903 196.026,323.887 186.244,323.927 175.542 L 324.000 156.084 325.700 155.843 C 326.635 155.711,327.916 155.606,328.547 155.611 C 329.454 155.618,329.640 155.481,329.437 154.953 C 329.220 154.388,329.277 154.366,329.808 154.806 C 330.699 155.546,331.546 154.699,330.806 153.808 C 330.366 153.277,330.388 153.220,330.953 153.437 C 331.477 153.638,331.626 153.447,331.649 152.547 C 331.666 151.916,331.760 148.655,331.860 145.300 L 332.040 139.200 333.120 139.198 C 336.591 139.191,338.601 137.575,339.000 134.472 C 339.133 133.442,339.398 132.310,339.589 131.956 C 339.780 131.602,339.957 127.921,339.982 123.776 C 340.035 115.000,339.676 115.944,342.963 115.925 C 344.413 115.917,345.600 115.740,345.600 115.531 C 345.600 115.323,345.788 115.269,346.018 115.411 C 346.597 115.769,347.682 114.790,347.431 114.136 C 347.318 113.841,347.380 113.600,347.569 113.600 C 347.758 113.600,347.938 110.594,347.969 106.920 C 348.035 99.209,347.797 99.843,350.604 99.917 C 351.939 99.952,352.800 99.806,352.800 99.544 C 352.800 99.308,353.074 99.220,353.409 99.348 C 354.199 99.651,355.651 98.199,355.348 97.409 C 355.220 97.074,355.294 96.800,355.514 96.800 C 355.762 96.800,355.934 94.404,355.967 90.518 C 356.026 83.515,356.028 83.510,358.691 83.874 C 359.717 84.015,360.400 83.949,360.400 83.710 C 360.400 83.490,360.822 83.392,361.337 83.490 C 362.568 83.725,363.725 82.568,363.490 81.337 C 363.392 80.822,363.441 80.400,363.600 80.400 C 363.758 80.400,363.918 77.665,363.954 74.323 C 364.031 67.330,363.834 67.851,366.372 67.908 C 367.673 67.938,368.509 67.751,368.835 67.358 C 369.167 66.957,369.417 66.904,369.597 67.195 C 369.944 67.756,371.069 67.319,371.383 66.501 C 371.517 66.151,371.432 65.744,371.195 65.597 C 370.905 65.418,370.962 65.163,371.369 64.826 C 372.036 64.272,372.317 30.400,371.654 30.400 C 371.479 30.400,371.351 29.997,371.368 29.505 C 371.410 28.319,371.848 28.355,355.400 28.197 C 345.139 28.099,341.236 28.188,340.785 28.532 M331.994 46.300 C 331.981 46.919,331.359 47.462,330.063 47.987 C 329.189 48.340,328.497 49.025,328.063 49.964 C 327.346 51.518,326.507 52.367,325.671 52.387 C 325.278 52.397,325.303 52.239,325.771 51.771 C 326.117 51.426,326.400 50.892,326.400 50.585 C 326.400 49.734,328.834 47.149,330.193 46.557 C 331.601 45.944,332.002 45.886,331.994 46.300 M141.862 57.803 C 142.403 58.968,141.825 59.167,141.214 58.026 C 140.723 57.108,140.694 56.799,141.100 56.803 C 141.265 56.805,141.608 57.255,141.862 57.803 M323.994 62.300 C 323.981 62.919,323.359 63.462,322.063 63.987 C 321.189 64.340,320.497 65.025,320.063 65.964 C 319.346 67.518,318.507 68.367,317.671 68.387 C 317.278 68.397,317.303 68.239,317.771 67.771 C 318.117 67.426,318.400 66.892,318.400 66.585 C 318.400 65.734,320.834 63.149,322.193 62.557 C 323.601 61.944,324.002 61.886,323.994 62.300 M149.863 81.804 C 150.117 82.352,150.163 82.701,149.965 82.578 C 149.437 82.252,148.718 80.799,149.086 80.803 C 149.259 80.805,149.608 81.255,149.863 81.804 M301.429 93.429 C 301.083 93.774,300.805 94.269,300.812 94.529 C 300.819 94.788,301.005 94.691,301.225 94.313 C 301.445 93.935,301.935 93.445,302.313 93.225 C 302.691 93.005,302.788 92.819,302.529 92.812 C 302.269 92.805,301.774 93.083,301.429 93.429 M155.800 93.913 C 153.030 94.370,151.118 95.948,150.259 98.490 C 149.947 99.414,149.446 100.251,149.145 100.350 C 148.734 100.486,148.705 100.392,149.030 99.965 C 149.266 99.654,149.668 98.669,149.923 97.776 C 150.633 95.289,154.633 92.588,156.200 93.539 C 156.420 93.672,156.240 93.841,155.800 93.913 M226.400 133.200 C 226.400 133.420,226.031 133.600,225.580 133.600 C 223.546 133.600,221.600 135.565,221.600 137.619 C 221.600 138.048,221.406 138.400,221.168 138.400 C 220.564 138.400,221.087 136.046,221.968 134.800 C 222.911 133.465,226.400 132.206,226.400 133.200 M338.000 136.130 C 338.000 136.202,337.526 136.697,336.946 137.230 C 335.959 138.138,335.920 138.145,336.341 137.335 C 336.716 136.614,337.117 136.279,337.900 136.032 C 337.955 136.014,338.000 136.059,338.000 136.130 M213.782 141.782 C 213.242 142.322,212.811 143.087,212.825 143.482 C 212.848 144.114,212.890 144.104,213.178 143.400 C 213.542 142.511,214.681 141.422,215.600 141.084 C 216.066 140.912,216.040 140.856,215.482 140.832 C 215.087 140.814,214.322 141.242,213.782 141.782 M210.400 149.200 C 210.400 149.420,210.031 149.600,209.580 149.600 C 207.546 149.600,205.600 151.565,205.600 153.619 C 205.600 154.048,205.406 154.400,205.168 154.400 C 204.564 154.400,205.087 152.046,205.968 150.800 C 206.911 149.465,210.400 148.206,210.400 149.200 M202.400 157.200 C 202.400 157.420,202.031 157.600,201.580 157.600 C 199.546 157.600,197.600 159.565,197.600 161.619 C 197.600 162.048,197.406 162.400,197.168 162.400 C 196.564 162.400,197.087 160.046,197.968 158.800 C 198.911 157.465,202.400 156.206,202.400 157.200 M194.400 165.200 C 194.400 165.420,194.031 165.600,193.580 165.600 C 191.546 165.600,189.600 167.565,189.600 169.619 C 189.600 170.048,189.406 170.400,189.168 170.400 C 188.564 170.400,189.087 168.046,189.968 166.800 C 190.911 165.465,194.400 164.206,194.400 165.200 M61.782 181.782 C 61.242 182.322,60.811 183.087,60.825 183.482 C 60.848 184.114,60.890 184.104,61.178 183.400 C 61.542 182.511,62.681 181.422,63.600 181.084 C 64.066 180.912,64.040 180.856,63.482 180.832 C 63.087 180.814,62.322 181.242,61.782 181.782 M184.000 181.010 C 184.000 181.125,183.547 181.392,182.993 181.603 C 182.439 181.813,181.813 182.439,181.603 182.993 C 181.171 184.128,180.800 184.308,180.800 183.382 C 180.800 183.042,181.242 182.322,181.782 181.782 C 182.652 180.912,184.000 180.443,184.000 181.010 M153.789 211.982 C 154.407 212.982,150.978 217.600,149.619 217.600 C 149.424 217.600,148.936 217.725,148.533 217.878 C 147.164 218.396,148.865 217.021,150.337 216.419 C 151.208 216.063,151.905 215.372,152.337 214.436 C 152.702 213.646,153.180 212.865,153.400 212.700 C 153.651 212.512,153.576 212.253,153.200 212.006 C 152.838 211.768,152.789 211.610,153.076 211.606 C 153.338 211.603,153.659 211.772,153.789 211.982 M150.606 214.558 C 149.156 216.008,148.791 215.871,150.196 214.404 C 150.826 213.746,151.411 213.277,151.495 213.362 C 151.579 213.446,151.179 213.984,150.606 214.558 M230.800 221.000 C 230.800 221.110,230.425 221.575,229.967 222.033 C 228.922 223.078,228.412 222.692,229.398 221.602 C 230.075 220.854,230.800 220.542,230.800 221.000 M178.400 229.200 C 178.400 229.420,178.031 229.600,177.580 229.600 C 175.546 229.600,173.600 231.565,173.600 233.619 C 173.600 234.048,173.406 234.400,173.168 234.400 C 172.564 234.400,173.087 232.046,173.968 230.800 C 174.911 229.465,178.400 228.206,178.400 229.200 M172.994 240.576 C 173.098 241.481,173.541 242.503,174.035 242.976 L 174.896 243.800 174.196 242.690 C 173.810 242.079,173.342 240.999,173.154 240.290 C 172.834 239.075,172.824 239.091,172.994 240.576 M328.765 247.383 C 329.324 247.942,329.571 248.400,329.314 248.400 C 329.056 248.400,328.610 248.082,328.323 247.694 C 327.711 246.868,325.897 246.000,324.781 246.000 C 324.352 246.000,324.000 245.829,324.000 245.619 C 324.000 244.951,327.704 246.323,328.765 247.383 M181.693 254.300 C 181.791 255.125,182.001 256.160,182.161 256.600 C 182.323 257.048,182.200 256.960,181.882 256.400 C 181.169 255.147,180.703 252.800,181.168 252.800 C 181.359 252.800,181.596 253.475,181.693 254.300 M101.028 261.792 C 101.590 265.182,102.922 266.469,106.407 266.992 L 108.204 267.261 108.240 269.131 C 108.344 274.588,108.830 275.748,110.900 275.481 C 111.505 275.403,112.000 275.512,112.000 275.724 C 112.000 275.949,112.738 276.008,113.783 275.864 C 115.959 275.566,115.987 275.609,116.177 279.481 C 116.261 281.197,116.345 282.645,116.365 282.700 C 116.384 282.755,116.387 282.928,116.370 283.084 C 116.312 283.642,117.844 283.944,120.866 283.972 L 123.931 284.000 124.066 288.500 C 124.287 295.914,124.035 300.388,123.409 300.148 C 123.114 300.035,122.271 300.106,121.536 300.306 C 120.801 300.505,119.704 300.534,119.097 300.368 C 118.491 300.203,118.085 300.214,118.195 300.392 C 118.374 300.681,117.307 301.373,116.800 301.297 C 116.425 301.240,116.398 302.057,116.004 325.669 C 116.002 325.817,115.382 326.142,114.626 326.391 C 113.148 326.879,110.400 329.618,110.400 330.604 C 110.400 330.935,109.949 331.598,109.397 332.078 C 108.749 332.641,108.474 333.203,108.621 333.667 C 108.746 334.061,108.663 334.702,108.437 335.092 C 108.040 335.773,107.693 317.948,107.971 311.148 C 108.030 309.681,107.899 308.385,107.677 308.248 C 107.443 308.103,107.356 306.959,107.469 305.500 C 107.615 303.611,107.554 303.147,107.219 303.600 C 106.872 304.070,106.832 303.958,107.035 303.084 C 107.400 301.517,106.294 300.308,104.961 300.815 C 104.366 301.041,104.000 301.036,104.000 300.802 C 104.000 300.594,103.100 300.464,102.000 300.513 L 100.000 300.602 100.006 279.801 C 100.012 260.269,100.206 256.843,101.028 261.792 M101.756 260.100 C 102.346 262.353,103.035 263.882,103.660 264.323 C 104.067 264.610,104.400 265.047,104.400 265.292 C 104.400 266.275,102.357 263.743,101.923 262.224 C 101.668 261.331,101.289 260.375,101.081 260.100 C 100.831 259.770,100.859 259.600,101.164 259.600 C 101.417 259.600,101.684 259.825,101.756 260.100 M338.026 269.214 C 339.167 269.825,338.968 270.403,337.803 269.862 C 337.255 269.608,336.805 269.265,336.803 269.100 C 336.799 268.694,337.108 268.723,338.026 269.214 M279.771 277.779 C 280.249 279.032,280.819 279.688,281.911 280.243 C 284.332 281.474,284.683 282.473,282.343 281.473 C 279.967 280.457,276.365 275.352,278.400 275.884 C 278.795 275.987,279.412 276.840,279.771 277.779 M200.000 285.157 C 200.000 285.353,199.553 285.626,199.006 285.763 C 198.393 285.917,197.917 286.393,197.763 287.006 C 197.626 287.553,197.353 288.000,197.157 288.000 C 196.697 288.000,196.707 287.842,197.246 286.660 C 197.802 285.438,200.000 284.238,200.000 285.157 M341.619 302.400 C 342.434 302.400,344.882 305.037,345.749 306.848 C 346.263 307.922,346.647 308.800,346.603 308.800 C 346.211 308.800,344.867 307.119,344.335 305.964 C 343.904 305.027,343.209 304.337,342.337 303.981 C 340.490 303.225,338.854 301.475,340.633 302.157 C 340.981 302.291,341.424 302.400,341.619 302.400 M293.954 322.219 C 294.089 322.449,293.885 322.294,293.500 321.875 C 293.115 321.455,292.814 320.726,292.832 320.256 C 292.857 319.571,292.948 319.640,293.285 320.600 C 293.517 321.260,293.818 321.988,293.954 322.219 M112.408 331.790 C 112.130 332.126,111.519 332.375,111.051 332.346 C 110.261 332.295,110.266 332.278,111.124 332.115 C 111.633 332.017,112.150 331.674,112.274 331.352 C 112.398 331.029,112.592 330.859,112.706 330.973 C 112.821 331.087,112.686 331.455,112.408 331.790 M53.693 334.300 C 53.791 335.125,54.001 336.160,54.161 336.600 C 54.323 337.048,54.200 336.960,53.882 336.400 C 53.169 335.147,52.703 332.800,53.168 332.800 C 53.359 332.800,53.596 333.475,53.693 334.300 M108.289 341.700 C 108.201 342.415,108.128 341.830,108.128 340.400 C 108.128 338.970,108.201 338.385,108.289 339.100 C 108.378 339.815,108.378 340.985,108.289 341.700 M108.287 357.900 C 108.195 358.505,108.120 358.010,108.120 356.800 C 108.120 355.590,108.195 355.095,108.287 355.700 C 108.378 356.305,108.378 357.295,108.287 357.900 M61.779 365.802 C 61.940 366.876,62.448 368.042,63.026 368.665 C 64.219 369.954,64.307 370.402,63.163 369.366 C 61.898 368.222,60.106 363.124,61.207 363.804 C 61.372 363.907,61.630 364.806,61.779 365.802 " stroke="none" fill="#2494f4" fill-rule="evenodd"/><path id="path1" d="M242.739 52.810 C 238.374 53.991,237.606 54.727,237.012 58.298 C 236.674 60.333,236.779 60.257,233.589 60.771 C 228.250 61.631,228.018 62.758,228.007 87.874 C 228.000 105.792,228.147 108.000,229.351 108.000 C 229.665 108.000,230.125 108.582,230.372 109.293 C 230.958 110.974,233.015 113.077,234.576 113.592 C 235.255 113.816,235.988 114.404,236.205 114.900 C 236.567 115.725,236.903 115.809,240.251 115.914 L 243.901 116.029 244.079 119.423 C 244.329 124.175,242.848 123.783,261.042 123.913 L 276.844 124.027 278.642 122.813 C 279.631 122.146,280.599 121.600,280.793 121.600 C 280.987 121.600,281.250 121.272,281.378 120.871 C 281.505 120.469,281.929 119.794,282.319 119.371 C 282.710 118.947,283.260 118.038,283.543 117.350 C 284.045 116.125,284.112 116.099,286.891 116.042 C 291.909 115.939,291.985 115.863,291.995 110.947 L 292.000 108.094 294.966 107.816 C 300.104 107.335,299.937 108.020,299.953 87.400 C 299.969 67.722,300.198 68.642,295.173 68.198 L 292.077 67.924 291.938 64.395 C 291.769 60.082,291.918 60.231,287.615 60.062 L 284.096 59.924 283.919 56.553 C 283.820 54.656,283.528 52.968,283.252 52.691 C 282.356 51.795,246.097 51.901,242.739 52.810 M93.803 60.343 C 92.421 60.648,92.123 61.524,92.047 65.500 L 92.000 68.000 88.629 68.000 C 84.213 68.000,84.000 68.210,84.000 72.569 L 84.000 75.881 80.535 76.126 C 75.789 76.461,76.200 74.597,76.200 95.759 C 76.200 117.570,75.757 116.067,82.189 116.067 L 84.000 116.067 84.000 119.405 C 84.000 123.958,84.833 124.505,91.041 124.023 C 91.817 123.963,91.900 124.214,92.107 127.230 C 92.446 132.174,91.024 131.781,109.058 131.914 L 124.489 132.027 125.818 131.014 C 126.549 130.456,127.302 130.000,127.492 130.000 C 127.682 130.000,128.279 129.452,128.819 128.782 C 129.358 128.112,130.183 127.152,130.652 126.648 C 131.121 126.144,131.620 125.368,131.761 124.923 C 131.977 124.244,132.475 124.076,134.883 123.874 C 138.772 123.548,139.548 122.781,139.869 118.946 C 140.085 116.376,140.207 116.074,141.352 115.289 C 143.054 114.122,145.140 112.111,146.700 110.133 L 148.000 108.485 148.000 93.119 C 148.000 74.893,148.366 76.262,143.432 76.059 L 140.000 75.918 140.000 72.373 C 140.000 68.096,139.896 68.000,135.267 68.000 L 132.082 68.000 131.941 64.620 C 131.855 62.555,131.598 61.037,131.280 60.720 C 130.718 60.157,96.221 59.810,93.803 60.343 M153.531 369.602 C 152.976 370.213,152.958 370.375,153.426 370.555 C 153.740 370.675,153.948 370.556,153.895 370.286 C 153.843 370.019,154.019 369.843,154.286 369.895 C 154.566 369.950,154.675 369.739,154.543 369.395 C 154.417 369.068,154.289 368.815,154.257 368.833 C 154.226 368.852,153.899 369.198,153.531 369.602 " stroke="none" fill="#fcb54c" fill-rule="evenodd"/><path id="path2" d="M173.100 28.282 C 173.595 28.378,174.405 28.378,174.900 28.282 C 175.395 28.187,174.990 28.109,174.000 28.109 C 173.010 28.109,172.605 28.187,173.100 28.282 M364.700 28.282 C 365.195 28.378,366.005 28.378,366.500 28.282 C 366.995 28.187,366.590 28.109,365.600 28.109 C 364.610 28.109,364.205 28.187,364.700 28.282 M145.564 33.960 C 144.454 35.111,143.163 36.033,142.434 36.193 C 141.165 36.471,140.194 37.667,140.542 38.522 C 140.649 38.785,140.751 38.689,140.768 38.309 C 140.812 37.353,142.327 36.454,144.000 36.392 C 144.770 36.363,145.985 36.322,146.700 36.300 C 147.928 36.262,148.000 36.177,148.000 34.763 C 148.000 33.939,148.109 32.981,148.243 32.633 C 148.722 31.383,147.431 32.023,145.564 33.960 M332.093 40.400 C 332.093 41.170,332.175 41.485,332.276 41.100 C 332.376 40.715,332.376 40.085,332.276 39.700 C 332.175 39.315,332.093 39.630,332.093 40.400 M180.000 42.086 L 180.000 44.201 182.900 44.254 C 184.495 44.284,185.425 44.194,184.967 44.054 C 184.509 43.914,183.539 43.118,182.812 42.285 C 180.508 39.643,180.000 39.608,180.000 42.086 M140.134 44.800 C 140.134 46.450,140.205 47.125,140.291 46.300 C 140.378 45.475,140.378 44.125,140.291 43.300 C 140.205 42.475,140.134 43.150,140.134 44.800 M43.300 44.276 C 43.685 44.376,44.315 44.376,44.700 44.276 C 45.085 44.175,44.770 44.093,44.000 44.093 C 43.230 44.093,42.915 44.175,43.300 44.276 M37.200 45.200 C 36.760 45.640,36.425 46.405,36.454 46.900 C 36.508 47.780,36.513 47.781,36.677 46.942 C 36.874 45.933,37.875 44.962,39.000 44.688 C 39.724 44.511,39.715 44.488,38.900 44.446 C 38.405 44.421,37.640 44.760,37.200 45.200 M330.193 46.557 C 328.834 47.149,326.400 49.734,326.400 50.585 C 326.400 50.892,326.117 51.426,325.771 51.771 C 325.303 52.239,325.278 52.397,325.671 52.387 C 326.507 52.367,327.346 51.518,328.063 49.964 C 328.497 49.025,329.189 48.340,330.063 47.987 C 331.359 47.462,331.981 46.919,331.994 46.300 C 332.002 45.886,331.601 45.944,330.193 46.557 M36.093 52.000 C 36.093 52.770,36.175 53.085,36.276 52.700 C 36.376 52.315,36.376 51.685,36.276 51.300 C 36.175 50.915,36.093 51.230,36.093 52.000 M324.101 56.200 C 324.105 57.080,324.187 57.393,324.283 56.895 C 324.379 56.398,324.375 55.678,324.275 55.295 C 324.175 54.913,324.096 55.320,324.101 56.200 M322.193 62.557 C 320.834 63.149,318.400 65.734,318.400 66.585 C 318.400 66.892,318.117 67.426,317.771 67.771 C 317.303 68.239,317.278 68.397,317.671 68.387 C 318.507 68.367,319.346 67.518,320.063 65.964 C 320.497 65.025,321.189 64.340,322.063 63.987 C 323.359 63.462,323.981 62.919,323.994 62.300 C 324.002 61.886,323.601 61.944,322.193 62.557 M188.000 66.086 L 188.000 68.201 190.900 68.254 C 192.495 68.284,193.425 68.194,192.967 68.054 C 192.509 67.914,191.539 67.118,190.812 66.285 C 188.508 63.643,188.000 63.608,188.000 66.086 M29.398 69.602 C 28.412 70.692,28.922 71.078,29.967 70.033 C 30.425 69.575,30.800 69.110,30.800 69.000 C 30.800 68.542,30.075 68.854,29.398 69.602 M316.093 72.000 C 316.093 72.770,316.175 73.085,316.276 72.700 C 316.376 72.315,316.376 71.685,316.276 71.300 C 316.175 70.915,316.093 71.230,316.093 72.000 M148.093 73.200 C 148.093 73.970,148.175 74.285,148.276 73.900 C 148.376 73.515,148.376 72.885,148.276 72.500 C 148.175 72.115,148.093 72.430,148.093 73.200 M28.131 80.600 C 28.133 82.140,28.205 82.721,28.292 81.891 C 28.379 81.061,28.377 79.801,28.289 79.091 C 28.200 78.381,28.129 79.060,28.131 80.600 M149.188 81.578 C 149.817 82.753,150.392 82.946,149.863 81.804 C 149.608 81.255,149.259 80.805,149.086 80.803 C 148.913 80.801,148.959 81.150,149.188 81.578 M308.093 88.000 C 308.093 88.770,308.175 89.085,308.276 88.700 C 308.376 88.315,308.376 87.685,308.276 87.300 C 308.175 86.915,308.093 87.230,308.093 88.000 M305.505 92.683 C 306.002 92.779,306.722 92.775,307.105 92.675 C 307.487 92.575,307.080 92.496,306.200 92.501 C 305.320 92.505,305.007 92.587,305.505 92.683 M302.025 93.500 C 301.122 94.231,300.403 96.547,300.441 98.600 C 300.455 99.348,300.671 98.843,301.014 97.262 C 301.591 94.604,302.143 93.600,303.025 93.600 C 303.315 93.600,303.664 93.420,303.800 93.200 C 304.210 92.537,302.950 92.750,302.025 93.500 M154.057 93.818 C 151.812 94.492,150.502 95.745,149.924 97.776 C 149.670 98.669,149.178 99.741,148.831 100.158 C 148.239 100.869,148.250 100.890,149.000 100.494 C 149.440 100.262,150.023 99.347,150.295 98.460 C 151.047 96.007,153.029 94.370,155.800 93.913 C 156.240 93.841,156.420 93.672,156.200 93.539 C 155.980 93.405,155.016 93.531,154.057 93.818 M28.093 106.800 C 28.093 107.570,28.175 107.885,28.276 107.500 C 28.376 107.115,28.376 106.485,28.276 106.100 C 28.175 105.715,28.093 106.030,28.093 106.800 M71.300 108.276 C 71.685 108.376,72.315 108.376,72.700 108.276 C 73.085 108.175,72.770 108.093,72.000 108.093 C 71.230 108.093,70.915 108.175,71.300 108.276 M297.905 108.283 C 298.402 108.379,299.122 108.375,299.505 108.275 C 299.887 108.175,299.480 108.096,298.600 108.101 C 297.720 108.105,297.407 108.187,297.905 108.283 M292.998 109.202 C 291.975 110.332,292.410 110.437,293.486 109.320 C 293.973 108.814,294.226 108.400,294.048 108.400 C 293.870 108.400,293.397 108.761,292.998 109.202 M28.144 112.400 C 28.144 114.490,28.212 115.345,28.294 114.300 C 28.376 113.255,28.376 111.545,28.294 110.500 C 28.212 109.455,28.144 110.310,28.144 112.400 M146.560 110.289 C 145.478 111.708,143.921 113.243,141.600 115.178 L 140.600 116.012 141.800 115.744 C 142.460 115.597,143.060 115.324,143.133 115.138 C 143.207 114.952,143.603 114.800,144.015 114.800 C 144.998 114.800,146.800 112.976,146.800 111.982 C 146.800 111.552,146.959 111.200,147.153 111.200 C 147.477 111.200,148.071 109.144,147.820 108.889 C 147.761 108.828,147.193 109.458,146.560 110.289 M292.060 114.478 C 292.001 115.944,291.984 115.957,290.100 116.106 L 288.200 116.256 290.113 116.328 C 292.218 116.407,292.576 116.047,292.290 114.134 C 292.145 113.166,292.111 113.217,292.060 114.478 M79.300 116.276 C 79.685 116.376,80.315 116.376,80.700 116.276 C 81.085 116.175,80.770 116.093,80.000 116.093 C 79.230 116.093,78.915 116.175,79.300 116.276 M188.000 118.014 C 188.000 120.366,188.530 120.325,190.745 117.801 C 192.350 115.974,192.361 116.000,190.000 116.000 L 188.000 116.000 188.000 118.014 M281.772 120.200 C 281.357 120.970,280.811 121.600,280.558 121.600 C 280.305 121.600,279.874 121.870,279.600 122.200 C 279.256 122.615,279.241 122.800,279.551 122.800 C 280.288 122.800,280.607 122.620,280.490 122.270 C 280.430 122.089,280.566 122.055,280.793 122.196 C 281.323 122.523,282.531 121.335,282.205 120.808 C 282.067 120.585,282.210 120.506,282.529 120.628 C 282.932 120.783,283.100 120.546,283.100 119.824 C 283.100 118.418,282.665 118.541,281.772 120.200 M139.600 120.930 C 139.600 122.050,138.178 123.462,136.800 123.710 C 136.055 123.845,136.175 123.905,137.271 123.946 C 139.110 124.014,140.000 123.174,140.000 121.371 C 140.000 120.617,139.910 120.000,139.800 120.000 C 139.690 120.000,139.600 120.419,139.600 120.930 M28.093 124.000 C 28.093 124.770,28.175 125.085,28.276 124.700 C 28.376 124.315,28.376 123.685,28.276 123.300 C 28.175 122.915,28.093 123.230,28.093 124.000 M240.700 124.282 C 241.195 124.378,242.005 124.378,242.500 124.282 C 242.995 124.187,242.590 124.109,241.600 124.109 C 240.610 124.109,240.205 124.187,240.700 124.282 M266.100 124.276 C 266.485 124.376,267.115 124.376,267.500 124.276 C 267.885 124.175,267.570 124.093,266.800 124.093 C 266.030 124.093,265.715 124.175,266.100 124.276 M130.388 126.848 C 129.273 128.456,127.821 130.000,127.411 130.014 C 126.904 130.032,124.465 131.995,124.946 131.998 C 127.128 132.011,130.524 129.977,131.174 128.268 C 131.996 126.108,131.510 125.231,130.388 126.848 M110.900 132.276 C 111.285 132.376,111.915 132.376,112.300 132.276 C 112.685 132.175,112.370 132.093,111.600 132.093 C 110.830 132.093,110.515 132.175,110.900 132.276 M224.037 133.323 C 222.082 134.008,219.600 138.400,221.168 138.400 C 221.406 138.400,221.600 138.048,221.600 137.619 C 221.600 135.565,223.546 133.600,225.580 133.600 C 226.031 133.600,226.400 133.420,226.400 133.200 C 226.400 132.690,225.747 132.723,224.037 133.323 M36.093 136.000 C 36.093 136.770,36.175 137.085,36.276 136.700 C 36.376 136.315,36.376 135.685,36.276 135.300 C 36.175 134.915,36.093 135.230,36.093 136.000 M337.295 136.266 C 337.018 136.378,336.588 136.859,336.341 137.335 C 335.920 138.145,335.959 138.138,336.946 137.230 C 337.526 136.697,338.000 136.202,338.000 136.130 C 338.000 135.984,337.993 135.985,337.295 136.266 M215.400 141.178 C 213.971 141.763,212.055 144.800,213.115 144.800 C 213.318 144.800,213.651 144.220,213.854 143.512 C 214.132 142.542,214.542 142.132,215.512 141.854 C 216.220 141.651,216.800 141.330,216.800 141.142 C 216.800 140.732,216.468 140.741,215.400 141.178 M45.035 149.900 C 45.410 151.969,46.241 153.489,47.304 154.047 C 48.082 154.456,48.056 154.372,47.108 153.412 C 46.347 152.642,45.936 151.713,45.756 150.353 C 45.614 149.279,45.332 148.400,45.130 148.400 C 44.925 148.400,44.883 149.060,45.035 149.900 M208.037 149.323 C 206.082 150.008,203.600 154.400,205.168 154.400 C 205.406 154.400,205.600 154.048,205.600 153.619 C 205.600 151.565,207.546 149.600,209.580 149.600 C 210.031 149.600,210.400 149.420,210.400 149.200 C 210.400 148.690,209.747 148.723,208.037 149.323 M200.037 157.323 C 198.082 158.008,195.600 162.400,197.168 162.400 C 197.406 162.400,197.600 162.048,197.600 161.619 C 197.600 159.565,199.546 157.600,201.580 157.600 C 202.031 157.600,202.400 157.420,202.400 157.200 C 202.400 156.690,201.747 156.723,200.037 157.323 M192.037 165.323 C 190.082 166.008,187.600 170.400,189.168 170.400 C 189.406 170.400,189.600 170.048,189.600 169.619 C 189.600 167.565,191.546 165.600,193.580 165.600 C 194.031 165.600,194.400 165.420,194.400 165.200 C 194.400 164.690,193.747 164.723,192.037 165.323 M60.093 168.000 C 60.093 168.770,60.175 169.085,60.276 168.700 C 60.376 168.315,60.376 167.685,60.276 167.300 C 60.175 166.915,60.093 167.230,60.093 168.000 M63.400 181.178 C 61.971 181.763,60.055 184.800,61.115 184.800 C 61.318 184.800,61.651 184.220,61.854 183.512 C 62.132 182.542,62.542 182.132,63.512 181.854 C 64.220 181.651,64.800 181.330,64.800 181.142 C 64.800 180.732,64.468 180.741,63.400 181.178 M181.782 181.782 C 180.790 182.774,180.504 183.600,181.153 183.600 C 181.348 183.600,181.604 183.227,181.724 182.770 C 181.843 182.314,182.314 181.843,182.770 181.724 C 183.227 181.604,183.600 181.348,183.600 181.153 C 183.600 180.504,182.774 180.790,181.782 181.782 M180.131 193.800 C 180.133 195.340,180.205 195.921,180.292 195.091 C 180.379 194.261,180.377 193.001,180.289 192.291 C 180.200 191.581,180.129 192.260,180.131 193.800 M236.148 198.800 C 236.148 201.110,236.214 202.055,236.295 200.900 C 236.376 199.745,236.376 197.855,236.295 196.700 C 236.214 195.545,236.148 196.490,236.148 198.800 M153.200 212.006 C 153.576 212.253,153.651 212.512,153.400 212.700 C 153.180 212.865,152.702 213.646,152.337 214.436 C 151.905 215.372,151.208 216.063,150.337 216.419 C 148.865 217.021,147.164 218.396,148.533 217.878 C 148.936 217.725,149.424 217.600,149.619 217.600 C 150.343 217.600,152.939 214.966,153.472 213.689 C 154.043 212.322,153.905 211.595,153.076 211.606 C 152.789 211.610,152.838 211.768,153.200 212.006 M49.905 212.283 C 50.402 212.379,51.122 212.375,51.505 212.275 C 51.887 212.175,51.480 212.096,50.600 212.101 C 49.720 212.105,49.407 212.187,49.905 212.283 M45.029 213.029 C 44.683 213.374,44.405 213.869,44.412 214.129 C 44.419 214.388,44.605 214.291,44.825 213.913 C 45.045 213.535,45.535 213.045,45.913 212.825 C 46.291 212.605,46.388 212.419,46.129 212.412 C 45.869 212.405,45.374 212.683,45.029 213.029 M150.196 214.404 C 149.566 215.062,149.166 215.600,149.307 215.600 C 149.672 215.600,151.680 213.547,151.495 213.362 C 151.411 213.277,150.826 213.746,150.196 214.404 M44.114 219.000 C 44.117 220.100,44.195 220.503,44.287 219.895 C 44.379 219.286,44.377 218.386,44.282 217.895 C 44.187 217.403,44.111 217.900,44.114 219.000 M229.402 221.598 C 229.003 222.039,228.862 222.400,229.089 222.400 C 229.592 222.400,230.590 221.257,230.321 220.988 C 230.215 220.882,229.802 221.156,229.402 221.598 M176.037 229.323 C 174.215 229.961,171.714 234.000,173.141 234.000 C 173.337 234.000,173.609 233.303,173.745 232.452 C 174.039 230.616,174.633 230.042,176.564 229.728 C 177.354 229.600,178.000 229.339,178.000 229.148 C 178.000 228.708,177.721 228.733,176.037 229.323 M173.066 239.700 C 173.441 241.679,173.907 242.374,176.819 245.300 C 180.052 248.548,180.000 248.539,180.000 245.849 L 180.000 243.697 178.400 243.291 C 177.520 243.068,176.800 243.033,176.800 243.215 C 176.800 243.396,177.205 243.622,177.700 243.718 C 178.592 243.890,178.593 243.892,177.729 243.946 C 177.249 243.975,176.619 243.765,176.329 243.478 C 176.038 243.190,175.482 242.835,175.094 242.688 C 174.299 242.387,173.600 240.836,173.600 239.374 C 173.600 238.838,173.425 238.400,173.210 238.400 C 172.986 238.400,172.925 238.954,173.066 239.700 M156.700 244.282 C 157.195 244.378,158.005 244.378,158.500 244.282 C 158.995 244.187,158.590 244.109,157.600 244.109 C 156.610 244.109,156.205 244.187,156.700 244.282 M324.000 245.619 C 324.000 245.829,324.352 246.000,324.781 246.000 C 325.897 246.000,327.711 246.868,328.323 247.694 C 328.610 248.082,329.056 248.400,329.314 248.400 C 329.571 248.400,329.324 247.942,328.765 247.383 C 327.704 246.323,324.000 244.951,324.000 245.619 M181.066 254.100 C 181.202 254.815,181.569 255.850,181.882 256.400 C 182.200 256.960,182.323 257.048,182.161 256.600 C 182.001 256.160,181.791 255.125,181.693 254.300 C 181.596 253.475,181.359 252.800,181.168 252.800 C 180.977 252.800,180.931 253.385,181.066 254.100 M212.101 259.400 C 212.105 260.280,212.187 260.593,212.283 260.095 C 212.379 259.598,212.375 258.878,212.275 258.495 C 212.175 258.113,212.096 258.520,212.101 259.400 M101.081 260.100 C 101.289 260.375,101.668 261.331,101.923 262.224 C 102.357 263.743,104.400 266.275,104.400 265.292 C 104.400 265.047,104.067 264.610,103.660 264.323 C 103.035 263.882,102.346 262.353,101.756 260.100 C 101.684 259.825,101.417 259.600,101.164 259.600 C 100.859 259.600,100.831 259.770,101.081 260.100 M44.137 270.600 C 44.139 272.360,44.209 273.030,44.293 272.089 C 44.378 271.149,44.377 269.709,44.291 268.889 C 44.205 268.070,44.136 268.840,44.137 270.600 M209.905 268.283 C 210.402 268.379,211.122 268.375,211.505 268.275 C 211.887 268.175,211.480 268.096,210.600 268.101 C 209.720 268.105,209.407 268.187,209.905 268.283 M268.000 270.014 C 268.000 272.366,268.530 272.325,270.745 269.801 C 272.350 267.974,272.361 268.000,270.000 268.000 L 268.000 268.000 268.000 270.014 M204.998 269.202 C 203.975 270.332,204.410 270.437,205.486 269.320 C 205.973 268.814,206.226 268.400,206.048 268.400 C 205.870 268.400,205.397 268.761,204.998 269.202 M276.093 272.000 C 276.093 272.770,276.175 273.085,276.276 272.700 C 276.376 272.315,276.376 271.685,276.276 271.300 C 276.175 270.915,276.093 271.230,276.093 272.000 M204.114 275.000 C 204.117 276.100,204.195 276.503,204.287 275.895 C 204.379 275.286,204.377 274.386,204.282 273.895 C 204.187 273.403,204.111 273.900,204.114 275.000 M278.278 277.148 C 279.057 279.043,280.667 280.756,282.343 281.473 C 284.683 282.473,284.332 281.474,281.911 280.243 C 280.819 279.688,280.249 279.032,279.771 277.779 C 279.412 276.840,278.795 275.987,278.400 275.884 C 277.727 275.708,277.719 275.788,278.278 277.148 M45.400 282.400 C 45.798 282.840,46.276 283.200,46.462 283.200 C 46.648 283.200,46.440 282.840,46.000 282.400 C 45.560 281.960,45.082 281.600,44.938 281.600 C 44.794 281.600,45.002 281.960,45.400 282.400 M201.905 284.683 C 202.402 284.779,203.122 284.775,203.505 284.675 C 203.887 284.575,203.480 284.496,202.600 284.501 C 201.720 284.505,201.407 284.587,201.905 284.683 M198.546 285.268 C 197.455 285.796,196.334 288.000,197.157 288.000 C 197.353 288.000,197.626 287.553,197.763 287.006 C 197.917 286.393,198.393 285.917,199.006 285.763 C 199.553 285.626,200.000 285.353,200.000 285.157 C 200.000 284.712,199.637 284.739,198.546 285.268 M284.109 286.800 C 284.109 287.790,284.187 288.195,284.282 287.700 C 284.378 287.205,284.378 286.395,284.282 285.900 C 284.187 285.405,284.109 285.810,284.109 286.800 M196.501 290.600 C 196.505 291.480,196.587 291.793,196.683 291.295 C 196.779 290.798,196.775 290.078,196.675 289.695 C 196.575 289.313,196.496 289.720,196.501 290.600 M52.093 295.200 C 52.093 295.970,52.175 296.285,52.276 295.900 C 52.376 295.515,52.376 294.885,52.276 294.500 C 52.175 294.115,52.093 294.430,52.093 295.200 M196.101 295.800 C 196.105 296.680,196.187 296.993,196.283 296.495 C 196.379 295.998,196.375 295.278,196.275 294.895 C 196.175 294.513,196.096 294.920,196.101 295.800 M100.000 298.287 L 100.000 300.602 102.000 300.513 C 103.100 300.464,104.000 300.593,104.000 300.799 C 104.000 301.006,104.270 301.071,104.601 300.944 C 104.950 300.810,105.547 301.109,106.024 301.657 C 106.821 302.572,106.832 302.573,106.413 301.709 C 106.176 301.219,105.581 300.607,105.091 300.350 C 104.601 300.092,103.599 299.185,102.865 298.336 C 100.491 295.589,100.000 295.581,100.000 298.287 M121.564 297.960 C 120.454 299.111,119.163 300.033,118.434 300.193 C 117.165 300.471,116.194 301.667,116.542 302.522 C 116.649 302.785,116.751 302.689,116.768 302.309 C 116.813 301.344,118.324 300.475,120.100 300.396 C 124.399 300.204,124.000 300.439,124.000 298.100 C 124.000 295.526,123.915 295.521,121.564 297.960 M340.000 302.186 C 340.000 302.675,340.975 303.424,342.337 303.981 C 343.205 304.336,343.906 305.029,344.337 305.960 C 344.988 307.367,347.200 309.897,347.200 309.235 C 347.200 309.050,346.939 308.682,346.620 308.417 C 346.302 308.152,345.842 307.332,345.598 306.594 C 345.178 305.322,342.415 302.400,341.632 302.400 C 341.430 302.400,340.981 302.291,340.633 302.157 C 340.285 302.024,340.000 302.037,340.000 302.186 M116.120 308.400 C 116.120 309.610,116.195 310.105,116.287 309.500 C 116.378 308.895,116.378 307.905,116.287 307.300 C 116.195 306.695,116.120 307.190,116.120 308.400 M292.134 309.600 C 292.134 311.250,292.205 311.925,292.291 311.100 C 292.378 310.275,292.378 308.925,292.291 308.100 C 292.205 307.275,292.134 307.950,292.134 309.600 M292.430 318.400 C 292.379 319.592,293.229 321.925,293.907 322.457 C 294.508 322.928,294.539 322.921,294.138 322.400 C 293.885 322.070,293.402 320.900,293.066 319.800 C 292.730 318.700,292.444 318.070,292.430 318.400 M52.134 322.800 C 52.134 324.450,52.205 325.125,52.291 324.300 C 52.378 323.475,52.378 322.125,52.291 321.300 C 52.205 320.475,52.134 321.150,52.134 322.800 M188.114 323.400 C 188.117 324.500,188.195 324.903,188.287 324.295 C 188.379 323.686,188.377 322.786,188.282 322.295 C 188.187 321.803,188.111 322.300,188.114 323.400 M112.274 331.352 C 112.150 331.674,111.633 332.017,111.124 332.115 C 110.266 332.278,110.261 332.295,111.051 332.346 C 111.886 332.399,113.114 331.381,112.706 330.973 C 112.592 330.859,112.398 331.029,112.274 331.352 M108.782 333.234 C 108.147 334.421,108.469 334.497,109.319 333.361 C 109.714 332.832,109.855 332.400,109.633 332.400 C 109.410 332.400,109.027 332.775,108.782 333.234 M53.066 334.100 C 53.202 334.815,53.569 335.850,53.882 336.400 C 54.200 336.960,54.323 337.048,54.161 336.600 C 54.001 336.160,53.791 335.125,53.693 334.300 C 53.596 333.475,53.359 332.800,53.168 332.800 C 52.977 332.800,52.931 333.385,53.066 334.100 M300.093 335.600 C 300.093 336.370,300.175 336.685,300.276 336.300 C 300.376 335.915,300.376 335.285,300.276 334.900 C 300.175 334.515,300.093 334.830,300.093 335.600 M108.128 340.400 C 108.128 341.830,108.201 342.415,108.289 341.700 C 108.378 340.985,108.378 339.815,108.289 339.100 C 108.201 338.385,108.128 338.970,108.128 340.400 M108.120 356.800 C 108.120 358.010,108.195 358.505,108.287 357.900 C 108.378 357.295,108.378 356.305,108.287 355.700 C 108.195 355.095,108.120 355.590,108.120 356.800 M300.114 358.200 C 300.117 359.300,300.195 359.703,300.287 359.095 C 300.379 358.486,300.377 357.586,300.282 357.095 C 300.187 356.603,300.111 357.100,300.114 358.200 M188.093 364.400 C 188.093 365.170,188.175 365.485,188.276 365.100 C 188.376 364.715,188.376 364.085,188.276 363.700 C 188.175 363.315,188.093 363.630,188.093 364.400 M61.242 365.415 C 61.638 367.534,62.031 368.342,63.163 369.366 C 64.307 370.402,64.219 369.954,63.026 368.665 C 62.448 368.042,61.940 366.876,61.779 365.802 C 61.630 364.806,61.372 363.907,61.207 363.804 C 61.042 363.702,61.058 364.427,61.242 365.415 " stroke="none" fill="#58a8f8" fill-rule="evenodd"/><path id="path3" d="M173.100 28.282 C 173.595 28.378,174.405 28.378,174.900 28.282 C 175.395 28.187,174.990 28.109,174.000 28.109 C 173.010 28.109,172.605 28.187,173.100 28.282 M364.700 28.282 C 365.195 28.378,366.005 28.378,366.500 28.282 C 366.995 28.187,366.590 28.109,365.600 28.109 C 364.610 28.109,364.205 28.187,364.700 28.282 M145.564 33.960 C 144.454 35.111,143.163 36.033,142.434 36.193 C 141.165 36.471,140.194 37.667,140.542 38.522 C 140.649 38.785,140.751 38.689,140.768 38.309 C 140.812 37.353,142.327 36.454,144.000 36.392 C 144.770 36.363,145.985 36.322,146.700 36.300 C 147.928 36.262,148.000 36.177,148.000 34.763 C 148.000 33.939,148.109 32.981,148.243 32.633 C 148.722 31.383,147.431 32.023,145.564 33.960 M332.093 40.400 C 332.093 41.170,332.175 41.485,332.276 41.100 C 332.376 40.715,332.376 40.085,332.276 39.700 C 332.175 39.315,332.093 39.630,332.093 40.400 M180.000 42.086 L 180.000 44.201 182.900 44.254 C 184.495 44.284,185.425 44.194,184.967 44.054 C 184.509 43.914,183.539 43.118,182.812 42.285 C 180.508 39.643,180.000 39.608,180.000 42.086 M140.134 44.800 C 140.134 46.450,140.205 47.125,140.291 46.300 C 140.378 45.475,140.378 44.125,140.291 43.300 C 140.205 42.475,140.134 43.150,140.134 44.800 M43.300 44.276 C 43.685 44.376,44.315 44.376,44.700 44.276 C 45.085 44.175,44.770 44.093,44.000 44.093 C 43.230 44.093,42.915 44.175,43.300 44.276 M37.200 45.200 C 36.760 45.640,36.425 46.405,36.454 46.900 C 36.508 47.780,36.513 47.781,36.677 46.942 C 36.874 45.933,37.875 44.962,39.000 44.688 C 39.724 44.511,39.715 44.488,38.900 44.446 C 38.405 44.421,37.640 44.760,37.200 45.200 M330.193 46.557 C 328.834 47.149,326.400 49.734,326.400 50.585 C 326.400 50.892,326.117 51.426,325.771 51.771 C 325.303 52.239,325.278 52.397,325.671 52.387 C 326.507 52.367,327.346 51.518,328.063 49.964 C 328.497 49.025,329.189 48.340,330.063 47.987 C 331.359 47.462,331.981 46.919,331.994 46.300 C 332.002 45.886,331.601 45.944,330.193 46.557 M36.093 52.000 C 36.093 52.770,36.175 53.085,36.276 52.700 C 36.376 52.315,36.376 51.685,36.276 51.300 C 36.175 50.915,36.093 51.230,36.093 52.000 M324.101 56.200 C 324.105 57.080,324.187 57.393,324.283 56.895 C 324.379 56.398,324.375 55.678,324.275 55.295 C 324.175 54.913,324.096 55.320,324.101 56.200 M322.193 62.557 C 320.834 63.149,318.400 65.734,318.400 66.585 C 318.400 66.892,318.117 67.426,317.771 67.771 C 317.303 68.239,317.278 68.397,317.671 68.387 C 318.507 68.367,319.346 67.518,320.063 65.964 C 320.497 65.025,321.189 64.340,322.063 63.987 C 323.359 63.462,323.981 62.919,323.994 62.300 C 324.002 61.886,323.601 61.944,322.193 62.557 M188.000 66.086 L 188.000 68.201 190.900 68.254 C 192.495 68.284,193.425 68.194,192.967 68.054 C 192.509 67.914,191.539 67.118,190.812 66.285 C 188.508 63.643,188.000 63.608,188.000 66.086 M29.398 69.602 C 28.412 70.692,28.922 71.078,29.967 70.033 C 30.425 69.575,30.800 69.110,30.800 69.000 C 30.800 68.542,30.075 68.854,29.398 69.602 M316.093 72.000 C 316.093 72.770,316.175 73.085,316.276 72.700 C 316.376 72.315,316.376 71.685,316.276 71.300 C 316.175 70.915,316.093 71.230,316.093 72.000 M148.093 73.200 C 148.093 73.970,148.175 74.285,148.276 73.900 C 148.376 73.515,148.376 72.885,148.276 72.500 C 148.175 72.115,148.093 72.430,148.093 73.200 M28.131 80.600 C 28.133 82.140,28.205 82.721,28.292 81.891 C 28.379 81.061,28.377 79.801,28.289 79.091 C 28.200 78.381,28.129 79.060,28.131 80.600 M149.188 81.578 C 149.817 82.753,150.392 82.946,149.863 81.804 C 149.608 81.255,149.259 80.805,149.086 80.803 C 148.913 80.801,148.959 81.150,149.188 81.578 M308.093 88.000 C 308.093 88.770,308.175 89.085,308.276 88.700 C 308.376 88.315,308.376 87.685,308.276 87.300 C 308.175 86.915,308.093 87.230,308.093 88.000 M305.505 92.683 C 306.002 92.779,306.722 92.775,307.105 92.675 C 307.487 92.575,307.080 92.496,306.200 92.501 C 305.320 92.505,305.007 92.587,305.505 92.683 M302.025 93.500 C 301.122 94.231,300.403 96.547,300.441 98.600 C 300.455 99.348,300.671 98.843,301.014 97.262 C 301.591 94.604,302.143 93.600,303.025 93.600 C 303.315 93.600,303.664 93.420,303.800 93.200 C 304.210 92.537,302.950 92.750,302.025 93.500 M154.057 93.818 C 151.812 94.492,150.502 95.745,149.924 97.776 C 149.670 98.669,149.178 99.741,148.831 100.158 C 148.239 100.869,148.250 100.890,149.000 100.494 C 149.440 100.262,150.023 99.347,150.295 98.460 C 151.047 96.007,153.029 94.370,155.800 93.913 C 156.240 93.841,156.420 93.672,156.200 93.539 C 155.980 93.405,155.016 93.531,154.057 93.818 M28.093 106.800 C 28.093 107.570,28.175 107.885,28.276 107.500 C 28.376 107.115,28.376 106.485,28.276 106.100 C 28.175 105.715,28.093 106.030,28.093 106.800 M71.300 108.276 C 71.685 108.376,72.315 108.376,72.700 108.276 C 73.085 108.175,72.770 108.093,72.000 108.093 C 71.230 108.093,70.915 108.175,71.300 108.276 M297.905 108.283 C 298.402 108.379,299.122 108.375,299.505 108.275 C 299.887 108.175,299.480 108.096,298.600 108.101 C 297.720 108.105,297.407 108.187,297.905 108.283 M292.998 109.202 C 291.975 110.332,292.410 110.437,293.486 109.320 C 293.973 108.814,294.226 108.400,294.048 108.400 C 293.870 108.400,293.397 108.761,292.998 109.202 M28.144 112.400 C 28.144 114.490,28.212 115.345,28.294 114.300 C 28.376 113.255,28.376 111.545,28.294 110.500 C 28.212 109.455,28.144 110.310,28.144 112.400 M146.560 110.289 C 145.478 111.708,143.921 113.243,141.600 115.178 L 140.600 116.012 141.800 115.744 C 142.460 115.597,143.060 115.324,143.133 115.138 C 143.207 114.952,143.603 114.800,144.015 114.800 C 144.998 114.800,146.800 112.976,146.800 111.982 C 146.800 111.552,146.959 111.200,147.153 111.200 C 147.477 111.200,148.071 109.144,147.820 108.889 C 147.761 108.828,147.193 109.458,146.560 110.289 M292.060 114.478 C 292.001 115.944,291.984 115.957,290.100 116.106 L 288.200 116.256 290.113 116.328 C 292.218 116.407,292.576 116.047,292.290 114.134 C 292.145 113.166,292.111 113.217,292.060 114.478 M79.300 116.276 C 79.685 116.376,80.315 116.376,80.700 116.276 C 81.085 116.175,80.770 116.093,80.000 116.093 C 79.230 116.093,78.915 116.175,79.300 116.276 M188.000 118.014 C 188.000 120.366,188.530 120.325,190.745 117.801 C 192.350 115.974,192.361 116.000,190.000 116.000 L 188.000 116.000 188.000 118.014 M281.772 120.200 C 281.357 120.970,280.811 121.600,280.558 121.600 C 280.305 121.600,279.874 121.870,279.600 122.200 C 279.256 122.615,279.241 122.800,279.551 122.800 C 280.288 122.800,280.607 122.620,280.490 122.270 C 280.430 122.089,280.566 122.055,280.793 122.196 C 281.323 122.523,282.531 121.335,282.205 120.808 C 282.067 120.585,282.210 120.506,282.529 120.628 C 282.932 120.783,283.100 120.546,283.100 119.824 C 283.100 118.418,282.665 118.541,281.772 120.200 M139.600 120.930 C 139.600 122.050,138.178 123.462,136.800 123.710 C 136.055 123.845,136.175 123.905,137.271 123.946 C 139.110 124.014,140.000 123.174,140.000 121.371 C 140.000 120.617,139.910 120.000,139.800 120.000 C 139.690 120.000,139.600 120.419,139.600 120.930 M28.093 124.000 C 28.093 124.770,28.175 125.085,28.276 124.700 C 28.376 124.315,28.376 123.685,28.276 123.300 C 28.175 122.915,28.093 123.230,28.093 124.000 M240.700 124.282 C 241.195 124.378,242.005 124.378,242.500 124.282 C 242.995 124.187,242.590 124.109,241.600 124.109 C 240.610 124.109,240.205 124.187,240.700 124.282 M266.100 124.276 C 266.485 124.376,267.115 124.376,267.500 124.276 C 267.885 124.175,267.570 124.093,266.800 124.093 C 266.030 124.093,265.715 124.175,266.100 124.276 M130.388 126.848 C 129.273 128.456,127.821 130.000,127.411 130.014 C 126.904 130.032,124.465 131.995,124.946 131.998 C 127.128 132.011,130.524 129.977,131.174 128.268 C 131.996 126.108,131.510 125.231,130.388 126.848 M110.900 132.276 C 111.285 132.376,111.915 132.376,112.300 132.276 C 112.685 132.175,112.370 132.093,111.600 132.093 C 110.830 132.093,110.515 132.175,110.900 132.276 M224.037 133.323 C 222.082 134.008,219.600 138.400,221.168 138.400 C 221.406 138.400,221.600 138.048,221.600 137.619 C 221.600 135.565,223.546 133.600,225.580 133.600 C 226.031 133.600,226.400 133.420,226.400 133.200 C 226.400 132.690,225.747 132.723,224.037 133.323 M36.093 136.000 C 36.093 136.770,36.175 137.085,36.276 136.700 C 36.376 136.315,36.376 135.685,36.276 135.300 C 36.175 134.915,36.093 135.230,36.093 136.000 M337.295 136.266 C 337.018 136.378,336.588 136.859,336.341 137.335 C 335.920 138.145,335.959 138.138,336.946 137.230 C 337.526 136.697,338.000 136.202,338.000 136.130 C 338.000 135.984,337.993 135.985,337.295 136.266 M215.400 141.178 C 213.971 141.763,212.055 144.800,213.115 144.800 C 213.318 144.800,213.651 144.220,213.854 143.512 C 214.132 142.542,214.542 142.132,215.512 141.854 C 216.220 141.651,216.800 141.330,216.800 141.142 C 216.800 140.732,216.468 140.741,215.400 141.178 M45.035 149.900 C 45.410 151.969,46.241 153.489,47.304 154.047 C 48.082 154.456,48.056 154.372,47.108 153.412 C 46.347 152.642,45.936 151.713,45.756 150.353 C 45.614 149.279,45.332 148.400,45.130 148.400 C 44.925 148.400,44.883 149.060,45.035 149.900 M208.037 149.323 C 206.082 150.008,203.600 154.400,205.168 154.400 C 205.406 154.400,205.600 154.048,205.600 153.619 C 205.600 151.565,207.546 149.600,209.580 149.600 C 210.031 149.600,210.400 149.420,210.400 149.200 C 210.400 148.690,209.747 148.723,208.037 149.323 M200.037 157.323 C 198.082 158.008,195.600 162.400,197.168 162.400 C 197.406 162.400,197.600 162.048,197.600 161.619 C 197.600 159.565,199.546 157.600,201.580 157.600 C 202.031 157.600,202.400 157.420,202.400 157.200 C 202.400 156.690,201.747 156.723,200.037 157.323 M192.037 165.323 C 190.082 166.008,187.600 170.400,189.168 170.400 C 189.406 170.400,189.600 170.048,189.600 169.619 C 189.600 167.565,191.546 165.600,193.580 165.600 C 194.031 165.600,194.400 165.420,194.400 165.200 C 194.400 164.690,193.747 164.723,192.037 165.323 M60.093 168.000 C 60.093 168.770,60.175 169.085,60.276 168.700 C 60.376 168.315,60.376 167.685,60.276 167.300 C 60.175 166.915,60.093 167.230,60.093 168.000 M63.400 181.178 C 61.971 181.763,60.055 184.800,61.115 184.800 C 61.318 184.800,61.651 184.220,61.854 183.512 C 62.132 182.542,62.542 182.132,63.512 181.854 C 64.220 181.651,64.800 181.330,64.800 181.142 C 64.800 180.732,64.468 180.741,63.400 181.178 M181.782 181.782 C 180.790 182.774,180.504 183.600,181.153 183.600 C 181.348 183.600,181.604 183.227,181.724 182.770 C 181.843 182.314,182.314 181.843,182.770 181.724 C 183.227 181.604,183.600 181.348,183.600 181.153 C 183.600 180.504,182.774 180.790,181.782 181.782 M180.131 193.800 C 180.133 195.340,180.205 195.921,180.292 195.091 C 180.379 194.261,180.377 193.001,180.289 192.291 C 180.200 191.581,180.129 192.260,180.131 193.800 M236.148 198.800 C 236.148 201.110,236.214 202.055,236.295 200.900 C 236.376 199.745,236.376 197.855,236.295 196.700 C 236.214 195.545,236.148 196.490,236.148 198.800 M153.200 212.006 C 153.576 212.253,153.651 212.512,153.400 212.700 C 153.180 212.865,152.702 213.646,152.337 214.436 C 151.905 215.372,151.208 216.063,150.337 216.419 C 148.865 217.021,147.164 218.396,148.533 217.878 C 148.936 217.725,149.424 217.600,149.619 217.600 C 150.343 217.600,152.939 214.966,153.472 213.689 C 154.043 212.322,153.905 211.595,153.076 211.606 C 152.789 211.610,152.838 211.768,153.200 212.006 M49.905 212.283 C 50.402 212.379,51.122 212.375,51.505 212.275 C 51.887 212.175,51.480 212.096,50.600 212.101 C 49.720 212.105,49.407 212.187,49.905 212.283 M45.029 213.029 C 44.683 213.374,44.405 213.869,44.412 214.129 C 44.419 214.388,44.605 214.291,44.825 213.913 C 45.045 213.535,45.535 213.045,45.913 212.825 C 46.291 212.605,46.388 212.419,46.129 212.412 C 45.869 212.405,45.374 212.683,45.029 213.029 M150.196 214.404 C 149.566 215.062,149.166 215.600,149.307 215.600 C 149.672 215.600,151.680 213.547,151.495 213.362 C 151.411 213.277,150.826 213.746,150.196 214.404 M44.114 219.000 C 44.117 220.100,44.195 220.503,44.287 219.895 C 44.379 219.286,44.377 218.386,44.282 217.895 C 44.187 217.403,44.111 217.900,44.114 219.000 M229.402 221.598 C 229.003 222.039,228.862 222.400,229.089 222.400 C 229.592 222.400,230.590 221.257,230.321 220.988 C 230.215 220.882,229.802 221.156,229.402 221.598 M176.037 229.323 C 174.215 229.961,171.714 234.000,173.141 234.000 C 173.337 234.000,173.609 233.303,173.745 232.452 C 174.039 230.616,174.633 230.042,176.564 229.728 C 177.354 229.600,178.000 229.339,178.000 229.148 C 178.000 228.708,177.721 228.733,176.037 229.323 M173.066 239.700 C 173.441 241.679,173.907 242.374,176.819 245.300 C 180.052 248.548,180.000 248.539,180.000 245.849 L 180.000 243.697 178.400 243.291 C 177.520 243.068,176.800 243.033,176.800 243.215 C 176.800 243.396,177.205 243.622,177.700 243.718 C 178.592 243.890,178.593 243.892,177.729 243.946 C 177.249 243.975,176.619 243.765,176.329 243.478 C 176.038 243.190,175.482 242.835,175.094 242.688 C 174.299 242.387,173.600 240.836,173.600 239.374 C 173.600 238.838,173.425 238.400,173.210 238.400 C 172.986 238.400,172.925 238.954,173.066 239.700 M156.700 244.282 C 157.195 244.378,158.005 244.378,158.500 244.282 C 158.995 244.187,158.590 244.109,157.600 244.109 C 156.610 244.109,156.205 244.187,156.700 244.282 M324.000 245.619 C 324.000 245.829,324.352 246.000,324.781 246.000 C 325.897 246.000,327.711 246.868,328.323 247.694 C 328.610 248.082,329.056 248.400,329.314 248.400 C 329.571 248.400,329.324 247.942,328.765 247.383 C 327.704 246.323,324.000 244.951,324.000 245.619 M181.066 254.100 C 181.202 254.815,181.569 255.850,181.882 256.400 C 182.200 256.960,182.323 257.048,182.161 256.600 C 182.001 256.160,181.791 255.125,181.693 254.300 C 181.596 253.475,181.359 252.800,181.168 252.800 C 180.977 252.800,180.931 253.385,181.066 254.100 M212.101 259.400 C 212.105 260.280,212.187 260.593,212.283 260.095 C 212.379 259.598,212.375 258.878,212.275 258.495 C 212.175 258.113,212.096 258.520,212.101 259.400 M101.081 260.100 C 101.289 260.375,101.668 261.331,101.923 262.224 C 102.357 263.743,104.400 266.275,104.400 265.292 C 104.400 265.047,104.067 264.610,103.660 264.323 C 103.035 263.882,102.346 262.353,101.756 260.100 C 101.684 259.825,101.417 259.600,101.164 259.600 C 100.859 259.600,100.831 259.770,101.081 260.100 M44.137 270.600 C 44.139 272.360,44.209 273.030,44.293 272.089 C 44.378 271.149,44.377 269.709,44.291 268.889 C 44.205 268.070,44.136 268.840,44.137 270.600 M209.905 268.283 C 210.402 268.379,211.122 268.375,211.505 268.275 C 211.887 268.175,211.480 268.096,210.600 268.101 C 209.720 268.105,209.407 268.187,209.905 268.283 M268.000 270.014 C 268.000 272.366,268.530 272.325,270.745 269.801 C 272.350 267.974,272.361 268.000,270.000 268.000 L 268.000 268.000 268.000 270.014 M204.998 269.202 C 203.975 270.332,204.410 270.437,205.486 269.320 C 205.973 268.814,206.226 268.400,206.048 268.400 C 205.870 268.400,205.397 268.761,204.998 269.202 M276.093 272.000 C 276.093 272.770,276.175 273.085,276.276 272.700 C 276.376 272.315,276.376 271.685,276.276 271.300 C 276.175 270.915,276.093 271.230,276.093 272.000 M204.114 275.000 C 204.117 276.100,204.195 276.503,204.287 275.895 C 204.379 275.286,204.377 274.386,204.282 273.895 C 204.187 273.403,204.111 273.900,204.114 275.000 M278.278 277.148 C 279.057 279.043,280.667 280.756,282.343 281.473 C 284.683 282.473,284.332 281.474,281.911 280.243 C 280.819 279.688,280.249 279.032,279.771 277.779 C 279.412 276.840,278.795 275.987,278.400 275.884 C 277.727 275.708,277.719 275.788,278.278 277.148 M45.400 282.400 C 45.798 282.840,46.276 283.200,46.462 283.200 C 46.648 283.200,46.440 282.840,46.000 282.400 C 45.560 281.960,45.082 281.600,44.938 281.600 C 44.794 281.600,45.002 281.960,45.400 282.400 M201.905 284.683 C 202.402 284.779,203.122 284.775,203.505 284.675 C 203.887 284.575,203.480 284.496,202.600 284.501 C 201.720 284.505,201.407 284.587,201.905 284.683 M198.546 285.268 C 197.455 285.796,196.334 288.000,197.157 288.000 C 197.353 288.000,197.626 287.553,197.763 287.006 C 197.917 286.393,198.393 285.917,199.006 285.763 C 199.553 285.626,200.000 285.353,200.000 285.157 C 200.000 284.712,199.637 284.739,198.546 285.268 M284.109 286.800 C 284.109 287.790,284.187 288.195,284.282 287.700 C 284.378 287.205,284.378 286.395,284.282 285.900 C 284.187 285.405,284.109 285.810,284.109 286.800 M196.501 290.600 C 196.505 291.480,196.587 291.793,196.683 291.295 C 196.779 290.798,196.775 290.078,196.675 289.695 C 196.575 289.313,196.496 289.720,196.501 290.600 M52.093 295.200 C 52.093 295.970,52.175 296.285,52.276 295.900 C 52.376 295.515,52.376 294.885,52.276 294.500 C 52.175 294.115,52.093 294.430,52.093 295.200 M196.101 295.800 C 196.105 296.680,196.187 296.993,196.283 296.495 C 196.379 295.998,196.375 295.278,196.275 294.895 C 196.175 294.513,196.096 294.920,196.101 295.800 M100.000 298.287 L 100.000 300.602 102.000 300.513 C 103.100 300.464,104.000 300.593,104.000 300.799 C 104.000 301.006,104.270 301.071,104.601 300.944 C 104.950 300.810,105.547 301.109,106.024 301.657 C 106.821 302.572,106.832 302.573,106.413 301.709 C 106.176 301.219,105.581 300.607,105.091 300.350 C 104.601 300.092,103.599 299.185,102.865 298.336 C 100.491 295.589,100.000 295.581,100.000 298.287 M121.564 297.960 C 120.454 299.111,119.163 300.033,118.434 300.193 C 117.165 300.471,116.194 301.667,116.542 302.522 C 116.649 302.785,116.751 302.689,116.768 302.309 C 116.813 301.344,118.324 300.475,120.100 300.396 C 124.399 300.204,124.000 300.439,124.000 298.100 C 124.000 295.526,123.915 295.521,121.564 297.960 M340.000 302.186 C 340.000 302.675,340.975 303.424,342.337 303.981 C 343.205 304.336,343.906 305.029,344.337 305.960 C 344.988 307.367,347.200 309.897,347.200 309.235 C 347.200 309.050,346.939 308.682,346.620 308.417 C 346.302 308.152,345.842 307.332,345.598 306.594 C 345.178 305.322,342.415 302.400,341.632 302.400 C 341.430 302.400,340.981 302.291,340.633 302.157 C 340.285 302.024,340.000 302.037,340.000 302.186 M116.120 308.400 C 116.120 309.610,116.195 310.105,116.287 309.500 C 116.378 308.895,116.378 307.905,116.287 307.300 C 116.195 306.695,116.120 307.190,116.120 308.400 M292.134 309.600 C 292.134 311.250,292.205 311.925,292.291 311.100 C 292.378 310.275,292.378 308.925,292.291 308.100 C 292.205 307.275,292.134 307.950,292.134 309.600 M292.430 318.400 C 292.379 319.592,293.229 321.925,293.907 322.457 C 294.508 322.928,294.539 322.921,294.138 322.400 C 293.885 322.070,293.402 320.900,293.066 319.800 C 292.730 318.700,292.444 318.070,292.430 318.400 M52.134 322.800 C 52.134 324.450,52.205 325.125,52.291 324.300 C 52.378 323.475,52.378 322.125,52.291 321.300 C 52.205 320.475,52.134 321.150,52.134 322.800 M188.114 323.400 C 188.117 324.500,188.195 324.903,188.287 324.295 C 188.379 323.686,188.377 322.786,188.282 322.295 C 188.187 321.803,188.111 322.300,188.114 323.400 M112.274 331.352 C 112.150 331.674,111.633 332.017,111.124 332.115 C 110.266 332.278,110.261 332.295,111.051 332.346 C 111.886 332.399,113.114 331.381,112.706 330.973 C 112.592 330.859,112.398 331.029,112.274 331.352 M108.782 333.234 C 108.147 334.421,108.469 334.497,109.319 333.361 C 109.714 332.832,109.855 332.400,109.633 332.400 C 109.410 332.400,109.027 332.775,108.782 333.234 M53.066 334.100 C 53.202 334.815,53.569 335.850,53.882 336.400 C 54.200 336.960,54.323 337.048,54.161 336.600 C 54.001 336.160,53.791 335.125,53.693 334.300 C 53.596 333.475,53.359 332.800,53.168 332.800 C 52.977 332.800,52.931 333.385,53.066 334.100 M300.093 335.600 C 300.093 336.370,300.175 336.685,300.276 336.300 C 300.376 335.915,300.376 335.285,300.276 334.900 C 300.175 334.515,300.093 334.830,300.093 335.600 M108.128 340.400 C 108.128 341.830,108.201 342.415,108.289 341.700 C 108.378 340.985,108.378 339.815,108.289 339.100 C 108.201 338.385,108.128 338.970,108.128 340.400 M108.120 356.800 C 108.120 358.010,108.195 358.505,108.287 357.900 C 108.378 357.295,108.378 356.305,108.287 355.700 C 108.195 355.095,108.120 355.590,108.120 356.800 M300.114 358.200 C 300.117 359.300,300.195 359.703,300.287 359.095 C 300.379 358.486,300.377 357.586,300.282 357.095 C 300.187 356.603,300.111 357.100,300.114 358.200 M188.093 364.400 C 188.093 365.170,188.175 365.485,188.276 365.100 C 188.376 364.715,188.376 364.085,188.276 363.700 C 188.175 363.315,188.093 363.630,188.093 364.400 M61.242 365.415 C 61.638 367.534,62.031 368.342,63.163 369.366 C 64.307 370.402,64.219 369.954,63.026 368.665 C 62.448 368.042,61.940 366.876,61.779 365.802 C 61.630 364.806,61.372 363.907,61.207 363.804 C 61.042 363.702,61.058 364.427,61.242 365.415 " stroke="none" fill="#58a8f8" fill-rule="evenodd"/><path id="path4" d="M173.100 28.282 C 173.595 28.378,174.405 28.378,174.900 28.282 C 175.395 28.187,174.990 28.109,174.000 28.109 C 173.010 28.109,172.605 28.187,173.100 28.282 M364.700 28.282 C 365.195 28.378,366.005 28.378,366.500 28.282 C 366.995 28.187,366.590 28.109,365.600 28.109 C 364.610 28.109,364.205 28.187,364.700 28.282 M145.564 33.960 C 144.454 35.111,143.163 36.033,142.434 36.193 C 141.165 36.471,140.194 37.667,140.542 38.522 C 140.649 38.785,140.751 38.689,140.768 38.309 C 140.812 37.353,142.327 36.454,144.000 36.392 C 144.770 36.363,145.985 36.322,146.700 36.300 C 147.928 36.262,148.000 36.177,148.000 34.763 C 148.000 33.939,148.109 32.981,148.243 32.633 C 148.722 31.383,147.431 32.023,145.564 33.960 M332.093 40.400 C 332.093 41.170,332.175 41.485,332.276 41.100 C 332.376 40.715,332.376 40.085,332.276 39.700 C 332.175 39.315,332.093 39.630,332.093 40.400 M180.000 42.086 L 180.000 44.201 182.900 44.254 C 184.495 44.284,185.425 44.194,184.967 44.054 C 184.509 43.914,183.539 43.118,182.812 42.285 C 180.508 39.643,180.000 39.608,180.000 42.086 M140.134 44.800 C 140.134 46.450,140.205 47.125,140.291 46.300 C 140.378 45.475,140.378 44.125,140.291 43.300 C 140.205 42.475,140.134 43.150,140.134 44.800 M43.300 44.276 C 43.685 44.376,44.315 44.376,44.700 44.276 C 45.085 44.175,44.770 44.093,44.000 44.093 C 43.230 44.093,42.915 44.175,43.300 44.276 M37.200 45.200 C 36.760 45.640,36.425 46.405,36.454 46.900 C 36.508 47.780,36.513 47.781,36.677 46.942 C 36.874 45.933,37.875 44.962,39.000 44.688 C 39.724 44.511,39.715 44.488,38.900 44.446 C 38.405 44.421,37.640 44.760,37.200 45.200 M330.193 46.557 C 328.834 47.149,326.400 49.734,326.400 50.585 C 326.400 50.892,326.117 51.426,325.771 51.771 C 325.303 52.239,325.278 52.397,325.671 52.387 C 326.507 52.367,327.346 51.518,328.063 49.964 C 328.497 49.025,329.189 48.340,330.063 47.987 C 331.359 47.462,331.981 46.919,331.994 46.300 C 332.002 45.886,331.601 45.944,330.193 46.557 M36.093 52.000 C 36.093 52.770,36.175 53.085,36.276 52.700 C 36.376 52.315,36.376 51.685,36.276 51.300 C 36.175 50.915,36.093 51.230,36.093 52.000 M324.101 56.200 C 324.105 57.080,324.187 57.393,324.283 56.895 C 324.379 56.398,324.375 55.678,324.275 55.295 C 324.175 54.913,324.096 55.320,324.101 56.200 M322.193 62.557 C 320.834 63.149,318.400 65.734,318.400 66.585 C 318.400 66.892,318.117 67.426,317.771 67.771 C 317.303 68.239,317.278 68.397,317.671 68.387 C 318.507 68.367,319.346 67.518,320.063 65.964 C 320.497 65.025,321.189 64.340,322.063 63.987 C 323.359 63.462,323.981 62.919,323.994 62.300 C 324.002 61.886,323.601 61.944,322.193 62.557 M188.000 66.086 L 188.000 68.201 190.900 68.254 C 192.495 68.284,193.425 68.194,192.967 68.054 C 192.509 67.914,191.539 67.118,190.812 66.285 C 188.508 63.643,188.000 63.608,188.000 66.086 M29.398 69.602 C 28.412 70.692,28.922 71.078,29.967 70.033 C 30.425 69.575,30.800 69.110,30.800 69.000 C 30.800 68.542,30.075 68.854,29.398 69.602 M316.093 72.000 C 316.093 72.770,316.175 73.085,316.276 72.700 C 316.376 72.315,316.376 71.685,316.276 71.300 C 316.175 70.915,316.093 71.230,316.093 72.000 M148.093 73.200 C 148.093 73.970,148.175 74.285,148.276 73.900 C 148.376 73.515,148.376 72.885,148.276 72.500 C 148.175 72.115,148.093 72.430,148.093 73.200 M28.131 80.600 C 28.133 82.140,28.205 82.721,28.292 81.891 C 28.379 81.061,28.377 79.801,28.289 79.091 C 28.200 78.381,28.129 79.060,28.131 80.600 M149.188 81.578 C 149.817 82.753,150.392 82.946,149.863 81.804 C 149.608 81.255,149.259 80.805,149.086 80.803 C 148.913 80.801,148.959 81.150,149.188 81.578 M308.093 88.000 C 308.093 88.770,308.175 89.085,308.276 88.700 C 308.376 88.315,308.376 87.685,308.276 87.300 C 308.175 86.915,308.093 87.230,308.093 88.000 M305.505 92.683 C 306.002 92.779,306.722 92.775,307.105 92.675 C 307.487 92.575,307.080 92.496,306.200 92.501 C 305.320 92.505,305.007 92.587,305.505 92.683 M302.025 93.500 C 301.122 94.231,300.403 96.547,300.441 98.600 C 300.455 99.348,300.671 98.843,301.014 97.262 C 301.591 94.604,302.143 93.600,303.025 93.600 C 303.315 93.600,303.664 93.420,303.800 93.200 C 304.210 92.537,302.950 92.750,302.025 93.500 M154.057 93.818 C 151.812 94.492,150.502 95.745,149.924 97.776 C 149.670 98.669,149.178 99.741,148.831 100.158 C 148.239 100.869,148.250 100.890,149.000 100.494 C 149.440 100.262,150.023 99.347,150.295 98.460 C 151.047 96.007,153.029 94.370,155.800 93.913 C 156.240 93.841,156.420 93.672,156.200 93.539 C 155.980 93.405,155.016 93.531,154.057 93.818 M28.093 106.800 C 28.093 107.570,28.175 107.885,28.276 107.500 C 28.376 107.115,28.376 106.485,28.276 106.100 C 28.175 105.715,28.093 106.030,28.093 106.800 M71.300 108.276 C 71.685 108.376,72.315 108.376,72.700 108.276 C 73.085 108.175,72.770 108.093,72.000 108.093 C 71.230 108.093,70.915 108.175,71.300 108.276 M297.905 108.283 C 298.402 108.379,299.122 108.375,299.505 108.275 C 299.887 108.175,299.480 108.096,298.600 108.101 C 297.720 108.105,297.407 108.187,297.905 108.283 M292.998 109.202 C 291.975 110.332,292.410 110.437,293.486 109.320 C 293.973 108.814,294.226 108.400,294.048 108.400 C 293.870 108.400,293.397 108.761,292.998 109.202 M28.144 112.400 C 28.144 114.490,28.212 115.345,28.294 114.300 C 28.376 113.255,28.376 111.545,28.294 110.500 C 28.212 109.455,28.144 110.310,28.144 112.400 M146.560 110.289 C 145.478 111.708,143.921 113.243,141.600 115.178 L 140.600 116.012 141.800 115.744 C 142.460 115.597,143.060 115.324,143.133 115.138 C 143.207 114.952,143.603 114.800,144.015 114.800 C 144.998 114.800,146.800 112.976,146.800 111.982 C 146.800 111.552,146.959 111.200,147.153 111.200 C 147.477 111.200,148.071 109.144,147.820 108.889 C 147.761 108.828,147.193 109.458,146.560 110.289 M292.060 114.478 C 292.001 115.944,291.984 115.957,290.100 116.106 L 288.200 116.256 290.113 116.328 C 292.218 116.407,292.576 116.047,292.290 114.134 C 292.145 113.166,292.111 113.217,292.060 114.478 M79.300 116.276 C 79.685 116.376,80.315 116.376,80.700 116.276 C 81.085 116.175,80.770 116.093,80.000 116.093 C 79.230 116.093,78.915 116.175,79.300 116.276 M188.000 118.014 C 188.000 120.366,188.530 120.325,190.745 117.801 C 192.350 115.974,192.361 116.000,190.000 116.000 L 188.000 116.000 188.000 118.014 M281.772 120.200 C 281.357 120.970,280.811 121.600,280.558 121.600 C 280.305 121.600,279.874 121.870,279.600 122.200 C 279.256 122.615,279.241 122.800,279.551 122.800 C 280.288 122.800,280.607 122.620,280.490 122.270 C 280.430 122.089,280.566 122.055,280.793 122.196 C 281.323 122.523,282.531 121.335,282.205 120.808 C 282.067 120.585,282.210 120.506,282.529 120.628 C 282.932 120.783,283.100 120.546,283.100 119.824 C 283.100 118.418,282.665 118.541,281.772 120.200 M139.600 120.930 C 139.600 122.050,138.178 123.462,136.800 123.710 C 136.055 123.845,136.175 123.905,137.271 123.946 C 139.110 124.014,140.000 123.174,140.000 121.371 C 140.000 120.617,139.910 120.000,139.800 120.000 C 139.690 120.000,139.600 120.419,139.600 120.930 M28.093 124.000 C 28.093 124.770,28.175 125.085,28.276 124.700 C 28.376 124.315,28.376 123.685,28.276 123.300 C 28.175 122.915,28.093 123.230,28.093 124.000 M240.700 124.282 C 241.195 124.378,242.005 124.378,242.500 124.282 C 242.995 124.187,242.590 124.109,241.600 124.109 C 240.610 124.109,240.205 124.187,240.700 124.282 M266.100 124.276 C 266.485 124.376,267.115 124.376,267.500 124.276 C 267.885 124.175,267.570 124.093,266.800 124.093 C 266.030 124.093,265.715 124.175,266.100 124.276 M130.388 126.848 C 129.273 128.456,127.821 130.000,127.411 130.014 C 126.904 130.032,124.465 131.995,124.946 131.998 C 127.128 132.011,130.524 129.977,131.174 128.268 C 131.996 126.108,131.510 125.231,130.388 126.848 M110.900 132.276 C 111.285 132.376,111.915 132.376,112.300 132.276 C 112.685 132.175,112.370 132.093,111.600 132.093 C 110.830 132.093,110.515 132.175,110.900 132.276 M224.037 133.323 C 222.082 134.008,219.600 138.400,221.168 138.400 C 221.406 138.400,221.600 138.048,221.600 137.619 C 221.600 135.565,223.546 133.600,225.580 133.600 C 226.031 133.600,226.400 133.420,226.400 133.200 C 226.400 132.690,225.747 132.723,224.037 133.323 M36.093 136.000 C 36.093 136.770,36.175 137.085,36.276 136.700 C 36.376 136.315,36.376 135.685,36.276 135.300 C 36.175 134.915,36.093 135.230,36.093 136.000 M337.295 136.266 C 337.018 136.378,336.588 136.859,336.341 137.335 C 335.920 138.145,335.959 138.138,336.946 137.230 C 337.526 136.697,338.000 136.202,338.000 136.130 C 338.000 135.984,337.993 135.985,337.295 136.266 M215.400 141.178 C 213.971 141.763,212.055 144.800,213.115 144.800 C 213.318 144.800,213.651 144.220,213.854 143.512 C 214.132 142.542,214.542 142.132,215.512 141.854 C 216.220 141.651,216.800 141.330,216.800 141.142 C 216.800 140.732,216.468 140.741,215.400 141.178 M45.035 149.900 C 45.410 151.969,46.241 153.489,47.304 154.047 C 48.082 154.456,48.056 154.372,47.108 153.412 C 46.347 152.642,45.936 151.713,45.756 150.353 C 45.614 149.279,45.332 148.400,45.130 148.400 C 44.925 148.400,44.883 149.060,45.035 149.900 M208.037 149.323 C 206.082 150.008,203.600 154.400,205.168 154.400 C 205.406 154.400,205.600 154.048,205.600 153.619 C 205.600 151.565,207.546 149.600,209.580 149.600 C 210.031 149.600,210.400 149.420,210.400 149.200 C 210.400 148.690,209.747 148.723,208.037 149.323 M200.037 157.323 C 198.082 158.008,195.600 162.400,197.168 162.400 C 197.406 162.400,197.600 162.048,197.600 161.619 C 197.600 159.565,199.546 157.600,201.580 157.600 C 202.031 157.600,202.400 157.420,202.400 157.200 C 202.400 156.690,201.747 156.723,200.037 157.323 M192.037 165.323 C 190.082 166.008,187.600 170.400,189.168 170.400 C 189.406 170.400,189.600 170.048,189.600 169.619 C 189.600 167.565,191.546 165.600,193.580 165.600 C 194.031 165.600,194.400 165.420,194.400 165.200 C 194.400 164.690,193.747 164.723,192.037 165.323 M60.093 168.000 C 60.093 168.770,60.175 169.085,60.276 168.700 C 60.376 168.315,60.376 167.685,60.276 167.300 C 60.175 166.915,60.093 167.230,60.093 168.000 M63.400 181.178 C 61.971 181.763,60.055 184.800,61.115 184.800 C 61.318 184.800,61.651 184.220,61.854 183.512 C 62.132 182.542,62.542 182.132,63.512 181.854 C 64.220 181.651,64.800 181.330,64.800 181.142 C 64.800 180.732,64.468 180.741,63.400 181.178 M181.782 181.782 C 180.790 182.774,180.504 183.600,181.153 183.600 C 181.348 183.600,181.604 183.227,181.724 182.770 C 181.843 182.314,182.314 181.843,182.770 181.724 C 183.227 181.604,183.600 181.348,183.600 181.153 C 183.600 180.504,182.774 180.790,181.782 181.782 M180.131 193.800 C 180.133 195.340,180.205 195.921,180.292 195.091 C 180.379 194.261,180.377 193.001,180.289 192.291 C 180.200 191.581,180.129 192.260,180.131 193.800 M236.148 198.800 C 236.148 201.110,236.214 202.055,236.295 200.900 C 236.376 199.745,236.376 197.855,236.295 196.700 C 236.214 195.545,236.148 196.490,236.148 198.800 M153.200 212.006 C 153.576 212.253,153.651 212.512,153.400 212.700 C 153.180 212.865,152.702 213.646,152.337 214.436 C 151.905 215.372,151.208 216.063,150.337 216.419 C 148.865 217.021,147.164 218.396,148.533 217.878 C 148.936 217.725,149.424 217.600,149.619 217.600 C 150.343 217.600,152.939 214.966,153.472 213.689 C 154.043 212.322,153.905 211.595,153.076 211.606 C 152.789 211.610,152.838 211.768,153.200 212.006 M49.905 212.283 C 50.402 212.379,51.122 212.375,51.505 212.275 C 51.887 212.175,51.480 212.096,50.600 212.101 C 49.720 212.105,49.407 212.187,49.905 212.283 M45.029 213.029 C 44.683 213.374,44.405 213.869,44.412 214.129 C 44.419 214.388,44.605 214.291,44.825 213.913 C 45.045 213.535,45.535 213.045,45.913 212.825 C 46.291 212.605,46.388 212.419,46.129 212.412 C 45.869 212.405,45.374 212.683,45.029 213.029 M150.196 214.404 C 149.566 215.062,149.166 215.600,149.307 215.600 C 149.672 215.600,151.680 213.547,151.495 213.362 C 151.411 213.277,150.826 213.746,150.196 214.404 M44.114 219.000 C 44.117 220.100,44.195 220.503,44.287 219.895 C 44.379 219.286,44.377 218.386,44.282 217.895 C 44.187 217.403,44.111 217.900,44.114 219.000 M229.402 221.598 C 229.003 222.039,228.862 222.400,229.089 222.400 C 229.592 222.400,230.590 221.257,230.321 220.988 C 230.215 220.882,229.802 221.156,229.402 221.598 M176.037 229.323 C 174.215 229.961,171.714 234.000,173.141 234.000 C 173.337 234.000,173.609 233.303,173.745 232.452 C 174.039 230.616,174.633 230.042,176.564 229.728 C 177.354 229.600,178.000 229.339,178.000 229.148 C 178.000 228.708,177.721 228.733,176.037 229.323 M173.066 239.700 C 173.441 241.679,173.907 242.374,176.819 245.300 C 180.052 248.548,180.000 248.539,180.000 245.849 L 180.000 243.697 178.400 243.291 C 177.520 243.068,176.800 243.033,176.800 243.215 C 176.800 243.396,177.205 243.622,177.700 243.718 C 178.592 243.890,178.593 243.892,177.729 243.946 C 177.249 243.975,176.619 243.765,176.329 243.478 C 176.038 243.190,175.482 242.835,175.094 242.688 C 174.299 242.387,173.600 240.836,173.600 239.374 C 173.600 238.838,173.425 238.400,173.210 238.400 C 172.986 238.400,172.925 238.954,173.066 239.700 M156.700 244.282 C 157.195 244.378,158.005 244.378,158.500 244.282 C 158.995 244.187,158.590 244.109,157.600 244.109 C 156.610 244.109,156.205 244.187,156.700 244.282 M324.000 245.619 C 324.000 245.829,324.352 246.000,324.781 246.000 C 325.897 246.000,327.711 246.868,328.323 247.694 C 328.610 248.082,329.056 248.400,329.314 248.400 C 329.571 248.400,329.324 247.942,328.765 247.383 C 327.704 246.323,324.000 244.951,324.000 245.619 M181.066 254.100 C 181.202 254.815,181.569 255.850,181.882 256.400 C 182.200 256.960,182.323 257.048,182.161 256.600 C 182.001 256.160,181.791 255.125,181.693 254.300 C 181.596 253.475,181.359 252.800,181.168 252.800 C 180.977 252.800,180.931 253.385,181.066 254.100 M212.101 259.400 C 212.105 260.280,212.187 260.593,212.283 260.095 C 212.379 259.598,212.375 258.878,212.275 258.495 C 212.175 258.113,212.096 258.520,212.101 259.400 M101.081 260.100 C 101.289 260.375,101.668 261.331,101.923 262.224 C 102.357 263.743,104.400 266.275,104.400 265.292 C 104.400 265.047,104.067 264.610,103.660 264.323 C 103.035 263.882,102.346 262.353,101.756 260.100 C 101.684 259.825,101.417 259.600,101.164 259.600 C 100.859 259.600,100.831 259.770,101.081 260.100 M44.137 270.600 C 44.139 272.360,44.209 273.030,44.293 272.089 C 44.378 271.149,44.377 269.709,44.291 268.889 C 44.205 268.070,44.136 268.840,44.137 270.600 M209.905 268.283 C 210.402 268.379,211.122 268.375,211.505 268.275 C 211.887 268.175,211.480 268.096,210.600 268.101 C 209.720 268.105,209.407 268.187,209.905 268.283 M268.000 270.014 C 268.000 272.366,268.530 272.325,270.745 269.801 C 272.350 267.974,272.361 268.000,270.000 268.000 L 268.000 268.000 268.000 270.014 M204.998 269.202 C 203.975 270.332,204.410 270.437,205.486 269.320 C 205.973 268.814,206.226 268.400,206.048 268.400 C 205.870 268.400,205.397 268.761,204.998 269.202 M276.093 272.000 C 276.093 272.770,276.175 273.085,276.276 272.700 C 276.376 272.315,276.376 271.685,276.276 271.300 C 276.175 270.915,276.093 271.230,276.093 272.000 M204.114 275.000 C 204.117 276.100,204.195 276.503,204.287 275.895 C 204.379 275.286,204.377 274.386,204.282 273.895 C 204.187 273.403,204.111 273.900,204.114 275.000 M278.278 277.148 C 279.057 279.043,280.667 280.756,282.343 281.473 C 284.683 282.473,284.332 281.474,281.911 280.243 C 280.819 279.688,280.249 279.032,279.771 277.779 C 279.412 276.840,278.795 275.987,278.400 275.884 C 277.727 275.708,277.719 275.788,278.278 277.148 M45.400 282.400 C 45.798 282.840,46.276 283.200,46.462 283.200 C 46.648 283.200,46.440 282.840,46.000 282.400 C 45.560 281.960,45.082 281.600,44.938 281.600 C 44.794 281.600,45.002 281.960,45.400 282.400 M201.905 284.683 C 202.402 284.779,203.122 284.775,203.505 284.675 C 203.887 284.575,203.480 284.496,202.600 284.501 C 201.720 284.505,201.407 284.587,201.905 284.683 M198.546 285.268 C 197.455 285.796,196.334 288.000,197.157 288.000 C 197.353 288.000,197.626 287.553,197.763 287.006 C 197.917 286.393,198.393 285.917,199.006 285.763 C 199.553 285.626,200.000 285.353,200.000 285.157 C 200.000 284.712,199.637 284.739,198.546 285.268 M284.109 286.800 C 284.109 287.790,284.187 288.195,284.282 287.700 C 284.378 287.205,284.378 286.395,284.282 285.900 C 284.187 285.405,284.109 285.810,284.109 286.800 M196.501 290.600 C 196.505 291.480,196.587 291.793,196.683 291.295 C 196.779 290.798,196.775 290.078,196.675 289.695 C 196.575 289.313,196.496 289.720,196.501 290.600 M52.093 295.200 C 52.093 295.970,52.175 296.285,52.276 295.900 C 52.376 295.515,52.376 294.885,52.276 294.500 C 52.175 294.115,52.093 294.430,52.093 295.200 M196.101 295.800 C 196.105 296.680,196.187 296.993,196.283 296.495 C 196.379 295.998,196.375 295.278,196.275 294.895 C 196.175 294.513,196.096 294.920,196.101 295.800 M100.000 298.287 L 100.000 300.602 102.000 300.513 C 103.100 300.464,104.000 300.593,104.000 300.799 C 104.000 301.006,104.270 301.071,104.601 300.944 C 104.950 300.810,105.547 301.109,106.024 301.657 C 106.821 302.572,106.832 302.573,106.413 301.709 C 106.176 301.219,105.581 300.607,105.091 300.350 C 104.601 300.092,103.599 299.185,102.865 298.336 C 100.491 295.589,100.000 295.581,100.000 298.287 M121.564 297.960 C 120.454 299.111,119.163 300.033,118.434 300.193 C 117.165 300.471,116.194 301.667,116.542 302.522 C 116.649 302.785,116.751 302.689,116.768 302.309 C 116.813 301.344,118.324 300.475,120.100 300.396 C 124.399 300.204,124.000 300.439,124.000 298.100 C 124.000 295.526,123.915 295.521,121.564 297.960 M340.000 302.186 C 340.000 302.675,340.975 303.424,342.337 303.981 C 343.205 304.336,343.906 305.029,344.337 305.960 C 344.988 307.367,347.200 309.897,347.200 309.235 C 347.200 309.050,346.939 308.682,346.620 308.417 C 346.302 308.152,345.842 307.332,345.598 306.594 C 345.178 305.322,342.415 302.400,341.632 302.400 C 341.430 302.400,340.981 302.291,340.633 302.157 C 340.285 302.024,340.000 302.037,340.000 302.186 M116.120 308.400 C 116.120 309.610,116.195 310.105,116.287 309.500 C 116.378 308.895,116.378 307.905,116.287 307.300 C 116.195 306.695,116.120 307.190,116.120 308.400 M292.134 309.600 C 292.134 311.250,292.205 311.925,292.291 311.100 C 292.378 310.275,292.378 308.925,292.291 308.100 C 292.205 307.275,292.134 307.950,292.134 309.600 M292.430 318.400 C 292.379 319.592,293.229 321.925,293.907 322.457 C 294.508 322.928,294.539 322.921,294.138 322.400 C 293.885 322.070,293.402 320.900,293.066 319.800 C 292.730 318.700,292.444 318.070,292.430 318.400 M52.134 322.800 C 52.134 324.450,52.205 325.125,52.291 324.300 C 52.378 323.475,52.378 322.125,52.291 321.300 C 52.205 320.475,52.134 321.150,52.134 322.800 M188.114 323.400 C 188.117 324.500,188.195 324.903,188.287 324.295 C 188.379 323.686,188.377 322.786,188.282 322.295 C 188.187 321.803,188.111 322.300,188.114 323.400 M112.274 331.352 C 112.150 331.674,111.633 332.017,111.124 332.115 C 110.266 332.278,110.261 332.295,111.051 332.346 C 111.886 332.399,113.114 331.381,112.706 330.973 C 112.592 330.859,112.398 331.029,112.274 331.352 M108.782 333.234 C 108.147 334.421,108.469 334.497,109.319 333.361 C 109.714 332.832,109.855 332.400,109.633 332.400 C 109.410 332.400,109.027 332.775,108.782 333.234 M53.066 334.100 C 53.202 334.815,53.569 335.850,53.882 336.400 C 54.200 336.960,54.323 337.048,54.161 336.600 C 54.001 336.160,53.791 335.125,53.693 334.300 C 53.596 333.475,53.359 332.800,53.168 332.800 C 52.977 332.800,52.931 333.385,53.066 334.100 M300.093 335.600 C 300.093 336.370,300.175 336.685,300.276 336.300 C 300.376 335.915,300.376 335.285,300.276 334.900 C 300.175 334.515,300.093 334.830,300.093 335.600 M108.128 340.400 C 108.128 341.830,108.201 342.415,108.289 341.700 C 108.378 340.985,108.378 339.815,108.289 339.100 C 108.201 338.385,108.128 338.970,108.128 340.400 M108.120 356.800 C 108.120 358.010,108.195 358.505,108.287 357.900 C 108.378 357.295,108.378 356.305,108.287 355.700 C 108.195 355.095,108.120 355.590,108.120 356.800 M300.114 358.200 C 300.117 359.300,300.195 359.703,300.287 359.095 C 300.379 358.486,300.377 357.586,300.282 357.095 C 300.187 356.603,300.111 357.100,300.114 358.200 M188.093 364.400 C 188.093 365.170,188.175 365.485,188.276 365.100 C 188.376 364.715,188.376 364.085,188.276 363.700 C 188.175 363.315,188.093 363.630,188.093 364.400 M61.242 365.415 C 61.638 367.534,62.031 368.342,63.163 369.366 C 64.307 370.402,64.219 369.954,63.026 368.665 C 62.448 368.042,61.940 366.876,61.779 365.802 C 61.630 364.806,61.372 363.907,61.207 363.804 C 61.042 363.702,61.058 364.427,61.242 365.415 " stroke="none" fill="#58a8f8" fill-rule="evenodd"/></g></svg>