<svg xmlns="http://www.w3.org/2000/svg" xmlns:xlink="http://www.w3.org/1999/xlink" id="svg" version="1.1" viewBox="102.51 42.05 196.15 79.32"><g id="svgg"><path id="path0" d="M133.042 42.109 C 132.927 42.156,132.833 42.406,132.833 42.665 L 132.833 43.136 130.320 43.193 C 128.030 43.245,127.786 43.280,127.575 43.583 C 127.095 44.278,126.979 44.333,126.004 44.333 L 125.021 44.333 124.969 44.872 L 124.917 45.412 123.833 45.414 L 122.750 45.417 122.750 45.917 C 122.750 46.412,122.741 46.417,121.667 46.500 C 120.586 46.583,120.583 46.585,120.531 47.125 C 120.489 47.565,120.406 47.667,120.094 47.667 C 119.245 47.667,118.634 47.889,118.466 48.259 C 118.356 48.500,118.089 48.675,117.730 48.743 C 117.241 48.835,117.167 48.913,117.167 49.341 C 117.167 49.793,117.118 49.833,116.583 49.833 C 116.028 49.833,116.000 49.861,116.000 50.417 C 116.000 50.972,115.972 51.000,115.417 51.000 C 114.863 51.000,114.833 51.029,114.833 51.573 C 114.833 52.097,114.788 52.150,114.292 52.198 C 113.793 52.246,113.752 52.294,113.776 52.807 C 113.802 53.355,113.792 53.363,113.235 53.258 C 112.675 53.153,112.667 53.160,112.667 53.742 C 112.667 54.307,112.640 54.333,112.083 54.333 C 111.530 54.333,111.500 54.363,111.500 54.906 C 111.500 55.430,111.454 55.483,110.958 55.531 C 110.479 55.577,110.417 55.641,110.417 56.083 C 110.417 56.509,110.343 56.596,109.917 56.667 C 109.468 56.741,109.412 56.819,109.372 57.417 C 109.289 58.664,109.204 58.833,108.663 58.833 C 108.208 58.833,108.167 58.881,108.167 59.408 C 108.167 59.867,108.077 60.025,107.715 60.199 C 107.244 60.427,107.045 60.880,107.017 61.792 C 107.006 62.151,106.917 62.333,106.754 62.333 C 106.320 62.333,105.918 63.181,105.889 64.159 C 105.874 64.667,105.855 65.171,105.847 65.278 C 105.840 65.386,105.608 65.523,105.333 65.583 L 104.833 65.693 104.833 67.347 C 104.833 68.961,104.824 69.000,104.450 69.000 C 103.731 69.000,103.667 69.246,103.667 72.015 L 103.667 74.631 103.256 74.734 C 102.622 74.893,102.544 75.579,102.515 81.226 C 102.487 86.678,102.508 86.833,103.270 86.833 L 103.667 86.833 103.667 89.905 C 103.667 93.175,103.743 93.500,104.512 93.500 C 104.808 93.500,104.833 93.632,104.833 95.167 L 104.833 96.833 105.333 96.833 C 105.735 96.833,105.837 96.907,105.854 97.208 C 105.865 97.415,105.895 98.085,105.921 98.698 C 105.976 100.005,106.050 100.167,106.593 100.167 C 106.978 100.167,107.000 100.220,107.000 101.133 C 107.000 102.178,107.185 102.500,107.783 102.500 C 108.135 102.500,108.167 102.573,108.167 103.383 C 108.167 104.348,108.361 104.667,108.950 104.667 C 109.271 104.667,109.334 104.755,109.336 105.208 C 109.339 106.095,109.516 106.499,110.010 106.755 C 110.319 106.915,110.495 107.152,110.530 107.457 C 110.572 107.816,110.682 107.928,111.032 107.968 C 111.401 108.011,111.490 108.114,111.532 108.552 C 111.577 109.017,111.651 109.090,112.125 109.136 C 112.621 109.183,112.667 109.236,112.667 109.761 C 112.667 110.287,112.708 110.333,113.171 110.333 C 113.596 110.333,113.690 110.411,113.773 110.824 C 113.846 111.189,113.990 111.341,114.333 111.417 C 114.676 111.492,114.821 111.644,114.893 112.009 C 114.980 112.441,115.062 112.500,115.579 112.500 C 116.034 112.500,116.167 112.568,116.167 112.800 C 116.167 113.183,116.482 113.500,116.863 113.500 C 117.044 113.500,117.203 113.670,117.269 113.935 C 117.387 114.404,118.171 114.833,118.911 114.833 C 119.266 114.833,119.333 114.911,119.333 115.316 C 119.333 115.820,119.572 116.000,120.244 116.000 C 120.487 116.000,120.660 116.122,120.714 116.331 C 120.816 116.719,121.458 117.000,122.243 117.000 C 122.689 117.000,122.817 117.078,122.898 117.400 C 123.025 117.909,123.741 118.167,125.025 118.167 C 125.931 118.167,126.000 118.194,126.000 118.550 C 126.000 119.213,126.300 119.333,127.950 119.333 L 129.500 119.333 129.500 119.833 L 129.500 120.333 133.408 120.333 L 137.315 120.333 137.534 120.792 C 137.913 121.586,140.200 121.554,140.401 120.751 L 140.506 120.333 144.424 120.333 L 148.342 120.333 148.442 119.833 L 148.542 119.333 150.146 119.314 C 152.362 119.286,152.737 119.190,152.802 118.632 C 152.852 118.198,152.896 118.180,153.969 118.132 L 155.083 118.083 155.136 117.542 L 155.188 117.000 156.247 117.000 C 157.289 117.000,157.309 116.992,157.417 116.500 C 157.505 116.097,157.613 116.000,157.972 115.999 C 158.532 115.999,159.500 115.420,159.500 115.086 C 159.500 114.910,159.672 114.833,160.066 114.833 C 160.643 114.833,160.833 114.624,160.833 113.986 C 160.833 113.742,160.952 113.667,161.333 113.667 C 161.794 113.667,161.833 113.620,161.833 113.083 C 161.833 112.528,161.861 112.500,162.417 112.500 C 162.951 112.500,163.000 112.459,163.000 112.011 C 163.000 111.580,163.065 111.515,163.542 111.469 C 164.016 111.423,164.090 111.350,164.135 110.885 C 164.180 110.422,164.255 110.346,164.718 110.301 C 165.184 110.256,165.257 110.182,165.302 109.708 C 165.348 109.232,165.414 109.167,165.844 109.167 C 166.277 109.167,166.333 109.109,166.333 108.667 C 166.333 108.285,166.409 108.167,166.653 108.167 C 167.287 108.167,167.500 107.976,167.500 107.410 C 167.500 107.001,167.588 106.828,167.835 106.749 C 168.257 106.616,168.667 105.840,168.667 105.175 C 168.667 104.721,168.720 104.667,169.167 104.667 L 169.667 104.667 169.667 103.594 L 169.667 102.521 170.208 102.469 L 170.750 102.417 170.799 101.292 C 170.848 100.178,170.853 100.167,171.323 100.167 C 171.842 100.167,172.000 99.927,172.000 99.142 C 172.000 98.423,171.720 98.000,171.244 98.000 C 170.902 98.000,170.833 97.919,170.833 97.519 C 170.833 96.975,170.097 96.712,169.153 96.920 C 168.742 97.010,168.667 96.975,168.667 96.694 C 168.667 95.937,168.513 95.833,167.399 95.833 C 166.380 95.833,166.333 95.815,166.333 95.427 C 166.333 94.899,166.111 94.772,165.007 94.668 C 164.211 94.594,164.085 94.532,164.001 94.176 C 163.883 93.672,163.192 93.464,161.863 93.534 L 160.917 93.583 160.866 94.193 C 160.826 94.671,160.731 94.823,160.424 94.900 C 160.000 95.006,159.667 95.721,159.667 96.525 C 159.667 96.918,159.596 97.000,159.260 97.000 C 158.748 97.000,158.666 97.137,158.590 98.121 C 158.557 98.559,158.523 98.973,158.515 99.042 C 158.507 99.110,158.275 99.167,158.000 99.167 C 157.544 99.167,157.500 99.216,157.500 99.723 C 157.500 100.156,157.407 100.322,157.080 100.471 C 156.849 100.576,156.588 100.851,156.501 101.081 C 156.413 101.312,156.239 101.500,156.113 101.500 C 155.686 101.500,155.295 102.136,155.272 102.868 C 155.251 103.553,155.225 103.587,154.667 103.667 C 154.173 103.737,154.070 103.827,154.000 104.250 C 153.928 104.680,153.840 104.754,153.371 104.775 C 152.699 104.806,152.000 105.242,152.000 105.630 C 152.000 105.846,151.862 105.919,151.458 105.918 C 150.990 105.917,150.895 105.990,150.757 106.458 C 150.606 106.970,150.555 107.000,149.811 107.000 C 148.961 107.000,148.500 107.298,148.500 107.845 C 148.500 108.132,148.375 108.167,147.344 108.167 C 145.970 108.167,145.333 108.370,145.333 108.808 C 145.333 109.229,144.292 109.303,139.083 109.251 C 133.513 109.196,133.667 109.205,133.667 108.926 C 133.667 108.440,132.968 108.167,131.723 108.167 L 130.521 108.167 130.469 107.625 C 130.417 107.083,130.417 107.083,129.375 107.034 C 128.409 106.988,128.333 106.956,128.333 106.596 C 128.333 106.086,127.938 105.774,127.418 105.874 C 127.097 105.935,127.000 105.884,127.000 105.653 C 127.000 105.258,126.400 104.849,125.642 104.727 C 125.138 104.646,125.018 104.548,124.938 104.148 C 124.858 103.747,124.759 103.667,124.348 103.667 C 123.913 103.667,123.848 103.602,123.802 103.125 C 123.757 102.651,123.683 102.577,123.218 102.532 C 122.783 102.490,122.678 102.400,122.635 102.037 C 122.596 101.699,122.455 101.557,122.042 101.440 C 121.593 101.312,121.500 101.203,121.500 100.809 C 121.500 100.392,121.439 100.333,121.000 100.333 C 120.576 100.333,120.500 100.269,120.500 99.911 C 120.500 99.259,120.041 98.313,119.678 98.218 C 119.460 98.161,119.335 97.963,119.301 97.618 C 119.259 97.195,119.154 97.078,118.716 96.965 C 118.195 96.831,118.181 96.803,118.133 95.789 C 118.085 94.794,118.064 94.748,117.625 94.697 C 117.195 94.648,117.167 94.594,117.167 93.836 C 117.167 92.726,117.051 92.500,116.482 92.500 L 116.000 92.500 115.998 90.625 C 115.995 88.238,115.933 88.000,115.314 88.000 L 114.833 88.000 114.833 81.833 C 114.833 75.854,114.843 75.667,115.155 75.667 C 115.865 75.667,116.000 75.265,116.000 73.155 C 116.000 71.191,116.005 71.167,116.383 71.167 C 116.982 71.167,117.167 70.845,117.167 69.800 C 117.167 68.980,117.212 68.833,117.467 68.833 C 117.966 68.833,118.167 68.476,118.167 67.584 C 118.167 66.771,118.189 66.729,118.708 66.576 C 119.236 66.421,119.251 66.390,119.299 65.385 C 119.349 64.358,119.351 64.353,119.883 64.302 C 120.350 64.256,120.423 64.183,120.469 63.708 C 120.511 63.267,120.593 63.167,120.909 63.167 C 121.380 63.167,121.500 62.893,121.500 61.820 L 121.500 61.000 122.083 61.000 C 122.618 61.000,122.667 60.959,122.667 60.511 C 122.667 60.080,122.732 60.015,123.208 59.969 C 123.685 59.923,123.756 59.851,123.802 59.375 C 123.846 58.924,123.924 58.833,124.266 58.833 C 124.982 58.833,125.833 58.385,125.833 58.009 C 125.833 57.745,125.941 57.667,126.300 57.667 C 126.867 57.667,127.167 57.396,127.167 56.883 C 127.167 56.573,127.257 56.500,127.642 56.500 C 128.360 56.500,129.124 56.182,129.211 55.847 C 129.271 55.618,129.530 55.521,130.323 55.431 C 131.275 55.323,131.371 55.275,131.528 54.824 L 131.699 54.333 133.308 54.331 C 135.042 54.328,135.647 54.144,135.915 53.539 C 136.076 53.174,136.140 53.167,138.956 53.167 L 141.833 53.167 141.833 53.573 C 141.833 54.173,142.053 54.242,144.250 54.333 L 146.250 54.417 146.301 54.855 C 146.353 55.308,146.855 55.493,148.042 55.498 C 148.371 55.499,148.500 55.584,148.500 55.800 C 148.500 56.304,148.859 56.500,149.783 56.500 C 150.543 56.500,150.667 56.545,150.667 56.820 C 150.667 57.426,150.861 57.667,151.351 57.667 C 151.753 57.667,151.833 57.736,151.833 58.077 C 151.833 58.516,152.248 58.833,152.822 58.833 C 153.055 58.833,153.167 58.941,153.167 59.164 C 153.167 59.540,154.082 60.000,154.831 60.000 C 155.223 60.000,155.281 60.061,155.240 60.430 C 155.165 61.113,155.489 61.824,155.924 61.933 C 156.212 62.006,156.328 62.167,156.366 62.548 C 156.408 62.973,156.512 63.089,156.958 63.203 C 157.417 63.321,157.500 63.419,157.500 63.838 C 157.500 64.275,157.558 64.333,157.989 64.333 C 158.420 64.333,158.485 64.399,158.531 64.875 L 158.583 65.417 164.708 65.460 L 170.833 65.504 170.833 59.919 L 170.833 54.333 168.083 54.333 L 165.333 54.333 165.333 53.950 C 165.333 53.465,165.039 53.167,164.561 53.167 C 164.279 53.167,164.176 53.056,164.136 52.708 C 164.092 52.326,163.993 52.241,163.542 52.198 C 163.046 52.150,163.000 52.097,163.000 51.573 C 163.000 51.029,162.970 51.000,162.417 51.000 C 161.861 51.000,161.833 50.972,161.833 50.417 C 161.833 49.883,161.792 49.833,161.347 49.833 C 160.945 49.833,160.841 49.749,160.754 49.350 C 160.670 48.971,160.532 48.845,160.113 48.767 C 159.780 48.704,159.517 48.525,159.414 48.292 C 159.290 48.008,159.037 47.879,158.375 47.761 C 157.715 47.644,157.500 47.535,157.500 47.317 C 157.500 46.714,157.301 46.500,156.743 46.500 C 156.335 46.500,156.161 46.412,156.083 46.166 C 155.919 45.648,155.345 45.423,154.177 45.420 C 153.108 45.417,153.104 45.415,152.964 44.875 C 152.836 44.382,152.766 44.333,152.183 44.333 C 151.132 44.333,150.577 44.161,150.408 43.783 C 150.189 43.291,149.732 43.202,147.326 43.183 L 145.236 43.167 145.076 42.625 L 144.917 42.083 139.083 42.054 C 135.875 42.037,133.156 42.062,133.042 42.109 M192.958 42.193 C 192.693 42.290,192.457 42.529,192.400 42.758 C 192.304 43.140,192.234 43.157,190.610 43.203 L 188.919 43.250 188.834 43.750 C 188.752 44.228,188.705 44.254,187.749 44.333 C 186.812 44.412,186.747 44.444,186.698 44.867 C 186.647 45.307,186.170 45.625,185.854 45.429 C 185.552 45.243,184.665 45.698,184.567 46.091 C 184.489 46.398,184.338 46.493,183.859 46.533 C 183.293 46.580,183.250 46.622,183.252 47.125 C 183.253 47.626,183.212 47.667,182.710 47.667 C 182.208 47.667,182.167 47.708,182.167 48.210 C 182.167 48.712,182.126 48.753,181.625 48.752 C 181.135 48.750,181.078 48.802,181.031 49.292 C 180.983 49.788,180.930 49.833,180.406 49.833 C 179.863 49.833,179.833 49.863,179.833 50.417 C 179.833 50.952,179.793 51.000,179.341 51.000 C 178.849 51.000,178.607 51.497,178.693 52.333 C 178.773 53.106,178.667 53.313,178.208 53.281 C 177.808 53.254,177.744 53.316,177.699 53.776 C 177.659 54.188,177.551 54.326,177.201 54.414 C 176.569 54.573,176.505 54.744,176.503 56.292 C 176.500 57.538,176.470 57.667,176.179 57.667 C 175.450 57.667,175.364 58.001,175.401 60.704 L 175.436 63.250 180.968 63.294 L 186.500 63.338 186.500 62.687 C 186.500 62.139,186.563 62.020,186.900 61.936 C 187.409 61.808,187.667 61.092,187.667 59.808 C 187.667 58.844,187.672 58.833,188.149 58.833 C 188.636 58.833,188.833 58.593,188.833 57.997 C 188.833 57.785,188.976 57.672,189.292 57.636 C 189.672 57.592,189.759 57.492,189.801 57.051 C 189.846 56.588,189.922 56.513,190.385 56.468 C 190.826 56.425,190.926 56.338,190.969 55.958 C 191.006 55.642,191.118 55.500,191.331 55.500 C 191.926 55.500,192.167 55.303,192.167 54.816 C 192.167 54.389,192.225 54.333,192.675 54.333 C 193.350 54.333,194.103 53.929,194.213 53.507 C 194.300 53.176,194.416 53.167,198.291 53.167 L 202.280 53.167 202.471 53.587 C 202.683 54.051,203.264 54.333,204.011 54.333 C 204.418 54.333,204.500 54.401,204.500 54.740 C 204.500 55.257,204.640 55.337,205.745 55.452 C 206.567 55.536,206.653 55.584,206.699 55.981 C 206.741 56.338,206.848 56.426,207.292 56.469 C 207.801 56.518,207.833 56.560,207.833 57.166 C 207.833 58.088,208.082 58.632,208.533 58.696 C 208.820 58.736,208.931 58.876,208.973 59.249 C 209.037 59.808,209.240 59.994,209.792 59.997 L 210.167 60.000 210.167 63.906 L 210.167 67.812 209.625 67.864 C 209.083 67.917,209.083 67.917,209.034 68.958 L 208.984 70.000 208.409 70.000 C 207.864 70.000,207.833 70.031,207.833 70.573 C 207.833 71.097,207.788 71.150,207.292 71.198 C 206.802 71.245,206.750 71.302,206.752 71.792 C 206.753 72.292,206.712 72.333,206.210 72.333 C 205.704 72.333,205.667 72.372,205.667 72.898 L 205.667 73.463 204.718 73.396 C 203.524 73.311,202.694 73.573,202.494 74.100 L 202.342 74.500 198.160 74.500 C 195.596 74.500,193.853 74.567,193.656 74.673 C 193.348 74.837,193.333 75.070,193.333 79.673 L 193.333 84.500 197.250 84.500 L 201.167 84.500 201.167 84.911 C 201.167 85.496,201.615 85.667,203.156 85.667 L 204.500 85.667 204.500 86.149 C 204.500 86.719,204.725 86.833,205.847 86.833 C 206.591 86.833,206.667 86.869,206.667 87.217 C 206.667 87.705,206.962 88.000,207.450 88.000 C 207.741 88.000,207.833 88.094,207.833 88.392 C 207.833 89.141,208.183 89.831,208.616 89.940 C 208.875 90.005,209.096 90.226,209.200 90.523 C 209.301 90.813,209.525 91.042,209.767 91.102 C 210.133 91.194,210.167 91.286,210.167 92.199 C 210.167 93.143,210.192 93.205,210.645 93.376 C 211.122 93.556,211.123 93.559,211.200 95.320 C 211.354 98.803,211.323 99.066,210.750 99.166 L 210.250 99.253 210.202 100.876 L 210.155 102.500 209.577 102.500 C 209.015 102.500,209.000 102.517,209.000 103.167 C 209.000 103.719,208.944 103.833,208.671 103.833 C 208.476 103.833,208.239 104.032,208.089 104.322 C 207.951 104.590,207.685 104.858,207.500 104.917 C 207.315 104.975,207.052 105.238,206.917 105.500 C 206.781 105.762,206.515 106.026,206.326 106.086 C 206.136 106.146,205.912 106.376,205.828 106.598 C 205.706 106.918,205.555 107.000,205.087 107.000 C 204.527 107.000,204.500 107.027,204.500 107.583 L 204.500 108.167 203.020 108.167 C 201.459 108.167,201.045 108.347,201.203 108.957 C 201.273 109.228,201.059 109.251,198.398 109.263 L 195.517 109.276 195.467 108.763 C 195.417 108.251,195.414 108.250,194.293 108.201 C 193.266 108.156,193.161 108.117,193.069 107.753 C 192.962 107.324,192.281 107.000,191.486 107.000 C 191.104 107.000,191.013 106.919,190.969 106.542 C 190.929 106.188,190.793 106.047,190.375 105.924 C 189.931 105.793,189.833 105.680,189.833 105.299 C 189.833 104.898,189.767 104.833,189.357 104.833 C 188.963 104.833,188.855 104.740,188.727 104.292 C 188.608 103.874,188.469 103.738,188.120 103.697 C 187.748 103.654,187.667 103.561,187.667 103.180 C 187.667 102.398,187.331 101.672,186.922 101.570 C 186.609 101.491,186.526 101.327,186.442 100.622 C 186.273 99.189,186.564 99.257,180.271 99.200 C 173.979 99.144,174.394 99.047,174.320 100.583 C 174.222 102.635,174.559 103.705,175.224 103.450 C 175.369 103.394,175.416 103.741,175.399 104.728 C 175.370 106.386,175.513 106.833,176.072 106.833 C 176.466 106.833,176.487 106.885,176.534 107.958 L 176.583 109.083 177.125 109.136 C 177.619 109.183,177.667 109.238,177.667 109.750 C 177.667 110.535,177.921 111.119,178.318 111.245 C 178.536 111.314,178.693 111.555,178.763 111.926 C 178.855 112.419,178.937 112.500,179.341 112.500 C 179.751 112.500,179.819 112.571,179.864 113.042 C 179.910 113.518,179.982 113.590,180.458 113.636 C 180.930 113.681,181.000 113.749,181.000 114.159 C 181.000 114.639,181.245 114.833,181.847 114.833 C 182.088 114.833,182.167 114.951,182.167 115.312 C 182.167 115.812,182.616 115.993,183.875 115.998 C 184.273 116.000,184.333 116.066,184.333 116.500 L 184.333 117.000 185.417 117.000 C 186.373 117.000,186.500 117.037,186.500 117.320 C 186.500 118.059,186.659 118.167,187.747 118.167 C 188.763 118.167,188.794 118.180,188.887 118.643 C 189.004 119.228,189.560 119.333,192.523 119.333 L 194.500 119.333 194.500 119.836 L 194.500 120.339 198.875 120.294 L 203.250 120.250 203.303 119.792 L 203.355 119.333 205.167 119.333 C 207.305 119.333,207.833 119.186,207.833 118.587 C 207.833 118.181,207.871 118.167,208.899 118.167 C 210.007 118.167,210.167 118.061,210.167 117.328 C 210.167 117.062,210.320 117.009,211.208 116.966 C 212.207 116.919,212.252 116.898,212.303 116.458 C 212.343 116.106,212.444 116.000,212.741 116.000 C 213.437 116.000,214.333 115.525,214.333 115.156 C 214.333 114.930,214.497 114.759,214.821 114.646 C 215.123 114.541,215.371 114.298,215.472 114.010 C 215.571 113.725,215.795 113.504,216.050 113.440 C 216.315 113.373,216.530 113.152,216.641 112.834 C 216.760 112.494,216.927 112.333,217.162 112.333 C 217.376 112.333,217.568 112.177,217.664 111.925 C 217.749 111.700,218.037 111.403,218.304 111.265 C 218.783 111.018,219.000 110.490,219.000 109.573 C 219.000 109.260,219.102 109.178,219.542 109.136 C 220.083 109.083,220.083 109.083,220.133 108.042 C 220.182 107.020,220.191 107.000,220.657 107.000 C 221.232 107.000,221.333 106.776,221.333 105.506 C 221.333 104.681,221.382 104.526,221.665 104.452 C 222.279 104.291,222.333 103.677,222.333 96.833 C 222.333 90.032,222.283 89.445,221.676 89.253 C 221.438 89.178,221.333 89.002,221.333 88.680 C 221.333 87.879,220.998 87.173,220.567 87.064 C 220.222 86.978,220.167 86.865,220.167 86.243 C 220.167 85.185,219.925 84.667,219.431 84.667 C 219.090 84.667,219.012 84.575,218.969 84.125 C 218.925 83.674,218.840 83.575,218.460 83.531 C 218.106 83.490,217.973 83.360,217.867 82.947 C 217.764 82.546,217.626 82.404,217.301 82.366 C 216.978 82.328,216.847 82.195,216.775 81.833 C 216.697 81.443,216.568 81.330,216.105 81.243 C 215.739 81.174,215.501 81.021,215.448 80.820 C 215.351 80.449,214.699 80.167,213.939 80.167 C 213.421 80.167,213.403 80.144,213.468 79.583 C 213.524 79.110,213.607 79.000,213.910 79.000 C 214.620 79.000,215.332 78.646,215.433 78.243 C 215.506 77.953,215.667 77.839,216.057 77.801 C 216.489 77.759,216.612 77.653,216.743 77.208 C 216.840 76.877,217.010 76.667,217.181 76.667 C 217.512 76.667,217.775 76.376,217.858 75.917 C 217.891 75.733,218.086 75.510,218.290 75.420 C 218.694 75.242,219.000 74.552,219.000 73.819 C 219.000 73.417,219.073 73.347,219.542 73.302 C 220.083 73.250,220.083 73.250,220.133 72.208 C 220.175 71.317,220.228 71.167,220.496 71.167 C 221.202 71.167,221.333 70.763,221.333 68.598 C 221.333 66.591,221.341 66.550,221.741 66.368 C 222.268 66.127,222.363 65.586,222.300 63.167 L 222.250 61.250 221.792 61.197 L 221.333 61.145 221.333 59.179 C 221.333 56.227,221.227 55.670,220.643 55.554 C 220.259 55.477,220.167 55.370,220.167 55.004 C 220.167 54.211,219.830 53.505,219.400 53.398 C 219.076 53.316,219.000 53.190,219.000 52.732 C 219.000 52.221,218.954 52.167,218.524 52.167 C 218.063 52.167,218.044 52.134,217.940 51.134 C 217.828 50.067,217.673 49.840,217.053 49.836 C 216.836 49.834,216.646 49.698,216.583 49.498 C 216.524 49.314,216.266 49.054,216.009 48.922 C 215.753 48.789,215.503 48.528,215.454 48.342 C 215.405 48.156,215.169 47.929,214.930 47.838 C 214.690 47.747,214.422 47.482,214.333 47.250 C 214.158 46.790,213.581 46.500,212.839 46.500 C 212.463 46.500,212.330 46.397,212.192 46.000 C 212.058 45.616,211.909 45.494,211.550 45.475 C 211.293 45.461,211.008 45.432,210.917 45.411 C 210.825 45.389,210.625 45.363,210.472 45.353 C 210.305 45.341,210.149 45.132,210.083 44.833 C 209.980 44.362,209.928 44.333,209.167 44.333 C 208.215 44.333,207.833 44.213,207.833 43.911 C 207.833 43.309,207.354 43.167,205.332 43.167 L 203.354 43.167 203.302 42.625 L 203.250 42.083 198.333 42.054 C 195.349 42.035,193.236 42.090,192.958 42.193 M233.743 43.376 C 233.698 43.491,233.682 45.986,233.706 48.918 L 233.750 54.250 237.042 54.295 L 240.333 54.340 240.333 81.857 L 240.333 109.373 236.998 109.299 L 233.662 109.225 233.706 114.238 L 233.750 119.250 251.313 119.292 C 269.896 119.337,270.049 119.332,270.337 118.575 C 270.487 118.180,270.544 118.167,272.145 118.167 C 273.888 118.167,274.000 118.115,274.000 117.320 C 274.000 117.027,274.133 117.000,275.570 117.000 L 277.140 117.000 277.245 116.522 C 277.340 116.092,277.433 116.035,278.193 115.945 C 279.121 115.835,279.500 115.610,279.500 115.170 C 279.500 114.941,279.693 114.860,280.412 114.786 C 281.527 114.671,281.667 114.591,281.667 114.073 C 281.667 113.720,281.743 113.667,282.250 113.667 C 282.806 113.667,282.833 113.639,282.833 113.083 C 282.833 112.530,282.863 112.500,283.406 112.500 C 284.201 112.500,284.785 112.247,284.912 111.849 C 284.980 111.634,285.221 111.474,285.575 111.407 C 286.013 111.325,286.151 111.205,286.224 110.841 C 286.294 110.489,286.438 110.354,286.825 110.277 C 287.257 110.190,287.333 110.100,287.333 109.671 C 287.333 109.221,287.387 109.167,287.837 109.167 C 288.266 109.167,288.357 109.091,288.443 108.658 C 288.521 108.268,288.655 108.127,289.019 108.055 C 289.396 107.979,289.514 107.846,289.597 107.402 C 289.660 107.068,289.825 106.805,290.010 106.747 C 290.394 106.625,290.833 105.769,290.833 105.141 C 290.833 104.725,290.895 104.667,291.333 104.667 C 291.794 104.667,291.833 104.620,291.833 104.083 C 291.833 103.571,291.884 103.500,292.254 103.500 C 292.748 103.500,293.000 102.993,293.000 102.000 C 293.000 101.394,293.033 101.351,293.542 101.302 C 294.082 101.250,294.083 101.248,294.132 100.228 C 294.180 99.243,294.200 99.202,294.674 99.107 C 295.159 99.010,295.167 98.991,295.167 97.931 L 295.167 96.854 295.708 96.802 L 296.250 96.750 296.298 95.125 C 296.345 93.529,296.353 93.500,296.750 93.500 C 297.365 93.500,297.500 93.037,297.500 90.928 C 297.500 89.153,297.525 89.000,297.813 89.000 C 298.560 89.000,298.580 88.822,298.635 81.816 C 298.691 74.757,298.665 74.500,297.911 74.500 L 297.500 74.500 297.483 72.208 C 297.463 69.433,297.390 69.101,296.785 69.031 L 296.333 68.978 296.331 67.531 C 296.328 65.912,296.262 65.725,295.667 65.642 C 295.275 65.587,295.247 65.516,295.201 64.458 C 295.152 63.351,295.144 63.333,294.688 63.333 C 294.248 63.333,294.218 63.283,294.071 62.292 C 293.928 61.324,293.884 61.246,293.458 61.197 C 293.058 61.151,293.000 61.073,293.000 60.572 C 293.000 60.029,292.970 60.000,292.417 60.000 L 291.833 60.000 291.831 59.125 C 291.828 58.136,291.724 57.899,291.256 57.810 C 291.055 57.772,290.868 57.538,290.773 57.207 C 290.646 56.764,290.535 56.667,290.153 56.667 C 289.750 56.667,289.681 56.594,289.636 56.125 C 289.590 55.649,289.518 55.577,289.042 55.531 C 288.546 55.483,288.500 55.430,288.500 54.906 C 288.500 54.363,288.470 54.333,287.917 54.333 C 287.359 54.333,287.333 54.307,287.333 53.737 C 287.333 53.164,287.314 53.144,286.845 53.248 C 286.388 53.348,286.353 53.319,286.303 52.802 C 286.256 52.317,286.186 52.244,285.718 52.199 C 285.255 52.154,285.180 52.078,285.135 51.615 C 285.090 51.150,285.016 51.077,284.542 51.031 C 284.108 50.989,284.000 50.905,284.000 50.606 C 284.000 50.126,283.701 49.833,283.213 49.833 C 282.955 49.833,282.773 49.697,282.670 49.427 C 282.523 49.038,281.700 48.670,280.975 48.668 C 280.819 48.667,280.624 48.449,280.525 48.167 C 280.357 47.685,280.313 47.667,279.342 47.667 C 278.381 47.667,278.333 47.647,278.333 47.256 C 278.333 46.671,277.885 46.500,276.355 46.500 L 275.021 46.500 274.969 45.958 L 274.917 45.417 273.583 45.398 C 271.645 45.371,271.695 45.385,271.636 44.875 L 271.583 44.417 269.750 44.313 C 268.742 44.256,267.003 44.200,265.886 44.188 L 263.855 44.167 263.803 43.708 L 263.750 43.250 248.787 43.207 C 236.850 43.173,233.807 43.207,233.743 43.376 M266.363 54.708 C 266.432 55.194,267.248 55.478,268.606 55.491 C 269.481 55.499,269.640 55.548,269.714 55.831 C 269.816 56.219,270.458 56.500,271.243 56.500 C 271.689 56.500,271.817 56.578,271.898 56.900 C 272.007 57.334,272.713 57.667,273.525 57.667 C 273.940 57.667,274.000 57.729,274.000 58.159 C 274.000 58.593,274.072 58.665,274.605 58.765 C 274.999 58.839,275.239 58.989,275.293 59.196 C 275.384 59.545,276.314 60.000,276.937 60.000 C 277.266 60.000,277.333 60.085,277.333 60.500 C 277.333 60.960,277.380 61.000,277.917 61.000 C 278.472 61.000,278.500 61.028,278.500 61.583 C 278.500 62.141,278.526 62.167,279.095 62.167 C 279.615 62.167,279.676 62.209,279.583 62.503 C 279.415 63.031,279.812 64.000,280.266 64.173 C 280.531 64.273,280.667 64.457,280.667 64.713 C 280.667 65.205,280.960 65.500,281.450 65.500 C 281.760 65.500,281.833 65.590,281.833 65.975 C 281.833 66.786,282.155 67.461,282.594 67.571 C 282.945 67.659,283.000 67.770,283.000 68.383 C 283.000 69.126,283.362 69.833,283.742 69.833 C 284.030 69.833,284.203 70.291,284.071 70.705 C 283.842 71.428,284.144 72.167,284.669 72.167 L 285.157 72.167 285.203 74.375 L 285.250 76.583 285.792 76.636 L 286.333 76.688 286.333 81.143 L 286.333 85.598 285.792 85.757 L 285.250 85.917 285.203 88.042 C 285.168 89.632,285.103 90.167,284.944 90.167 C 284.376 90.167,284.124 90.609,284.079 91.680 C 284.054 92.269,284.026 92.909,284.017 93.104 C 284.005 93.359,283.859 93.487,283.500 93.558 C 283.021 93.654,283.000 93.695,282.997 94.537 C 282.994 95.575,282.891 95.780,282.333 95.858 C 281.946 95.913,281.913 95.990,281.867 96.958 L 281.817 98.000 281.242 98.000 C 280.696 98.000,280.667 98.029,280.667 98.583 C 280.667 99.115,280.624 99.167,280.185 99.167 C 279.769 99.167,279.689 99.244,279.596 99.739 C 279.509 100.206,279.405 100.322,279.036 100.364 C 278.688 100.405,278.572 100.518,278.533 100.853 C 278.494 101.183,278.351 101.328,277.949 101.442 C 277.545 101.557,277.404 101.701,277.365 102.037 C 277.325 102.378,277.210 102.492,276.865 102.532 C 276.522 102.571,276.379 102.711,276.257 103.125 C 276.127 103.569,276.014 103.667,275.632 103.667 C 275.187 103.667,275.082 103.876,275.132 104.667 C 275.135 104.712,274.855 104.753,274.509 104.757 C 273.764 104.766,273.000 105.217,273.000 105.647 C 273.000 105.885,272.906 105.936,272.582 105.874 C 272.059 105.774,271.667 106.087,271.667 106.604 C 271.667 106.989,271.628 107.000,270.292 107.003 C 268.746 107.005,268.597 107.062,268.439 107.708 L 268.327 108.167 266.091 108.167 C 263.587 108.167,263.091 108.283,262.935 108.905 L 262.827 109.333 257.747 109.333 L 252.667 109.333 252.667 81.833 L 252.667 54.333 259.488 54.333 L 266.310 54.333 266.363 54.708 " stroke="none" fill="#343434" fill-rule="evenodd"/><path id="path1" d="M175.372 60.000 C 175.372 60.321,175.406 60.452,175.448 60.292 C 175.490 60.131,175.490 59.869,175.448 59.708 C 175.406 59.548,175.372 59.679,175.372 60.000 M102.539 78.333 C 102.539 78.654,102.573 78.785,102.615 78.625 C 102.657 78.465,102.657 78.202,102.615 78.042 C 102.573 77.881,102.539 78.012,102.539 78.333 M211.217 96.500 C 211.217 97.004,211.248 97.210,211.286 96.958 C 211.324 96.706,211.324 96.294,211.286 96.042 C 211.248 95.790,211.217 95.996,211.217 96.500 M135.455 109.287 C 135.750 109.324,136.275 109.324,136.621 109.288 C 136.967 109.252,136.725 109.222,136.083 109.221 C 135.442 109.221,135.159 109.250,135.455 109.287 M141.958 109.289 C 142.348 109.324,142.985 109.324,143.375 109.289 C 143.765 109.254,143.446 109.225,142.667 109.225 C 141.887 109.225,141.569 109.254,141.958 109.289 M195.877 109.286 C 196.131 109.325,196.506 109.324,196.711 109.284 C 196.916 109.244,196.708 109.213,196.250 109.214 C 195.792 109.216,195.624 109.248,195.877 109.286 M236.542 109.291 C 237.252 109.322,238.415 109.322,239.125 109.291 C 239.835 109.259,239.254 109.234,237.833 109.234 C 236.412 109.234,235.831 109.259,236.542 109.291 M255.219 109.291 C 256.668 109.319,258.993 109.319,260.385 109.291 C 261.778 109.263,260.592 109.241,257.750 109.241 C 254.908 109.241,253.769 109.264,255.219 109.291 " stroke="none" fill="#383434" fill-rule="evenodd"/><path id="path2" d="M175.372 60.000 C 175.372 60.321,175.406 60.452,175.448 60.292 C 175.490 60.131,175.490 59.869,175.448 59.708 C 175.406 59.548,175.372 59.679,175.372 60.000 M102.539 78.333 C 102.539 78.654,102.573 78.785,102.615 78.625 C 102.657 78.465,102.657 78.202,102.615 78.042 C 102.573 77.881,102.539 78.012,102.539 78.333 M211.217 96.500 C 211.217 97.004,211.248 97.210,211.286 96.958 C 211.324 96.706,211.324 96.294,211.286 96.042 C 211.248 95.790,211.217 95.996,211.217 96.500 M135.455 109.287 C 135.750 109.324,136.275 109.324,136.621 109.288 C 136.967 109.252,136.725 109.222,136.083 109.221 C 135.442 109.221,135.159 109.250,135.455 109.287 M141.958 109.289 C 142.348 109.324,142.985 109.324,143.375 109.289 C 143.765 109.254,143.446 109.225,142.667 109.225 C 141.887 109.225,141.569 109.254,141.958 109.289 M195.877 109.286 C 196.131 109.325,196.506 109.324,196.711 109.284 C 196.916 109.244,196.708 109.213,196.250 109.214 C 195.792 109.216,195.624 109.248,195.877 109.286 M236.542 109.291 C 237.252 109.322,238.415 109.322,239.125 109.291 C 239.835 109.259,239.254 109.234,237.833 109.234 C 236.412 109.234,235.831 109.259,236.542 109.291 M255.219 109.291 C 256.668 109.319,258.993 109.319,260.385 109.291 C 261.778 109.263,260.592 109.241,257.750 109.241 C 254.908 109.241,253.769 109.264,255.219 109.291 " stroke="none" fill="#383434" fill-rule="evenodd"/><path id="path3" d="M175.372 60.000 C 175.372 60.321,175.406 60.452,175.448 60.292 C 175.490 60.131,175.490 59.869,175.448 59.708 C 175.406 59.548,175.372 59.679,175.372 60.000 M102.539 78.333 C 102.539 78.654,102.573 78.785,102.615 78.625 C 102.657 78.465,102.657 78.202,102.615 78.042 C 102.573 77.881,102.539 78.012,102.539 78.333 M211.217 96.500 C 211.217 97.004,211.248 97.210,211.286 96.958 C 211.324 96.706,211.324 96.294,211.286 96.042 C 211.248 95.790,211.217 95.996,211.217 96.500 M135.455 109.287 C 135.750 109.324,136.275 109.324,136.621 109.288 C 136.967 109.252,136.725 109.222,136.083 109.221 C 135.442 109.221,135.159 109.250,135.455 109.287 M141.958 109.289 C 142.348 109.324,142.985 109.324,143.375 109.289 C 143.765 109.254,143.446 109.225,142.667 109.225 C 141.887 109.225,141.569 109.254,141.958 109.289 M195.877 109.286 C 196.131 109.325,196.506 109.324,196.711 109.284 C 196.916 109.244,196.708 109.213,196.250 109.214 C 195.792 109.216,195.624 109.248,195.877 109.286 M236.542 109.291 C 237.252 109.322,238.415 109.322,239.125 109.291 C 239.835 109.259,239.254 109.234,237.833 109.234 C 236.412 109.234,235.831 109.259,236.542 109.291 M255.219 109.291 C 256.668 109.319,258.993 109.319,260.385 109.291 C 261.778 109.263,260.592 109.241,257.750 109.241 C 254.908 109.241,253.769 109.264,255.219 109.291 " stroke="none" fill="#383434" fill-rule="evenodd"/><path id="path4" d="M175.372 60.000 C 175.372 60.321,175.406 60.452,175.448 60.292 C 175.490 60.131,175.490 59.869,175.448 59.708 C 175.406 59.548,175.372 59.679,175.372 60.000 M102.539 78.333 C 102.539 78.654,102.573 78.785,102.615 78.625 C 102.657 78.465,102.657 78.202,102.615 78.042 C 102.573 77.881,102.539 78.012,102.539 78.333 M211.217 96.500 C 211.217 97.004,211.248 97.210,211.286 96.958 C 211.324 96.706,211.324 96.294,211.286 96.042 C 211.248 95.790,211.217 95.996,211.217 96.500 M135.455 109.287 C 135.750 109.324,136.275 109.324,136.621 109.288 C 136.967 109.252,136.725 109.222,136.083 109.221 C 135.442 109.221,135.159 109.250,135.455 109.287 M141.958 109.289 C 142.348 109.324,142.985 109.324,143.375 109.289 C 143.765 109.254,143.446 109.225,142.667 109.225 C 141.887 109.225,141.569 109.254,141.958 109.289 M195.877 109.286 C 196.131 109.325,196.506 109.324,196.711 109.284 C 196.916 109.244,196.708 109.213,196.250 109.214 C 195.792 109.216,195.624 109.248,195.877 109.286 M236.542 109.291 C 237.252 109.322,238.415 109.322,239.125 109.291 C 239.835 109.259,239.254 109.234,237.833 109.234 C 236.412 109.234,235.831 109.259,236.542 109.291 M255.219 109.291 C 256.668 109.319,258.993 109.319,260.385 109.291 C 261.778 109.263,260.592 109.241,257.750 109.241 C 254.908 109.241,253.769 109.264,255.219 109.291 " stroke="none" fill="#383434" fill-rule="evenodd"/></g></svg>