<svg xmlns="http://www.w3.org/2000/svg" xmlns:xlink="http://www.w3.org/1999/xlink" id="svg" version="1.1" viewBox="29.2 62.4 341.7 308.4"><g id="svgg"><path id="path0" d="M292.000 62.711 C 292.000 62.881,292.720 62.952,293.600 62.869 C 294.480 62.785,295.200 62.645,295.200 62.558 C 295.200 62.471,294.480 62.400,293.600 62.400 C 292.720 62.400,292.000 62.540,292.000 62.711 M317.500 62.700 C 325.915 62.760,339.685 62.760,348.100 62.700 C 356.515 62.640,349.630 62.590,332.800 62.590 C 315.970 62.590,309.085 62.640,317.500 62.700 M247.300 87.897 C 248.785 87.974,251.215 87.974,252.700 87.897 C 254.185 87.820,252.970 87.757,250.000 87.757 C 247.030 87.757,245.815 87.820,247.300 87.897 M220.893 109.200 C 220.893 109.970,220.975 110.285,221.076 109.900 C 221.176 109.515,221.176 108.885,221.076 108.500 C 220.975 108.115,220.893 108.430,220.893 109.200 M287.632 111.486 C 287.601 112.336,287.423 112.378,283.300 112.502 L 279.000 112.630 283.313 112.715 C 287.737 112.802,288.447 112.553,287.869 111.113 C 287.756 110.831,287.649 110.999,287.632 111.486 M219.300 112.676 C 219.685 112.776,220.315 112.776,220.700 112.676 C 221.085 112.575,220.770 112.493,220.000 112.493 C 219.230 112.493,218.915 112.575,219.300 112.676 M212.493 120.000 C 212.493 120.770,212.575 121.085,212.676 120.700 C 212.776 120.315,212.776 119.685,212.676 119.300 C 212.575 118.915,212.493 119.230,212.493 120.000 M209.105 121.083 C 209.602 121.179,210.322 121.175,210.705 121.075 C 211.087 120.975,210.680 120.896,209.800 120.901 C 208.920 120.905,208.607 120.987,209.105 121.083 M112.400 136.906 C 112.400 137.257,111.995 137.622,111.500 137.718 L 110.600 137.891 111.513 137.946 C 112.392 137.998,113.162 137.029,112.649 136.516 C 112.512 136.379,112.400 136.554,112.400 136.906 M170.893 159.200 C 170.893 159.970,170.975 160.285,171.076 159.900 C 171.176 159.515,171.176 158.885,171.076 158.500 C 170.975 158.115,170.893 158.430,170.893 159.200 M164.500 162.696 C 165.765 162.775,167.835 162.775,169.100 162.696 C 170.365 162.616,169.330 162.551,166.800 162.551 C 164.270 162.551,163.235 162.616,164.500 162.696 M76.300 171.082 C 76.795 171.178,77.605 171.178,78.100 171.082 C 78.595 170.987,78.190 170.909,77.200 170.909 C 76.210 170.909,75.805 170.987,76.300 171.082 M330.926 171.143 C 331.613 171.413,331.607 171.470,330.826 172.176 C 330.372 172.588,329.997 173.301,329.994 173.762 C 329.989 174.449,329.918 174.492,329.601 174.000 C 329.352 173.613,329.223 208.095,329.238 271.000 C 329.251 325.239,329.413 368.245,329.603 367.800 L 329.944 367.000 329.986 367.800 C 330.049 368.974,331.815 371.023,332.211 370.382 C 332.428 370.032,332.363 369.976,332.000 370.200 C 331.646 370.419,331.573 370.368,331.774 370.042 C 332.003 369.672,332.215 369.680,332.697 370.081 C 333.450 370.705,368.400 370.982,368.400 370.364 C 368.400 370.164,368.681 370.000,369.024 370.000 C 369.393 370.000,369.531 369.812,369.362 369.538 C 369.185 369.252,369.252 369.185,369.538 369.362 C 369.812 369.531,370.000 369.393,370.000 369.024 C 370.000 368.681,370.176 368.400,370.390 368.400 C 370.909 368.400,370.946 177.104,370.428 175.296 C 370.165 174.382,370.189 174.000,370.506 174.000 C 370.754 174.000,370.363 173.387,369.636 172.637 C 368.470 171.434,368.402 171.253,369.058 171.084 C 369.738 170.909,369.740 170.889,369.087 170.846 C 368.696 170.821,368.265 171.085,368.132 171.434 C 367.955 171.895,367.808 171.936,367.591 171.586 C 367.187 170.932,332.817 170.780,333.068 171.433 C 333.160 171.672,332.964 171.867,332.634 171.867 C 332.304 171.867,331.942 171.627,331.830 171.333 C 331.717 171.040,331.304 170.813,330.913 170.828 C 330.240 170.855,330.241 170.872,330.926 171.143 M329.335 171.824 C 329.207 172.160,329.213 172.547,329.351 172.684 C 329.488 172.821,329.600 172.713,329.600 172.443 C 329.600 172.173,329.768 172.056,329.972 172.183 C 330.177 172.309,330.446 172.249,330.570 172.048 C 330.694 171.848,330.520 171.578,330.183 171.449 C 329.831 171.314,329.470 171.474,329.335 171.824 M370.000 171.600 C 370.000 171.846,369.792 171.919,369.538 171.762 C 369.250 171.584,369.185 171.652,369.366 171.945 C 369.525 172.202,369.807 172.319,369.993 172.204 C 370.179 172.089,370.423 172.221,370.534 172.498 C 370.660 172.810,370.749 172.744,370.768 172.324 C 370.786 171.952,370.620 171.536,370.400 171.400 C 370.180 171.264,370.000 171.354,370.000 171.600 M270.901 173.400 C 270.905 174.280,270.987 174.593,271.083 174.095 C 271.179 173.598,271.175 172.878,271.075 172.495 C 270.975 172.113,270.896 172.520,270.901 173.400 M70.909 177.200 C 70.909 178.190,70.987 178.595,71.082 178.100 C 71.178 177.605,71.178 176.795,71.082 176.300 C 70.987 175.805,70.909 176.210,70.909 177.200 M62.400 186.771 C 62.400 187.195,62.126 187.626,61.792 187.730 C 61.317 187.877,61.329 187.906,61.847 187.859 C 62.553 187.796,63.461 186.000,62.787 186.000 C 62.574 186.000,62.400 186.347,62.400 186.771 M231.800 188.012 C 232.539 188.319,232.525 188.394,231.700 188.560 C 229.868 188.929,228.708 190.910,229.700 191.979 C 230.098 192.407,230.098 192.460,229.701 192.236 C 229.303 192.011,229.208 209.836,229.232 280.277 C 229.249 329.283,229.414 368.244,229.603 367.800 L 229.944 367.000 229.986 367.800 C 230.049 368.974,231.815 371.023,232.211 370.382 C 232.428 370.032,232.363 369.976,232.000 370.200 C 231.646 370.419,231.573 370.368,231.774 370.042 C 232.003 369.672,232.215 369.680,232.697 370.081 C 233.450 370.705,268.400 370.982,268.400 370.364 C 268.400 370.164,268.681 370.000,269.024 370.000 C 269.393 370.000,269.531 369.812,269.362 369.538 C 269.185 369.252,269.252 369.185,269.538 369.362 C 269.812 369.531,270.000 369.393,270.000 369.024 C 270.000 368.681,270.177 368.400,270.394 368.400 C 270.651 368.400,270.787 337.521,270.785 279.338 L 270.782 190.275 269.770 189.338 C 269.214 188.822,268.453 188.387,268.079 188.372 C 267.525 188.349,267.547 188.283,268.200 188.012 C 268.640 187.830,260.450 187.681,250.000 187.681 C 239.550 187.681,231.360 187.830,231.800 188.012 M129.293 199.600 C 129.293 200.370,129.375 200.685,129.476 200.300 C 129.576 199.915,129.576 199.285,129.476 198.900 C 129.375 198.515,129.293 198.830,129.293 199.600 M30.172 214.187 C 29.816 214.730,29.618 215.405,29.731 215.687 C 29.865 216.020,29.948 215.965,29.968 215.529 C 29.986 215.160,30.474 214.485,31.054 214.029 C 31.808 213.436,31.924 213.200,31.463 213.200 C 31.109 213.200,30.527 213.644,30.172 214.187 M29.309 220.800 C 29.309 221.790,29.387 222.195,29.482 221.700 C 29.578 221.205,29.578 220.395,29.482 219.900 C 29.387 219.405,29.309 219.810,29.309 220.800 M29.600 226.289 C 29.600 226.521,29.971 227.136,30.424 227.656 L 31.247 228.600 30.545 227.400 C 29.620 225.821,29.600 225.797,29.600 226.289 M279.680 229.680 C 279.006 230.354,279.083 230.746,279.867 230.631 C 280.233 230.578,280.578 230.233,280.631 229.867 C 280.746 229.083,280.354 229.006,279.680 229.680 M282.200 229.610 C 282.984 229.937,282.984 229.944,282.162 229.972 C 281.147 230.006,280.010 231.179,279.972 232.231 C 279.945 232.968,279.929 232.966,279.603 232.200 C 279.414 231.755,279.262 261.858,279.262 300.000 C 279.262 338.142,279.414 368.245,279.603 367.800 L 279.944 367.000 279.986 367.800 C 280.049 368.974,281.815 371.023,282.211 370.382 C 282.428 370.032,282.363 369.976,282.000 370.200 C 281.646 370.419,281.573 370.368,281.774 370.042 C 282.003 369.672,282.215 369.680,282.697 370.081 C 283.450 370.705,318.400 370.982,318.400 370.364 C 318.400 370.164,318.681 370.000,319.024 370.000 C 319.393 370.000,319.531 369.812,319.362 369.538 C 319.185 369.252,319.252 369.185,319.538 369.362 C 319.812 369.531,320.000 369.393,320.000 369.024 C 320.000 368.681,320.175 368.400,320.389 368.400 C 321.039 368.400,320.733 233.483,320.081 232.697 C 319.680 232.215,319.672 232.003,320.042 231.774 C 320.368 231.573,320.419 231.646,320.200 232.000 C 319.976 232.363,320.032 232.428,320.382 232.211 C 321.023 231.815,318.974 230.049,317.800 229.986 L 317.000 229.944 317.800 229.610 C 318.243 229.426,310.292 229.277,300.000 229.277 C 289.708 229.277,281.757 229.426,282.200 229.610 M319.369 229.867 C 319.422 230.233,319.767 230.578,320.133 230.631 C 320.917 230.746,320.994 230.354,320.320 229.680 C 319.646 229.006,319.254 229.083,319.369 229.867 M181.800 238.012 C 182.539 238.319,182.525 238.394,181.700 238.560 C 179.868 238.929,178.708 240.910,179.700 241.979 C 180.096 242.406,180.097 242.459,179.702 242.236 C 179.305 242.012,179.210 254.845,179.234 305.277 C 179.251 340.357,179.416 368.243,179.604 367.800 L 179.944 367.000 179.986 367.800 C 180.049 368.974,181.815 371.023,182.211 370.382 C 182.428 370.032,182.363 369.976,182.000 370.200 C 181.646 370.419,181.573 370.368,181.774 370.042 C 182.003 369.672,182.215 369.680,182.697 370.081 C 183.450 370.705,218.400 370.982,218.400 370.364 C 218.400 370.164,218.681 370.000,219.024 370.000 C 219.393 370.000,219.531 369.812,219.362 369.538 C 219.185 369.252,219.252 369.185,219.538 369.362 C 219.812 369.531,220.000 369.393,220.000 369.024 C 220.000 368.681,220.176 368.400,220.392 368.400 C 220.645 368.400,220.782 345.857,220.779 304.334 L 220.775 240.269 219.767 239.334 C 219.212 238.820,218.453 238.387,218.079 238.372 C 217.525 238.349,217.547 238.283,218.200 238.012 C 218.640 237.830,210.450 237.681,200.000 237.681 C 189.550 237.681,181.360 237.830,181.800 238.012 M80.800 246.403 C 80.800 246.607,81.115 246.677,81.500 246.557 C 82.090 246.374,82.082 246.415,81.446 246.820 C 78.981 248.390,79.200 242.281,79.234 308.587 C 79.252 341.812,79.417 368.243,79.605 367.800 L 79.944 367.000 79.986 367.800 C 80.049 368.974,81.815 371.023,82.211 370.382 C 82.428 370.032,82.363 369.976,82.000 370.200 C 81.646 370.419,81.573 370.368,81.774 370.042 C 82.003 369.672,82.215 369.680,82.697 370.081 C 83.450 370.705,118.400 370.982,118.400 370.364 C 118.400 370.164,118.681 370.000,119.024 370.000 C 119.393 370.000,119.531 369.812,119.362 369.538 C 119.185 369.252,119.252 369.185,119.538 369.362 C 119.812 369.531,120.000 369.393,120.000 369.024 C 120.000 368.681,120.176 368.400,120.391 368.400 C 120.644 368.400,120.780 347.229,120.778 308.478 C 120.774 242.381,120.990 248.371,118.554 246.820 C 117.918 246.415,117.910 246.374,118.500 246.557 C 118.885 246.677,119.200 246.607,119.200 246.403 C 119.200 246.178,111.578 246.030,100.000 246.030 C 88.422 246.030,80.800 246.178,80.800 246.403 M54.501 248.600 C 54.505 249.480,54.587 249.793,54.683 249.295 C 54.779 248.798,54.775 248.078,54.675 247.695 C 54.575 247.313,54.496 247.720,54.501 248.600 M131.103 262.630 C 130.977 262.757,130.542 262.909,130.137 262.968 C 129.731 263.027,129.357 263.419,129.303 263.838 C 129.214 264.545,129.233 264.542,129.575 263.800 C 129.778 263.360,129.956 263.131,129.972 263.290 C 129.987 263.450,130.441 263.412,130.981 263.207 C 131.780 262.903,131.919 262.946,131.731 263.434 C 131.605 263.764,131.405 263.938,131.287 263.821 C 130.895 263.429,130.000 264.486,129.994 265.349 C 129.989 266.045,129.917 266.090,129.601 265.600 C 129.351 265.212,129.224 283.324,129.241 316.800 C 129.255 345.443,129.418 368.242,129.605 367.800 L 129.944 367.000 129.986 367.800 C 130.049 368.974,131.815 371.023,132.211 370.382 C 132.428 370.032,132.363 369.976,132.000 370.200 C 131.646 370.419,131.573 370.368,131.774 370.042 C 132.003 369.672,132.215 369.680,132.697 370.081 C 133.450 370.705,168.400 370.982,168.400 370.364 C 168.400 370.164,168.681 370.000,169.024 370.000 C 169.393 370.000,169.531 369.812,169.362 369.538 C 169.185 369.252,169.252 369.185,169.538 369.362 C 169.812 369.531,170.000 369.393,170.000 369.024 C 170.000 368.681,170.175 368.400,170.388 368.400 C 170.637 368.400,170.776 349.891,170.776 316.858 L 170.776 265.317 169.858 264.455 C 169.354 263.981,168.841 263.692,168.720 263.814 C 168.598 263.935,168.400 263.777,168.279 263.463 C 168.119 263.045,168.295 262.942,168.930 263.080 C 169.634 263.233,169.686 263.188,169.200 262.841 C 168.460 262.312,166.800 262.265,166.800 262.772 C 166.800 263.002,166.303 263.002,165.503 262.772 C 164.789 262.567,157.813 262.400,150.000 262.400 C 142.187 262.400,135.211 262.567,134.497 262.772 C 133.697 263.002,133.200 263.002,133.200 262.772 C 133.200 262.369,131.480 262.253,131.103 262.630 M29.680 279.680 C 29.006 280.354,29.083 280.746,29.867 280.631 C 30.233 280.578,30.578 280.233,30.631 279.867 C 30.746 279.083,30.354 279.006,29.680 279.680 M32.200 279.610 C 32.984 279.937,32.984 279.944,32.162 279.972 C 31.147 280.006,30.010 281.179,29.972 282.231 C 29.945 282.968,29.929 282.966,29.605 282.200 C 29.416 281.756,29.266 300.792,29.266 325.000 C 29.266 349.208,29.416 368.244,29.605 367.800 L 29.944 367.000 29.986 367.800 C 30.049 368.974,31.815 371.023,32.211 370.382 C 32.428 370.032,32.363 369.976,32.000 370.200 C 31.646 370.419,31.573 370.368,31.774 370.042 C 32.003 369.672,32.215 369.680,32.697 370.081 C 33.450 370.705,68.400 370.982,68.400 370.364 C 68.400 370.164,68.681 370.000,69.024 370.000 C 69.393 370.000,69.531 369.812,69.362 369.538 C 69.185 369.252,69.252 369.185,69.538 369.362 C 69.812 369.531,70.000 369.393,70.000 369.024 C 70.000 368.681,70.172 368.400,70.383 368.400 C 71.026 368.400,70.726 283.475,70.081 282.697 C 69.680 282.215,69.672 282.003,70.042 281.774 C 70.368 281.573,70.419 281.646,70.200 282.000 C 69.976 282.363,70.032 282.428,70.382 282.211 C 71.023 281.815,68.974 280.049,67.800 279.986 L 67.000 279.944 67.800 279.610 C 68.243 279.426,60.292 279.277,50.000 279.277 C 39.708 279.277,31.757 279.426,32.200 279.610 M69.369 279.867 C 69.422 280.233,69.767 280.578,70.133 280.631 C 70.917 280.746,70.994 280.354,70.320 279.680 C 69.646 279.006,69.254 279.083,69.369 279.867 M29.200 369.555 C 29.200 369.924,30.076 370.800,30.445 370.800 C 30.601 370.800,30.685 370.500,30.631 370.133 C 30.538 369.499,29.200 368.959,29.200 369.555 M69.802 369.998 C 69.140 370.730,69.135 370.800,69.751 370.800 C 70.122 370.800,70.532 370.522,70.662 370.183 C 71.034 369.212,70.598 369.118,69.802 369.998 M79.200 369.555 C 79.200 369.924,80.076 370.800,80.445 370.800 C 80.601 370.800,80.685 370.500,80.631 370.133 C 80.538 369.499,79.200 368.959,79.200 369.555 M119.802 369.998 C 119.140 370.730,119.135 370.800,119.751 370.800 C 120.122 370.800,120.532 370.522,120.662 370.183 C 121.034 369.212,120.598 369.118,119.802 369.998 M129.200 369.555 C 129.200 369.924,130.076 370.800,130.445 370.800 C 130.601 370.800,130.685 370.500,130.631 370.133 C 130.538 369.499,129.200 368.959,129.200 369.555 M169.802 369.998 C 169.140 370.730,169.135 370.800,169.751 370.800 C 170.122 370.800,170.532 370.522,170.662 370.183 C 171.034 369.212,170.598 369.118,169.802 369.998 M179.200 369.555 C 179.200 369.924,180.076 370.800,180.445 370.800 C 180.601 370.800,180.685 370.500,180.631 370.133 C 180.538 369.499,179.200 368.959,179.200 369.555 M219.802 369.998 C 219.140 370.730,219.135 370.800,219.751 370.800 C 220.122 370.800,220.532 370.522,220.662 370.183 C 221.034 369.212,220.598 369.118,219.802 369.998 M229.200 369.555 C 229.200 369.712,229.416 370.056,229.680 370.320 C 230.354 370.994,230.746 370.917,230.631 370.133 C 230.538 369.499,229.200 368.959,229.200 369.555 M269.802 369.998 C 269.140 370.730,269.135 370.800,269.751 370.800 C 270.122 370.800,270.532 370.522,270.662 370.183 C 271.034 369.212,270.598 369.118,269.802 369.998 M279.200 369.555 C 279.200 369.712,279.416 370.056,279.680 370.320 C 280.354 370.994,280.746 370.917,280.631 370.133 C 280.538 369.499,279.200 368.959,279.200 369.555 M319.802 369.998 C 319.140 370.730,319.135 370.800,319.751 370.800 C 320.122 370.800,320.532 370.522,320.662 370.183 C 321.034 369.212,320.598 369.118,319.802 369.998 M329.200 369.555 C 329.200 369.712,329.416 370.056,329.680 370.320 C 330.354 370.994,330.746 370.917,330.631 370.133 C 330.538 369.499,329.200 368.959,329.200 369.555 M369.802 369.998 C 369.140 370.730,369.135 370.800,369.751 370.800 C 370.122 370.800,370.532 370.522,370.662 370.183 C 371.034 369.212,370.598 369.118,369.802 369.998 " stroke="none" fill="#4cac54" fill-rule="evenodd"/><path id="path1" d="M290.000 62.745 C 290.000 62.935,289.505 63.070,288.900 63.045 L 287.800 63.000 287.769 70.600 C 287.733 79.684,287.481 79.200,292.249 79.200 L 296.000 79.200 296.078 80.900 C 296.120 81.835,296.165 83.500,296.178 84.600 C 296.210 87.538,296.305 87.600,300.724 87.599 L 304.600 87.598 304.475 91.759 L 304.350 95.920 303.075 96.116 C 302.374 96.223,300.668 96.270,299.285 96.219 C 296.224 96.105,296.223 96.108,296.188 100.487 C 296.154 104.739,296.387 104.510,292.022 104.578 C 290.048 104.609,288.290 104.790,288.116 104.981 C 287.941 105.174,288.067 105.197,288.400 105.034 C 288.901 104.789,288.898 104.828,288.381 105.270 C 287.910 105.674,287.767 106.610,287.781 109.200 L 287.800 112.600 283.500 112.714 L 279.200 112.827 279.153 109.914 C 279.127 108.311,279.135 106.774,279.171 106.497 C 279.363 105.022,278.550 104.663,274.827 104.579 C 270.421 104.480,270.849 104.880,270.769 100.784 C 270.679 96.102,270.636 96.049,267.107 96.210 C 262.314 96.428,262.401 96.497,262.394 92.457 C 262.385 87.482,263.461 87.892,250.279 87.843 C 243.429 87.817,238.967 87.947,239.104 88.168 C 239.229 88.370,239.041 88.425,238.686 88.288 C 238.211 88.106,238.106 88.211,238.288 88.686 C 238.439 89.078,238.373 89.231,238.121 89.075 C 237.844 88.903,237.737 90.009,237.799 92.409 L 237.891 96.000 236.646 96.064 C 235.960 96.100,234.200 96.145,232.734 96.164 C 231.267 96.184,229.917 96.364,229.734 96.564 C 229.537 96.778,229.647 96.807,230.000 96.634 C 230.505 96.387,230.502 96.425,229.984 96.870 C 229.511 97.277,229.375 98.215,229.399 100.900 L 229.430 104.400 227.815 104.462 C 226.927 104.496,225.180 104.541,223.934 104.562 C 222.688 104.583,221.518 104.764,221.334 104.964 C 221.137 105.179,221.223 105.199,221.541 105.015 C 221.969 104.768,221.960 104.902,221.501 105.651 C 221.110 106.288,220.933 107.626,220.961 109.721 L 221.003 112.843 218.502 112.575 C 217.126 112.427,216.000 112.463,216.000 112.653 C 216.000 112.844,215.325 113.000,214.500 113.000 C 213.033 113.000,213.000 113.033,213.000 114.500 C 213.000 115.325,212.844 116.000,212.653 116.000 C 212.463 116.000,212.429 117.145,212.579 118.544 L 212.852 121.088 209.726 121.005 C 204.716 120.872,204.604 120.943,204.578 124.229 C 204.566 125.753,204.521 127.552,204.478 128.228 L 204.400 129.455 200.985 129.390 C 199.106 129.355,197.474 129.480,197.357 129.669 C 197.240 129.858,196.979 129.911,196.777 129.786 C 196.574 129.660,196.527 129.865,196.673 130.245 C 196.839 130.679,196.780 130.835,196.510 130.668 C 196.218 130.487,196.133 131.357,196.240 133.432 C 196.466 137.797,196.301 137.983,192.338 137.838 C 187.962 137.678,187.678 137.962,187.838 142.330 C 187.980 146.214,188.090 146.114,183.549 146.182 C 181.614 146.211,179.889 146.391,179.716 146.582 C 179.541 146.773,179.668 146.797,180.000 146.634 C 180.505 146.387,180.502 146.425,179.984 146.870 C 179.511 147.277,179.375 148.215,179.399 150.900 L 179.430 154.400 177.815 154.462 C 176.927 154.496,175.180 154.541,173.934 154.562 C 172.688 154.583,171.518 154.764,171.334 154.964 C 171.137 155.179,171.223 155.199,171.541 155.015 C 171.969 154.768,171.960 154.902,171.501 155.651 C 171.111 156.287,170.933 157.623,170.961 159.700 L 171.003 162.800 166.701 162.800 L 162.400 162.800 162.353 159.900 C 162.327 158.305,162.335 156.774,162.371 156.497 C 162.566 155.000,161.744 154.637,158.033 154.579 C 153.627 154.510,154.025 154.912,153.965 150.472 C 153.907 146.124,153.994 146.212,149.728 146.199 C 145.761 146.188,146.064 146.492,145.943 142.410 C 145.810 137.899,145.583 137.686,141.059 137.824 L 137.600 137.930 137.600 134.441 C 137.600 129.113,138.513 129.488,125.486 129.475 C 116.534 129.467,114.313 129.572,113.746 130.032 C 113.154 130.513,113.099 130.513,113.385 130.038 C 113.607 129.670,113.574 129.569,113.289 129.745 C 113.050 129.893,112.920 130.730,113.001 131.607 C 113.085 132.528,112.973 133.200,112.734 133.200 C 112.483 133.200,112.376 134.098,112.461 135.500 L 112.600 137.800 109.200 137.781 C 106.610 137.767,105.674 137.910,105.270 138.381 C 104.828 138.898,104.789 138.901,105.034 138.400 C 105.197 138.067,105.174 137.941,104.981 138.116 C 104.790 138.290,104.609 140.048,104.578 142.022 C 104.510 146.391,104.720 146.178,100.476 146.193 C 96.018 146.209,96.082 146.154,96.198 149.892 C 96.345 154.653,96.370 154.624,92.021 154.585 C 90.004 154.567,88.246 154.726,88.115 154.938 C 87.977 155.160,88.114 155.200,88.438 155.032 C 88.819 154.835,88.801 154.912,88.385 155.270 C 87.919 155.672,87.774 156.624,87.785 159.200 L 87.800 162.600 85.700 162.463 C 84.531 162.387,83.600 162.497,83.600 162.710 C 83.600 162.921,82.835 163.048,81.900 162.993 C 79.865 162.871,79.402 163.080,80.030 163.836 C 80.397 164.279,80.370 164.400,79.901 164.400 C 79.415 164.400,79.318 164.997,79.379 167.611 C 79.465 171.287,79.503 171.252,75.600 171.163 C 71.225 171.063,71.063 171.225,71.163 175.600 C 71.252 179.535,71.296 179.490,67.509 179.398 C 64.893 179.334,64.091 179.452,63.671 179.959 C 63.369 180.324,63.266 180.358,63.432 180.038 C 63.602 179.711,63.561 179.577,63.334 179.717 C 63.120 179.850,62.988 181.092,63.041 182.479 C 63.108 184.232,63.038 184.695,62.809 184.000 C 62.510 183.093,62.476 183.137,62.440 184.467 C 62.418 185.273,62.558 185.993,62.751 186.067 C 62.945 186.140,62.960 186.578,62.787 187.039 C 62.497 187.808,62.187 187.873,59.135 187.812 C 56.539 187.760,55.683 187.884,55.270 188.373 C 54.842 188.880,54.797 188.885,55.034 188.400 C 55.198 188.065,55.174 187.941,54.980 188.118 C 54.788 188.293,54.608 190.048,54.581 192.019 C 54.521 196.390,54.714 196.197,50.387 196.213 C 46.057 196.228,46.228 196.057,46.213 200.387 C 46.197 204.714,46.390 204.521,42.019 204.581 C 40.048 204.608,38.293 204.788,38.118 204.980 C 37.941 205.174,38.065 205.198,38.400 205.034 C 38.905 204.787,38.902 204.825,38.384 205.270 C 37.918 205.671,37.783 206.533,37.833 208.800 C 37.932 213.319,38.121 213.103,34.174 212.989 C 30.490 212.883,29.346 213.368,29.812 214.839 C 29.944 215.253,29.905 215.819,29.726 216.096 C 28.882 217.401,29.287 225.341,30.282 227.000 C 31.061 228.300,31.088 228.423,30.421 227.656 C 29.969 227.136,29.600 226.898,29.600 227.127 C 29.600 227.950,30.930 228.868,31.863 228.690 C 32.378 228.592,32.800 228.665,32.800 228.854 C 32.800 229.042,33.796 229.173,35.014 229.145 C 37.831 229.080,37.802 229.039,37.788 233.033 C 37.782 234.885,37.928 236.400,38.112 236.400 C 38.296 236.400,38.337 236.578,38.203 236.795 C 38.063 237.022,38.223 237.089,38.579 236.953 C 38.921 236.822,39.200 236.888,39.200 237.101 C 39.200 237.313,40.680 237.523,42.490 237.567 C 46.475 237.663,46.081 237.230,46.179 241.615 C 46.277 245.963,46.188 245.878,50.726 245.967 C 54.874 246.049,54.600 245.804,54.600 249.419 C 54.600 253.820,54.564 253.800,62.554 253.800 C 69.848 253.800,70.652 253.562,70.244 251.522 C 70.112 250.862,70.193 250.400,70.440 250.400 C 70.678 250.400,70.831 249.664,70.793 248.700 C 70.683 245.910,70.604 246.000,73.167 246.000 C 74.686 246.000,75.606 245.821,75.735 245.500 C 75.896 245.100,75.943 245.100,75.968 245.500 C 76.016 246.251,77.340 246.102,78.263 245.242 C 78.943 244.609,79.087 243.937,79.140 241.174 C 79.215 237.193,78.796 237.619,82.699 237.562 C 87.037 237.498,87.496 237.033,87.568 232.623 C 87.631 228.803,87.188 229.234,91.122 229.163 C 93.540 229.119,94.400 228.965,94.400 228.575 C 94.400 228.285,94.578 227.937,94.795 227.803 C 95.030 227.658,95.089 227.852,94.942 228.279 C 94.728 228.896,94.785 228.884,95.333 228.200 C 96.111 227.230,96.171 226.536,95.500 226.265 C 95.100 226.104,95.100 226.057,95.500 226.032 C 95.845 226.010,96.000 225.196,96.000 223.400 L 96.000 220.800 98.300 220.740 C 99.565 220.707,101.074 220.715,101.652 220.759 C 103.469 220.896,103.920 219.995,103.962 216.143 C 104.007 211.981,103.469 212.505,107.883 212.321 C 112.549 212.127,112.313 212.442,112.376 206.300 L 112.400 204.000 115.971 204.000 C 120.623 204.000,120.800 203.830,120.800 199.371 L 120.800 196.000 124.954 196.000 L 129.108 196.000 129.382 198.193 C 129.533 199.399,129.540 200.574,129.398 200.803 C 129.257 201.032,129.264 201.779,129.414 202.463 C 129.615 203.379,129.779 203.561,130.037 203.153 C 130.312 202.719,130.389 202.757,130.394 203.330 C 130.398 203.876,130.677 204.042,131.500 203.988 C 132.105 203.948,133.792 203.934,135.249 203.958 L 137.897 204.000 137.814 207.583 C 137.768 209.554,137.868 211.081,138.037 210.977 C 138.206 210.872,138.458 210.970,138.596 211.193 C 138.734 211.417,138.612 211.605,138.324 211.612 C 138.006 211.620,138.081 211.788,138.513 212.039 C 138.905 212.267,139.625 212.422,140.113 212.383 C 140.601 212.344,142.204 212.331,143.676 212.356 L 146.352 212.400 146.235 215.987 C 146.157 218.358,146.257 219.489,146.527 219.322 C 146.778 219.166,146.833 219.336,146.670 219.761 C 146.455 220.323,146.564 220.402,147.253 220.183 C 147.743 220.028,148.003 220.072,147.869 220.289 C 147.734 220.507,148.994 220.697,150.897 220.743 C 154.868 220.841,154.543 220.482,154.597 224.837 C 154.655 229.492,153.794 229.187,166.871 229.194 C 180.084 229.201,179.200 229.547,179.200 224.371 L 179.200 220.800 182.600 220.800 C 187.228 220.800,187.600 220.428,187.600 215.800 L 187.600 212.400 191.000 212.400 C 195.628 212.400,196.000 212.028,196.000 207.400 L 196.000 204.000 199.371 204.000 C 203.798 204.000,204.000 203.798,204.000 199.371 L 204.000 196.000 207.400 196.000 C 212.028 196.000,212.400 195.628,212.400 191.000 L 212.400 187.600 215.938 187.600 C 220.576 187.600,220.800 187.373,220.800 182.669 L 220.800 179.200 224.371 179.200 C 229.056 179.200,229.200 179.056,229.200 174.371 L 229.200 170.800 232.600 170.800 C 237.228 170.800,237.600 170.428,237.600 165.800 L 237.600 162.400 241.000 162.400 C 245.628 162.400,246.000 162.028,246.000 157.400 L 246.000 154.000 250.155 154.000 L 254.311 154.000 254.511 155.300 C 254.621 156.015,254.670 157.734,254.618 159.119 C 254.518 161.847,254.991 162.517,256.902 162.353 C 257.396 162.310,258.899 162.304,260.241 162.338 L 262.683 162.400 262.490 164.400 C 262.380 165.551,262.462 166.400,262.684 166.400 C 262.897 166.400,263.055 167.255,263.035 168.300 C 263.006 169.876,263.119 170.191,263.700 170.144 C 264.085 170.114,264.400 170.227,264.400 170.395 C 264.400 170.563,265.785 170.728,267.477 170.760 C 271.241 170.833,270.994 170.560,271.028 174.686 C 271.067 179.482,270.280 179.200,283.614 179.200 C 296.835 179.200,296.000 179.533,296.000 174.269 L 296.000 170.800 299.371 170.800 C 303.824 170.800,304.000 170.618,304.000 166.010 L 304.000 162.477 307.767 162.339 C 312.366 162.169,312.169 162.366,312.339 157.767 L 312.477 154.000 314.939 153.958 C 316.292 153.934,317.871 153.945,318.447 153.982 C 320.213 154.095,320.671 153.215,320.740 149.565 C 320.815 145.597,320.382 146.034,324.312 145.963 C 326.512 145.923,327.811 145.713,328.289 145.319 C 328.969 144.760,328.968 144.745,328.279 144.963 C 327.858 145.096,327.660 145.027,327.803 144.795 C 327.937 144.578,328.285 144.400,328.575 144.400 C 328.965 144.400,329.119 143.540,329.163 141.122 C 329.234 137.186,328.787 137.634,332.712 137.563 C 337.427 137.477,337.493 137.397,337.568 131.700 L 337.600 129.200 341.800 129.200 L 346.000 129.200 346.078 130.900 C 346.120 131.835,346.165 133.500,346.178 134.600 C 346.210 137.529,346.316 137.600,350.624 137.600 L 354.400 137.600 354.462 139.500 C 354.497 140.545,354.544 142.210,354.568 143.200 C 354.636 146.082,354.395 146.000,362.781 146.000 C 369.328 146.000,370.347 145.916,370.561 145.358 C 371.244 143.576,370.796 63.284,370.100 63.017 C 369.468 62.774,296.866 62.671,293.500 62.908 C 292.675 62.966,292.000 62.876,292.000 62.707 C 292.000 62.538,291.550 62.400,291.000 62.400 C 290.450 62.400,290.000 62.555,290.000 62.745 M330.473 171.488 C 330.864 171.959,330.651 172.166,329.900 172.047 C 329.735 172.021,329.625 172.585,329.654 173.300 C 329.690 174.150,329.767 174.305,329.876 173.750 C 330.050 172.860,332.000 170.762,332.000 171.464 C 332.000 171.685,332.270 171.867,332.600 171.867 C 333.321 171.867,333.414 171.214,332.700 171.168 C 332.425 171.150,331.716 171.099,331.124 171.055 C 330.290 170.994,330.144 171.091,330.473 171.488 M367.799 171.135 C 367.689 171.244,367.603 171.528,367.606 171.767 C 367.610 172.036,367.728 172.018,367.919 171.717 C 368.137 171.375,368.599 171.583,369.513 172.438 C 370.955 173.785,371.007 173.766,370.300 172.146 C 369.845 171.102,368.411 170.523,367.799 171.135 M370.302 175.000 C 370.407 175.550,370.562 176.000,370.647 176.000 C 370.731 176.000,370.800 175.550,370.800 175.000 C 370.800 174.450,370.645 174.000,370.455 174.000 C 370.266 174.000,370.197 174.450,370.302 175.000 M229.567 187.700 C 229.030 189.309,229.835 190.163,230.796 189.004 C 231.068 188.677,231.438 188.500,231.618 188.611 C 231.798 188.722,232.045 188.651,232.168 188.452 C 232.290 188.254,231.943 188.006,231.395 187.901 C 230.848 187.797,230.400 187.866,230.400 188.055 C 230.400 188.245,230.209 188.400,229.976 188.400 C 229.743 188.400,229.664 188.220,229.800 188.000 C 229.936 187.780,229.947 187.600,229.824 187.600 C 229.701 187.600,229.585 187.645,229.567 187.700 M268.400 188.026 C 267.447 188.307,267.442 188.322,268.300 188.360 C 268.795 188.382,269.200 188.574,269.200 188.786 C 269.200 188.998,269.548 189.358,269.973 189.585 C 270.655 189.951,270.732 189.874,270.632 188.932 C 270.509 187.781,269.971 187.563,268.400 188.026 M270.501 191.800 C 270.505 192.680,270.587 192.993,270.683 192.495 C 270.779 191.998,270.775 191.278,270.675 190.895 C 270.575 190.513,270.496 190.920,270.501 191.800 M31.144 213.966 C 30.625 214.387,30.129 214.661,30.043 214.575 C 29.750 214.285,30.894 213.200,31.493 213.200 C 31.899 213.200,31.788 213.444,31.144 213.966 M280.750 229.455 C 280.723 229.535,280.678 229.825,280.650 230.100 C 280.623 230.375,280.330 230.602,280.000 230.604 C 279.591 230.607,279.444 230.926,279.539 231.604 C 279.715 232.864,280.000 233.188,280.000 232.129 C 280.000 231.200,281.041 230.155,282.200 229.921 C 282.857 229.789,282.803 229.720,281.900 229.536 C 281.295 229.412,280.778 229.376,280.750 229.455 M318.000 229.617 C 317.280 229.835,317.207 229.931,317.737 229.960 C 318.142 229.982,318.935 230.363,319.498 230.806 C 320.852 231.871,321.228 231.433,319.979 230.245 C 319.228 229.530,318.767 229.384,318.000 229.617 M320.295 232.300 C 320.211 232.465,320.269 233.140,320.424 233.800 C 320.701 234.980,320.706 234.975,320.753 233.500 C 320.798 232.076,320.631 231.638,320.295 232.300 M179.567 237.700 C 179.030 239.309,179.835 240.163,180.796 239.004 C 181.068 238.677,181.438 238.500,181.618 238.611 C 181.798 238.722,182.045 238.651,182.168 238.452 C 182.290 238.254,181.943 238.006,181.395 237.901 C 180.848 237.797,180.400 237.866,180.400 238.055 C 180.400 238.245,180.209 238.400,179.976 238.400 C 179.743 238.400,179.664 238.220,179.800 238.000 C 179.936 237.780,179.947 237.600,179.824 237.600 C 179.701 237.600,179.585 237.645,179.567 237.700 M218.400 238.026 C 217.447 238.307,217.442 238.322,218.300 238.360 C 218.795 238.382,219.200 238.574,219.200 238.786 C 219.200 238.998,219.548 239.358,219.973 239.585 C 220.655 239.951,220.732 239.874,220.632 238.932 C 220.509 237.781,219.971 237.563,218.400 238.026 M220.501 241.800 C 220.505 242.680,220.587 242.993,220.683 242.495 C 220.779 241.998,220.775 241.278,220.675 240.895 C 220.575 240.513,220.496 240.920,220.501 241.800 M79.511 247.300 C 79.695 248.005,80.400 248.292,80.400 247.661 C 80.400 247.475,80.805 247.139,81.300 246.914 C 82.104 246.550,82.047 246.511,80.764 246.553 C 79.605 246.591,79.363 246.735,79.511 247.300 M118.719 246.929 C 119.203 247.145,119.600 247.455,119.600 247.618 C 119.600 247.781,119.850 248.010,120.156 248.128 C 120.542 248.276,120.695 248.050,120.656 247.387 C 120.608 246.565,120.408 246.440,119.219 246.484 C 117.968 246.531,117.921 246.573,118.719 246.929 M120.501 250.200 C 120.505 251.080,120.587 251.393,120.683 250.895 C 120.779 250.398,120.775 249.678,120.675 249.295 C 120.575 248.913,120.496 249.320,120.501 250.200 M130.700 263.265 C 129.799 263.594,129.608 263.896,129.646 264.933 C 129.678 265.785,129.757 265.938,129.889 265.400 C 130.145 264.361,130.806 263.557,131.203 263.802 C 131.375 263.908,131.619 263.726,131.746 263.398 C 131.872 263.069,131.936 262.814,131.887 262.832 C 131.839 262.849,131.305 263.044,130.700 263.265 M168.283 263.473 C 168.394 263.760,168.618 263.913,168.781 263.812 C 168.945 263.710,169.500 264.020,170.015 264.500 C 170.794 265.226,170.905 265.252,170.676 264.654 C 170.524 264.258,170.400 263.790,170.400 263.613 C 170.400 263.436,169.879 263.214,169.241 263.121 C 168.406 262.998,168.139 263.096,168.283 263.473 M30.750 279.455 C 30.723 279.535,30.677 279.825,30.650 280.100 C 30.623 280.375,30.330 280.602,30.000 280.604 C 29.591 280.607,29.444 280.926,29.539 281.604 C 29.715 282.864,30.000 283.188,30.000 282.129 C 30.000 281.200,31.041 280.155,32.200 279.921 C 32.857 279.789,32.803 279.720,31.900 279.536 C 31.295 279.412,30.777 279.376,30.750 279.455 M68.000 279.617 C 67.280 279.835,67.207 279.931,67.737 279.960 C 68.142 279.982,68.935 280.363,69.498 280.806 C 70.852 281.871,71.228 281.433,69.979 280.245 C 69.228 279.530,68.767 279.384,68.000 279.617 M70.295 282.300 C 70.211 282.465,70.269 283.140,70.424 283.800 C 70.701 284.980,70.706 284.975,70.753 283.500 C 70.798 282.076,70.631 281.638,70.295 282.300 M29.538 368.085 C 29.373 368.893,29.557 369.396,30.257 370.053 C 31.447 371.172,31.856 370.833,30.854 369.559 C 30.437 369.030,30.021 368.237,29.928 367.798 C 29.789 367.135,29.723 367.183,29.538 368.085 M79.538 368.085 C 79.373 368.893,79.557 369.396,80.257 370.053 C 81.447 371.172,81.856 370.833,80.854 369.559 C 80.437 369.030,80.021 368.237,79.928 367.798 C 79.789 367.135,79.723 367.183,79.538 368.085 M129.538 368.085 C 129.373 368.893,129.557 369.396,130.257 370.053 C 131.447 371.172,131.856 370.833,130.854 369.559 C 130.437 369.030,130.021 368.237,129.928 367.798 C 129.789 367.135,129.723 367.183,129.538 368.085 M179.538 368.085 C 179.373 368.893,179.557 369.396,180.257 370.053 C 181.447 371.172,181.856 370.833,180.854 369.559 C 180.437 369.030,180.021 368.237,179.928 367.798 C 179.789 367.135,179.723 367.183,179.538 368.085 M229.538 368.085 C 229.373 368.893,229.557 369.396,230.257 370.053 C 231.447 371.172,231.856 370.833,230.854 369.559 C 230.437 369.030,230.021 368.237,229.928 367.798 C 229.789 367.135,229.723 367.183,229.538 368.085 M279.538 368.085 C 279.373 368.893,279.557 369.396,280.257 370.053 C 281.447 371.172,281.856 370.833,280.854 369.559 C 280.437 369.030,280.021 368.237,279.928 367.798 C 279.789 367.135,279.723 367.183,279.538 368.085 M329.538 368.085 C 329.373 368.893,329.557 369.396,330.257 370.053 C 331.447 371.172,331.856 370.833,330.854 369.559 C 330.437 369.030,330.021 368.237,329.928 367.798 C 329.789 367.135,329.723 367.183,329.538 368.085 M70.168 368.940 C 70.029 369.301,69.710 369.478,69.458 369.334 C 69.206 369.190,69.132 369.218,69.294 369.396 C 69.455 369.575,69.275 369.958,68.894 370.248 C 68.512 370.537,68.394 370.780,68.630 370.787 C 69.225 370.805,70.997 368.863,70.678 368.544 C 70.535 368.402,70.306 368.580,70.168 368.940 M120.168 368.940 C 120.029 369.301,119.710 369.478,119.458 369.334 C 119.206 369.190,119.132 369.218,119.294 369.396 C 119.455 369.575,119.275 369.958,118.894 370.248 C 118.512 370.537,118.394 370.780,118.630 370.787 C 119.225 370.805,120.997 368.863,120.678 368.544 C 120.535 368.402,120.306 368.580,120.168 368.940 M170.168 368.940 C 170.029 369.301,169.710 369.478,169.458 369.334 C 169.206 369.190,169.132 369.218,169.294 369.396 C 169.455 369.575,169.275 369.958,168.894 370.248 C 168.512 370.537,168.394 370.780,168.630 370.787 C 169.225 370.805,170.997 368.863,170.678 368.544 C 170.535 368.402,170.306 368.580,170.168 368.940 M220.168 368.940 C 220.029 369.301,219.710 369.478,219.458 369.334 C 219.206 369.190,219.132 369.218,219.294 369.396 C 219.455 369.575,219.275 369.958,218.894 370.248 C 218.512 370.537,218.394 370.780,218.630 370.787 C 219.225 370.805,220.997 368.863,220.678 368.544 C 220.535 368.402,220.306 368.580,220.168 368.940 M270.168 368.940 C 270.029 369.301,269.710 369.478,269.458 369.334 C 269.206 369.190,269.132 369.218,269.294 369.396 C 269.455 369.575,269.275 369.958,268.894 370.248 C 268.512 370.537,268.394 370.780,268.630 370.787 C 269.225 370.805,270.997 368.863,270.678 368.544 C 270.535 368.402,270.306 368.580,270.168 368.940 M320.168 368.940 C 320.029 369.301,319.710 369.478,319.458 369.334 C 319.206 369.190,319.132 369.218,319.294 369.396 C 319.455 369.575,319.275 369.958,318.894 370.248 C 318.512 370.537,318.394 370.780,318.630 370.787 C 319.225 370.805,320.997 368.863,320.678 368.544 C 320.535 368.402,320.306 368.580,320.168 368.940 M370.168 368.940 C 370.029 369.301,369.710 369.478,369.458 369.334 C 369.206 369.190,369.132 369.218,369.294 369.396 C 369.455 369.575,369.275 369.958,368.894 370.248 C 368.512 370.537,368.394 370.780,368.630 370.787 C 369.225 370.805,370.997 368.863,370.678 368.544 C 370.535 368.402,370.306 368.580,370.168 368.940 M32.159 370.467 C 32.045 370.650,32.593 370.800,33.376 370.800 C 34.159 370.800,34.800 370.730,34.800 370.645 C 34.800 370.317,32.354 370.151,32.159 370.467 M82.159 370.467 C 82.045 370.650,82.593 370.800,83.376 370.800 C 84.159 370.800,84.800 370.730,84.800 370.645 C 84.800 370.317,82.354 370.151,82.159 370.467 M132.159 370.467 C 132.045 370.650,132.593 370.800,133.376 370.800 C 134.159 370.800,134.800 370.730,134.800 370.645 C 134.800 370.317,132.354 370.151,132.159 370.467 M182.159 370.467 C 182.045 370.650,182.593 370.800,183.376 370.800 C 184.159 370.800,184.800 370.730,184.800 370.645 C 184.800 370.317,182.354 370.151,182.159 370.467 M232.159 370.467 C 232.045 370.650,232.593 370.800,233.376 370.800 C 234.159 370.800,234.800 370.730,234.800 370.645 C 234.800 370.317,232.354 370.151,232.159 370.467 M282.159 370.467 C 282.045 370.650,282.593 370.800,283.376 370.800 C 284.159 370.800,284.800 370.730,284.800 370.645 C 284.800 370.317,282.354 370.151,282.159 370.467 M332.159 370.467 C 332.045 370.650,332.593 370.800,333.376 370.800 C 334.159 370.800,334.800 370.730,334.800 370.645 C 334.800 370.317,332.354 370.151,332.159 370.467 " stroke="none" fill="#3c8c3c" fill-rule="evenodd"/><path id="path2" d="M122.082 129.496 C 123.558 129.573,126.078 129.573,127.682 129.497 C 129.287 129.421,128.080 129.358,125.000 129.358 C 121.920 129.357,120.607 129.419,122.082 129.496 M343.500 171.099 C 347.075 171.166,352.925 171.166,356.500 171.099 C 360.075 171.033,357.150 170.979,350.000 170.979 C 342.850 170.979,339.925 171.033,343.500 171.099 " stroke="none" fill="#44a458" fill-rule="evenodd"/><path id="path3" d="M122.082 129.496 C 123.558 129.573,126.078 129.573,127.682 129.497 C 129.287 129.421,128.080 129.358,125.000 129.358 C 121.920 129.357,120.607 129.419,122.082 129.496 M343.500 171.099 C 347.075 171.166,352.925 171.166,356.500 171.099 C 360.075 171.033,357.150 170.979,350.000 170.979 C 342.850 170.979,339.925 171.033,343.500 171.099 " stroke="none" fill="#44a458" fill-rule="evenodd"/><path id="path4" d="M122.082 129.496 C 123.558 129.573,126.078 129.573,127.682 129.497 C 129.287 129.421,128.080 129.358,125.000 129.358 C 121.920 129.357,120.607 129.419,122.082 129.496 M343.500 171.099 C 347.075 171.166,352.925 171.166,356.500 171.099 C 360.075 171.033,357.150 170.979,350.000 170.979 C 342.850 170.979,339.925 171.033,343.500 171.099 " stroke="none" fill="#44a458" fill-rule="evenodd"/></g></svg>