<svg xmlns="http://www.w3.org/2000/svg" xmlns:xlink="http://www.w3.org/1999/xlink" id="svg" version="1.1" viewBox="95.56 52.21 214.72 82.19"><g id="svgg"><path id="path0" d="M188.597 52.392 C 188.416 52.493,188.268 52.735,188.268 52.930 C 188.268 53.422,187.722 53.545,186.149 53.410 C 184.392 53.259,183.689 53.453,183.611 54.111 C 183.553 54.601,183.529 54.609,181.922 54.662 C 180.297 54.716,180.291 54.718,180.232 55.232 C 180.176 55.714,180.114 55.748,179.282 55.748 C 178.242 55.748,177.656 56.092,177.794 56.621 C 177.874 56.928,177.800 56.980,177.333 56.948 C 176.544 56.893,175.727 57.219,175.593 57.641 C 175.531 57.839,175.323 58.001,175.132 58.001 C 174.461 58.001,174.191 58.223,174.191 58.772 C 174.191 59.238,174.118 59.315,173.674 59.317 C 172.786 59.322,172.291 59.538,172.116 59.998 C 171.999 60.305,171.799 60.441,171.464 60.441 C 171.103 60.441,170.934 60.574,170.797 60.965 C 170.687 61.282,170.395 61.572,170.056 61.699 C 169.640 61.856,169.498 62.031,169.498 62.383 C 169.498 62.760,169.393 62.868,168.982 62.916 C 168.580 62.962,168.453 63.087,168.407 63.480 C 168.362 63.870,168.234 63.998,167.844 64.043 C 167.427 64.091,167.329 64.207,167.280 64.711 C 167.236 65.175,167.132 65.321,166.849 65.321 C 166.401 65.321,165.941 66.293,166.028 67.059 C 166.062 67.358,166.010 67.528,165.904 67.463 C 165.454 67.185,164.805 67.577,164.805 68.128 C 164.805 68.585,164.721 68.685,164.289 68.735 C 163.795 68.791,163.771 68.843,163.717 69.961 L 163.661 71.127 163.107 71.017 L 162.553 70.906 162.553 72.137 L 162.553 73.369 161.943 73.428 L 161.333 73.487 161.336 74.644 C 161.338 75.280,161.270 75.758,161.184 75.705 C 160.453 75.254,160.113 75.828,160.113 77.513 L 160.113 79.187 159.596 79.246 L 159.080 79.305 159.028 81.605 L 158.975 83.904 158.417 83.904 L 157.860 83.904 157.860 93.200 L 157.860 102.496 158.418 102.608 L 158.975 102.719 159.028 104.997 L 159.080 107.274 159.596 107.333 L 160.113 107.392 160.113 109.074 L 160.113 110.756 160.676 110.868 C 161.011 110.935,161.246 111.104,161.258 111.286 C 161.268 111.454,161.299 112.108,161.326 112.740 C 161.384 114.102,161.487 114.313,162.095 114.313 C 162.500 114.313,162.553 114.395,162.553 115.022 C 162.553 115.795,162.979 116.565,163.408 116.565 C 163.593 116.565,163.679 116.775,163.679 117.222 C 163.679 117.824,163.725 117.879,164.233 117.879 C 164.775 117.879,164.788 117.902,164.843 118.951 C 164.893 119.912,164.946 120.033,165.358 120.130 C 165.677 120.205,165.865 120.421,165.973 120.841 C 166.105 121.351,166.217 121.445,166.688 121.445 C 167.182 121.445,167.245 121.509,167.245 122.008 C 167.245 122.509,167.308 122.572,167.809 122.572 C 168.309 122.572,168.372 122.634,168.372 123.135 C 168.372 123.635,168.434 123.698,168.935 123.698 C 169.436 123.698,169.498 123.760,169.498 124.266 C 169.498 124.742,169.586 124.851,170.041 124.942 C 170.453 125.025,170.611 125.182,170.694 125.594 C 170.784 126.047,170.895 126.138,171.358 126.138 C 171.824 126.138,171.923 126.221,171.973 126.654 C 172.019 127.060,172.143 127.183,172.548 127.230 C 172.890 127.269,173.064 127.399,173.064 127.615 C 173.064 128.166,173.474 128.390,174.484 128.390 C 175.426 128.390,175.450 128.404,175.359 128.880 C 175.258 129.409,175.537 129.697,176.154 129.701 C 176.357 129.703,176.695 129.921,176.906 130.185 C 177.169 130.515,177.539 130.700,178.081 130.772 C 178.671 130.852,178.905 130.980,178.997 131.277 C 179.172 131.838,179.413 131.951,180.449 131.954 C 181.211 131.956,181.375 132.020,181.460 132.347 C 181.609 132.913,182.251 133.083,184.245 133.083 L 186.016 133.083 186.016 133.624 C 186.016 134.401,185.896 134.392,195.548 134.394 C 204.844 134.397,205.440 134.342,205.670 133.461 C 205.760 133.116,205.923 133.083,207.530 133.083 L 209.291 133.083 209.291 132.520 C 209.291 131.958,209.293 131.957,210.405 131.957 C 211.748 131.957,212.485 131.706,212.616 131.204 C 212.684 130.946,212.873 130.831,213.227 130.831 C 214.028 130.831,214.896 130.460,215.021 130.064 C 215.084 129.866,215.292 129.704,215.483 129.704 C 216.153 129.704,216.424 129.483,216.424 128.933 C 216.424 128.467,216.497 128.390,216.940 128.388 C 217.829 128.383,218.324 128.167,218.499 127.708 C 218.616 127.400,218.815 127.264,219.151 127.264 C 219.515 127.264,219.681 127.131,219.824 126.722 C 219.957 126.339,220.174 126.148,220.565 126.070 C 220.992 125.985,221.117 125.858,221.117 125.509 C 221.117 125.159,221.242 125.034,221.680 124.946 C 222.153 124.851,222.243 124.745,222.243 124.278 C 222.243 123.812,222.326 123.713,222.759 123.663 C 223.161 123.617,223.288 123.492,223.334 123.099 C 223.379 122.711,223.507 122.581,223.891 122.536 C 224.271 122.492,224.431 122.333,224.562 121.872 C 224.657 121.539,224.897 121.215,225.095 121.152 C 225.510 121.020,225.809 120.352,225.809 119.556 C 225.809 119.069,225.875 119.005,226.373 119.005 C 226.888 119.005,226.936 118.951,226.936 118.369 C 226.936 117.855,227.022 117.710,227.383 117.620 C 227.917 117.486,228.056 117.049,228.059 115.498 L 228.062 114.336 228.672 114.277 L 229.282 114.219 229.341 112.811 C 229.373 112.037,229.348 111.052,229.285 110.623 L 229.170 109.842 228.069 109.715 C 227.132 109.606,226.952 109.523,226.860 109.158 C 226.744 108.695,226.166 108.504,225.106 108.578 C 224.556 108.617,224.496 108.570,224.496 108.108 C 224.496 107.499,224.226 107.367,222.979 107.367 C 222.177 107.367,222.055 107.317,222.055 106.987 C 222.055 106.438,221.252 106.198,219.665 106.276 C 218.001 106.357,217.636 106.637,217.662 107.814 C 217.677 108.533,217.621 108.643,217.154 108.819 C 216.705 108.989,216.612 109.153,216.504 109.965 C 216.392 110.811,216.325 110.919,215.885 110.970 C 215.418 111.025,215.389 111.090,215.336 112.214 L 215.279 113.400 214.726 113.278 C 214.210 113.165,214.172 113.195,214.172 113.707 C 214.172 114.168,214.072 114.287,213.562 114.432 C 213.096 114.565,212.938 114.724,212.893 115.105 C 212.849 115.489,212.718 115.617,212.330 115.662 C 211.940 115.707,211.812 115.835,211.767 116.225 C 211.722 116.615,211.594 116.743,211.204 116.788 C 210.807 116.834,210.679 116.967,210.605 117.410 C 210.530 117.860,210.418 117.973,210.042 117.973 C 209.670 117.973,209.561 118.079,209.514 118.489 C 209.468 118.884,209.354 119.005,209.025 119.005 C 208.209 119.005,207.416 119.402,207.299 119.869 C 207.210 120.224,207.061 120.320,206.596 120.322 C 205.635 120.326,205.144 120.531,204.964 121.002 C 204.813 121.400,204.680 121.445,203.677 121.445 C 202.330 121.445,201.593 121.696,201.462 122.198 C 201.408 122.404,201.226 122.578,201.057 122.586 C 195.522 122.856,190.534 122.631,190.333 122.103 C 190.153 121.629,189.496 121.445,187.976 121.445 C 187.028 121.445,186.976 121.420,186.920 120.929 C 186.864 120.440,186.803 120.410,185.781 120.357 C 184.772 120.304,184.702 120.270,184.702 119.835 C 184.702 119.293,184.400 119.141,183.278 119.116 C 182.518 119.100,182.463 119.063,182.411 118.536 C 182.363 118.051,182.285 117.978,181.842 118.008 C 181.410 118.037,181.303 117.948,181.174 117.445 C 181.056 116.988,180.903 116.833,180.526 116.788 C 180.148 116.744,180.018 116.612,179.974 116.225 C 179.926 115.811,179.809 115.710,179.323 115.663 C 178.889 115.621,178.702 115.491,178.624 115.179 C 178.565 114.944,178.304 114.655,178.043 114.536 C 177.761 114.408,177.569 114.165,177.569 113.936 C 177.569 113.706,177.393 113.485,177.126 113.384 C 176.842 113.276,176.642 113.009,176.568 112.638 C 176.469 112.145,176.369 112.060,175.885 112.060 C 175.379 112.060,175.317 111.999,175.317 111.497 C 175.317 110.998,175.253 110.934,174.763 110.934 C 174.214 110.934,174.208 110.922,174.153 109.761 C 174.100 108.649,174.072 108.588,173.627 108.588 C 173.179 108.588,173.154 108.527,173.053 107.200 C 172.963 106.008,172.881 105.757,172.468 105.417 C 172.046 105.069,171.975 104.834,171.874 103.463 C 171.743 101.659,171.697 101.549,171.082 101.549 L 170.624 101.549 170.624 93.848 L 170.624 86.147 171.070 85.978 C 171.684 85.744,171.938 84.886,171.938 83.044 L 171.938 81.489 172.454 81.430 C 172.941 81.374,172.974 81.311,173.026 80.313 C 173.079 79.308,173.110 79.250,173.636 79.144 C 174.177 79.036,174.191 79.005,174.191 77.902 L 174.191 76.771 174.754 76.771 C 175.272 76.771,175.317 76.719,175.317 76.115 C 175.317 75.584,175.389 75.458,175.690 75.458 C 176.076 75.458,176.631 74.448,176.631 73.745 C 176.631 73.531,176.763 73.393,176.969 73.393 C 177.427 73.393,177.757 73.029,177.757 72.523 C 177.757 72.205,177.882 72.089,178.273 72.044 C 178.675 71.998,178.802 71.873,178.848 71.480 C 178.893 71.090,179.021 70.962,179.411 70.917 C 179.804 70.872,179.929 70.745,179.975 70.343 C 180.022 69.932,180.131 69.826,180.507 69.826 C 180.859 69.826,181.034 69.684,181.190 69.272 C 181.335 68.888,181.546 68.701,181.877 68.662 C 182.266 68.617,182.367 68.491,182.415 67.996 L 182.473 67.386 183.588 67.386 C 184.701 67.386,184.702 67.386,184.702 66.823 L 184.702 66.260 185.833 66.260 C 186.939 66.260,186.966 66.248,187.076 65.697 L 187.189 65.134 188.937 65.134 C 190.943 65.134,191.647 64.940,191.647 64.388 C 191.647 64.019,191.757 64.008,195.307 64.008 C 198.857 64.008,198.968 64.019,198.968 64.388 C 198.968 64.940,199.672 65.134,201.678 65.134 L 203.426 65.134 203.538 65.697 C 203.648 66.247,203.677 66.260,204.769 66.260 C 205.850 66.260,205.890 66.277,205.947 66.776 C 206.004 67.270,206.057 67.295,207.160 67.348 L 208.313 67.403 208.286 68.005 C 208.262 68.551,208.315 68.612,208.858 68.664 C 209.350 68.712,209.467 68.812,209.515 69.227 C 209.560 69.618,209.688 69.746,210.078 69.791 C 210.468 69.836,210.596 69.964,210.641 70.354 C 210.689 70.768,210.806 70.869,211.290 70.916 C 211.696 70.956,211.912 71.092,211.980 71.352 C 212.035 71.561,212.254 71.777,212.468 71.833 C 212.721 71.899,212.858 72.088,212.858 72.369 C 212.858 72.897,213.319 73.393,213.810 73.393 C 214.087 73.393,214.172 73.525,214.172 73.956 C 214.172 74.451,214.237 74.519,214.711 74.519 C 215.216 74.519,215.257 74.578,215.375 75.465 C 215.550 76.784,215.482 76.771,222.730 76.771 C 228.537 76.771,229.022 76.747,229.147 76.443 C 229.221 76.262,229.282 73.665,229.282 70.671 L 229.282 65.228 226.338 65.176 L 223.393 65.124 223.334 64.613 C 223.289 64.216,223.163 64.088,222.771 64.043 C 222.380 63.998,222.253 63.870,222.208 63.480 C 222.162 63.087,222.035 62.962,221.633 62.916 C 221.222 62.868,221.117 62.760,221.117 62.383 C 221.117 62.031,220.974 61.856,220.558 61.699 C 220.220 61.572,219.928 61.282,219.817 60.965 C 219.682 60.576,219.511 60.441,219.156 60.441 C 218.776 60.441,218.677 60.348,218.677 59.992 C 218.677 59.461,218.372 59.315,217.265 59.315 C 216.480 59.315,216.446 59.291,216.389 58.705 C 216.341 58.210,216.240 58.084,215.852 58.039 C 215.519 58.000,215.309 57.813,215.161 57.421 C 214.958 56.882,214.907 56.861,213.950 56.914 L 212.952 56.969 212.893 56.359 L 212.834 55.748 211.732 55.748 C 210.670 55.748,210.628 55.730,210.571 55.232 C 210.513 54.733,210.470 54.714,209.256 54.661 C 208.125 54.611,207.996 54.565,207.943 54.192 C 207.852 53.555,206.857 53.290,205.039 53.419 C 203.509 53.527,203.508 53.527,203.256 53.007 C 203.115 52.718,202.782 52.429,202.503 52.355 C 201.715 52.147,188.974 52.180,188.597 52.392 M265.395 52.403 C 265.127 52.495,264.810 52.782,264.692 53.041 C 264.484 53.497,264.436 53.508,263.116 53.400 C 261.185 53.241,260.111 53.468,259.972 54.063 C 259.872 54.488,259.763 54.533,258.697 54.584 C 257.549 54.639,257.532 54.648,257.532 55.185 C 257.532 55.723,257.515 55.731,256.359 55.786 C 255.234 55.840,255.183 55.864,255.126 56.359 C 255.093 56.642,254.967 56.884,254.844 56.895 C 254.722 56.906,254.242 56.927,253.778 56.942 C 252.970 56.967,252.930 56.995,252.875 57.572 C 252.822 58.115,252.766 58.165,252.311 58.081 C 251.721 57.970,250.587 58.595,250.587 59.031 C 250.587 59.230,250.391 59.315,249.930 59.315 C 249.325 59.315,249.273 59.360,249.273 59.878 C 249.273 60.379,249.210 60.441,248.710 60.441 C 248.209 60.441,248.146 60.504,248.146 61.004 C 248.146 61.554,247.962 61.673,247.255 61.581 C 247.105 61.562,247.020 61.795,247.020 62.227 C 247.020 62.654,246.947 62.858,246.822 62.781 C 246.363 62.497,245.729 62.868,245.765 63.398 C 245.796 63.851,245.726 63.921,245.190 63.972 C 244.654 64.024,244.580 64.098,244.580 64.583 C 244.580 65.070,244.515 65.134,244.017 65.134 C 243.499 65.134,243.454 65.186,243.454 65.786 C 243.454 66.407,243.428 66.433,242.904 66.328 C 242.391 66.226,242.350 66.261,242.294 66.849 C 242.243 67.378,242.151 67.490,241.724 67.539 C 241.312 67.586,241.191 67.718,241.096 68.225 C 241.022 68.621,240.847 68.888,240.623 68.946 C 240.219 69.052,239.887 69.784,239.887 70.568 C 239.887 70.938,239.775 71.126,239.514 71.194 C 239.093 71.304,238.761 72.026,238.761 72.829 C 238.761 73.277,238.674 73.378,238.245 73.427 C 237.823 73.476,237.720 73.589,237.682 74.050 C 237.438 76.968,237.440 76.959,236.978 76.959 C 236.445 76.959,236.309 77.470,236.400 79.132 C 236.462 80.268,236.460 80.274,235.876 80.446 L 235.289 80.619 235.237 83.482 L 235.185 86.344 234.724 86.344 C 234.060 86.344,234.052 86.450,234.110 93.665 L 234.162 100.141 234.679 100.200 L 235.195 100.260 235.195 103.067 L 235.195 105.874 235.711 106.096 C 235.995 106.217,236.262 106.342,236.305 106.373 C 236.348 106.404,236.391 107.237,236.399 108.226 C 236.415 110.018,236.416 110.023,237.027 110.525 C 237.588 110.987,237.638 111.116,237.637 112.107 C 237.635 113.181,237.637 113.186,238.198 113.186 C 238.760 113.186,238.761 113.188,238.761 114.298 C 238.761 115.380,238.776 115.412,239.324 115.533 C 239.845 115.647,239.887 115.718,239.887 116.473 C 239.887 117.337,240.239 117.879,240.800 117.879 C 241.028 117.879,241.120 118.029,241.115 118.391 C 241.109 118.814,241.204 118.920,241.671 119.002 C 242.167 119.091,242.246 119.195,242.338 119.882 C 242.450 120.716,242.782 121.258,243.183 121.258 C 243.324 121.258,243.455 121.519,243.489 121.868 C 243.537 122.372,243.635 122.488,244.052 122.536 C 244.443 122.581,244.571 122.709,244.616 123.099 C 244.661 123.489,244.789 123.617,245.178 123.662 C 245.557 123.706,245.710 123.852,245.798 124.251 C 245.885 124.648,246.053 124.809,246.467 124.892 C 246.896 124.978,247.020 125.104,247.020 125.456 C 247.020 125.913,247.327 126.138,247.952 126.138 C 248.138 126.138,248.334 126.306,248.388 126.511 C 248.499 126.937,249.222 127.264,250.051 127.264 C 250.582 127.264,250.609 127.299,250.493 127.827 C 250.373 128.371,250.392 128.390,251.041 128.390 C 251.656 128.390,251.713 128.436,251.713 128.932 C 251.713 129.533,252.041 129.697,253.249 129.702 C 253.863 129.704,253.947 129.762,254.000 130.221 C 254.057 130.715,254.108 130.739,255.232 130.793 C 256.394 130.848,256.405 130.854,256.405 131.403 C 256.405 131.954,256.411 131.957,257.519 131.957 C 258.595 131.957,258.635 131.975,258.692 132.473 L 258.752 132.989 260.466 133.043 C 262.180 133.097,262.180 133.097,262.286 133.626 C 262.436 134.374,262.749 134.397,272.774 134.397 C 281.852 134.397,282.121 134.372,282.121 133.546 C 282.121 133.088,282.141 133.083,283.798 133.083 C 285.678 133.083,286.429 132.879,286.572 132.330 C 286.654 132.018,286.830 131.957,287.643 131.957 C 288.663 131.957,289.066 131.733,289.066 131.168 C 289.066 130.939,289.208 130.831,289.507 130.831 C 290.235 130.831,291.108 130.447,291.226 130.075 C 291.297 129.851,291.551 129.706,291.938 129.669 C 292.462 129.618,292.546 129.534,292.597 129.010 C 292.654 128.418,292.672 128.408,293.723 128.353 C 294.727 128.300,294.795 128.266,294.850 127.791 C 294.897 127.376,295.014 127.276,295.506 127.228 C 296.003 127.180,296.115 127.082,296.165 126.654 C 296.214 126.222,296.313 126.138,296.775 126.138 C 297.261 126.138,297.325 126.073,297.325 125.575 C 297.325 125.074,297.388 125.012,297.888 125.012 C 298.407 125.012,298.451 124.960,298.451 124.355 C 298.451 123.729,298.483 123.698,299.108 123.698 C 299.713 123.698,299.765 123.653,299.765 123.135 C 299.765 122.634,299.828 122.572,300.328 122.572 C 300.829 122.572,300.892 122.509,300.892 122.008 C 300.892 121.508,300.954 121.445,301.455 121.445 C 301.956 121.445,302.018 121.383,302.018 120.878 C 302.018 120.397,302.104 120.292,302.581 120.197 C 303.055 120.102,303.144 119.996,303.144 119.527 C 303.144 119.124,303.250 118.942,303.527 118.870 C 303.972 118.753,304.458 117.911,304.458 117.255 C 304.458 116.899,304.581 116.775,305.021 116.687 C 305.571 116.577,305.584 116.548,305.584 115.456 C 305.584 114.375,305.602 114.335,306.100 114.278 C 306.588 114.222,306.620 114.159,306.672 113.161 C 306.725 112.157,306.756 112.098,307.282 111.993 L 307.837 111.882 307.837 110.188 L 307.837 108.494 308.380 108.494 C 309.093 108.494,309.151 108.294,309.151 105.850 C 309.151 104.002,309.184 103.801,309.489 103.801 C 310.274 103.801,310.277 103.765,310.277 93.546 C 310.277 83.446,310.231 82.778,309.531 82.778 C 309.181 82.778,309.150 82.656,309.140 81.229 C 309.123 78.803,308.968 78.191,308.351 78.120 C 307.837 78.060,307.837 78.060,307.837 76.515 C 307.837 74.920,307.678 74.519,307.048 74.519 C 306.774 74.519,306.710 74.363,306.710 73.690 C 306.710 72.571,306.565 72.267,306.033 72.267 C 305.662 72.267,305.584 72.172,305.584 71.716 C 305.584 70.907,305.255 70.179,304.842 70.071 C 304.598 70.007,304.460 69.781,304.422 69.385 C 304.372 68.870,304.286 68.786,303.754 68.735 C 303.186 68.680,303.144 68.629,303.144 67.979 C 303.144 67.224,302.716 66.448,302.301 66.448 C 302.146 66.448,302.018 66.203,301.983 65.838 C 301.934 65.329,301.838 65.218,301.408 65.168 C 300.975 65.118,300.892 65.019,300.892 64.558 C 300.892 64.074,300.825 64.008,300.341 64.008 C 299.880 64.008,299.781 63.924,299.731 63.491 C 299.685 63.093,299.532 62.934,299.061 62.796 C 298.554 62.646,298.451 62.524,298.451 62.068 C 298.451 61.562,298.409 61.529,297.900 61.631 C 297.389 61.733,297.344 61.697,297.290 61.138 C 297.239 60.614,297.154 60.527,296.640 60.478 C 296.244 60.439,296.018 60.301,295.955 60.057 C 295.847 59.646,295.119 59.315,294.322 59.315 C 293.851 59.315,293.775 59.238,293.724 58.705 C 293.675 58.202,293.577 58.085,293.166 58.037 C 292.828 57.998,292.633 57.840,292.559 57.545 C 292.451 57.116,291.498 56.742,291.116 56.978 C 290.828 57.156,290.221 56.704,290.159 56.265 C 290.105 55.891,289.975 55.836,289.031 55.786 C 288.027 55.734,287.960 55.700,287.905 55.223 C 287.846 54.717,287.841 54.716,286.110 54.662 L 284.374 54.608 284.374 54.061 C 284.374 53.383,283.679 53.198,281.868 53.392 C 280.305 53.560,279.681 53.400,279.681 52.831 C 279.681 52.579,279.542 52.353,279.352 52.295 C 278.796 52.125,265.915 52.225,265.395 52.403 M96.546 53.442 C 95.838 53.509,95.758 53.570,95.663 54.116 C 95.529 54.880,95.523 64.367,95.656 64.805 C 95.746 65.103,96.083 65.134,99.215 65.134 L 102.675 65.134 102.675 93.853 L 102.675 122.572 100.188 122.592 C 98.820 122.603,97.236 122.624,96.668 122.639 L 95.636 122.665 95.636 127.827 L 95.636 132.989 124.403 133.037 L 153.170 133.084 153.122 121.399 L 153.074 109.714 147.067 109.668 C 143.763 109.643,140.870 109.666,140.638 109.719 L 140.216 109.815 140.216 116.193 L 140.216 122.572 127.921 122.572 L 115.626 122.572 115.626 110.277 L 115.626 97.982 126.701 97.982 L 137.776 97.982 137.776 92.726 L 137.776 87.471 126.701 87.471 L 115.626 87.471 115.626 76.302 L 115.626 65.134 127.921 65.134 L 140.216 65.134 140.216 71.494 L 140.216 77.854 140.638 77.967 C 141.599 78.225,152.737 78.096,152.962 77.825 C 153.219 77.516,153.175 53.816,152.917 53.558 C 152.766 53.407,98.116 53.295,96.546 53.442 M275.176 64.388 C 275.176 64.946,275.884 65.134,277.991 65.134 L 279.844 65.134 279.903 65.650 C 279.960 66.144,280.013 66.169,281.116 66.221 C 282.074 66.267,282.286 66.339,282.365 66.642 C 282.473 67.055,283.200 67.386,283.998 67.386 C 284.446 67.386,284.546 67.473,284.596 67.902 C 284.650 68.375,284.746 68.433,285.734 68.590 C 286.755 68.752,286.814 68.790,286.814 69.294 C 286.814 69.758,286.885 69.826,287.364 69.826 C 287.826 69.826,287.925 69.910,287.974 70.343 C 288.024 70.773,288.136 70.869,288.644 70.918 C 289.180 70.969,289.254 71.043,289.254 71.528 C 289.254 72.015,289.319 72.079,289.817 72.079 C 290.319 72.079,290.380 72.141,290.380 72.647 C 290.380 73.127,290.466 73.232,290.943 73.327 C 291.374 73.413,291.506 73.542,291.506 73.873 C 291.506 74.581,291.860 75.299,292.259 75.404 C 292.465 75.457,292.633 75.653,292.633 75.839 C 292.633 76.454,292.855 76.771,293.286 76.771 C 293.724 76.771,293.947 77.321,293.947 78.400 C 293.947 78.738,294.093 78.907,294.510 79.052 C 295.050 79.240,295.073 79.294,295.073 80.356 C 295.073 81.459,295.075 81.464,295.629 81.464 L 296.185 81.464 296.239 83.200 L 296.293 84.937 296.856 85.031 L 297.419 85.124 297.419 93.336 L 297.419 101.549 297.003 101.549 C 296.402 101.549,296.199 102.088,296.199 103.682 C 296.199 104.938,296.157 105.103,295.813 105.212 C 295.288 105.379,295.073 106.036,295.073 107.469 L 295.073 108.672 294.523 108.562 C 294.010 108.459,293.969 108.494,293.913 109.083 C 293.871 109.522,293.724 109.770,293.430 109.899 C 292.993 110.091,292.617 110.941,292.687 111.584 C 292.716 111.860,292.584 111.979,292.163 112.055 C 291.727 112.133,291.587 112.267,291.543 112.650 C 291.499 113.027,291.355 113.170,290.933 113.254 C 290.471 113.347,290.380 113.455,290.380 113.920 C 290.380 114.311,290.269 114.510,290.003 114.595 C 289.795 114.661,289.503 114.951,289.353 115.241 C 289.204 115.530,288.903 115.813,288.684 115.870 C 288.466 115.927,288.242 116.149,288.186 116.363 C 288.112 116.645,287.933 116.753,287.538 116.753 C 287.084 116.753,286.973 116.846,286.881 117.305 C 286.797 117.728,286.654 117.872,286.276 117.915 C 285.877 117.962,285.770 118.084,285.725 118.549 C 285.675 119.056,285.608 119.117,285.162 119.058 C 284.567 118.978,283.435 119.619,283.435 120.035 C 283.435 120.234,283.241 120.319,282.790 120.319 C 281.835 120.319,281.183 120.622,281.183 121.065 C 281.183 121.408,281.062 121.445,279.975 121.445 C 278.543 121.445,277.804 121.687,277.670 122.198 C 277.596 122.481,277.406 122.575,276.890 122.586 C 268.030 122.778,267.005 122.717,266.749 121.984 C 266.562 121.448,266.553 121.445,264.968 121.445 L 263.375 121.445 263.316 120.929 C 263.259 120.434,263.208 120.411,262.084 120.357 C 260.932 120.302,260.910 120.291,260.910 119.767 C 260.910 119.230,260.636 119.005,259.978 119.005 C 259.792 119.005,259.596 118.837,259.543 118.632 C 259.433 118.212,258.797 117.912,258.095 117.950 C 257.711 117.970,257.608 117.871,257.532 117.411 C 257.453 116.935,257.342 116.837,256.828 116.788 C 256.291 116.736,256.218 116.662,256.218 116.178 C 256.218 115.690,256.152 115.626,255.655 115.626 C 255.157 115.626,255.092 115.562,255.092 115.078 C 255.092 114.624,254.997 114.509,254.540 114.409 C 254.119 114.316,253.974 114.168,253.930 113.784 C 253.881 113.363,253.786 113.286,253.355 113.315 C 252.899 113.347,252.839 113.285,252.839 112.790 C 252.839 112.040,252.380 111.193,251.908 111.069 C 251.626 110.995,251.525 110.815,251.525 110.384 C 251.525 109.883,251.443 109.782,250.962 109.686 C 250.413 109.576,250.399 109.545,250.399 108.470 C 250.399 107.370,250.398 107.367,249.836 107.367 L 249.273 107.367 249.273 105.756 L 249.273 104.144 248.710 103.931 L 248.146 103.719 248.146 101.777 C 248.146 99.620,247.983 99.108,247.295 99.108 L 246.832 99.108 246.832 93.871 L 246.832 88.634 247.368 88.447 C 248.001 88.226,248.141 87.656,248.144 85.295 C 248.146 83.883,248.177 83.763,248.589 83.575 C 249.078 83.353,249.273 82.702,249.273 81.294 C 249.273 80.495,249.321 80.402,249.836 80.208 C 250.368 80.007,250.399 79.938,250.399 78.959 C 250.399 77.968,250.421 77.920,250.915 77.863 C 251.404 77.807,251.434 77.746,251.488 76.725 C 251.542 75.677,251.559 75.645,252.078 75.645 C 252.612 75.645,252.839 75.370,252.839 74.721 C 252.839 74.540,253.050 74.295,253.308 74.178 C 253.566 74.060,253.778 73.838,253.778 73.683 C 253.778 73.529,254.031 73.271,254.341 73.111 C 254.675 72.938,254.904 72.671,254.904 72.453 C 254.904 72.214,255.074 72.043,255.392 71.964 C 255.701 71.886,255.948 71.645,256.067 71.303 C 256.186 70.962,256.387 70.765,256.616 70.765 C 256.814 70.765,257.066 70.569,257.175 70.330 C 257.283 70.091,257.641 69.817,257.968 69.720 C 258.362 69.604,258.583 69.409,258.621 69.144 C 258.660 68.871,258.854 68.708,259.231 68.632 C 259.695 68.540,259.784 68.431,259.784 67.963 C 259.784 67.415,259.804 67.404,260.863 67.349 C 261.885 67.295,261.946 67.265,262.002 66.776 C 262.060 66.273,262.091 66.260,263.269 66.260 L 264.477 66.260 264.477 65.697 L 264.477 65.134 266.526 65.134 C 268.901 65.134,269.169 65.065,269.169 64.457 L 269.169 64.008 272.173 64.008 C 275.063 64.008,275.176 64.022,275.176 64.388 " stroke="none" fill="#343434" fill-rule="evenodd"/><path id="path1" d="M199.953 52.311 C 200.134 52.359,200.429 52.359,200.610 52.311 C 200.791 52.264,200.643 52.226,200.282 52.226 C 199.920 52.226,199.772 52.264,199.953 52.311 M267.811 52.315 C 268.044 52.360,268.382 52.358,268.562 52.311 C 268.741 52.264,268.550 52.227,268.137 52.229 C 267.724 52.231,267.577 52.270,267.811 52.315 M186.629 53.443 C 186.914 53.486,187.336 53.485,187.567 53.440 C 187.798 53.396,187.565 53.361,187.048 53.362 C 186.532 53.363,186.343 53.400,186.629 53.443 M203.801 53.441 C 204.033 53.486,204.413 53.486,204.646 53.441 C 204.878 53.396,204.688 53.359,204.223 53.359 C 203.759 53.359,203.569 53.396,203.801 53.441 M263.585 53.438 C 263.766 53.485,264.061 53.485,264.242 53.438 C 264.423 53.390,264.275 53.352,263.914 53.352 C 263.552 53.352,263.405 53.390,263.585 53.438 M280.573 53.441 C 280.805 53.486,281.185 53.486,281.417 53.441 C 281.649 53.396,281.459 53.359,280.995 53.359 C 280.530 53.359,280.340 53.396,280.573 53.441 M297.376 97.231 C 297.376 97.696,297.413 97.886,297.458 97.654 C 297.502 97.421,297.502 97.041,297.458 96.809 C 297.413 96.577,297.376 96.767,297.376 97.231 M151.337 109.749 C 151.518 109.796,151.814 109.796,151.994 109.749 C 152.175 109.702,152.027 109.663,151.666 109.663 C 151.305 109.663,151.157 109.702,151.337 109.749 M194.979 122.707 C 195.314 122.749,195.863 122.749,196.199 122.707 C 196.534 122.666,196.260 122.632,195.589 122.632 C 194.918 122.632,194.643 122.666,194.979 122.707 M268.562 122.704 C 268.795 122.749,269.133 122.748,269.312 122.701 C 269.492 122.654,269.301 122.617,268.888 122.619 C 268.475 122.621,268.328 122.659,268.562 122.704 M272.313 122.704 C 272.546 122.749,272.926 122.749,273.158 122.704 C 273.390 122.659,273.200 122.623,272.736 122.623 C 272.271 122.623,272.081 122.659,272.313 122.704 M95.586 131.769 C 95.586 132.130,95.624 132.278,95.671 132.098 C 95.719 131.917,95.719 131.621,95.671 131.441 C 95.624 131.260,95.586 131.408,95.586 131.769 " stroke="none" fill="#383434" fill-rule="evenodd"/><path id="path2" d="M199.953 52.311 C 200.134 52.359,200.429 52.359,200.610 52.311 C 200.791 52.264,200.643 52.226,200.282 52.226 C 199.920 52.226,199.772 52.264,199.953 52.311 M267.811 52.315 C 268.044 52.360,268.382 52.358,268.562 52.311 C 268.741 52.264,268.550 52.227,268.137 52.229 C 267.724 52.231,267.577 52.270,267.811 52.315 M186.629 53.443 C 186.914 53.486,187.336 53.485,187.567 53.440 C 187.798 53.396,187.565 53.361,187.048 53.362 C 186.532 53.363,186.343 53.400,186.629 53.443 M203.801 53.441 C 204.033 53.486,204.413 53.486,204.646 53.441 C 204.878 53.396,204.688 53.359,204.223 53.359 C 203.759 53.359,203.569 53.396,203.801 53.441 M263.585 53.438 C 263.766 53.485,264.061 53.485,264.242 53.438 C 264.423 53.390,264.275 53.352,263.914 53.352 C 263.552 53.352,263.405 53.390,263.585 53.438 M280.573 53.441 C 280.805 53.486,281.185 53.486,281.417 53.441 C 281.649 53.396,281.459 53.359,280.995 53.359 C 280.530 53.359,280.340 53.396,280.573 53.441 M297.376 97.231 C 297.376 97.696,297.413 97.886,297.458 97.654 C 297.502 97.421,297.502 97.041,297.458 96.809 C 297.413 96.577,297.376 96.767,297.376 97.231 M151.337 109.749 C 151.518 109.796,151.814 109.796,151.994 109.749 C 152.175 109.702,152.027 109.663,151.666 109.663 C 151.305 109.663,151.157 109.702,151.337 109.749 M194.979 122.707 C 195.314 122.749,195.863 122.749,196.199 122.707 C 196.534 122.666,196.260 122.632,195.589 122.632 C 194.918 122.632,194.643 122.666,194.979 122.707 M268.562 122.704 C 268.795 122.749,269.133 122.748,269.312 122.701 C 269.492 122.654,269.301 122.617,268.888 122.619 C 268.475 122.621,268.328 122.659,268.562 122.704 M272.313 122.704 C 272.546 122.749,272.926 122.749,273.158 122.704 C 273.390 122.659,273.200 122.623,272.736 122.623 C 272.271 122.623,272.081 122.659,272.313 122.704 M95.586 131.769 C 95.586 132.130,95.624 132.278,95.671 132.098 C 95.719 131.917,95.719 131.621,95.671 131.441 C 95.624 131.260,95.586 131.408,95.586 131.769 " stroke="none" fill="#383434" fill-rule="evenodd"/><path id="path3" d="M199.953 52.311 C 200.134 52.359,200.429 52.359,200.610 52.311 C 200.791 52.264,200.643 52.226,200.282 52.226 C 199.920 52.226,199.772 52.264,199.953 52.311 M267.811 52.315 C 268.044 52.360,268.382 52.358,268.562 52.311 C 268.741 52.264,268.550 52.227,268.137 52.229 C 267.724 52.231,267.577 52.270,267.811 52.315 M186.629 53.443 C 186.914 53.486,187.336 53.485,187.567 53.440 C 187.798 53.396,187.565 53.361,187.048 53.362 C 186.532 53.363,186.343 53.400,186.629 53.443 M203.801 53.441 C 204.033 53.486,204.413 53.486,204.646 53.441 C 204.878 53.396,204.688 53.359,204.223 53.359 C 203.759 53.359,203.569 53.396,203.801 53.441 M263.585 53.438 C 263.766 53.485,264.061 53.485,264.242 53.438 C 264.423 53.390,264.275 53.352,263.914 53.352 C 263.552 53.352,263.405 53.390,263.585 53.438 M280.573 53.441 C 280.805 53.486,281.185 53.486,281.417 53.441 C 281.649 53.396,281.459 53.359,280.995 53.359 C 280.530 53.359,280.340 53.396,280.573 53.441 M297.376 97.231 C 297.376 97.696,297.413 97.886,297.458 97.654 C 297.502 97.421,297.502 97.041,297.458 96.809 C 297.413 96.577,297.376 96.767,297.376 97.231 M151.337 109.749 C 151.518 109.796,151.814 109.796,151.994 109.749 C 152.175 109.702,152.027 109.663,151.666 109.663 C 151.305 109.663,151.157 109.702,151.337 109.749 M194.979 122.707 C 195.314 122.749,195.863 122.749,196.199 122.707 C 196.534 122.666,196.260 122.632,195.589 122.632 C 194.918 122.632,194.643 122.666,194.979 122.707 M268.562 122.704 C 268.795 122.749,269.133 122.748,269.312 122.701 C 269.492 122.654,269.301 122.617,268.888 122.619 C 268.475 122.621,268.328 122.659,268.562 122.704 M272.313 122.704 C 272.546 122.749,272.926 122.749,273.158 122.704 C 273.390 122.659,273.200 122.623,272.736 122.623 C 272.271 122.623,272.081 122.659,272.313 122.704 M95.586 131.769 C 95.586 132.130,95.624 132.278,95.671 132.098 C 95.719 131.917,95.719 131.621,95.671 131.441 C 95.624 131.260,95.586 131.408,95.586 131.769 " stroke="none" fill="#383434" fill-rule="evenodd"/><path id="path4" d="M199.953 52.311 C 200.134 52.359,200.429 52.359,200.610 52.311 C 200.791 52.264,200.643 52.226,200.282 52.226 C 199.920 52.226,199.772 52.264,199.953 52.311 M267.811 52.315 C 268.044 52.360,268.382 52.358,268.562 52.311 C 268.741 52.264,268.550 52.227,268.137 52.229 C 267.724 52.231,267.577 52.270,267.811 52.315 M186.629 53.443 C 186.914 53.486,187.336 53.485,187.567 53.440 C 187.798 53.396,187.565 53.361,187.048 53.362 C 186.532 53.363,186.343 53.400,186.629 53.443 M203.801 53.441 C 204.033 53.486,204.413 53.486,204.646 53.441 C 204.878 53.396,204.688 53.359,204.223 53.359 C 203.759 53.359,203.569 53.396,203.801 53.441 M263.585 53.438 C 263.766 53.485,264.061 53.485,264.242 53.438 C 264.423 53.390,264.275 53.352,263.914 53.352 C 263.552 53.352,263.405 53.390,263.585 53.438 M280.573 53.441 C 280.805 53.486,281.185 53.486,281.417 53.441 C 281.649 53.396,281.459 53.359,280.995 53.359 C 280.530 53.359,280.340 53.396,280.573 53.441 M297.376 97.231 C 297.376 97.696,297.413 97.886,297.458 97.654 C 297.502 97.421,297.502 97.041,297.458 96.809 C 297.413 96.577,297.376 96.767,297.376 97.231 M151.337 109.749 C 151.518 109.796,151.814 109.796,151.994 109.749 C 152.175 109.702,152.027 109.663,151.666 109.663 C 151.305 109.663,151.157 109.702,151.337 109.749 M194.979 122.707 C 195.314 122.749,195.863 122.749,196.199 122.707 C 196.534 122.666,196.260 122.632,195.589 122.632 C 194.918 122.632,194.643 122.666,194.979 122.707 M268.562 122.704 C 268.795 122.749,269.133 122.748,269.312 122.701 C 269.492 122.654,269.301 122.617,268.888 122.619 C 268.475 122.621,268.328 122.659,268.562 122.704 M272.313 122.704 C 272.546 122.749,272.926 122.749,273.158 122.704 C 273.390 122.659,273.200 122.623,272.736 122.623 C 272.271 122.623,272.081 122.659,272.313 122.704 M95.586 131.769 C 95.586 132.130,95.624 132.278,95.671 132.098 C 95.719 131.917,95.719 131.621,95.671 131.441 C 95.624 131.260,95.586 131.408,95.586 131.769 " stroke="none" fill="#383434" fill-rule="evenodd"/></g></svg>