<svg xmlns="http://www.w3.org/2000/svg" xmlns:xlink="http://www.w3.org/1999/xlink" id="svg" version="1.1" viewBox="113.85 49.07 175.21 167.47"><g id="svgg"><path id="path0" d="M190.338 49.600 C 190.058 50.048,189.716 50.133,188.194 50.133 C 186.830 50.133,186.345 50.232,186.230 50.533 C 186.122 50.813,185.685 50.933,184.771 50.933 C 183.644 50.933,183.467 51.006,183.467 51.467 C 183.467 51.899,183.289 52.000,182.525 52.000 C 181.934 52.000,181.526 52.149,181.430 52.400 C 181.341 52.632,180.942 52.800,180.480 52.800 C 179.908 52.800,179.644 52.950,179.544 53.333 C 179.453 53.681,179.180 53.867,178.761 53.867 C 178.406 53.867,178.049 54.042,177.967 54.257 C 177.885 54.471,177.588 54.719,177.309 54.808 C 177.029 54.897,176.800 55.141,176.800 55.351 C 176.800 55.561,176.560 55.733,176.267 55.733 C 175.911 55.733,175.733 55.911,175.733 56.267 C 175.733 56.631,175.556 56.800,175.171 56.800 C 174.782 56.800,174.657 56.922,174.763 57.200 C 174.868 57.472,174.749 57.600,174.392 57.600 C 174.044 57.600,173.867 57.781,173.867 58.133 C 173.867 58.489,173.689 58.667,173.333 58.667 C 173.037 58.667,172.800 58.844,172.800 59.067 C 172.800 59.287,172.620 59.467,172.400 59.467 C 172.178 59.467,172.000 59.704,172.000 60.000 C 172.000 60.356,171.822 60.533,171.467 60.533 C 171.121 60.533,170.933 60.711,170.933 61.038 C 170.933 61.316,170.753 61.612,170.533 61.696 C 170.300 61.786,170.133 62.186,170.133 62.658 C 170.133 63.289,170.016 63.467,169.600 63.467 C 169.168 63.467,169.067 63.644,169.067 64.400 C 169.067 65.157,168.965 65.333,168.531 65.333 C 168.074 65.333,168.012 65.471,168.111 66.267 C 168.208 67.050,168.144 67.200,167.713 67.200 C 167.308 67.200,167.200 67.390,167.200 68.102 C 167.200 68.780,167.067 69.039,166.667 69.144 C 166.224 69.260,166.133 69.508,166.133 70.609 C 166.133 71.462,165.991 72.053,165.733 72.267 C 165.430 72.518,165.333 73.198,165.333 75.068 C 165.333 77.314,165.285 77.550,164.800 77.677 C 164.293 77.810,164.267 78.041,164.267 82.400 C 164.267 86.759,164.293 86.990,164.800 87.123 C 165.290 87.251,165.333 87.486,165.333 90.031 C 165.333 92.315,165.403 92.800,165.733 92.800 C 166.040 92.800,166.133 93.141,166.133 94.267 C 166.133 95.378,166.263 95.863,166.667 96.267 C 166.963 96.563,167.200 97.156,167.200 97.600 C 167.200 98.106,167.337 98.400,167.571 98.400 C 168.047 98.400,168.272 98.988,168.080 99.723 C 167.967 100.156,168.071 100.335,168.498 100.447 C 168.918 100.557,169.067 100.803,169.067 101.389 C 169.067 101.959,169.217 102.223,169.600 102.323 C 169.935 102.410,170.133 102.686,170.133 103.065 C 170.133 103.397,170.313 103.817,170.533 104.000 C 170.753 104.183,170.933 104.489,170.933 104.681 C 170.933 104.874,171.173 105.107,171.467 105.200 C 171.760 105.293,172.000 105.541,172.000 105.751 C 172.000 105.961,172.180 106.133,172.400 106.133 C 172.620 106.133,172.800 106.325,172.800 106.558 C 172.800 106.792,173.040 107.046,173.333 107.123 C 173.627 107.199,173.867 107.428,173.867 107.631 C 173.867 107.834,174.039 108.000,174.249 108.000 C 174.459 108.000,174.707 108.240,174.800 108.533 C 174.893 108.827,175.141 109.067,175.351 109.067 C 175.561 109.067,175.733 109.247,175.733 109.467 C 175.733 109.687,175.944 109.867,176.203 109.867 C 176.461 109.867,176.822 110.107,177.005 110.400 C 177.193 110.702,177.627 110.933,178.002 110.933 C 178.489 110.933,178.667 111.076,178.667 111.467 C 178.667 111.812,178.844 112.000,179.171 112.000 C 179.449 112.000,179.745 112.180,179.830 112.400 C 179.918 112.629,180.316 112.800,180.761 112.800 C 181.314 112.800,181.578 112.954,181.677 113.333 C 181.777 113.716,182.041 113.867,182.613 113.867 C 183.075 113.867,183.474 114.035,183.563 114.267 C 183.671 114.549,184.112 114.667,185.058 114.667 C 186.023 114.667,186.400 114.770,186.400 115.036 C 186.400 115.568,187.262 115.726,190.200 115.730 C 192.332 115.733,192.800 115.805,192.800 116.133 C 192.800 116.459,193.244 116.533,195.200 116.533 C 197.156 116.533,197.600 116.459,197.600 116.133 C 197.600 115.800,198.136 115.733,200.825 115.733 C 203.826 115.733,204.060 115.696,204.189 115.200 C 204.305 114.758,204.553 114.667,205.639 114.667 C 206.558 114.667,206.996 114.547,207.104 114.267 C 207.198 114.020,207.604 113.867,208.162 113.867 C 208.711 113.867,209.276 113.657,209.600 113.333 C 209.893 113.040,210.313 112.800,210.533 112.800 C 210.753 112.800,210.933 112.633,210.933 112.430 C 210.933 112.218,211.332 111.985,211.867 111.884 C 212.425 111.779,212.800 111.553,212.800 111.321 C 212.800 111.108,213.040 110.933,213.333 110.933 C 213.689 110.933,213.867 110.756,213.867 110.400 C 213.867 110.104,214.044 109.867,214.267 109.867 C 214.487 109.867,214.667 109.687,214.667 109.467 C 214.667 109.247,214.895 109.067,215.174 109.067 C 215.935 109.067,217.600 107.477,217.600 106.751 C 217.600 106.311,217.754 106.133,218.133 106.133 C 218.430 106.133,218.667 105.956,218.667 105.733 C 218.667 105.513,218.847 105.333,219.067 105.333 C 219.289 105.333,219.467 105.096,219.467 104.800 C 219.467 104.507,219.634 104.267,219.838 104.267 C 220.246 104.267,220.533 103.706,220.533 102.912 C 220.533 102.630,220.713 102.400,220.933 102.400 C 221.213 102.400,221.333 102.119,221.333 101.467 C 221.333 100.711,221.435 100.533,221.867 100.533 C 222.295 100.533,222.400 100.356,222.400 99.629 C 222.400 99.070,222.553 98.665,222.800 98.570 C 223.318 98.371,223.346 96.800,222.831 96.800 C 222.628 96.800,222.399 96.560,222.323 96.267 C 222.226 95.897,221.959 95.733,221.454 95.733 C 221.053 95.733,220.590 95.548,220.425 95.322 C 220.259 95.096,219.817 94.886,219.443 94.855 C 219.068 94.825,218.551 94.590,218.295 94.333 C 218.038 94.077,217.580 93.867,217.277 93.867 C 216.974 93.867,216.592 93.684,216.429 93.461 C 215.948 92.803,214.183 92.626,213.958 93.212 C 213.857 93.476,213.555 93.912,213.287 94.180 C 213.019 94.447,212.800 94.892,212.800 95.167 C 212.800 95.443,212.620 95.817,212.400 96.000 C 212.180 96.183,212.000 96.617,212.000 96.966 C 212.000 97.358,211.844 97.600,211.592 97.600 C 211.367 97.600,211.106 97.810,211.012 98.067 C 210.917 98.323,210.681 98.629,210.487 98.747 C 210.292 98.864,210.133 99.314,210.133 99.747 C 210.133 100.356,210.013 100.533,209.600 100.533 C 209.255 100.533,209.067 100.711,209.067 101.037 C 209.067 101.353,208.893 101.527,208.600 101.504 C 208.307 101.480,208.147 101.641,208.170 101.933 C 208.194 102.226,208.020 102.400,207.704 102.400 C 207.378 102.400,207.200 102.588,207.200 102.933 C 207.200 103.365,207.022 103.467,206.267 103.467 C 205.615 103.467,205.333 103.587,205.333 103.867 C 205.333 104.089,205.096 104.267,204.800 104.267 C 204.507 104.267,204.027 104.507,203.733 104.800 C 203.435 105.099,202.844 105.333,202.392 105.333 C 201.919 105.333,201.519 105.500,201.430 105.733 C 201.300 106.072,200.396 106.133,195.571 106.133 C 190.678 106.133,189.867 106.076,189.867 105.733 C 189.867 105.457,189.589 105.333,188.964 105.333 C 188.286 105.333,188.028 105.201,187.923 104.800 C 187.821 104.412,187.559 104.267,186.958 104.267 C 186.403 104.267,186.133 104.136,186.133 103.867 C 186.133 103.587,185.852 103.467,185.200 103.467 C 184.444 103.467,184.267 103.365,184.267 102.933 C 184.267 102.578,184.089 102.400,183.733 102.400 C 183.378 102.400,183.200 102.222,183.200 101.867 C 183.200 101.570,183.022 101.333,182.800 101.333 C 182.580 101.333,182.400 101.153,182.400 100.933 C 182.400 100.711,182.163 100.533,181.867 100.533 C 181.566 100.533,181.333 100.356,181.333 100.125 C 181.333 99.900,181.153 99.648,180.933 99.563 C 180.713 99.479,180.533 99.242,180.533 99.038 C 180.533 98.834,180.293 98.667,180.000 98.667 C 179.644 98.667,179.467 98.489,179.467 98.133 C 179.467 97.837,179.289 97.600,179.067 97.600 C 178.797 97.600,178.667 97.331,178.667 96.775 C 178.667 96.174,178.522 95.912,178.133 95.811 C 177.733 95.706,177.600 95.447,177.600 94.769 C 177.600 94.044,177.495 93.867,177.067 93.867 C 176.612 93.867,176.533 93.689,176.533 92.658 C 176.533 91.830,176.407 91.402,176.133 91.296 C 175.847 91.187,175.733 90.739,175.733 89.723 C 175.733 88.537,175.645 88.275,175.200 88.133 C 174.510 87.914,174.349 78.400,175.036 78.400 C 175.492 78.400,175.725 77.581,175.730 75.962 C 175.732 75.110,175.858 74.676,176.133 74.570 C 176.405 74.466,176.533 74.040,176.533 73.239 C 176.533 72.286,176.635 72.036,177.067 71.923 C 177.471 71.817,177.600 71.559,177.600 70.856 C 177.600 70.153,177.729 69.895,178.133 69.789 C 178.522 69.688,178.667 69.426,178.667 68.825 C 178.667 68.269,178.797 68.000,179.067 68.000 C 179.287 68.000,179.467 67.820,179.467 67.600 C 179.467 67.380,179.650 67.200,179.873 67.200 C 180.097 67.200,180.393 66.930,180.531 66.600 C 180.882 65.761,181.470 65.067,181.829 65.067 C 181.997 65.067,182.133 64.952,182.133 64.812 C 182.133 64.479,183.295 63.323,183.840 63.114 C 184.075 63.024,184.267 62.840,184.267 62.706 C 184.267 62.572,184.507 62.399,184.800 62.323 C 185.093 62.246,185.333 61.992,185.333 61.758 C 185.333 61.467,185.577 61.333,186.105 61.333 C 186.545 61.333,186.942 61.161,187.030 60.933 C 187.121 60.696,187.522 60.533,188.017 60.533 C 188.626 60.533,188.887 60.390,188.989 60.000 C 189.115 59.521,189.353 59.467,191.336 59.467 C 193.052 59.467,193.577 59.378,193.696 59.067 C 193.813 58.764,194.304 58.667,195.725 58.667 C 197.214 58.667,197.600 58.749,197.600 59.067 C 197.600 59.383,197.982 59.467,199.436 59.467 C 201.047 59.467,201.288 59.532,201.411 60.000 C 201.517 60.409,201.774 60.533,202.508 60.533 C 203.182 60.533,203.467 60.652,203.467 60.933 C 203.467 61.213,203.748 61.333,204.400 61.333 C 205.156 61.333,205.333 61.435,205.333 61.867 C 205.333 62.160,205.500 62.400,205.705 62.400 C 205.909 62.400,206.145 62.580,206.230 62.800 C 206.314 63.020,206.507 63.200,206.658 63.200 C 206.810 63.200,207.173 63.440,207.467 63.733 C 207.760 64.027,208.240 64.267,208.533 64.267 C 208.889 64.267,209.067 64.444,209.067 64.800 C 209.067 65.093,209.307 65.573,209.600 65.867 C 209.893 66.160,210.133 66.580,210.133 66.800 C 210.133 67.020,210.313 67.200,210.533 67.200 C 210.753 67.200,210.933 67.380,210.933 67.600 C 210.933 67.822,211.170 68.000,211.467 68.000 C 211.822 68.000,212.000 68.178,212.000 68.533 C 212.000 69.048,212.178 69.067,217.200 69.067 L 222.400 69.067 222.400 64.267 L 222.400 59.467 220.000 59.467 C 218.044 59.467,217.600 59.393,217.600 59.067 C 217.600 58.844,217.363 58.667,217.067 58.667 C 216.711 58.667,216.533 58.489,216.533 58.133 C 216.533 57.837,216.356 57.600,216.133 57.600 C 215.913 57.600,215.733 57.420,215.733 57.200 C 215.733 56.978,215.496 56.800,215.200 56.800 C 214.844 56.800,214.667 56.622,214.667 56.267 C 214.667 55.970,214.489 55.733,214.267 55.733 C 214.047 55.733,213.862 55.583,213.855 55.400 C 213.841 54.977,212.120 53.867,211.479 53.867 C 211.213 53.867,210.933 53.627,210.856 53.333 C 210.755 52.945,210.492 52.800,209.892 52.800 C 209.336 52.800,209.067 52.669,209.067 52.400 C 209.067 52.123,208.789 52.000,208.164 52.000 C 207.486 52.000,207.228 51.867,207.123 51.467 C 207.006 51.021,206.759 50.933,205.625 50.933 C 204.595 50.933,204.267 50.837,204.267 50.533 C 204.267 50.216,203.883 50.133,202.418 50.133 C 200.803 50.133,200.548 50.066,200.400 49.600 C 200.239 49.093,199.997 49.067,195.451 49.067 C 190.960 49.067,190.651 49.099,190.338 49.600 M252.933 49.600 C 252.783 50.075,252.530 50.133,250.640 50.133 C 248.999 50.133,248.482 50.224,248.363 50.533 C 248.263 50.794,247.848 50.933,247.171 50.933 C 246.489 50.933,245.951 51.116,245.600 51.467 C 245.307 51.760,244.763 52.000,244.392 52.000 C 244.020 52.000,243.648 52.180,243.563 52.400 C 243.479 52.620,243.182 52.800,242.905 52.800 C 242.578 52.800,242.400 52.988,242.400 53.333 C 242.400 53.765,242.222 53.867,241.467 53.867 C 240.716 53.867,240.533 53.969,240.533 54.392 C 240.533 54.758,240.407 54.868,240.117 54.757 C 239.840 54.650,239.652 54.786,239.553 55.165 C 239.443 55.584,239.196 55.733,238.611 55.733 C 238.041 55.733,237.777 55.884,237.677 56.267 C 237.601 56.560,237.372 56.800,237.169 56.800 C 236.966 56.800,236.800 56.966,236.800 57.169 C 236.800 57.372,236.560 57.601,236.267 57.677 C 235.973 57.754,235.733 58.008,235.733 58.242 C 235.733 58.475,235.620 58.667,235.480 58.667 C 234.849 58.667,233.867 59.960,233.867 60.792 C 233.867 61.474,233.777 61.623,233.442 61.494 C 233.159 61.385,232.971 61.509,232.878 61.866 C 232.801 62.160,232.572 62.400,232.369 62.400 C 232.166 62.400,232.000 62.580,232.000 62.800 C 232.000 63.020,231.760 63.440,231.467 63.733 C 231.173 64.027,230.933 64.494,230.933 64.771 C 230.933 65.049,230.753 65.345,230.533 65.430 C 230.313 65.514,230.133 65.887,230.133 66.258 C 230.133 66.630,229.893 67.173,229.600 67.467 C 229.244 67.822,229.067 68.356,229.067 69.067 C 229.067 69.800,228.951 70.133,228.696 70.133 C 228.230 70.133,228.029 70.974,228.110 72.581 C 228.162 73.596,228.083 73.852,227.687 73.956 C 226.828 74.181,226.968 91.733,227.829 91.733 C 228.017 91.733,228.115 92.167,228.086 92.867 C 228.019 94.478,228.248 95.467,228.688 95.467 C 228.952 95.467,229.067 95.789,229.067 96.533 C 229.067 97.422,229.156 97.600,229.600 97.600 C 230.032 97.600,230.133 97.778,230.133 98.533 C 230.133 99.185,230.254 99.467,230.533 99.467 C 230.813 99.467,230.933 99.748,230.933 100.400 C 230.933 101.156,231.035 101.333,231.467 101.333 C 231.898 101.333,232.000 101.511,232.000 102.267 C 232.000 102.919,232.121 103.200,232.400 103.200 C 232.622 103.200,232.800 103.437,232.800 103.733 C 232.800 104.089,232.978 104.267,233.333 104.267 C 233.702 104.267,233.867 104.444,233.867 104.842 C 233.867 105.595,238.164 109.867,238.922 109.867 C 239.289 109.867,239.467 110.041,239.467 110.400 C 239.467 110.756,239.644 110.933,240.000 110.933 C 240.293 110.933,240.533 111.100,240.533 111.305 C 240.533 111.713,241.094 112.000,241.888 112.000 C 242.170 112.000,242.400 112.180,242.400 112.400 C 242.400 112.679,242.681 112.800,243.333 112.800 C 244.089 112.800,244.267 112.902,244.267 113.333 C 244.267 113.765,244.444 113.867,245.200 113.867 C 245.852 113.867,246.133 113.987,246.133 114.267 C 246.133 114.574,246.474 114.667,247.600 114.667 C 248.889 114.667,249.067 114.731,249.067 115.200 C 249.067 115.699,249.244 115.733,251.838 115.733 C 254.056 115.733,254.640 115.813,254.763 116.133 C 254.886 116.454,255.475 116.533,257.725 116.533 C 260.044 116.533,260.533 116.464,260.533 116.133 C 260.533 115.803,261.022 115.733,263.333 115.733 C 265.956 115.733,266.133 115.699,266.133 115.200 C 266.133 114.731,266.311 114.667,267.600 114.667 C 268.726 114.667,269.067 114.574,269.067 114.267 C 269.067 113.987,269.348 113.867,270.000 113.867 C 270.578 113.867,271.137 113.663,271.467 113.333 C 271.760 113.040,272.180 112.800,272.400 112.800 C 272.620 112.800,272.800 112.620,272.800 112.400 C 272.800 112.131,273.069 112.000,273.625 112.000 C 274.226 112.000,274.488 111.855,274.589 111.467 C 274.667 111.171,274.953 110.933,275.231 110.933 C 275.556 110.933,275.733 110.745,275.733 110.400 C 275.733 109.984,275.911 109.867,276.542 109.867 C 277.014 109.867,277.414 109.700,277.504 109.467 C 277.588 109.247,277.816 109.067,278.011 109.067 C 278.205 109.067,278.440 108.827,278.533 108.533 C 278.626 108.240,278.875 108.000,279.085 108.000 C 279.295 108.000,279.467 107.834,279.467 107.631 C 279.467 107.428,279.707 107.199,280.000 107.123 C 280.293 107.046,280.533 106.792,280.533 106.558 C 280.533 106.325,280.713 106.133,280.933 106.133 C 281.156 106.133,281.333 105.896,281.333 105.600 C 281.333 105.307,281.508 105.067,281.721 105.067 C 281.953 105.067,282.179 104.692,282.284 104.133 C 282.411 103.458,282.599 103.200,282.963 103.200 C 283.240 103.200,283.467 103.020,283.467 102.800 C 283.467 102.580,283.647 102.400,283.867 102.400 C 284.146 102.400,284.267 102.119,284.267 101.467 C 284.267 100.847,284.391 100.533,284.638 100.533 C 285.041 100.533,285.333 99.975,285.333 99.207 C 285.333 98.941,285.513 98.655,285.733 98.570 C 285.967 98.481,286.133 98.081,286.133 97.608 C 286.133 97.156,286.368 96.565,286.667 96.267 C 287.071 95.863,287.200 95.378,287.200 94.267 C 287.200 93.141,287.293 92.800,287.600 92.800 C 287.924 92.800,288.000 92.370,288.000 90.533 C 288.000 88.622,288.084 88.183,288.533 87.733 C 289.026 87.240,289.067 86.844,289.067 82.508 C 289.067 78.041,289.041 77.810,288.533 77.677 C 288.048 77.550,288.000 77.314,288.000 75.068 C 288.000 73.198,287.903 72.518,287.600 72.267 C 287.373 72.078,287.200 71.497,287.200 70.922 C 287.200 69.651,286.981 69.067,286.505 69.067 C 286.242 69.067,286.133 68.713,286.133 67.858 C 286.133 67.030,286.007 66.602,285.733 66.496 C 285.513 66.412,285.333 66.116,285.333 65.838 C 285.333 65.511,285.146 65.333,284.800 65.333 C 284.368 65.333,284.267 65.156,284.267 64.400 C 284.267 63.748,284.146 63.467,283.867 63.467 C 283.644 63.467,283.467 63.230,283.467 62.933 C 283.467 62.640,283.227 62.160,282.933 61.867 C 282.640 61.573,282.400 61.153,282.400 60.933 C 282.400 60.711,282.163 60.533,281.867 60.533 C 281.511 60.533,281.333 60.356,281.333 60.000 C 281.333 59.704,281.156 59.467,280.933 59.467 C 280.713 59.467,280.533 59.287,280.533 59.067 C 280.533 58.844,280.296 58.667,280.000 58.667 C 279.644 58.667,279.467 58.489,279.467 58.133 C 279.467 57.837,279.289 57.600,279.067 57.600 C 278.847 57.600,278.667 57.420,278.667 57.200 C 278.667 56.978,278.430 56.800,278.133 56.800 C 277.778 56.800,277.600 56.622,277.600 56.267 C 277.600 55.911,277.422 55.733,277.067 55.733 C 276.770 55.733,276.533 55.556,276.533 55.333 C 276.533 55.113,276.353 54.918,276.133 54.900 C 275.913 54.882,275.613 54.837,275.467 54.800 C 275.320 54.763,275.080 54.718,274.933 54.700 C 274.787 54.682,274.667 54.487,274.667 54.267 C 274.667 54.047,274.516 53.867,274.331 53.867 C 274.146 53.867,273.845 53.627,273.662 53.333 C 273.479 53.040,273.043 52.800,272.693 52.800 C 272.343 52.800,271.988 52.620,271.904 52.400 C 271.809 52.153,271.403 52.000,270.839 52.000 C 270.153 52.000,269.895 51.869,269.789 51.467 C 269.676 51.033,269.426 50.933,268.453 50.933 C 267.636 50.933,267.208 50.807,267.104 50.533 C 266.984 50.222,266.455 50.133,264.706 50.133 C 262.686 50.133,262.448 50.080,262.323 49.600 C 262.190 49.093,261.959 49.067,257.643 49.067 C 253.337 49.067,253.094 49.094,252.933 49.600 M113.867 55.200 L 113.867 59.467 117.200 59.467 L 120.533 59.467 120.533 82.792 L 120.533 106.117 117.267 106.192 L 114.000 106.267 113.927 110.467 L 113.853 114.667 137.593 114.667 L 161.333 114.667 161.333 105.200 L 161.333 95.733 156.133 95.733 L 150.933 95.733 150.933 100.933 L 150.933 106.133 140.533 106.133 L 130.133 106.133 130.133 96.667 L 130.133 87.200 139.301 87.200 C 146.779 87.200,148.524 87.132,148.774 86.831 C 148.984 86.578,149.057 85.090,149.007 82.098 L 148.933 77.733 139.533 77.663 L 130.133 77.593 130.133 68.530 L 130.133 59.467 140.533 59.467 L 150.933 59.467 150.933 64.667 L 150.933 69.867 156.133 69.867 L 161.333 69.867 161.333 60.400 L 161.333 50.933 137.600 50.933 L 113.867 50.933 113.867 55.200 M257.963 59.067 C 258.085 59.385,258.660 59.467,260.792 59.467 C 263.289 59.467,263.467 59.502,263.467 60.000 C 263.467 60.428,263.644 60.533,264.367 60.533 C 264.863 60.533,265.417 60.713,265.600 60.933 C 265.783 61.153,266.203 61.333,266.535 61.333 C 266.914 61.333,267.190 61.532,267.277 61.867 C 267.379 62.255,267.641 62.400,268.242 62.400 C 268.797 62.400,269.067 62.531,269.067 62.800 C 269.067 63.022,269.304 63.200,269.600 63.200 C 269.956 63.200,270.133 63.378,270.133 63.733 C 270.133 64.030,270.311 64.267,270.533 64.267 C 270.753 64.267,270.933 64.439,270.933 64.649 C 270.933 64.859,271.173 65.107,271.467 65.200 C 271.760 65.293,272.000 65.541,272.000 65.751 C 272.000 65.961,272.166 66.133,272.369 66.133 C 272.572 66.133,272.801 66.373,272.877 66.667 C 272.954 66.960,273.208 67.200,273.442 67.200 C 273.721 67.200,273.867 67.437,273.867 67.892 C 273.867 68.345,274.040 68.629,274.369 68.715 C 274.709 68.804,274.828 69.011,274.738 69.356 C 274.638 69.740,274.744 69.867,275.169 69.867 C 275.639 69.867,275.733 70.027,275.733 70.825 C 275.733 71.559,275.858 71.816,276.267 71.923 C 276.708 72.038,276.800 72.286,276.800 73.364 C 276.800 74.344,276.899 74.667,277.200 74.667 C 277.525 74.667,277.600 75.099,277.600 76.958 C 277.600 79.026,277.652 79.264,278.133 79.389 C 278.630 79.519,278.667 79.753,278.667 82.767 C 278.667 85.716,278.619 86.035,278.133 86.338 C 277.672 86.626,277.600 86.960,277.600 88.802 C 277.600 90.519,277.522 90.933,277.200 90.933 C 276.911 90.933,276.800 91.230,276.800 92.000 C 276.800 92.734,276.684 93.067,276.429 93.067 C 275.967 93.067,275.733 93.646,275.733 94.791 C 275.733 95.465,275.600 95.706,275.165 95.820 C 274.786 95.919,274.650 96.106,274.757 96.384 C 274.868 96.674,274.758 96.800,274.392 96.800 C 273.969 96.800,273.867 96.983,273.867 97.733 C 273.867 98.489,273.765 98.667,273.333 98.667 C 273.037 98.667,272.800 98.844,272.800 99.067 C 272.800 99.287,272.620 99.467,272.400 99.467 C 272.178 99.467,272.000 99.704,272.000 100.000 C 272.000 100.356,271.822 100.533,271.467 100.533 C 271.170 100.533,270.933 100.711,270.933 100.933 C 270.933 101.153,270.753 101.333,270.533 101.333 C 270.311 101.333,270.133 101.570,270.133 101.867 C 270.133 102.222,269.956 102.400,269.600 102.400 C 269.244 102.400,269.067 102.578,269.067 102.933 C 269.067 103.365,268.889 103.467,268.133 103.467 C 267.481 103.467,267.200 103.587,267.200 103.867 C 267.200 104.136,266.931 104.267,266.375 104.267 C 265.774 104.267,265.512 104.412,265.411 104.800 C 265.299 105.228,265.047 105.333,264.135 105.333 C 263.450 105.333,262.867 105.492,262.667 105.733 C 262.394 106.062,261.480 106.133,257.567 106.133 C 253.507 106.133,252.800 106.074,252.800 105.733 C 252.800 105.432,252.476 105.333,251.485 105.333 C 250.403 105.333,250.139 105.238,250.000 104.800 C 249.874 104.403,249.597 104.267,248.915 104.267 C 248.279 104.267,248.000 104.145,248.000 103.867 C 248.000 103.647,247.828 103.467,247.618 103.467 C 247.408 103.467,247.160 103.227,247.067 102.933 C 246.974 102.640,246.731 102.400,246.529 102.400 C 246.326 102.400,246.051 102.205,245.917 101.967 C 245.784 101.728,245.358 101.533,244.971 101.533 C 244.460 101.533,244.267 101.396,244.267 101.033 C 244.267 100.758,244.101 100.533,243.898 100.533 C 243.695 100.533,243.466 100.293,243.389 100.000 C 243.313 99.707,243.068 99.467,242.846 99.467 C 242.614 99.467,242.368 99.126,242.267 98.667 C 242.170 98.227,241.920 97.867,241.712 97.867 C 241.504 97.867,241.333 97.627,241.333 97.333 C 241.333 97.037,241.156 96.800,240.933 96.800 C 240.664 96.800,240.533 96.531,240.533 95.975 C 240.533 95.374,240.388 95.112,240.000 95.011 C 239.604 94.907,239.467 94.647,239.467 93.997 C 239.467 93.467,239.310 93.063,239.067 92.970 C 238.818 92.875,238.667 92.469,238.667 91.897 C 238.667 90.714,238.438 90.133,237.971 90.133 C 237.663 90.133,237.600 88.910,237.600 82.933 C 237.600 76.957,237.663 75.733,237.971 75.733 C 238.448 75.733,238.667 75.149,238.667 73.873 C 238.667 73.216,238.808 72.803,239.067 72.704 C 239.300 72.614,239.467 72.214,239.467 71.742 C 239.467 71.229,239.602 70.933,239.838 70.933 C 240.246 70.933,240.533 70.373,240.533 69.578 C 240.533 69.297,240.713 69.067,240.933 69.067 C 241.153 69.067,241.333 68.887,241.333 68.667 C 241.333 68.447,241.573 68.027,241.867 67.733 C 242.160 67.440,242.400 66.960,242.400 66.667 C 242.400 66.373,242.550 66.131,242.733 66.129 C 243.124 66.123,244.267 64.979,244.267 64.594 C 244.267 64.448,244.507 64.266,244.800 64.189 C 245.093 64.113,245.333 63.859,245.333 63.625 C 245.333 63.391,245.513 63.200,245.733 63.200 C 245.953 63.200,246.133 63.020,246.133 62.800 C 246.133 62.521,246.415 62.400,247.067 62.400 C 247.822 62.400,248.000 62.298,248.000 61.867 C 248.000 61.451,248.178 61.333,248.808 61.333 C 249.281 61.333,249.681 61.167,249.770 60.933 C 249.866 60.684,250.273 60.533,250.853 60.533 C 251.559 60.533,251.817 60.405,251.923 60.000 C 252.048 59.520,252.286 59.467,254.306 59.467 C 256.055 59.467,256.584 59.378,256.704 59.067 C 256.788 58.847,257.071 58.667,257.333 58.667 C 257.595 58.667,257.879 58.847,257.963 59.067 M229.127 153.800 L 229.200 158.533 231.933 158.609 L 234.667 158.685 234.667 182.400 L 234.667 206.115 231.933 206.191 L 229.200 206.267 229.127 211.000 L 229.054 215.733 240.000 215.733 L 250.946 215.733 250.873 211.000 L 250.800 206.267 247.533 206.192 L 244.267 206.117 244.267 177.592 L 244.267 149.067 236.661 149.067 L 229.054 149.067 229.127 153.800 M256.800 153.863 L 256.800 158.667 259.600 158.667 L 262.400 158.667 262.400 182.400 L 262.400 206.133 259.600 206.133 L 256.800 206.133 256.800 210.936 L 256.800 215.739 267.667 215.670 L 278.533 215.600 278.610 211.467 C 278.717 205.647,279.028 206.133,275.196 206.133 L 272.002 206.133 271.935 177.667 L 271.867 149.200 264.333 149.129 L 256.800 149.058 256.800 153.863 M124.327 155.665 L 124.400 160.400 127.267 160.476 L 130.133 160.551 130.133 183.333 L 130.133 206.115 127.267 206.191 L 124.400 206.267 124.327 211.000 L 124.254 215.733 135.194 215.733 L 146.133 215.733 146.133 211.095 C 146.133 205.661,146.491 206.133,142.378 206.133 L 139.467 206.133 139.467 196.667 L 139.467 187.200 150.400 187.200 L 161.333 187.200 161.333 182.933 L 161.333 178.667 150.400 178.667 L 139.467 178.667 139.467 169.600 L 139.467 160.533 150.000 160.533 L 160.533 160.533 160.533 165.733 L 160.533 170.933 165.314 170.933 C 171.630 170.933,170.955 172.190,170.870 160.578 L 170.800 151.067 147.527 150.999 L 124.254 150.930 124.327 155.665 M172.000 175.200 L 172.000 179.467 174.800 179.467 L 177.600 179.467 177.600 192.249 C 177.600 204.797,177.610 205.034,178.133 205.200 C 178.594 205.346,178.667 205.603,178.667 207.093 C 178.667 208.347,178.771 208.857,179.050 208.964 C 179.261 209.045,179.509 209.451,179.600 209.867 C 179.691 210.282,179.939 210.688,180.150 210.769 C 180.361 210.850,180.535 211.070,180.538 211.258 C 180.544 211.671,181.690 212.800,182.104 212.800 C 182.267 212.800,182.400 213.040,182.400 213.333 C 182.400 213.689,182.578 213.867,182.933 213.867 C 183.230 213.867,183.467 214.044,183.467 214.267 C 183.467 214.543,183.745 214.667,184.369 214.667 C 185.047 214.667,185.306 214.799,185.411 215.200 C 185.536 215.681,185.774 215.733,187.842 215.733 C 189.701 215.733,190.133 215.809,190.133 216.133 C 190.133 216.462,190.608 216.533,192.808 216.533 C 194.940 216.533,195.515 216.452,195.637 216.133 C 195.755 215.825,196.270 215.733,197.893 215.733 C 199.707 215.733,200.041 215.660,200.329 215.200 C 200.551 214.844,200.950 214.667,201.531 214.667 C 202.126 214.667,202.400 214.540,202.400 214.267 C 202.400 213.987,202.681 213.867,203.333 213.867 C 204.089 213.867,204.267 213.765,204.267 213.333 C 204.267 212.978,204.444 212.800,204.800 212.800 C 205.269 212.800,205.333 212.978,205.333 214.267 L 205.333 215.733 212.406 215.733 L 219.479 215.733 219.406 211.000 L 219.333 206.267 217.000 206.190 L 214.667 206.113 214.667 188.523 L 214.667 170.933 207.067 170.933 L 199.467 170.933 199.467 175.200 L 199.467 179.467 202.400 179.467 L 205.333 179.467 205.333 191.867 C 205.333 204.089,205.326 204.267,204.800 204.267 C 204.507 204.267,204.027 204.507,203.733 204.800 C 203.440 205.093,203.020 205.333,202.800 205.333 C 202.580 205.333,202.400 205.513,202.400 205.733 C 202.400 206.037,202.071 206.133,201.042 206.133 C 199.908 206.133,199.660 206.221,199.544 206.667 C 199.355 207.388,192.000 207.510,192.000 206.792 C 192.000 206.567,191.790 206.306,191.533 206.212 C 191.277 206.117,190.971 205.881,190.853 205.687 C 190.736 205.492,190.526 205.333,190.387 205.333 C 189.920 205.333,189.123 204.329,188.944 203.516 C 188.847 203.073,188.595 202.645,188.384 202.564 C 188.100 202.455,188.000 201.927,188.000 200.542 C 188.000 199.053,187.918 198.667,187.600 198.667 C 187.250 198.667,187.200 196.948,187.200 184.800 L 187.200 170.933 179.600 170.933 L 172.000 170.933 172.000 175.200 " stroke="none" fill="#343434" fill-rule="evenodd"/><path id="path1" d="" stroke="none" fill="#383434" fill-rule="evenodd"/><path id="path2" d="" stroke="none" fill="#383434" fill-rule="evenodd"/><path id="path3" d="" stroke="none" fill="#383434" fill-rule="evenodd"/><path id="path4" d="" stroke="none" fill="#383434" fill-rule="evenodd"/></g></svg>