<svg xmlns="http://www.w3.org/2000/svg" xmlns:xlink="http://www.w3.org/1999/xlink" id="svg" version="1.1" viewBox="162.14 52.17 77.19 38.5"><g id="svgg"><path id="path0" d="M163.167 52.384 C 162.336 52.668,162.187 53.251,162.179 56.250 C 162.170 59.395,162.018 59.194,164.482 59.296 L 166.500 59.379 166.500 71.415 L 166.500 83.450 164.708 83.546 C 162.011 83.690,162.167 83.448,162.167 87.489 C 162.167 91.069,161.256 90.679,169.500 90.627 L 176.417 90.583 176.458 87.333 C 176.507 83.446,176.574 83.604,174.840 83.526 L 173.500 83.465 173.500 71.399 L 173.500 59.333 174.792 59.331 C 175.502 59.329,176.185 59.264,176.310 59.185 C 176.656 58.965,176.523 52.555,176.167 52.330 C 175.783 52.087,163.891 52.137,163.167 52.384 M185.173 52.409 C 185.057 52.549,184.993 52.874,185.030 53.131 C 185.093 53.555,185.058 53.593,184.659 53.534 C 183.878 53.420,182.778 53.895,182.500 54.466 C 182.292 54.894,182.139 54.989,181.584 55.032 C 180.933 55.082,180.915 55.100,180.776 55.866 C 180.664 56.484,180.559 56.658,180.275 56.699 C 179.676 56.784,179.334 57.726,179.334 59.288 C 179.333 60.649,179.330 60.661,178.875 60.761 C 178.623 60.816,178.327 60.888,178.218 60.922 C 177.928 61.010,177.763 62.120,177.935 62.817 L 178.083 63.417 182.083 63.461 C 186.728 63.513,186.500 63.598,186.500 61.820 L 186.500 60.704 187.676 60.638 C 188.915 60.568,189.159 60.415,189.164 59.708 C 189.167 59.347,189.223 59.333,190.667 59.333 C 192.071 59.333,192.167 59.355,192.167 59.678 C 192.167 60.334,192.477 60.667,193.089 60.667 C 193.649 60.667,193.667 60.686,193.667 61.316 C 193.667 62.002,193.847 62.167,194.597 62.167 C 194.828 62.167,195.000 62.265,195.000 62.396 C 195.000 62.522,195.047 62.859,195.104 63.146 C 195.205 63.648,195.188 63.667,194.637 63.667 C 193.912 63.667,193.667 63.916,193.665 64.658 C 193.660 66.089,193.498 66.500,192.937 66.501 C 191.825 66.503,191.203 66.802,190.994 67.434 L 190.799 68.026 189.078 67.930 C 188.091 67.874,187.172 67.903,186.924 67.997 L 186.492 68.162 186.537 70.789 L 186.583 73.417 188.708 73.463 L 190.833 73.510 190.833 74.082 C 190.833 74.823,191.168 75.000,192.572 75.000 L 193.667 75.000 193.667 75.667 L 193.667 76.333 194.333 76.333 C 195.096 76.333,195.030 76.097,195.079 78.979 L 195.109 80.708 194.567 80.934 C 194.032 81.158,193.500 82.325,193.500 83.276 C 193.500 83.563,193.310 83.583,190.674 83.583 L 187.848 83.583 187.799 82.917 C 187.752 82.277,187.725 82.248,187.125 82.198 C 186.519 82.148,186.500 82.127,186.500 81.500 C 186.500 81.144,186.425 80.807,186.333 80.750 C 186.242 80.693,186.167 80.513,186.167 80.349 C 186.167 79.519,185.723 79.420,181.743 79.364 L 178.019 79.311 177.905 79.921 C 177.567 81.723,178.076 83.500,178.930 83.500 C 179.270 83.500,179.302 83.592,179.360 84.758 C 179.427 86.085,179.570 86.326,180.292 86.331 C 180.594 86.333,180.667 86.427,180.667 86.820 C 180.667 87.655,180.815 87.833,181.508 87.833 C 182.141 87.833,182.148 87.840,182.199 88.542 L 182.250 89.250 183.031 89.300 C 183.690 89.343,183.821 89.408,183.865 89.717 C 183.989 90.594,184.574 90.672,190.667 90.626 L 196.250 90.583 196.402 89.967 C 196.539 89.414,196.616 89.345,197.152 89.300 C 197.727 89.252,197.752 89.223,197.801 88.542 C 197.852 87.841,197.859 87.833,198.489 87.833 C 199.990 87.833,200.663 87.127,200.666 85.551 C 200.667 85.045,200.701 85.017,201.375 84.968 L 202.083 84.917 202.130 82.708 C 202.168 80.897,202.220 80.500,202.422 80.500 C 203.505 80.500,203.653 78.367,202.588 78.099 C 202.167 77.994,202.167 77.993,202.157 75.955 C 202.146 73.456,201.970 72.857,201.125 72.445 C 200.748 72.261,200.500 72.020,200.500 71.840 C 200.500 71.501,200.153 71.169,199.517 70.900 L 199.083 70.716 199.686 70.459 C 200.359 70.172,200.667 69.550,200.667 68.475 C 200.667 67.854,200.685 67.833,201.244 67.833 C 202.125 67.833,202.168 67.622,202.154 63.386 C 202.140 59.095,202.041 58.557,201.198 58.178 C 200.730 57.968,200.666 57.859,200.657 57.262 C 200.635 55.667,200.026 55.044,198.458 55.013 C 197.845 55.000,197.833 54.987,197.833 54.352 C 197.833 53.712,197.824 53.703,197.083 53.592 C 196.458 53.498,196.333 53.419,196.331 53.115 C 196.325 52.240,196.409 52.254,190.699 52.202 C 186.093 52.160,185.357 52.188,185.173 52.409 M206.683 52.396 C 206.551 52.556,206.507 53.636,206.538 55.938 L 206.583 59.250 207.958 59.298 L 209.333 59.347 209.333 71.423 L 209.333 83.500 208.292 83.502 C 206.343 83.507,206.500 83.183,206.500 87.187 L 206.500 90.669 216.375 90.626 L 226.250 90.583 226.404 89.958 L 226.559 89.333 227.782 89.333 C 228.454 89.333,229.135 89.264,229.294 89.179 C 229.453 89.094,229.721 88.981,229.890 88.928 C 230.058 88.876,230.281 88.608,230.384 88.333 C 230.553 87.888,230.649 87.833,231.269 87.833 C 232.023 87.833,232.167 87.671,232.167 86.820 C 232.167 86.363,232.208 86.333,232.833 86.333 C 233.498 86.333,233.500 86.332,233.500 85.676 C 233.500 85.022,233.503 85.019,234.208 84.968 C 234.913 84.917,234.917 84.913,234.968 84.208 C 235.017 83.524,235.038 83.500,235.587 83.500 C 236.322 83.500,236.500 83.162,236.500 81.771 L 236.500 80.687 237.125 80.635 L 237.750 80.583 237.797 78.458 L 237.843 76.333 238.486 76.333 C 239.337 76.333,239.328 76.383,239.331 71.563 C 239.334 66.534,239.328 66.500,238.479 66.500 L 237.833 66.500 237.833 64.597 C 237.833 62.285,237.796 62.167,237.066 62.167 C 236.518 62.167,236.500 62.145,236.500 61.510 C 236.500 61.149,236.425 60.807,236.333 60.750 C 236.242 60.693,236.167 60.513,236.167 60.349 C 236.167 59.986,235.659 59.500,235.279 59.500 C 235.101 59.500,234.999 59.363,234.998 59.125 C 234.992 58.262,234.813 58.001,234.156 57.896 C 233.565 57.801,233.514 57.749,233.467 57.188 C 233.419 56.607,233.389 56.581,232.722 56.533 C 232.120 56.489,232.003 56.416,231.853 55.985 C 231.648 55.397,230.837 55.000,229.839 55.000 C 229.209 55.000,229.167 54.969,229.167 54.520 C 229.167 53.665,228.876 53.580,226.057 53.613 L 223.500 53.643 223.500 53.164 C 223.500 52.158,223.572 52.167,214.817 52.167 C 208.271 52.167,206.841 52.207,206.683 52.396 M222.167 59.736 C 222.167 60.596,222.280 60.667,223.663 60.667 L 224.957 60.667 225.061 61.312 C 225.157 61.912,225.210 61.964,225.832 62.064 C 226.459 62.164,226.500 62.205,226.500 62.734 C 226.500 63.344,226.704 63.500,227.504 63.500 C 227.934 63.500,227.985 63.561,228.032 64.125 C 228.079 64.699,228.131 64.757,228.667 64.833 C 229.193 64.909,229.255 64.974,229.304 65.500 C 229.369 66.208,229.483 66.338,230.167 66.478 L 230.699 66.587 230.724 71.543 L 230.750 76.500 230.333 76.503 C 229.567 76.507,229.428 76.731,229.360 78.075 L 229.297 79.333 228.547 79.333 L 227.796 79.333 227.901 79.894 C 228.027 80.561,227.727 80.897,227.139 80.749 C 226.528 80.596,225.511 81.101,225.268 81.680 C 225.151 81.958,224.806 82.307,224.492 82.465 C 224.149 82.638,223.889 82.914,223.831 83.167 C 223.745 83.540,223.653 83.583,222.951 83.576 C 222.520 83.573,220.892 83.554,219.333 83.535 L 216.500 83.500 216.500 71.417 L 216.500 59.333 219.333 59.333 L 222.167 59.333 222.167 59.736 " stroke="none" fill="#343434" fill-rule="evenodd"/><path id="path1" d="M223.955 53.620 C 224.250 53.657,224.775 53.658,225.121 53.622 C 225.467 53.586,225.225 53.555,224.583 53.555 C 223.942 53.554,223.659 53.583,223.955 53.620 M230.705 67.167 C 230.705 67.487,230.740 67.619,230.782 67.458 C 230.823 67.298,230.823 67.035,230.782 66.875 C 230.740 66.715,230.705 66.846,230.705 67.167 M189.542 67.953 C 189.794 67.991,190.206 67.991,190.458 67.953 C 190.710 67.915,190.504 67.883,190.000 67.883 C 189.496 67.883,189.290 67.915,189.542 67.953 M230.709 75.917 C 230.711 76.283,230.745 76.414,230.785 76.206 C 230.824 75.999,230.823 75.699,230.781 75.540 C 230.739 75.380,230.707 75.550,230.709 75.917 M195.042 77.917 C 195.044 78.283,195.078 78.414,195.118 78.206 C 195.158 77.999,195.156 77.699,195.115 77.540 C 195.073 77.380,195.040 77.550,195.042 77.917 M195.039 80.167 C 195.039 80.487,195.073 80.619,195.115 80.458 C 195.157 80.298,195.157 80.035,195.115 79.875 C 195.073 79.715,195.039 79.846,195.039 80.167 M188.125 83.618 C 188.331 83.657,188.669 83.657,188.875 83.618 C 189.081 83.578,188.912 83.545,188.500 83.545 C 188.088 83.545,187.919 83.578,188.125 83.618 M192.458 83.618 C 192.665 83.657,193.002 83.657,193.208 83.618 C 193.415 83.578,193.246 83.545,192.833 83.545 C 192.421 83.545,192.252 83.578,192.458 83.618 M222.544 83.620 C 222.797 83.658,223.172 83.657,223.377 83.617 C 223.582 83.578,223.375 83.546,222.917 83.548 C 222.458 83.549,222.291 83.581,222.544 83.620 " stroke="none" fill="#383434" fill-rule="evenodd"/><path id="path2" d="M223.955 53.620 C 224.250 53.657,224.775 53.658,225.121 53.622 C 225.467 53.586,225.225 53.555,224.583 53.555 C 223.942 53.554,223.659 53.583,223.955 53.620 M230.705 67.167 C 230.705 67.487,230.740 67.619,230.782 67.458 C 230.823 67.298,230.823 67.035,230.782 66.875 C 230.740 66.715,230.705 66.846,230.705 67.167 M189.542 67.953 C 189.794 67.991,190.206 67.991,190.458 67.953 C 190.710 67.915,190.504 67.883,190.000 67.883 C 189.496 67.883,189.290 67.915,189.542 67.953 M230.709 75.917 C 230.711 76.283,230.745 76.414,230.785 76.206 C 230.824 75.999,230.823 75.699,230.781 75.540 C 230.739 75.380,230.707 75.550,230.709 75.917 M195.042 77.917 C 195.044 78.283,195.078 78.414,195.118 78.206 C 195.158 77.999,195.156 77.699,195.115 77.540 C 195.073 77.380,195.040 77.550,195.042 77.917 M195.039 80.167 C 195.039 80.487,195.073 80.619,195.115 80.458 C 195.157 80.298,195.157 80.035,195.115 79.875 C 195.073 79.715,195.039 79.846,195.039 80.167 M188.125 83.618 C 188.331 83.657,188.669 83.657,188.875 83.618 C 189.081 83.578,188.912 83.545,188.500 83.545 C 188.088 83.545,187.919 83.578,188.125 83.618 M192.458 83.618 C 192.665 83.657,193.002 83.657,193.208 83.618 C 193.415 83.578,193.246 83.545,192.833 83.545 C 192.421 83.545,192.252 83.578,192.458 83.618 M222.544 83.620 C 222.797 83.658,223.172 83.657,223.377 83.617 C 223.582 83.578,223.375 83.546,222.917 83.548 C 222.458 83.549,222.291 83.581,222.544 83.620 " stroke="none" fill="#383434" fill-rule="evenodd"/><path id="path3" d="M223.955 53.620 C 224.250 53.657,224.775 53.658,225.121 53.622 C 225.467 53.586,225.225 53.555,224.583 53.555 C 223.942 53.554,223.659 53.583,223.955 53.620 M230.705 67.167 C 230.705 67.487,230.740 67.619,230.782 67.458 C 230.823 67.298,230.823 67.035,230.782 66.875 C 230.740 66.715,230.705 66.846,230.705 67.167 M189.542 67.953 C 189.794 67.991,190.206 67.991,190.458 67.953 C 190.710 67.915,190.504 67.883,190.000 67.883 C 189.496 67.883,189.290 67.915,189.542 67.953 M230.709 75.917 C 230.711 76.283,230.745 76.414,230.785 76.206 C 230.824 75.999,230.823 75.699,230.781 75.540 C 230.739 75.380,230.707 75.550,230.709 75.917 M195.042 77.917 C 195.044 78.283,195.078 78.414,195.118 78.206 C 195.158 77.999,195.156 77.699,195.115 77.540 C 195.073 77.380,195.040 77.550,195.042 77.917 M195.039 80.167 C 195.039 80.487,195.073 80.619,195.115 80.458 C 195.157 80.298,195.157 80.035,195.115 79.875 C 195.073 79.715,195.039 79.846,195.039 80.167 M188.125 83.618 C 188.331 83.657,188.669 83.657,188.875 83.618 C 189.081 83.578,188.912 83.545,188.500 83.545 C 188.088 83.545,187.919 83.578,188.125 83.618 M192.458 83.618 C 192.665 83.657,193.002 83.657,193.208 83.618 C 193.415 83.578,193.246 83.545,192.833 83.545 C 192.421 83.545,192.252 83.578,192.458 83.618 M222.544 83.620 C 222.797 83.658,223.172 83.657,223.377 83.617 C 223.582 83.578,223.375 83.546,222.917 83.548 C 222.458 83.549,222.291 83.581,222.544 83.620 " stroke="none" fill="#383434" fill-rule="evenodd"/><path id="path4" d="M223.955 53.620 C 224.250 53.657,224.775 53.658,225.121 53.622 C 225.467 53.586,225.225 53.555,224.583 53.555 C 223.942 53.554,223.659 53.583,223.955 53.620 M230.705 67.167 C 230.705 67.487,230.740 67.619,230.782 67.458 C 230.823 67.298,230.823 67.035,230.782 66.875 C 230.740 66.715,230.705 66.846,230.705 67.167 M189.542 67.953 C 189.794 67.991,190.206 67.991,190.458 67.953 C 190.710 67.915,190.504 67.883,190.000 67.883 C 189.496 67.883,189.290 67.915,189.542 67.953 M230.709 75.917 C 230.711 76.283,230.745 76.414,230.785 76.206 C 230.824 75.999,230.823 75.699,230.781 75.540 C 230.739 75.380,230.707 75.550,230.709 75.917 M195.042 77.917 C 195.044 78.283,195.078 78.414,195.118 78.206 C 195.158 77.999,195.156 77.699,195.115 77.540 C 195.073 77.380,195.040 77.550,195.042 77.917 M195.039 80.167 C 195.039 80.487,195.073 80.619,195.115 80.458 C 195.157 80.298,195.157 80.035,195.115 79.875 C 195.073 79.715,195.039 79.846,195.039 80.167 M188.125 83.618 C 188.331 83.657,188.669 83.657,188.875 83.618 C 189.081 83.578,188.912 83.545,188.500 83.545 C 188.088 83.545,187.919 83.578,188.125 83.618 M192.458 83.618 C 192.665 83.657,193.002 83.657,193.208 83.618 C 193.415 83.578,193.246 83.545,192.833 83.545 C 192.421 83.545,192.252 83.578,192.458 83.618 M222.544 83.620 C 222.797 83.658,223.172 83.657,223.377 83.617 C 223.582 83.578,223.375 83.546,222.917 83.548 C 222.458 83.549,222.291 83.581,222.544 83.620 " stroke="none" fill="#383434" fill-rule="evenodd"/></g></svg>