<svg xmlns="http://www.w3.org/2000/svg" xmlns:xlink="http://www.w3.org/1999/xlink" id="svg" version="1.1" viewBox="125.09 88.33 149.83 70.04"><g id="svgg"><path id="path0" d="M198.340 88.515 C 195.689 88.702,195.482 88.832,195.272 90.434 C 195.071 91.976,195.309 91.912,190.063 91.841 C 183.912 91.757,182.133 92.358,182.133 94.520 C 182.133 94.824,181.834 94.940,181.000 94.960 C 179.262 95.001,178.572 95.277,178.384 96.010 L 178.215 96.667 178.107 96.000 C 178.030 95.522,177.812 95.313,177.333 95.261 C 174.897 94.999,174.967 95.052,174.880 93.390 L 174.800 91.867 158.843 91.867 L 142.886 91.867 142.377 92.496 C 142.096 92.842,141.867 93.519,141.867 94.000 C 141.867 95.147,141.038 95.314,136.614 95.058 C 129.408 94.643,128.263 95.767,128.270 103.250 C 128.275 108.434,128.208 108.267,130.287 108.267 L 131.979 108.267 132.265 109.329 C 133.169 112.684,143.791 112.539,144.424 109.163 C 144.815 107.083,145.069 108.577,145.100 113.133 C 145.130 117.554,145.115 134.521,145.081 135.000 C 145.073 135.110,144.491 135.200,143.787 135.200 C 142.189 135.200,141.867 135.517,141.867 137.087 C 141.867 138.420,141.624 138.759,140.470 139.034 C 139.622 139.237,138.961 140.122,138.874 141.173 L 138.813 141.910 136.080 141.724 C 131.604 141.418,128.998 142.375,128.953 144.340 L 128.933 145.200 127.413 145.200 C 125.230 145.200,125.214 145.234,125.115 149.975 C 125.017 154.700,125.109 154.933,127.074 154.933 C 128.333 154.933,128.336 154.937,128.595 157.332 C 128.693 158.237,129.282 158.331,135.162 158.368 C 142.006 158.413,144.044 157.858,144.421 155.848 L 144.586 154.969 154.183 154.885 L 163.781 154.800 164.290 154.170 C 164.571 153.824,164.800 153.137,164.800 152.643 L 164.800 151.745 169.800 151.673 L 174.800 151.600 174.933 149.867 L 175.067 148.133 175.237 149.423 C 175.496 151.395,176.464 151.717,182.165 151.728 L 184.997 151.733 185.135 152.957 C 185.352 154.877,184.907 154.791,195.146 154.883 C 207.606 154.995,207.755 154.971,208.100 152.818 L 208.273 151.733 211.454 151.733 C 213.204 151.733,214.701 151.627,214.781 151.497 C 214.862 151.367,215.332 151.185,215.827 151.092 C 216.914 150.888,217.536 150.253,217.763 149.116 C 217.929 148.289,217.971 148.267,219.348 148.267 C 221.124 148.267,221.600 147.840,221.600 146.248 L 221.600 145.067 222.800 145.067 C 223.644 145.067,224.158 144.909,224.533 144.533 C 224.827 144.240,225.108 144.000,225.158 144.000 C 225.208 144.000,225.238 146.010,225.224 148.467 C 225.186 155.423,224.183 154.800,235.424 154.800 L 243.781 154.800 244.290 154.170 C 244.571 153.824,244.800 153.147,244.800 152.666 L 244.800 151.791 247.855 151.694 C 251.324 151.584,251.421 151.531,251.644 149.646 L 251.808 148.267 254.237 148.263 C 257.901 148.258,257.884 148.267,258.255 146.067 C 258.418 145.105,258.465 145.067,259.496 145.067 C 261.253 145.067,261.600 144.737,261.600 143.070 L 261.600 141.625 263.267 141.546 L 264.933 141.467 265.013 139.946 L 265.093 138.426 266.613 138.346 L 268.133 138.267 268.213 136.600 L 268.292 134.933 269.428 134.933 C 271.387 134.933,271.587 134.609,271.689 131.254 L 271.779 128.331 272.979 128.196 C 274.873 127.982,274.791 128.413,274.883 118.187 C 274.995 105.727,274.971 105.578,272.818 105.234 L 271.733 105.060 271.729 103.797 C 271.724 102.055,271.491 101.801,269.770 101.659 L 268.291 101.536 268.212 100.035 L 268.133 98.533 266.757 98.533 C 265.100 98.533,265.041 98.484,264.868 96.951 C 264.679 95.273,264.440 95.157,261.077 95.109 L 258.133 95.067 258.133 94.096 C 258.133 93.538,257.917 92.858,257.624 92.496 L 257.114 91.867 244.624 91.833 C 230.856 91.795,229.946 91.882,229.222 93.301 C 228.785 94.157,228.268 96.523,228.264 97.680 L 228.262 98.533 226.664 98.587 L 225.067 98.642 225.051 96.721 C 225.010 91.829,225.051 91.874,220.577 91.837 C 214.390 91.786,215.022 91.945,214.873 90.394 C 214.802 89.658,214.657 88.968,214.550 88.861 C 214.063 88.373,203.540 88.149,198.340 88.515 M175.069 108.143 C 175.067 110.588,175.149 111.270,175.467 111.472 C 175.973 111.793,187.917 111.816,188.115 111.497 C 188.195 111.367,188.666 111.185,189.160 111.092 C 190.248 110.888,190.869 110.253,191.097 109.116 C 191.264 108.281,191.292 108.267,192.780 108.267 C 194.625 108.267,194.933 107.991,194.933 106.347 L 194.933 105.067 200.000 105.067 C 205.296 105.067,205.754 105.128,204.002 105.600 C 202.944 105.884,202.133 106.863,202.133 107.853 C 202.133 108.165,201.841 108.267,200.951 108.267 C 198.693 108.267,198.311 108.582,198.522 110.272 C 198.684 111.569,198.650 111.737,198.219 111.764 C 197.952 111.781,196.570 111.811,195.147 111.831 C 192.197 111.872,191.996 111.984,191.802 113.704 C 191.656 115.005,191.644 115.012,189.334 115.261 C 188.208 115.383,187.714 127.319,188.805 128.009 C 189.034 128.154,193.961 128.261,200.533 128.264 L 211.867 128.269 211.867 129.915 C 211.867 131.752,211.316 132.188,209.437 131.841 C 208.494 131.667,208.277 132.069,208.270 134.000 L 208.266 135.067 205.448 135.116 C 202.122 135.173,201.867 135.315,201.867 137.099 C 201.867 138.265,201.804 138.402,201.267 138.420 C 200.355 138.450,191.910 138.455,191.563 138.426 C 191.396 138.412,191.184 137.996,191.091 137.503 C 190.710 135.472,188.755 134.974,181.177 134.978 C 175.171 134.982,175.180 134.979,174.921 136.577 C 174.757 137.588,174.729 137.625,174.700 136.873 C 174.648 135.540,173.782 135.119,171.344 135.242 C 169.038 135.359,168.787 135.532,168.606 137.142 L 168.472 138.330 166.169 138.437 C 164.903 138.496,162.607 138.474,161.067 138.387 C 159.527 138.301,158.703 138.208,159.237 138.182 C 159.771 138.155,160.491 137.904,160.837 137.624 L 161.467 137.114 161.546 122.721 L 161.626 108.329 166.044 108.222 C 171.012 108.102,171.467 107.913,171.467 105.970 L 171.467 105.067 173.269 105.067 L 175.072 105.067 175.069 108.143 M246.040 108.015 C 246.404 108.153,248.537 108.267,250.780 108.267 L 254.859 108.267 255.014 109.775 C 255.195 111.521,255.414 111.724,257.133 111.729 C 257.960 111.732,258.404 111.849,258.412 112.067 C 258.419 112.250,258.449 114.579,258.479 117.243 L 258.533 122.087 257.578 122.239 C 256.065 122.481,254.933 124.596,254.933 127.183 C 254.933 128.257,254.924 128.267,253.933 128.270 C 251.907 128.278,251.786 128.391,251.840 130.227 L 251.888 131.873 248.898 131.802 C 245.333 131.716,245.067 131.863,245.067 133.914 C 245.067 135.029,244.995 135.230,244.645 135.095 C 244.413 135.006,243.633 134.933,242.912 134.933 L 241.600 134.933 241.600 126.704 L 241.600 118.474 242.980 118.311 C 244.965 118.076,244.921 118.208,245.042 112.187 C 245.101 109.224,245.201 107.017,245.264 107.282 C 245.327 107.547,245.676 107.877,246.040 108.015 M228.465 118.800 C 228.406 121.295,228.361 121.561,228.161 120.582 C 227.867 119.139,227.513 118.785,226.151 118.567 C 225.128 118.403,225.067 118.342,225.067 117.481 C 225.067 115.976,224.647 115.205,223.807 115.164 C 223.086 115.128,223.084 115.124,223.733 115.005 C 224.826 114.804,225.067 114.424,225.067 112.901 L 225.067 111.467 225.941 111.467 C 227.181 111.467,227.992 110.816,228.039 109.785 C 228.131 107.758,228.527 116.148,228.465 118.800 " stroke="none" fill="#343434" fill-rule="evenodd"/><path id="path1" d="M151.938 91.927 C 152.417 91.986,153.137 91.985,153.538 91.924 C 153.939 91.863,153.547 91.814,152.667 91.816 C 151.787 91.817,151.459 91.867,151.938 91.927 M163.403 91.922 C 163.735 91.986,164.215 91.983,164.470 91.917 C 164.725 91.850,164.453 91.798,163.867 91.801 C 163.280 91.804,163.071 91.858,163.403 91.922 M169.805 91.927 C 170.284 91.986,171.004 91.985,171.405 91.924 C 171.805 91.863,171.413 91.814,170.533 91.816 C 169.653 91.817,169.325 91.867,169.805 91.927 M243.405 91.927 C 243.884 91.986,244.604 91.985,245.005 91.924 C 245.405 91.863,245.013 91.814,244.133 91.816 C 243.253 91.817,242.925 91.867,243.405 91.927 M251.136 91.922 C 251.468 91.986,251.948 91.983,252.203 91.917 C 252.458 91.850,252.187 91.798,251.600 91.801 C 251.013 91.804,250.805 91.858,251.136 91.922 M137.807 95.129 C 138.434 95.185,139.394 95.184,139.940 95.127 C 140.487 95.070,139.973 95.024,138.800 95.025 C 137.627 95.026,137.180 95.073,137.807 95.129 M228.373 117.733 C 228.374 119.933,228.415 120.798,228.465 119.654 C 228.515 118.511,228.515 116.711,228.464 115.654 C 228.414 114.598,228.373 115.533,228.373 117.733 M145.149 119.333 C 145.151 120.213,145.201 120.541,145.260 120.062 C 145.319 119.583,145.318 118.863,145.257 118.462 C 145.196 118.061,145.148 118.453,145.149 119.333 M258.462 121.333 C 258.462 121.847,258.517 122.057,258.584 121.800 C 258.651 121.543,258.651 121.123,258.584 120.867 C 258.517 120.610,258.462 120.820,258.462 121.333 M145.129 127.467 C 145.129 127.980,145.183 128.190,145.250 127.933 C 145.318 127.677,145.318 127.257,145.250 127.000 C 145.183 126.743,145.129 126.953,145.129 127.467 M180.733 135.122 C 181.063 135.185,181.603 135.185,181.933 135.122 C 182.263 135.058,181.993 135.006,181.333 135.006 C 180.673 135.006,180.403 135.058,180.733 135.122 M192.067 138.584 C 192.323 138.651,192.743 138.651,193.000 138.584 C 193.257 138.517,193.047 138.462,192.533 138.462 C 192.020 138.462,191.810 138.517,192.067 138.584 M136.867 141.791 C 137.270 141.852,137.930 141.852,138.333 141.791 C 138.737 141.730,138.407 141.680,137.600 141.680 C 136.793 141.680,136.463 141.730,136.867 141.791 M225.134 144.933 C 225.137 145.520,225.191 145.729,225.255 145.397 C 225.319 145.065,225.317 144.585,225.250 144.330 C 225.183 144.075,225.131 144.347,225.134 144.933 M225.129 149.067 C 225.129 149.580,225.183 149.790,225.250 149.533 C 225.318 149.277,225.318 148.857,225.250 148.600 C 225.183 148.343,225.129 148.553,225.129 149.067 " stroke="none" fill="#383434" fill-rule="evenodd"/><path id="path2" d="M151.938 91.927 C 152.417 91.986,153.137 91.985,153.538 91.924 C 153.939 91.863,153.547 91.814,152.667 91.816 C 151.787 91.817,151.459 91.867,151.938 91.927 M163.403 91.922 C 163.735 91.986,164.215 91.983,164.470 91.917 C 164.725 91.850,164.453 91.798,163.867 91.801 C 163.280 91.804,163.071 91.858,163.403 91.922 M169.805 91.927 C 170.284 91.986,171.004 91.985,171.405 91.924 C 171.805 91.863,171.413 91.814,170.533 91.816 C 169.653 91.817,169.325 91.867,169.805 91.927 M243.405 91.927 C 243.884 91.986,244.604 91.985,245.005 91.924 C 245.405 91.863,245.013 91.814,244.133 91.816 C 243.253 91.817,242.925 91.867,243.405 91.927 M251.136 91.922 C 251.468 91.986,251.948 91.983,252.203 91.917 C 252.458 91.850,252.187 91.798,251.600 91.801 C 251.013 91.804,250.805 91.858,251.136 91.922 M137.807 95.129 C 138.434 95.185,139.394 95.184,139.940 95.127 C 140.487 95.070,139.973 95.024,138.800 95.025 C 137.627 95.026,137.180 95.073,137.807 95.129 M228.373 117.733 C 228.374 119.933,228.415 120.798,228.465 119.654 C 228.515 118.511,228.515 116.711,228.464 115.654 C 228.414 114.598,228.373 115.533,228.373 117.733 M145.149 119.333 C 145.151 120.213,145.201 120.541,145.260 120.062 C 145.319 119.583,145.318 118.863,145.257 118.462 C 145.196 118.061,145.148 118.453,145.149 119.333 M258.462 121.333 C 258.462 121.847,258.517 122.057,258.584 121.800 C 258.651 121.543,258.651 121.123,258.584 120.867 C 258.517 120.610,258.462 120.820,258.462 121.333 M145.129 127.467 C 145.129 127.980,145.183 128.190,145.250 127.933 C 145.318 127.677,145.318 127.257,145.250 127.000 C 145.183 126.743,145.129 126.953,145.129 127.467 M180.733 135.122 C 181.063 135.185,181.603 135.185,181.933 135.122 C 182.263 135.058,181.993 135.006,181.333 135.006 C 180.673 135.006,180.403 135.058,180.733 135.122 M192.067 138.584 C 192.323 138.651,192.743 138.651,193.000 138.584 C 193.257 138.517,193.047 138.462,192.533 138.462 C 192.020 138.462,191.810 138.517,192.067 138.584 M136.867 141.791 C 137.270 141.852,137.930 141.852,138.333 141.791 C 138.737 141.730,138.407 141.680,137.600 141.680 C 136.793 141.680,136.463 141.730,136.867 141.791 M225.134 144.933 C 225.137 145.520,225.191 145.729,225.255 145.397 C 225.319 145.065,225.317 144.585,225.250 144.330 C 225.183 144.075,225.131 144.347,225.134 144.933 M225.129 149.067 C 225.129 149.580,225.183 149.790,225.250 149.533 C 225.318 149.277,225.318 148.857,225.250 148.600 C 225.183 148.343,225.129 148.553,225.129 149.067 " stroke="none" fill="#383434" fill-rule="evenodd"/><path id="path3" d="M151.938 91.927 C 152.417 91.986,153.137 91.985,153.538 91.924 C 153.939 91.863,153.547 91.814,152.667 91.816 C 151.787 91.817,151.459 91.867,151.938 91.927 M163.403 91.922 C 163.735 91.986,164.215 91.983,164.470 91.917 C 164.725 91.850,164.453 91.798,163.867 91.801 C 163.280 91.804,163.071 91.858,163.403 91.922 M169.805 91.927 C 170.284 91.986,171.004 91.985,171.405 91.924 C 171.805 91.863,171.413 91.814,170.533 91.816 C 169.653 91.817,169.325 91.867,169.805 91.927 M243.405 91.927 C 243.884 91.986,244.604 91.985,245.005 91.924 C 245.405 91.863,245.013 91.814,244.133 91.816 C 243.253 91.817,242.925 91.867,243.405 91.927 M251.136 91.922 C 251.468 91.986,251.948 91.983,252.203 91.917 C 252.458 91.850,252.187 91.798,251.600 91.801 C 251.013 91.804,250.805 91.858,251.136 91.922 M137.807 95.129 C 138.434 95.185,139.394 95.184,139.940 95.127 C 140.487 95.070,139.973 95.024,138.800 95.025 C 137.627 95.026,137.180 95.073,137.807 95.129 M228.373 117.733 C 228.374 119.933,228.415 120.798,228.465 119.654 C 228.515 118.511,228.515 116.711,228.464 115.654 C 228.414 114.598,228.373 115.533,228.373 117.733 M145.149 119.333 C 145.151 120.213,145.201 120.541,145.260 120.062 C 145.319 119.583,145.318 118.863,145.257 118.462 C 145.196 118.061,145.148 118.453,145.149 119.333 M258.462 121.333 C 258.462 121.847,258.517 122.057,258.584 121.800 C 258.651 121.543,258.651 121.123,258.584 120.867 C 258.517 120.610,258.462 120.820,258.462 121.333 M145.129 127.467 C 145.129 127.980,145.183 128.190,145.250 127.933 C 145.318 127.677,145.318 127.257,145.250 127.000 C 145.183 126.743,145.129 126.953,145.129 127.467 M180.733 135.122 C 181.063 135.185,181.603 135.185,181.933 135.122 C 182.263 135.058,181.993 135.006,181.333 135.006 C 180.673 135.006,180.403 135.058,180.733 135.122 M192.067 138.584 C 192.323 138.651,192.743 138.651,193.000 138.584 C 193.257 138.517,193.047 138.462,192.533 138.462 C 192.020 138.462,191.810 138.517,192.067 138.584 M136.867 141.791 C 137.270 141.852,137.930 141.852,138.333 141.791 C 138.737 141.730,138.407 141.680,137.600 141.680 C 136.793 141.680,136.463 141.730,136.867 141.791 M225.134 144.933 C 225.137 145.520,225.191 145.729,225.255 145.397 C 225.319 145.065,225.317 144.585,225.250 144.330 C 225.183 144.075,225.131 144.347,225.134 144.933 M225.129 149.067 C 225.129 149.580,225.183 149.790,225.250 149.533 C 225.318 149.277,225.318 148.857,225.250 148.600 C 225.183 148.343,225.129 148.553,225.129 149.067 " stroke="none" fill="#383434" fill-rule="evenodd"/><path id="path4" d="M151.938 91.927 C 152.417 91.986,153.137 91.985,153.538 91.924 C 153.939 91.863,153.547 91.814,152.667 91.816 C 151.787 91.817,151.459 91.867,151.938 91.927 M163.403 91.922 C 163.735 91.986,164.215 91.983,164.470 91.917 C 164.725 91.850,164.453 91.798,163.867 91.801 C 163.280 91.804,163.071 91.858,163.403 91.922 M169.805 91.927 C 170.284 91.986,171.004 91.985,171.405 91.924 C 171.805 91.863,171.413 91.814,170.533 91.816 C 169.653 91.817,169.325 91.867,169.805 91.927 M243.405 91.927 C 243.884 91.986,244.604 91.985,245.005 91.924 C 245.405 91.863,245.013 91.814,244.133 91.816 C 243.253 91.817,242.925 91.867,243.405 91.927 M251.136 91.922 C 251.468 91.986,251.948 91.983,252.203 91.917 C 252.458 91.850,252.187 91.798,251.600 91.801 C 251.013 91.804,250.805 91.858,251.136 91.922 M137.807 95.129 C 138.434 95.185,139.394 95.184,139.940 95.127 C 140.487 95.070,139.973 95.024,138.800 95.025 C 137.627 95.026,137.180 95.073,137.807 95.129 M228.373 117.733 C 228.374 119.933,228.415 120.798,228.465 119.654 C 228.515 118.511,228.515 116.711,228.464 115.654 C 228.414 114.598,228.373 115.533,228.373 117.733 M145.149 119.333 C 145.151 120.213,145.201 120.541,145.260 120.062 C 145.319 119.583,145.318 118.863,145.257 118.462 C 145.196 118.061,145.148 118.453,145.149 119.333 M258.462 121.333 C 258.462 121.847,258.517 122.057,258.584 121.800 C 258.651 121.543,258.651 121.123,258.584 120.867 C 258.517 120.610,258.462 120.820,258.462 121.333 M145.129 127.467 C 145.129 127.980,145.183 128.190,145.250 127.933 C 145.318 127.677,145.318 127.257,145.250 127.000 C 145.183 126.743,145.129 126.953,145.129 127.467 M180.733 135.122 C 181.063 135.185,181.603 135.185,181.933 135.122 C 182.263 135.058,181.993 135.006,181.333 135.006 C 180.673 135.006,180.403 135.058,180.733 135.122 M192.067 138.584 C 192.323 138.651,192.743 138.651,193.000 138.584 C 193.257 138.517,193.047 138.462,192.533 138.462 C 192.020 138.462,191.810 138.517,192.067 138.584 M136.867 141.791 C 137.270 141.852,137.930 141.852,138.333 141.791 C 138.737 141.730,138.407 141.680,137.600 141.680 C 136.793 141.680,136.463 141.730,136.867 141.791 M225.134 144.933 C 225.137 145.520,225.191 145.729,225.255 145.397 C 225.319 145.065,225.317 144.585,225.250 144.330 C 225.183 144.075,225.131 144.347,225.134 144.933 M225.129 149.067 C 225.129 149.580,225.183 149.790,225.250 149.533 C 225.318 149.277,225.318 148.857,225.250 148.600 C 225.183 148.343,225.129 148.553,225.129 149.067 " stroke="none" fill="#383434" fill-rule="evenodd"/></g></svg>