<svg xmlns="http://www.w3.org/2000/svg" xmlns:xlink="http://www.w3.org/1999/xlink" id="svg" version="1.1" viewBox="141.66 101.63 119.94 63.41"><g id="svgg"><path id="path0" d="M142.351 101.770 C 142.104 101.841,141.843 102.222,141.770 102.616 C 141.667 103.180,141.729 113.893,141.840 114.733 C 141.855 114.843,142.587 114.933,143.468 114.933 L 145.070 114.933 145.002 133.398 L 144.933 151.863 143.467 151.850 C 142.660 151.843,141.934 151.932,141.853 152.048 C 141.541 152.497,141.778 164.285,142.106 164.613 C 142.480 164.987,161.564 165.082,163.279 164.719 C 164.024 164.561,164.367 164.315,164.580 163.786 C 164.986 162.776,165.197 153.398,164.835 152.470 L 164.549 151.741 161.475 151.840 L 158.400 151.939 158.400 133.436 L 158.400 114.933 161.457 114.933 C 164.274 114.933,164.538 114.890,164.809 114.382 C 165.249 113.561,165.050 102.542,164.587 102.079 C 164.243 101.736,143.475 101.447,142.351 101.770 M175.966 101.776 C 175.251 101.898,174.944 102.721,174.936 104.533 C 174.933 105.163,174.855 105.198,173.533 105.173 C 171.821 105.139,169.671 105.768,169.332 106.402 C 168.622 107.729,168.221 109.505,168.372 110.650 C 168.529 111.841,168.517 111.867,167.780 111.893 C 165.338 111.977,165.268 112.118,165.189 117.125 C 165.110 122.058,164.439 121.626,172.033 121.538 L 178.267 121.467 178.346 119.946 L 178.426 118.426 179.946 118.346 L 181.467 118.267 181.546 116.600 L 181.625 114.933 184.912 114.933 L 188.198 114.933 188.376 116.505 C 188.574 118.256,188.750 118.390,190.867 118.396 C 191.768 118.399,191.999 118.495,191.996 118.867 C 191.993 119.192,191.929 119.234,191.784 119.006 C 190.673 117.257,188.021 121.215,188.306 124.198 L 188.404 125.232 183.810 125.161 C 177.921 125.070,178.462 124.403,178.502 131.704 C 178.541 138.910,178.018 138.243,183.712 138.355 L 188.198 138.444 188.354 139.762 C 188.564 141.541,188.625 141.600,190.246 141.600 L 191.661 141.600 191.818 142.750 C 192.094 144.758,191.685 145.319,189.939 145.330 C 189.136 145.335,188.449 146.444,188.576 147.531 C 188.677 148.396,188.673 148.400,187.606 148.313 C 185.526 148.145,184.978 148.582,185.186 150.246 C 185.288 151.062,185.258 151.749,185.116 151.836 C 184.979 151.921,184.809 151.385,184.738 150.646 C 184.579 148.998,184.406 148.814,182.799 148.583 C 182.073 148.479,181.445 148.228,181.339 148.000 C 180.053 145.232,179.881 145.183,171.600 145.192 L 165.200 145.200 165.201 149.067 C 165.203 154.422,165.317 154.683,167.713 154.774 C 168.362 154.799,168.395 154.868,168.310 156.029 C 168.228 157.147,168.692 159.069,169.332 160.265 C 169.687 160.927,171.950 161.600,173.820 161.600 L 175.407 161.600 175.576 162.497 C 175.967 164.586,178.233 165.161,185.502 165.018 C 191.011 164.909,191.464 164.794,191.470 163.501 C 191.480 161.610,191.498 161.600,194.778 161.600 C 198.214 161.600,198.400 161.502,198.400 159.693 L 198.400 158.427 199.933 158.347 L 201.467 158.267 201.545 156.628 C 201.629 154.887,201.824 154.680,203.394 154.670 C 204.802 154.662,204.925 153.936,205.027 145.079 C 205.146 134.640,204.833 132.944,202.648 132.228 C 202.043 132.029,201.560 131.777,201.574 131.667 C 201.588 131.557,201.600 130.762,201.600 129.901 L 201.600 128.335 202.939 128.206 C 204.972 128.010,205.045 127.730,205.039 120.133 C 205.033 112.259,204.965 111.989,202.939 111.794 L 201.600 111.665 201.596 110.299 C 201.586 106.607,200.245 105.260,196.533 105.214 L 195.067 105.196 194.927 103.804 C 194.849 103.039,194.634 102.260,194.447 102.073 C 194.112 101.738,177.726 101.474,175.966 101.776 M209.867 101.840 L 208.667 102.000 208.490 103.333 C 208.257 105.091,208.268 113.281,208.505 114.133 C 208.687 114.790,208.736 114.801,211.812 114.875 L 214.933 114.950 214.933 133.437 L 214.933 151.923 211.818 151.895 L 208.703 151.867 208.454 152.800 C 208.138 153.986,208.384 162.829,208.760 163.786 C 209.191 164.883,209.878 164.933,224.320 164.933 C 238.998 164.933,238.064 165.064,238.311 162.980 L 238.474 161.600 241.970 161.594 C 247.222 161.584,247.796 161.382,248.108 159.430 L 248.273 158.400 249.683 158.400 C 251.444 158.400,251.733 158.112,251.733 156.360 L 251.733 154.960 253.267 154.880 L 254.800 154.800 254.879 153.302 L 254.958 151.805 256.325 151.643 C 258.186 151.422,258.245 151.318,258.358 148.022 L 258.457 145.130 259.679 144.992 C 261.674 144.767,261.601 145.216,261.596 133.216 C 261.591 121.283,261.704 122.000,259.800 121.741 L 258.400 121.550 258.400 118.661 C 258.400 115.228,258.231 114.933,256.261 114.933 L 254.960 114.933 254.880 113.400 C 254.802 111.898,254.784 111.866,254.000 111.845 C 251.606 111.779,251.733 111.859,251.733 110.419 C 251.733 108.714,251.289 108.267,249.594 108.267 L 248.293 108.267 248.213 106.733 L 248.133 105.200 245.600 105.173 C 241.324 105.127,241.686 105.256,241.539 103.727 C 241.375 102.020,241.410 102.046,238.984 101.825 C 236.516 101.600,211.570 101.613,209.867 101.840 M235.269 116.157 C 235.440 117.679,235.618 117.856,237.201 118.084 C 237.927 118.188,238.555 118.439,238.661 118.667 C 239.526 120.528,239.647 120.658,240.937 121.121 C 241.668 121.383,242.897 121.598,243.667 121.599 C 244.808 121.600,245.073 121.686,245.103 122.067 C 245.123 122.323,245.153 124.428,245.170 126.743 C 245.203 131.304,245.252 131.454,246.712 131.463 C 248.095 131.471,248.267 131.677,248.267 133.333 C 248.267 135.032,248.110 135.200,246.521 135.200 C 245.256 135.200,244.955 135.875,245.157 138.261 C 245.406 141.202,245.189 142.051,244.139 142.248 C 243.093 142.444,242.462 143.089,242.243 144.187 C 242.136 144.721,241.834 145.118,241.373 145.329 C 240.984 145.506,240.367 145.794,240.000 145.968 C 239.615 146.151,239.206 146.674,239.033 147.206 C 238.747 148.082,238.649 148.140,237.033 148.397 L 235.333 148.667 235.059 150.267 C 234.789 151.839,234.770 151.866,233.926 151.852 C 233.453 151.844,231.987 151.814,230.667 151.785 L 228.267 151.733 228.267 133.333 L 228.267 114.933 231.699 114.933 L 235.131 114.933 235.269 116.157 " stroke="none" fill="#343434" fill-rule="evenodd"/><path id="path1" d="M141.667 106.800 C 141.670 107.387,141.725 107.595,141.789 107.264 C 141.852 106.932,141.850 106.452,141.783 106.197 C 141.716 105.942,141.664 106.213,141.667 106.800 M141.685 110.933 C 141.685 111.887,141.734 112.277,141.793 111.800 C 141.852 111.323,141.852 110.543,141.793 110.067 C 141.734 109.590,141.685 109.980,141.685 110.933 M165.134 118.267 C 165.137 118.853,165.191 119.062,165.255 118.730 C 165.319 118.399,165.317 117.919,165.250 117.664 C 165.183 117.409,165.131 117.680,165.134 118.267 M245.139 125.867 C 245.139 126.527,245.191 126.797,245.255 126.467 C 245.318 126.137,245.318 125.597,245.255 125.267 C 245.191 124.937,245.139 125.207,245.139 125.867 M185.536 125.255 C 185.868 125.319,186.348 125.317,186.603 125.250 C 186.858 125.183,186.587 125.131,186.000 125.134 C 185.413 125.137,185.205 125.191,185.536 125.255 M178.467 130.000 C 178.470 130.587,178.525 130.795,178.589 130.464 C 178.652 130.132,178.650 129.652,178.583 129.397 C 178.516 129.142,178.464 129.413,178.467 130.000 M178.467 133.467 C 178.470 134.053,178.525 134.262,178.589 133.930 C 178.652 133.599,178.650 133.119,178.583 132.864 C 178.516 132.609,178.464 132.880,178.467 133.467 M245.134 139.867 C 245.137 140.453,245.191 140.662,245.255 140.330 C 245.319 139.999,245.317 139.519,245.250 139.264 C 245.183 139.009,245.131 139.280,245.134 139.867 M172.733 145.255 C 173.063 145.318,173.603 145.318,173.933 145.255 C 174.263 145.191,173.993 145.139,173.333 145.139 C 172.673 145.139,172.403 145.191,172.733 145.255 M185.035 151.142 C 184.947 151.672,184.986 151.920,185.134 151.772 C 185.269 151.638,185.334 151.244,185.279 150.897 C 185.195 150.364,185.158 150.401,185.035 151.142 M233.400 151.917 C 233.657 151.984,234.077 151.984,234.333 151.917 C 234.590 151.850,234.380 151.795,233.867 151.795 C 233.353 151.795,233.143 151.850,233.400 151.917 M141.685 155.733 C 141.685 156.687,141.734 157.077,141.793 156.600 C 141.852 156.123,141.852 155.343,141.793 154.867 C 141.734 154.390,141.685 154.780,141.685 155.733 M141.662 159.467 C 141.662 159.980,141.717 160.190,141.784 159.933 C 141.851 159.677,141.851 159.257,141.784 159.000 C 141.717 158.743,141.662 158.953,141.662 159.467 " stroke="none" fill="#383434" fill-rule="evenodd"/><path id="path2" d="M141.667 106.800 C 141.670 107.387,141.725 107.595,141.789 107.264 C 141.852 106.932,141.850 106.452,141.783 106.197 C 141.716 105.942,141.664 106.213,141.667 106.800 M141.685 110.933 C 141.685 111.887,141.734 112.277,141.793 111.800 C 141.852 111.323,141.852 110.543,141.793 110.067 C 141.734 109.590,141.685 109.980,141.685 110.933 M165.134 118.267 C 165.137 118.853,165.191 119.062,165.255 118.730 C 165.319 118.399,165.317 117.919,165.250 117.664 C 165.183 117.409,165.131 117.680,165.134 118.267 M245.139 125.867 C 245.139 126.527,245.191 126.797,245.255 126.467 C 245.318 126.137,245.318 125.597,245.255 125.267 C 245.191 124.937,245.139 125.207,245.139 125.867 M185.536 125.255 C 185.868 125.319,186.348 125.317,186.603 125.250 C 186.858 125.183,186.587 125.131,186.000 125.134 C 185.413 125.137,185.205 125.191,185.536 125.255 M178.467 130.000 C 178.470 130.587,178.525 130.795,178.589 130.464 C 178.652 130.132,178.650 129.652,178.583 129.397 C 178.516 129.142,178.464 129.413,178.467 130.000 M178.467 133.467 C 178.470 134.053,178.525 134.262,178.589 133.930 C 178.652 133.599,178.650 133.119,178.583 132.864 C 178.516 132.609,178.464 132.880,178.467 133.467 M245.134 139.867 C 245.137 140.453,245.191 140.662,245.255 140.330 C 245.319 139.999,245.317 139.519,245.250 139.264 C 245.183 139.009,245.131 139.280,245.134 139.867 M172.733 145.255 C 173.063 145.318,173.603 145.318,173.933 145.255 C 174.263 145.191,173.993 145.139,173.333 145.139 C 172.673 145.139,172.403 145.191,172.733 145.255 M185.035 151.142 C 184.947 151.672,184.986 151.920,185.134 151.772 C 185.269 151.638,185.334 151.244,185.279 150.897 C 185.195 150.364,185.158 150.401,185.035 151.142 M233.400 151.917 C 233.657 151.984,234.077 151.984,234.333 151.917 C 234.590 151.850,234.380 151.795,233.867 151.795 C 233.353 151.795,233.143 151.850,233.400 151.917 M141.685 155.733 C 141.685 156.687,141.734 157.077,141.793 156.600 C 141.852 156.123,141.852 155.343,141.793 154.867 C 141.734 154.390,141.685 154.780,141.685 155.733 M141.662 159.467 C 141.662 159.980,141.717 160.190,141.784 159.933 C 141.851 159.677,141.851 159.257,141.784 159.000 C 141.717 158.743,141.662 158.953,141.662 159.467 " stroke="none" fill="#383434" fill-rule="evenodd"/><path id="path3" d="M141.667 106.800 C 141.670 107.387,141.725 107.595,141.789 107.264 C 141.852 106.932,141.850 106.452,141.783 106.197 C 141.716 105.942,141.664 106.213,141.667 106.800 M141.685 110.933 C 141.685 111.887,141.734 112.277,141.793 111.800 C 141.852 111.323,141.852 110.543,141.793 110.067 C 141.734 109.590,141.685 109.980,141.685 110.933 M165.134 118.267 C 165.137 118.853,165.191 119.062,165.255 118.730 C 165.319 118.399,165.317 117.919,165.250 117.664 C 165.183 117.409,165.131 117.680,165.134 118.267 M245.139 125.867 C 245.139 126.527,245.191 126.797,245.255 126.467 C 245.318 126.137,245.318 125.597,245.255 125.267 C 245.191 124.937,245.139 125.207,245.139 125.867 M185.536 125.255 C 185.868 125.319,186.348 125.317,186.603 125.250 C 186.858 125.183,186.587 125.131,186.000 125.134 C 185.413 125.137,185.205 125.191,185.536 125.255 M178.467 130.000 C 178.470 130.587,178.525 130.795,178.589 130.464 C 178.652 130.132,178.650 129.652,178.583 129.397 C 178.516 129.142,178.464 129.413,178.467 130.000 M178.467 133.467 C 178.470 134.053,178.525 134.262,178.589 133.930 C 178.652 133.599,178.650 133.119,178.583 132.864 C 178.516 132.609,178.464 132.880,178.467 133.467 M245.134 139.867 C 245.137 140.453,245.191 140.662,245.255 140.330 C 245.319 139.999,245.317 139.519,245.250 139.264 C 245.183 139.009,245.131 139.280,245.134 139.867 M172.733 145.255 C 173.063 145.318,173.603 145.318,173.933 145.255 C 174.263 145.191,173.993 145.139,173.333 145.139 C 172.673 145.139,172.403 145.191,172.733 145.255 M185.035 151.142 C 184.947 151.672,184.986 151.920,185.134 151.772 C 185.269 151.638,185.334 151.244,185.279 150.897 C 185.195 150.364,185.158 150.401,185.035 151.142 M233.400 151.917 C 233.657 151.984,234.077 151.984,234.333 151.917 C 234.590 151.850,234.380 151.795,233.867 151.795 C 233.353 151.795,233.143 151.850,233.400 151.917 M141.685 155.733 C 141.685 156.687,141.734 157.077,141.793 156.600 C 141.852 156.123,141.852 155.343,141.793 154.867 C 141.734 154.390,141.685 154.780,141.685 155.733 M141.662 159.467 C 141.662 159.980,141.717 160.190,141.784 159.933 C 141.851 159.677,141.851 159.257,141.784 159.000 C 141.717 158.743,141.662 158.953,141.662 159.467 " stroke="none" fill="#383434" fill-rule="evenodd"/><path id="path4" d="M141.667 106.800 C 141.670 107.387,141.725 107.595,141.789 107.264 C 141.852 106.932,141.850 106.452,141.783 106.197 C 141.716 105.942,141.664 106.213,141.667 106.800 M141.685 110.933 C 141.685 111.887,141.734 112.277,141.793 111.800 C 141.852 111.323,141.852 110.543,141.793 110.067 C 141.734 109.590,141.685 109.980,141.685 110.933 M165.134 118.267 C 165.137 118.853,165.191 119.062,165.255 118.730 C 165.319 118.399,165.317 117.919,165.250 117.664 C 165.183 117.409,165.131 117.680,165.134 118.267 M245.139 125.867 C 245.139 126.527,245.191 126.797,245.255 126.467 C 245.318 126.137,245.318 125.597,245.255 125.267 C 245.191 124.937,245.139 125.207,245.139 125.867 M185.536 125.255 C 185.868 125.319,186.348 125.317,186.603 125.250 C 186.858 125.183,186.587 125.131,186.000 125.134 C 185.413 125.137,185.205 125.191,185.536 125.255 M178.467 130.000 C 178.470 130.587,178.525 130.795,178.589 130.464 C 178.652 130.132,178.650 129.652,178.583 129.397 C 178.516 129.142,178.464 129.413,178.467 130.000 M178.467 133.467 C 178.470 134.053,178.525 134.262,178.589 133.930 C 178.652 133.599,178.650 133.119,178.583 132.864 C 178.516 132.609,178.464 132.880,178.467 133.467 M245.134 139.867 C 245.137 140.453,245.191 140.662,245.255 140.330 C 245.319 139.999,245.317 139.519,245.250 139.264 C 245.183 139.009,245.131 139.280,245.134 139.867 M172.733 145.255 C 173.063 145.318,173.603 145.318,173.933 145.255 C 174.263 145.191,173.993 145.139,173.333 145.139 C 172.673 145.139,172.403 145.191,172.733 145.255 M185.035 151.142 C 184.947 151.672,184.986 151.920,185.134 151.772 C 185.269 151.638,185.334 151.244,185.279 150.897 C 185.195 150.364,185.158 150.401,185.035 151.142 M233.400 151.917 C 233.657 151.984,234.077 151.984,234.333 151.917 C 234.590 151.850,234.380 151.795,233.867 151.795 C 233.353 151.795,233.143 151.850,233.400 151.917 M141.685 155.733 C 141.685 156.687,141.734 157.077,141.793 156.600 C 141.852 156.123,141.852 155.343,141.793 154.867 C 141.734 154.390,141.685 154.780,141.685 155.733 M141.662 159.467 C 141.662 159.980,141.717 160.190,141.784 159.933 C 141.851 159.677,141.851 159.257,141.784 159.000 C 141.717 158.743,141.662 158.953,141.662 159.467 " stroke="none" fill="#383434" fill-rule="evenodd"/></g></svg>