<svg xmlns="http://www.w3.org/2000/svg" xmlns:xlink="http://www.w3.org/1999/xlink" id="svg" version="1.1" viewBox="105.75 90.69 196.04 97.25"><g id="svgg"><path id="path0" d="M165.209 90.990 C 164.674 91.163,164.117 91.574,163.973 91.903 C 163.774 92.357,163.377 92.540,162.330 92.664 C 160.782 92.848,160.168 93.228,160.168 94.003 C 160.168 94.397,159.964 94.530,159.362 94.530 C 157.610 94.530,156.753 94.867,156.474 95.667 C 156.314 96.128,155.930 96.511,155.526 96.612 C 155.105 96.718,154.778 97.057,154.665 97.507 C 154.552 97.960,154.189 98.334,153.700 98.505 C 153.223 98.671,152.807 99.092,152.637 99.577 C 152.458 100.093,152.128 100.409,151.705 100.468 C 151.168 100.545,150.980 100.844,150.650 102.149 C 150.299 103.534,150.147 103.757,149.458 103.895 C 148.692 104.048,148.668 104.108,148.666 105.813 C 148.664 107.460,148.612 107.603,147.854 108.034 C 146.879 108.589,146.745 109.316,146.803 113.745 L 146.844 116.830 154.208 116.905 L 161.571 116.980 161.571 116.011 C 161.571 115.123,161.647 115.035,162.482 114.955 L 163.394 114.867 163.477 112.991 C 163.556 111.184,163.587 111.112,164.318 111.027 C 164.900 110.960,165.097 110.768,165.162 110.205 C 165.227 109.650,165.468 109.407,166.144 109.214 C 166.831 109.018,167.061 108.780,167.129 108.196 C 167.204 107.558,167.354 107.433,168.048 107.433 C 168.746 107.433,168.905 107.299,169.046 106.592 L 169.215 105.750 171.442 105.750 C 174.000 105.750,174.755 105.461,174.755 104.478 C 174.755 103.875,174.880 103.787,175.736 103.787 C 176.631 103.787,176.718 103.858,176.718 104.596 C 176.718 105.590,177.167 105.741,180.136 105.747 C 182.277 105.750,182.291 105.755,182.380 106.522 C 182.465 107.261,182.541 107.297,184.222 107.377 L 185.975 107.460 185.975 108.429 C 185.975 109.346,186.026 109.397,186.943 109.397 L 187.912 109.397 187.995 111.150 C 188.077 112.879,188.090 112.904,188.936 112.987 L 189.794 113.071 189.735 117.615 C 189.702 120.115,189.663 122.303,189.648 122.478 C 189.633 122.653,189.359 122.864,189.039 122.948 C 188.719 123.032,188.388 123.367,188.303 123.693 C 188.217 124.019,187.779 124.476,187.330 124.709 C 186.442 125.168,185.975 126.080,185.975 127.354 C 185.975 128.152,185.948 128.165,184.223 128.247 C 182.537 128.328,182.467 128.361,182.330 129.141 L 182.188 129.950 178.401 129.987 C 174.437 130.026,173.538 130.249,173.212 131.276 C 173.056 131.766,172.788 131.837,171.089 131.837 L 169.144 131.837 169.149 137.938 C 169.151 141.294,169.273 144.229,169.419 144.460 C 169.636 144.805,170.662 144.897,175.107 144.972 C 180.337 145.059,180.539 145.084,180.798 145.664 C 181.126 146.399,181.938 146.640,184.222 146.676 L 185.975 146.704 185.975 147.686 C 185.975 148.621,186.022 148.668,186.957 148.668 C 187.856 148.668,187.938 148.737,187.938 149.491 C 187.938 150.709,188.431 151.788,189.064 151.953 C 189.495 152.066,189.621 152.337,189.621 153.153 C 189.621 155.204,189.899 155.916,190.775 156.108 L 191.585 156.286 191.585 159.069 L 191.585 161.851 190.778 161.851 C 189.908 161.851,189.621 162.515,189.621 164.533 C 189.621 165.336,189.518 165.473,188.850 165.549 C 188.211 165.623,188.064 165.791,187.992 166.533 C 187.921 167.266,187.770 167.443,187.159 167.515 C 186.591 167.581,186.352 167.818,186.155 168.507 C 186.013 169.004,185.655 169.489,185.358 169.583 C 185.061 169.677,184.683 170.052,184.517 170.416 C 184.311 170.868,183.938 171.105,183.342 171.163 C 182.583 171.237,182.457 171.368,182.381 172.160 L 182.293 173.072 175.736 173.072 L 169.180 173.072 169.092 172.160 C 169.012 171.328,168.913 171.241,167.952 171.161 C 167.111 171.092,166.900 170.960,166.900 170.506 C 166.900 170.139,166.618 169.831,166.104 169.636 C 165.642 169.462,165.180 169.001,165.006 168.539 C 164.815 168.034,164.502 167.742,164.151 167.742 C 163.742 167.742,163.550 167.490,163.416 166.781 C 163.271 166.004,163.076 165.784,162.403 165.636 C 161.610 165.462,161.571 165.384,161.571 163.989 C 161.571 161.774,161.870 161.851,153.274 161.851 C 144.388 161.851,144.959 161.643,145.079 164.840 C 145.160 167.009,145.172 167.042,145.933 167.129 C 146.776 167.226,146.783 167.251,146.744 169.846 C 146.708 172.289,146.858 172.739,147.743 172.843 C 148.420 172.922,148.531 173.095,148.794 174.472 C 149.035 175.734,149.228 176.080,149.860 176.381 C 150.436 176.656,150.631 176.952,150.631 177.553 C 150.631 178.218,150.776 178.388,151.473 178.541 C 152.173 178.695,152.314 178.863,152.314 179.545 C 152.314 180.295,152.398 180.365,153.296 180.365 C 154.231 180.365,154.278 180.411,154.278 181.346 C 154.278 182.278,154.327 182.328,155.241 182.328 C 156.083 182.328,156.215 182.425,156.293 183.100 C 156.375 183.816,156.506 183.889,158.135 184.131 C 159.810 184.379,159.888 184.425,159.888 185.182 L 159.888 185.975 162.693 185.975 L 165.498 185.975 165.498 186.957 L 165.498 187.938 175.578 187.938 C 186.170 187.938,186.888 187.862,187.426 186.682 C 187.721 186.034,187.897 185.975,189.533 185.975 C 191.276 185.975,191.322 185.956,191.480 185.166 C 191.631 184.413,191.755 184.345,193.306 184.169 C 194.859 183.994,194.982 183.927,195.133 183.170 C 195.265 182.509,195.458 182.343,196.175 182.273 C 196.937 182.199,197.066 182.068,197.141 181.293 C 197.217 180.513,197.344 180.387,198.123 180.311 C 198.860 180.240,199.034 180.091,199.105 179.470 C 199.173 178.887,199.364 178.696,199.947 178.628 C 200.567 178.557,200.717 178.383,200.788 177.648 C 200.858 176.926,201.026 176.722,201.671 176.581 C 202.541 176.389,202.795 175.836,202.801 174.116 C 202.805 173.169,202.892 173.040,203.634 172.892 C 204.540 172.710,204.692 172.204,204.841 168.875 C 204.902 167.498,204.979 167.327,205.610 167.180 L 206.311 167.016 206.386 159.090 C 206.465 150.690,206.352 149.525,205.417 149.105 C 205.000 148.918,204.782 148.488,204.663 147.621 C 204.446 146.038,204.037 145.302,203.373 145.302 C 202.958 145.302,202.819 145.066,202.752 144.250 C 202.673 143.294,202.583 143.190,201.770 143.111 C 200.990 143.036,200.863 142.909,200.788 142.129 C 200.716 141.385,200.583 141.234,200.000 141.234 C 199.439 141.234,199.271 141.066,199.158 140.393 C 199.041 139.691,198.872 139.537,198.135 139.465 C 197.168 139.371,196.897 138.560,197.140 136.481 C 197.239 135.632,197.359 135.505,198.135 135.429 C 198.859 135.359,199.034 135.207,199.105 134.589 C 199.173 134.006,199.364 133.815,199.947 133.748 C 200.568 133.676,200.717 133.502,200.788 132.765 C 200.863 131.986,200.990 131.859,201.770 131.784 C 202.661 131.697,202.665 131.690,202.748 129.944 C 202.820 128.444,202.908 128.191,203.359 128.191 C 204.600 128.191,204.769 127.570,204.769 123.000 L 204.769 118.691 205.540 118.602 C 206.813 118.456,206.888 115.361,205.624 115.108 L 204.769 114.937 204.769 111.785 C 204.769 106.980,204.584 106.036,203.606 105.840 C 202.953 105.710,202.805 105.535,202.805 104.892 C 202.805 103.669,202.323 102.689,201.548 102.336 C 200.998 102.085,200.842 101.806,200.842 101.077 C 200.842 100.225,200.766 100.140,200.008 100.140 C 199.303 100.140,199.138 100.000,198.940 99.229 C 198.760 98.528,198.534 98.297,197.967 98.230 C 197.402 98.163,197.209 97.966,197.142 97.388 C 197.069 96.762,196.898 96.619,196.129 96.545 C 195.449 96.480,195.134 96.274,194.942 95.769 C 194.655 95.014,193.673 94.530,192.430 94.530 C 191.775 94.530,191.597 94.383,191.451 93.717 C 191.253 92.815,190.716 92.576,188.869 92.570 C 187.944 92.567,187.658 92.448,187.517 92.005 C 187.145 90.831,186.573 90.767,176.148 90.720 C 169.434 90.690,165.864 90.778,165.209 90.990 M105.750 99.158 L 105.750 105.750 109.397 105.750 L 113.043 105.750 113.043 139.411 L 113.043 173.072 109.397 173.072 L 105.750 173.072 105.750 180.507 L 105.750 187.943 121.529 187.870 L 137.307 187.798 137.386 181.066 C 137.491 172.170,137.927 173.072,133.515 173.072 L 129.874 173.072 129.874 139.419 L 129.874 105.767 133.590 105.688 L 137.307 105.610 137.382 99.088 L 137.458 92.567 121.604 92.567 L 105.750 92.567 105.750 99.158 M219.700 99.087 L 219.776 105.610 223.492 105.688 L 227.209 105.767 227.209 139.411 L 227.209 173.055 223.492 173.134 L 219.776 173.212 219.701 180.575 L 219.626 187.938 241.615 187.938 C 265.486 187.938,265.215 187.951,265.886 186.783 C 266.326 186.015,266.413 185.991,268.992 185.914 C 271.563 185.837,271.650 185.813,271.808 185.133 C 271.949 184.530,272.147 184.422,273.223 184.358 C 275.436 184.227,275.736 184.086,275.736 183.178 C 275.736 182.364,275.756 182.354,277.489 182.271 C 279.243 182.188,279.243 182.188,279.331 181.276 C 279.417 180.375,279.435 180.365,280.887 180.365 C 282.416 180.365,283.029 180.032,283.029 179.204 C 283.029 178.860,283.296 178.691,283.941 178.629 C 284.739 178.552,284.864 178.429,284.939 177.646 C 285.015 176.867,285.142 176.740,285.921 176.665 C 286.701 176.589,286.827 176.462,286.903 175.683 C 286.978 174.903,287.105 174.776,287.885 174.701 C 288.621 174.630,288.795 174.481,288.867 173.860 C 288.934 173.277,289.125 173.086,289.708 173.018 C 290.332 172.946,290.478 172.774,290.551 172.020 C 290.623 171.269,290.757 171.108,291.312 171.108 C 292.024 171.108,292.567 170.401,292.567 169.474 C 292.567 169.136,292.813 168.863,293.208 168.764 C 293.866 168.599,294.530 167.274,294.530 166.128 C 294.530 165.759,294.768 165.461,295.161 165.339 C 296.046 165.063,296.204 164.720,296.209 163.062 C 296.213 161.691,296.257 161.603,296.973 161.519 C 297.895 161.412,298.110 160.792,298.149 158.128 C 298.176 156.249,298.186 156.225,299.018 156.059 L 299.860 155.891 299.860 151.315 L 299.860 146.740 300.771 146.652 L 301.683 146.564 301.767 139.551 C 301.859 131.839,301.699 130.605,300.567 130.321 C 299.881 130.149,299.875 130.118,299.798 126.434 L 299.719 122.721 298.948 122.632 C 298.196 122.546,298.177 122.498,298.177 120.751 L 298.177 118.960 297.195 118.775 L 296.213 118.591 296.213 116.981 C 296.213 115.028,295.791 113.706,295.112 113.529 C 294.794 113.446,294.535 113.017,294.415 112.378 C 294.248 111.487,294.123 111.360,293.413 111.360 C 292.703 111.360,292.591 111.247,292.514 110.449 C 292.437 109.647,292.316 109.527,291.515 109.449 C 290.718 109.372,290.603 109.260,290.603 108.556 C 290.603 107.360,290.108 106.276,289.488 106.114 C 289.186 106.035,288.687 105.542,288.378 105.019 C 288.070 104.496,287.620 104.067,287.380 104.067 C 287.139 104.067,286.825 103.758,286.681 103.379 C 286.354 102.519,284.869 101.723,283.999 101.942 C 283.426 102.085,283.335 101.993,283.258 101.193 C 283.180 100.390,283.060 100.270,282.258 100.193 C 281.527 100.122,281.346 99.980,281.346 99.477 C 281.346 98.505,280.802 98.177,279.187 98.177 C 277.793 98.177,277.700 98.133,277.700 97.485 C 277.700 96.570,276.883 96.166,275.239 96.270 C 273.928 96.352,273.912 96.343,273.825 95.442 L 273.737 94.530 270.968 94.530 L 268.198 94.530 268.110 93.619 L 268.022 92.707 243.824 92.635 L 219.625 92.564 219.700 99.087 M257.434 106.412 C 257.810 107.235,258.726 107.433,262.167 107.433 C 264.631 107.433,264.797 107.470,264.797 108.009 C 264.797 108.642,266.228 109.397,267.430 109.397 C 267.966 109.397,268.159 109.582,268.303 110.238 C 268.439 110.856,268.650 111.081,269.097 111.084 C 269.826 111.089,270.164 111.314,270.573 112.062 C 270.778 112.439,271.348 112.708,272.312 112.882 C 273.640 113.122,273.751 113.204,273.829 114.004 C 273.901 114.748,274.037 114.879,274.808 114.953 C 275.588 115.029,275.714 115.156,275.790 115.935 C 275.866 116.718,275.991 116.841,276.788 116.918 C 277.585 116.995,277.700 117.108,277.700 117.812 C 277.700 119.014,278.196 120.092,278.825 120.256 C 279.160 120.344,279.385 120.641,279.387 121.000 C 279.393 121.855,279.700 122.228,280.578 122.449 C 281.304 122.631,281.346 122.730,281.346 124.252 C 281.346 126.358,281.768 127.534,282.598 127.742 C 283.209 127.896,283.259 128.064,283.351 130.315 C 283.434 132.341,283.539 132.786,284.011 133.113 C 285.295 134.002,285.274 133.892,285.270 139.492 C 285.266 146.406,285.177 146.985,284.115 146.985 L 283.310 146.985 283.310 149.784 C 283.310 152.517,283.294 152.588,282.627 152.755 C 281.862 152.947,281.346 154.085,281.346 155.582 C 281.346 156.343,281.237 156.522,280.771 156.522 C 280.066 156.522,279.262 158.245,279.508 159.226 C 279.659 159.827,279.584 159.888,278.687 159.888 C 277.749 159.888,277.700 159.936,277.700 160.852 C 277.700 161.734,277.623 161.823,276.788 161.904 C 275.996 161.980,275.865 162.106,275.792 162.865 C 275.733 163.461,275.497 163.834,275.044 164.040 C 274.680 164.206,274.305 164.584,274.211 164.881 C 274.117 165.178,273.633 165.537,273.135 165.679 C 272.439 165.877,272.209 166.113,272.141 166.699 C 272.064 167.363,271.929 167.461,271.089 167.461 C 270.172 167.461,270.126 167.509,270.126 168.462 C 270.126 169.338,270.056 169.440,269.561 169.283 C 268.672 169.001,267.041 169.669,266.750 170.434 C 266.531 171.011,266.307 171.108,265.206 171.108 C 263.564 171.108,262.833 171.500,262.833 172.380 L 262.833 173.072 253.436 173.072 L 244.039 173.072 244.039 139.411 L 244.039 105.750 250.586 105.750 L 257.133 105.750 257.434 106.412 " stroke="none" fill="#343434" fill-rule="evenodd"/><path id="path1" d="M169.360 90.806 C 169.864 90.869,170.621 90.868,171.043 90.804 C 171.464 90.740,171.052 90.688,170.126 90.690 C 169.201 90.692,168.856 90.744,169.360 90.806 M180.014 90.806 C 180.515 90.868,181.336 90.868,181.837 90.806 C 182.339 90.744,181.928 90.693,180.926 90.693 C 179.923 90.693,179.513 90.744,180.014 90.806 M189.702 114.306 C 189.704 115.077,189.758 115.359,189.823 114.933 C 189.887 114.507,189.885 113.876,189.819 113.531 C 189.752 113.186,189.699 113.534,189.702 114.306 M189.692 121.038 C 189.695 121.655,189.753 121.874,189.820 121.525 C 189.887 121.177,189.884 120.672,189.814 120.403 C 189.744 120.135,189.689 120.421,189.692 121.038 M285.112 139.832 C 285.112 143.072,285.153 144.358,285.202 142.692 C 285.252 141.025,285.252 138.374,285.202 136.801 C 285.152 135.228,285.111 136.592,285.112 139.832 " stroke="none" fill="#383434" fill-rule="evenodd"/><path id="path2" d="M169.360 90.806 C 169.864 90.869,170.621 90.868,171.043 90.804 C 171.464 90.740,171.052 90.688,170.126 90.690 C 169.201 90.692,168.856 90.744,169.360 90.806 M180.014 90.806 C 180.515 90.868,181.336 90.868,181.837 90.806 C 182.339 90.744,181.928 90.693,180.926 90.693 C 179.923 90.693,179.513 90.744,180.014 90.806 M189.702 114.306 C 189.704 115.077,189.758 115.359,189.823 114.933 C 189.887 114.507,189.885 113.876,189.819 113.531 C 189.752 113.186,189.699 113.534,189.702 114.306 M189.692 121.038 C 189.695 121.655,189.753 121.874,189.820 121.525 C 189.887 121.177,189.884 120.672,189.814 120.403 C 189.744 120.135,189.689 120.421,189.692 121.038 M285.112 139.832 C 285.112 143.072,285.153 144.358,285.202 142.692 C 285.252 141.025,285.252 138.374,285.202 136.801 C 285.152 135.228,285.111 136.592,285.112 139.832 " stroke="none" fill="#383434" fill-rule="evenodd"/><path id="path3" d="M169.360 90.806 C 169.864 90.869,170.621 90.868,171.043 90.804 C 171.464 90.740,171.052 90.688,170.126 90.690 C 169.201 90.692,168.856 90.744,169.360 90.806 M180.014 90.806 C 180.515 90.868,181.336 90.868,181.837 90.806 C 182.339 90.744,181.928 90.693,180.926 90.693 C 179.923 90.693,179.513 90.744,180.014 90.806 M189.702 114.306 C 189.704 115.077,189.758 115.359,189.823 114.933 C 189.887 114.507,189.885 113.876,189.819 113.531 C 189.752 113.186,189.699 113.534,189.702 114.306 M189.692 121.038 C 189.695 121.655,189.753 121.874,189.820 121.525 C 189.887 121.177,189.884 120.672,189.814 120.403 C 189.744 120.135,189.689 120.421,189.692 121.038 M285.112 139.832 C 285.112 143.072,285.153 144.358,285.202 142.692 C 285.252 141.025,285.252 138.374,285.202 136.801 C 285.152 135.228,285.111 136.592,285.112 139.832 " stroke="none" fill="#383434" fill-rule="evenodd"/><path id="path4" d="M169.360 90.806 C 169.864 90.869,170.621 90.868,171.043 90.804 C 171.464 90.740,171.052 90.688,170.126 90.690 C 169.201 90.692,168.856 90.744,169.360 90.806 M180.014 90.806 C 180.515 90.868,181.336 90.868,181.837 90.806 C 182.339 90.744,181.928 90.693,180.926 90.693 C 179.923 90.693,179.513 90.744,180.014 90.806 M189.702 114.306 C 189.704 115.077,189.758 115.359,189.823 114.933 C 189.887 114.507,189.885 113.876,189.819 113.531 C 189.752 113.186,189.699 113.534,189.702 114.306 M189.692 121.038 C 189.695 121.655,189.753 121.874,189.820 121.525 C 189.887 121.177,189.884 120.672,189.814 120.403 C 189.744 120.135,189.689 120.421,189.692 121.038 M285.112 139.832 C 285.112 143.072,285.153 144.358,285.202 142.692 C 285.252 141.025,285.252 138.374,285.202 136.801 C 285.152 135.228,285.111 136.592,285.112 139.832 " stroke="none" fill="#383434" fill-rule="evenodd"/></g></svg>