<svg xmlns="http://www.w3.org/2000/svg" xmlns:xlink="http://www.w3.org/1999/xlink" id="svg" version="1.1" viewBox="127.89 89.68 148.63 74.42"><g id="svgg"><path id="path0" d="M175.669 90.191 C 175.493 90.746,175.442 90.762,173.758 90.801 C 172.761 90.825,172.601 90.905,172.527 91.421 C 172.470 91.827,172.323 91.967,172.061 91.867 C 171.445 91.630,170.477 91.986,170.310 92.509 C 170.198 92.865,169.917 92.994,169.258 92.994 C 168.574 92.994,168.328 93.115,168.227 93.503 C 168.153 93.785,167.879 94.013,167.614 94.013 C 167.304 94.013,167.134 94.193,167.134 94.522 C 167.134 94.862,166.964 95.032,166.624 95.032 C 166.285 95.032,166.115 95.202,166.115 95.541 C 166.115 95.881,165.945 96.051,165.605 96.051 C 165.239 96.051,165.096 96.221,165.096 96.655 C 165.096 97.120,164.964 97.251,164.522 97.228 C 164.133 97.207,163.959 97.334,163.981 97.624 C 164.000 97.877,163.762 98.113,163.393 98.205 C 162.934 98.321,162.812 98.483,162.923 98.830 C 163.027 99.158,162.921 99.339,162.572 99.431 C 162.243 99.517,162.014 99.868,161.904 100.458 C 161.795 101.036,161.563 101.399,161.250 101.481 C 160.844 101.587,160.764 101.846,160.764 103.057 C 160.764 104.292,160.689 104.526,160.255 104.640 C 159.789 104.761,159.745 104.987,159.745 107.291 L 159.745 109.809 164.968 109.809 L 170.191 109.809 170.191 108.790 C 170.191 107.960,170.281 107.771,170.673 107.771 C 171.191 107.771,171.465 107.300,171.465 106.410 C 171.465 106.105,171.694 105.712,171.975 105.537 C 172.255 105.362,172.484 105.060,172.484 104.866 C 172.484 104.672,172.656 104.447,172.866 104.366 C 173.076 104.286,173.248 104.044,173.248 103.830 C 173.248 103.583,173.483 103.439,173.885 103.439 C 174.352 103.439,174.522 103.304,174.522 102.930 C 174.522 102.590,174.692 102.420,175.032 102.420 C 175.372 102.420,175.541 102.251,175.541 101.911 C 175.541 101.571,175.711 101.401,176.051 101.401 C 176.391 101.401,176.561 101.231,176.561 100.892 C 176.561 100.213,185.124 100.083,185.383 100.757 C 185.462 100.964,185.913 101.205,186.385 101.294 C 186.911 101.392,187.303 101.642,187.397 101.938 C 187.507 102.284,187.790 102.420,188.395 102.420 C 189.026 102.420,189.274 102.550,189.373 102.930 C 189.453 103.235,189.721 103.439,190.040 103.439 C 190.462 103.439,190.573 103.598,190.573 104.202 C 190.573 104.688,190.758 105.079,191.083 105.282 C 191.363 105.457,191.592 105.850,191.592 106.155 C 191.592 106.977,191.856 107.516,192.257 107.516 C 192.542 107.516,192.611 108.167,192.611 110.828 C 192.611 113.970,192.585 114.140,192.102 114.140 C 191.735 114.140,191.592 114.310,191.592 114.747 C 191.592 115.146,191.412 115.402,191.067 115.492 C 190.778 115.567,190.562 115.781,190.588 115.968 C 190.701 116.803,190.533 117.168,190.000 117.244 C 189.577 117.305,189.443 117.476,189.487 117.899 C 189.540 118.397,189.430 118.471,188.636 118.471 C 187.937 118.471,187.692 118.591,187.590 118.981 C 187.482 119.393,187.242 119.490,186.340 119.490 C 185.393 119.490,185.223 119.568,185.223 120.000 C 185.223 120.489,185.053 120.510,181.049 120.510 L 176.875 120.510 176.739 121.210 C 176.665 121.596,176.623 123.688,176.646 125.860 L 176.688 129.809 180.347 129.880 C 183.672 129.944,184.045 129.998,184.426 130.469 C 184.682 130.784,185.284 131.046,185.965 131.138 C 186.580 131.220,187.296 131.500,187.555 131.758 C 187.814 132.017,188.357 132.229,188.762 132.229 C 189.306 132.229,189.488 132.345,189.462 132.675 C 189.440 132.957,189.637 133.151,190.000 133.202 C 190.368 133.255,190.573 133.460,190.573 133.776 C 190.573 134.098,190.749 134.268,191.083 134.268 C 191.479 134.268,191.592 134.437,191.592 135.030 C 191.592 135.516,191.777 135.907,192.102 136.110 C 192.460 136.334,192.611 136.704,192.611 137.356 C 192.611 138.070,192.729 138.315,193.121 138.418 C 193.590 138.540,193.631 138.765,193.631 141.250 C 193.631 143.779,193.599 143.949,193.121 143.949 C 192.668 143.949,192.611 144.119,192.611 145.478 C 192.611 146.837,192.555 147.006,192.102 147.006 C 191.755 147.006,191.592 147.176,191.592 147.540 C 191.592 147.859,191.388 148.127,191.083 148.206 C 190.801 148.280,190.573 148.554,190.573 148.820 C 190.573 149.124,190.393 149.299,190.081 149.299 C 189.810 149.299,189.520 149.516,189.435 149.781 C 189.351 150.047,189.057 150.322,188.781 150.394 C 188.506 150.467,188.280 150.708,188.280 150.932 C 188.280 151.195,188.056 151.338,187.641 151.338 C 187.289 151.338,186.805 151.567,186.565 151.847 C 186.272 152.190,185.814 152.357,185.166 152.357 C 184.374 152.357,184.204 152.447,184.204 152.866 C 184.204 153.336,184.034 153.376,182.055 153.376 C 180.131 153.376,179.890 153.323,179.745 152.866 C 179.608 152.434,179.360 152.357,178.102 152.357 C 176.834 152.357,176.601 152.283,176.487 151.847 C 176.385 151.457,176.139 151.338,175.438 151.338 C 174.692 151.338,174.522 151.243,174.522 150.828 C 174.522 150.488,174.352 150.318,174.013 150.318 C 173.673 150.318,173.503 150.149,173.503 149.809 C 173.503 149.469,173.333 149.299,172.994 149.299 C 172.713 149.299,172.484 149.134,172.484 148.932 C 172.484 148.729,172.263 148.409,171.993 148.220 C 171.722 148.030,171.422 147.562,171.326 147.179 C 171.230 146.797,170.935 146.368,170.671 146.226 C 170.379 146.070,170.191 145.694,170.191 145.265 C 170.191 143.993,169.989 143.949,164.153 143.949 L 158.726 143.949 158.726 145.730 C 158.726 147.236,158.805 147.561,159.236 147.830 C 159.647 148.087,159.745 148.424,159.745 149.586 C 159.745 150.809,159.821 151.043,160.255 151.157 C 160.660 151.262,160.764 151.504,160.764 152.333 C 160.764 153.185,160.852 153.376,161.246 153.376 C 161.593 153.376,161.773 153.622,161.893 154.261 C 161.984 154.747,162.206 155.234,162.386 155.343 C 162.566 155.452,162.787 155.742,162.877 155.987 C 162.968 156.232,163.220 156.433,163.438 156.433 C 163.656 156.433,163.943 156.720,164.076 157.070 C 164.210 157.420,164.493 157.707,164.707 157.707 C 164.921 157.707,165.096 157.883,165.096 158.097 C 165.096 158.312,165.296 158.559,165.541 158.648 C 165.787 158.736,166.192 159.019,166.443 159.276 C 166.694 159.534,167.181 159.745,167.526 159.745 C 167.983 159.745,168.153 159.883,168.153 160.255 C 168.153 160.678,168.323 160.764,169.155 160.764 C 169.933 160.764,170.193 160.878,170.318 161.274 C 170.440 161.656,170.704 161.783,171.378 161.783 C 172.001 161.783,172.417 161.959,172.739 162.357 C 173.146 162.859,173.483 162.940,175.455 163.014 C 177.188 163.078,177.783 163.196,178.036 163.523 C 178.598 164.251,184.566 164.306,185.015 163.587 C 185.298 163.133,185.601 163.057,187.131 163.054 C 189.349 163.050,190.004 162.881,190.200 162.265 C 190.320 161.888,190.598 161.783,191.482 161.783 C 192.442 161.783,192.611 161.707,192.611 161.274 C 192.611 160.859,192.781 160.764,193.527 160.764 C 194.228 160.764,194.474 160.645,194.576 160.255 C 194.650 159.973,194.923 159.745,195.189 159.745 C 195.499 159.745,195.669 159.565,195.669 159.236 C 195.669 158.888,195.839 158.726,196.202 158.726 C 196.521 158.726,196.789 158.521,196.869 158.217 C 196.942 157.936,197.210 157.707,197.464 157.707 C 197.978 157.707,199.745 156.154,199.745 155.702 C 199.745 155.544,199.913 155.414,200.118 155.414 C 200.560 155.414,201.019 154.643,201.019 153.902 C 201.019 153.546,201.184 153.376,201.529 153.376 C 201.951 153.376,202.038 153.206,202.038 152.386 C 202.038 151.611,202.149 151.368,202.548 151.264 C 202.986 151.149,203.057 150.916,203.057 149.596 C 203.057 148.198,203.109 148.054,203.631 147.980 C 204.700 147.828,204.619 134.871,203.547 134.591 C 203.186 134.497,203.057 134.237,203.057 133.603 C 203.057 133.019,202.894 132.641,202.548 132.425 C 202.185 132.198,202.038 131.831,202.038 131.149 C 202.038 130.361,201.948 130.191,201.529 130.191 C 201.195 130.191,201.019 130.021,201.019 129.699 C 201.019 129.428,200.802 129.137,200.537 129.053 C 200.272 128.969,199.996 128.675,199.924 128.399 C 199.852 128.124,199.624 127.898,199.417 127.898 C 199.210 127.898,198.980 127.669,198.907 127.389 C 198.827 127.084,198.560 126.879,198.240 126.879 C 197.877 126.879,197.707 126.717,197.707 126.369 C 197.707 125.945,197.537 125.860,196.688 125.860 C 195.280 125.860,195.204 124.985,196.589 124.725 C 197.187 124.613,197.553 124.383,197.635 124.068 C 197.705 123.802,197.979 123.515,198.244 123.431 C 198.509 123.347,198.726 123.121,198.726 122.930 C 198.726 122.739,198.955 122.509,199.236 122.420 C 199.516 122.331,199.745 122.091,199.745 121.886 C 199.745 121.681,199.946 121.439,200.191 121.348 C 200.780 121.131,201.010 120.766,201.015 120.040 C 201.018 119.659,201.204 119.394,201.529 119.309 C 201.928 119.205,202.038 118.962,202.038 118.187 C 202.038 117.367,202.126 117.197,202.548 117.197 C 203.025 117.197,203.057 117.028,203.057 114.522 C 203.057 112.058,203.096 111.847,203.544 111.847 C 204.541 111.847,204.543 108.548,203.546 108.014 C 203.114 107.783,203.057 107.456,203.057 105.190 C 203.057 102.842,203.015 102.616,202.548 102.494 C 202.189 102.400,202.038 102.147,202.038 101.635 C 202.038 101.170,201.855 100.812,201.529 100.637 C 201.231 100.477,201.019 100.103,201.019 99.736 C 201.019 99.391,200.790 98.879,200.510 98.599 C 200.229 98.318,200.000 97.925,200.000 97.724 C 200.000 97.523,199.783 97.290,199.518 97.206 C 199.253 97.122,198.977 96.828,198.905 96.552 C 198.833 96.276,198.582 96.051,198.348 96.051 C 198.114 96.051,197.494 95.592,196.972 95.032 C 196.318 94.331,195.807 94.013,195.336 94.013 C 194.820 94.013,194.650 93.887,194.650 93.503 C 194.650 93.079,194.480 92.994,193.631 92.994 C 192.793 92.994,192.611 92.906,192.611 92.501 C 192.611 91.958,191.843 91.606,191.142 91.828 C 190.837 91.925,190.612 91.787,190.442 91.400 C 190.240 90.939,189.969 90.821,189.045 90.792 C 187.326 90.737,187.331 90.739,187.187 90.191 C 187.059 89.701,186.840 89.682,181.442 89.682 C 176.054 89.682,175.824 89.702,175.669 90.191 M128.344 90.876 C 127.938 90.982,127.898 91.455,127.898 96.197 L 127.898 101.401 131.083 101.401 L 134.268 101.401 134.268 127.389 L 134.268 153.376 131.077 153.376 L 127.887 153.376 127.956 158.153 L 128.025 162.930 140.127 162.930 L 152.229 162.930 152.229 158.217 L 152.229 153.503 149.108 153.432 L 145.987 153.360 145.987 127.389 L 145.987 101.417 149.108 101.345 L 152.229 101.274 152.299 96.656 C 152.338 94.016,152.259 91.751,152.114 91.369 L 151.860 90.701 140.325 90.730 C 133.981 90.746,128.589 90.812,128.344 90.876 M215.144 90.980 C 215.049 91.134,214.967 93.513,214.962 96.267 L 214.953 101.274 218.050 101.345 L 221.146 101.417 221.146 127.396 L 221.146 153.376 218.025 153.376 L 214.904 153.377 214.915 158.153 L 214.926 162.930 230.966 163.003 C 248.125 163.080,248.535 163.064,248.738 162.287 C 248.855 161.838,249.092 161.783,250.932 161.783 C 252.824 161.783,252.994 161.741,252.994 161.274 C 252.994 160.833,253.163 160.764,254.253 160.764 C 255.188 160.764,255.598 160.643,255.845 160.294 C 256.029 160.035,256.608 159.743,257.134 159.645 C 257.668 159.546,258.089 159.319,258.089 159.129 C 258.089 158.933,258.506 158.725,259.080 158.633 C 259.626 158.546,260.138 158.302,260.219 158.091 C 260.300 157.880,260.535 157.707,260.742 157.707 C 260.949 157.707,261.267 157.499,261.451 157.244 C 261.634 156.990,261.984 156.707,262.229 156.615 C 262.475 156.524,262.675 156.216,262.675 155.932 C 262.675 155.523,262.841 155.414,263.463 155.414 C 264.037 155.414,264.288 155.275,264.385 154.904 C 264.471 154.575,264.732 154.395,265.125 154.395 C 265.563 154.395,265.732 154.252,265.732 153.885 C 265.732 153.546,265.902 153.376,266.242 153.376 C 266.616 153.376,266.752 153.206,266.752 152.739 C 266.752 152.389,266.875 152.102,267.026 152.102 C 267.535 152.102,268.795 150.613,268.952 149.825 C 269.060 149.287,269.257 149.045,269.586 149.045 C 269.896 149.045,270.064 148.863,270.064 148.527 C 270.064 148.242,270.233 147.945,270.439 147.865 C 270.645 147.786,270.887 147.331,270.977 146.854 C 271.094 146.232,271.275 145.987,271.621 145.987 C 272.014 145.987,272.102 145.797,272.102 144.944 C 272.102 144.116,272.207 143.874,272.611 143.768 C 273.011 143.664,273.121 143.421,273.121 142.645 C 273.121 141.929,273.228 141.656,273.509 141.656 C 274.004 141.656,274.395 140.636,274.395 139.346 C 274.395 138.663,274.507 138.344,274.747 138.344 C 275.205 138.344,275.406 137.550,275.411 135.732 C 275.413 134.610,275.533 134.148,275.924 133.758 C 276.696 132.985,276.718 120.791,275.947 120.590 C 275.521 120.478,275.451 120.168,275.374 118.045 C 275.304 116.103,275.199 115.563,274.841 115.301 C 274.596 115.122,274.395 114.687,274.395 114.335 C 274.395 112.965,274.087 112.102,273.599 112.102 C 273.209 112.102,273.121 111.909,273.121 111.059 C 273.121 110.230,273.016 109.989,272.611 109.883 C 272.225 109.782,272.102 109.535,272.102 108.864 C 272.102 108.192,271.979 107.946,271.592 107.845 C 271.310 107.771,271.083 107.497,271.083 107.231 C 271.083 106.921,270.902 106.752,270.573 106.752 C 270.158 106.752,270.064 106.582,270.064 105.836 C 270.064 105.135,269.944 104.889,269.554 104.787 C 269.261 104.711,269.045 104.440,269.045 104.150 C 269.045 103.869,268.830 103.590,268.559 103.519 C 268.291 103.450,268.015 103.174,267.945 102.906 C 267.872 102.623,267.596 102.420,267.285 102.420 C 266.921 102.420,266.752 102.258,266.752 101.911 C 266.752 101.571,266.582 101.401,266.242 101.401 C 265.902 101.401,265.732 101.231,265.732 100.892 C 265.732 100.552,265.563 100.382,265.223 100.382 C 264.883 100.382,264.713 100.212,264.713 99.873 C 264.713 99.533,264.544 99.363,264.204 99.363 C 263.864 99.363,263.694 99.193,263.694 98.854 C 263.694 98.573,263.579 98.344,263.438 98.344 C 263.297 98.344,262.932 98.057,262.628 97.707 C 262.323 97.357,261.935 97.070,261.765 97.070 C 261.595 97.070,261.392 96.904,261.315 96.702 C 261.237 96.499,260.777 96.259,260.292 96.168 C 259.727 96.062,259.364 95.829,259.283 95.517 C 259.188 95.153,258.927 95.032,258.240 95.032 C 257.495 95.032,257.325 94.937,257.325 94.522 C 257.325 94.092,257.155 94.013,256.240 94.013 C 255.430 94.013,255.074 93.883,254.836 93.503 C 254.589 93.107,254.242 92.994,253.277 92.994 C 252.273 92.994,251.964 92.884,251.656 92.420 C 251.312 91.902,251.061 91.845,249.014 91.821 C 244.707 91.770,244.657 91.763,244.512 91.210 C 244.355 90.610,215.513 90.384,215.144 90.980 M246.698 101.911 C 246.813 102.350,247.046 102.420,248.384 102.420 C 249.766 102.420,249.936 102.476,249.936 102.930 C 249.936 103.355,250.106 103.439,250.955 103.439 C 251.805 103.439,251.975 103.524,251.975 103.949 C 251.975 104.283,252.144 104.459,252.467 104.459 C 252.738 104.459,253.032 104.688,253.121 104.968 C 253.210 105.248,253.491 105.478,253.745 105.478 C 254.000 105.478,254.266 105.699,254.337 105.970 C 254.422 106.295,254.781 106.522,255.386 106.636 C 256.057 106.762,256.306 106.938,256.306 107.290 C 256.306 107.601,256.486 107.771,256.815 107.771 C 257.155 107.771,257.325 107.941,257.325 108.280 C 257.325 108.610,257.495 108.790,257.806 108.790 C 258.154 108.790,258.333 109.036,258.453 109.675 C 258.545 110.161,258.767 110.648,258.947 110.757 C 259.127 110.866,259.348 111.156,259.438 111.401 C 259.528 111.646,259.765 111.847,259.964 111.847 C 260.178 111.847,260.396 112.223,260.498 112.767 C 260.612 113.372,260.839 113.731,261.163 113.816 C 261.477 113.898,261.656 114.166,261.656 114.552 C 261.656 114.989,261.799 115.159,262.166 115.159 C 262.618 115.159,262.675 115.329,262.675 116.671 C 262.675 117.958,262.751 118.206,263.185 118.344 C 263.641 118.489,263.694 118.729,263.694 120.654 C 263.694 122.463,263.775 122.883,264.204 123.312 C 264.667 123.775,264.713 124.161,264.713 127.516 C 264.713 131.040,264.690 131.210,264.204 131.210 C 263.737 131.210,263.694 131.380,263.694 133.219 C 263.694 135.013,263.640 135.241,263.185 135.360 C 262.745 135.475,262.675 135.708,262.675 137.046 C 262.675 138.429,262.619 138.599,262.166 138.599 C 261.742 138.599,261.656 138.769,261.656 139.600 C 261.656 140.443,261.566 140.614,261.085 140.683 C 260.755 140.730,260.475 140.979,260.420 141.274 C 260.368 141.554,260.171 141.873,259.982 141.981 C 259.793 142.090,259.564 142.578,259.472 143.064 C 259.352 143.703,259.173 143.949,258.825 143.949 C 258.514 143.949,258.344 144.129,258.344 144.459 C 258.344 144.798,258.174 144.968,257.834 144.968 C 257.495 144.968,257.325 145.138,257.325 145.478 C 257.325 145.817,257.155 145.987,256.815 145.987 C 256.476 145.987,256.306 146.157,256.306 146.497 C 256.306 146.830,256.136 147.006,255.814 147.006 C 255.498 147.006,255.293 147.211,255.241 147.580 C 255.188 147.951,254.983 148.153,254.661 148.154 C 254.380 148.154,254.102 148.376,254.024 148.663 C 253.948 148.943,253.742 149.183,253.567 149.197 C 253.392 149.211,253.008 149.240,252.715 149.261 C 252.416 149.283,252.123 149.524,252.048 149.809 C 251.975 150.091,251.701 150.318,251.435 150.318 C 251.125 150.318,250.955 150.499,250.955 150.828 C 250.955 151.281,250.786 151.338,249.427 151.338 C 248.068 151.338,247.898 151.394,247.898 151.847 C 247.898 152.326,247.728 152.357,245.096 152.357 C 242.633 152.357,242.231 152.418,241.783 152.866 C 241.315 153.335,240.934 153.376,237.070 153.376 L 232.866 153.376 232.866 127.389 L 232.866 101.401 239.716 101.401 C 246.351 101.401,246.569 101.417,246.698 101.911 " stroke="none" fill="#343434" fill-rule="evenodd"/><path id="path1" d="M246.943 91.895 C 247.188 91.959,247.589 91.959,247.834 91.895 C 248.080 91.831,247.879 91.779,247.389 91.779 C 246.898 91.779,246.697 91.831,246.943 91.895 M214.877 96.051 C 214.877 97.943,214.917 98.717,214.966 97.771 C 215.015 96.825,215.015 95.277,214.966 94.331 C 214.917 93.385,214.877 94.159,214.877 96.051 M214.877 157.707 C 214.877 159.599,214.917 160.373,214.966 159.427 C 215.015 158.481,215.015 156.933,214.966 155.987 C 214.917 155.041,214.877 155.815,214.877 157.707 " stroke="none" fill="#383434" fill-rule="evenodd"/><path id="path2" d="M246.943 91.895 C 247.188 91.959,247.589 91.959,247.834 91.895 C 248.080 91.831,247.879 91.779,247.389 91.779 C 246.898 91.779,246.697 91.831,246.943 91.895 M214.877 96.051 C 214.877 97.943,214.917 98.717,214.966 97.771 C 215.015 96.825,215.015 95.277,214.966 94.331 C 214.917 93.385,214.877 94.159,214.877 96.051 M214.877 157.707 C 214.877 159.599,214.917 160.373,214.966 159.427 C 215.015 158.481,215.015 156.933,214.966 155.987 C 214.917 155.041,214.877 155.815,214.877 157.707 " stroke="none" fill="#383434" fill-rule="evenodd"/><path id="path3" d="M246.943 91.895 C 247.188 91.959,247.589 91.959,247.834 91.895 C 248.080 91.831,247.879 91.779,247.389 91.779 C 246.898 91.779,246.697 91.831,246.943 91.895 M214.877 96.051 C 214.877 97.943,214.917 98.717,214.966 97.771 C 215.015 96.825,215.015 95.277,214.966 94.331 C 214.917 93.385,214.877 94.159,214.877 96.051 M214.877 157.707 C 214.877 159.599,214.917 160.373,214.966 159.427 C 215.015 158.481,215.015 156.933,214.966 155.987 C 214.917 155.041,214.877 155.815,214.877 157.707 " stroke="none" fill="#383434" fill-rule="evenodd"/><path id="path4" d="M246.943 91.895 C 247.188 91.959,247.589 91.959,247.834 91.895 C 248.080 91.831,247.879 91.779,247.389 91.779 C 246.898 91.779,246.697 91.831,246.943 91.895 M214.877 96.051 C 214.877 97.943,214.917 98.717,214.966 97.771 C 215.015 96.825,215.015 95.277,214.966 94.331 C 214.917 93.385,214.877 94.159,214.877 96.051 M214.877 157.707 C 214.877 159.599,214.917 160.373,214.966 159.427 C 215.015 158.481,215.015 156.933,214.966 155.987 C 214.917 155.041,214.877 155.815,214.877 157.707 " stroke="none" fill="#383434" fill-rule="evenodd"/></g></svg>