<svg xmlns="http://www.w3.org/2000/svg" xmlns:xlink="http://www.w3.org/1999/xlink" id="svg" version="1.1" viewBox="58.03 69.12 289.56 77.36"><g id="svgg"><path id="path0" d="M258.806 69.335 C 258.554 69.436,258.289 69.674,258.217 69.863 C 258.144 70.051,257.838 70.206,257.537 70.206 C 257.096 70.206,256.988 70.312,256.988 70.748 C 256.988 71.252,256.915 71.289,255.919 71.289 C 254.914 71.289,254.846 71.325,254.781 71.885 C 254.724 72.381,254.604 72.485,254.063 72.505 C 252.800 72.552,252.700 72.595,252.562 73.143 C 252.458 73.560,252.323 73.666,252.022 73.570 C 251.525 73.412,250.488 73.862,250.488 74.235 C 250.488 74.387,250.219 74.542,249.892 74.579 C 249.475 74.627,249.276 74.788,249.229 75.113 C 249.160 75.599,248.641 75.832,247.616 75.837 C 247.126 75.839,247.021 75.936,247.021 76.381 C 247.021 76.887,246.948 76.923,245.937 76.923 C 244.932 76.923,244.854 76.962,244.854 77.453 C 244.854 77.931,244.754 77.989,243.824 78.049 C 242.946 78.105,242.785 78.186,242.726 78.602 C 242.676 78.951,242.511 79.090,242.144 79.090 C 241.354 79.090,240.520 79.476,240.520 79.843 C 240.520 80.066,240.308 80.173,239.870 80.173 L 239.220 80.173 239.220 86.118 C 239.220 89.456,239.313 92.307,239.431 92.619 C 239.695 93.311,240.812 93.409,241.155 92.770 C 241.284 92.528,241.717 92.310,242.234 92.228 C 242.712 92.151,243.225 91.906,243.385 91.678 C 243.543 91.452,243.914 91.233,244.209 91.192 C 244.571 91.141,244.768 90.957,244.815 90.628 C 244.874 90.207,245.013 90.141,245.840 90.141 C 246.679 90.141,246.812 90.075,246.932 89.599 C 247.042 89.158,247.200 89.057,247.785 89.057 C 248.769 89.057,249.187 88.864,249.187 88.409 C 249.187 88.117,249.429 87.987,250.187 87.873 C 250.872 87.771,251.218 87.605,251.286 87.347 C 251.351 87.096,251.742 86.897,252.453 86.751 L 253.521 86.532 253.521 110.974 L 253.521 135.416 250.325 135.476 L 247.129 135.536 247.071 141.009 L 247.013 146.482 259.639 146.426 L 272.264 146.371 272.323 141.197 C 272.394 134.822,272.824 135.428,268.229 135.428 L 264.572 135.428 264.572 102.275 L 264.572 69.122 261.918 69.136 C 260.458 69.144,259.057 69.233,258.806 69.335 M142.021 70.735 C 141.895 71.235,141.781 71.275,140.336 71.334 C 138.917 71.392,138.781 71.439,138.717 71.885 C 138.645 72.397,138.595 72.418,137.378 72.457 C 136.766 72.476,136.606 72.575,136.550 72.969 C 136.512 73.237,136.366 73.471,136.225 73.489 C 136.085 73.507,135.872 73.545,135.753 73.572 C 135.634 73.600,135.308 73.634,135.028 73.648 C 134.716 73.663,134.477 73.839,134.407 74.106 C 134.335 74.382,134.112 74.540,133.792 74.540 C 133.405 74.540,133.274 74.677,133.221 75.135 C 133.167 75.609,133.026 75.746,132.535 75.802 C 132.011 75.862,131.932 75.952,132.017 76.398 C 132.105 76.858,132.038 76.923,131.474 76.923 C 130.896 76.923,130.844 76.978,130.967 77.465 C 131.090 77.956,131.039 78.007,130.425 78.007 C 129.810 78.007,129.760 78.057,129.883 78.548 C 130.006 79.036,129.955 79.090,129.365 79.090 C 128.782 79.090,128.711 79.161,128.711 79.740 C 128.711 80.178,128.603 80.390,128.380 80.390 C 128.011 80.390,127.627 81.225,127.627 82.029 C 127.627 82.358,127.503 82.557,127.297 82.557 C 126.800 82.557,126.544 83.485,126.544 85.280 C 126.544 86.854,126.531 86.891,126.002 86.891 L 125.460 86.891 125.460 90.141 L 125.460 93.391 130.854 93.391 C 137.068 93.391,136.511 93.635,136.511 90.916 C 136.511 89.218,136.539 89.114,137.053 88.880 C 137.497 88.678,137.595 88.480,137.595 87.785 C 137.595 87.062,137.674 86.918,138.137 86.802 C 138.624 86.679,138.678 86.557,138.678 85.586 C 138.678 84.580,138.715 84.507,139.220 84.507 C 139.653 84.507,139.762 84.399,139.762 83.965 C 139.762 83.460,139.834 83.424,140.845 83.424 C 141.856 83.424,141.928 83.388,141.928 82.882 C 141.928 82.397,142.017 82.340,142.768 82.340 C 144.133 82.340,144.939 82.104,145.079 81.664 C 145.298 80.972,150.753 81.048,150.852 81.744 C 150.912 82.168,151.068 82.240,152.045 82.297 C 153.014 82.353,153.178 82.428,153.237 82.839 C 153.294 83.242,153.463 83.325,154.334 83.381 C 155.263 83.441,155.363 83.499,155.363 83.977 C 155.363 84.398,155.475 84.507,155.905 84.507 C 156.338 84.507,156.446 84.615,156.446 85.049 C 156.446 85.482,156.555 85.590,156.988 85.590 C 157.493 85.590,157.530 85.664,157.530 86.659 C 157.530 87.602,157.587 87.735,158.017 87.796 C 158.500 87.865,158.505 87.905,158.564 91.804 L 158.623 95.743 158.131 95.813 C 157.709 95.873,157.629 96.031,157.572 96.912 C 157.536 97.478,157.421 97.941,157.317 97.941 C 156.891 97.941,156.446 98.669,156.446 99.365 C 156.446 100.013,156.377 100.108,155.905 100.108 C 155.466 100.108,155.363 100.215,155.363 100.670 C 155.363 101.038,155.222 101.269,154.956 101.339 C 154.459 101.469,154.004 102.398,154.174 102.935 C 154.272 103.242,154.166 103.343,153.693 103.397 C 153.217 103.452,153.098 103.568,153.137 103.941 C 153.175 104.310,153.056 104.429,152.595 104.482 C 152.195 104.528,151.984 104.693,151.941 104.990 C 151.907 105.232,151.663 105.525,151.400 105.640 C 151.136 105.756,150.890 106.065,150.853 106.328 C 150.816 106.590,150.607 106.862,150.389 106.931 C 149.984 107.059,149.737 107.645,149.732 108.490 C 149.730 108.814,149.576 108.984,149.242 109.032 C 148.928 109.076,148.729 109.275,148.685 109.588 C 148.635 109.941,148.470 110.076,148.089 110.076 C 147.676 110.076,147.562 110.189,147.562 110.602 C 147.562 110.984,147.428 111.148,147.075 111.198 C 146.766 111.242,146.562 111.442,146.520 111.742 C 146.478 112.037,146.273 112.241,145.978 112.284 C 145.655 112.330,145.483 112.526,145.440 112.900 C 145.403 113.217,145.174 113.537,144.898 113.658 C 144.552 113.810,144.402 114.089,144.354 114.667 C 144.297 115.354,144.205 115.476,143.704 115.534 C 143.295 115.581,143.100 115.743,143.053 116.076 C 143.011 116.371,142.806 116.575,142.511 116.617 C 142.168 116.666,142.037 116.834,142.037 117.226 C 142.037 117.630,141.899 117.796,141.498 117.878 C 141.186 117.942,140.924 118.169,140.876 118.418 C 140.831 118.654,140.610 118.975,140.386 119.132 C 140.162 119.289,139.978 119.535,139.978 119.679 C 139.978 119.823,139.759 120.037,139.491 120.154 C 139.158 120.300,138.938 120.661,138.799 121.289 C 138.631 122.048,138.507 122.210,138.095 122.210 C 137.706 122.210,137.595 122.331,137.595 122.752 C 137.595 123.185,137.486 123.294,137.053 123.294 C 136.624 123.294,136.511 123.403,136.511 123.820 C 136.511 124.201,136.377 124.366,136.024 124.416 C 135.718 124.460,135.511 124.659,135.470 124.953 C 135.429 125.237,135.196 125.472,134.874 125.553 C 134.509 125.644,134.345 125.837,134.345 126.172 C 134.345 126.468,134.154 126.741,133.857 126.872 C 133.503 127.027,133.340 127.322,133.261 127.952 C 133.167 128.704,133.081 128.819,132.611 128.819 C 132.162 128.819,132.071 128.922,132.078 129.415 C 132.085 129.925,131.999 130.011,131.482 130.011 C 130.982 130.011,130.878 130.104,130.878 130.553 C 130.878 130.948,130.762 131.094,130.448 131.094 C 130.171 131.094,129.971 131.286,129.883 131.636 C 129.808 131.934,129.603 132.178,129.427 132.178 C 129.251 132.178,128.998 132.464,128.866 132.813 C 128.734 133.163,128.453 133.495,128.241 133.550 C 127.985 133.617,127.809 133.948,127.714 134.539 C 127.594 135.290,127.492 135.428,127.058 135.428 C 126.654 135.428,126.544 135.544,126.544 135.970 C 126.544 136.403,126.436 136.511,126.002 136.511 L 125.460 136.511 125.460 141.495 L 125.460 146.479 147.880 146.479 L 170.299 146.479 170.538 146.032 C 170.896 145.364,170.734 136.193,170.358 135.818 C 170.134 135.594,167.175 135.524,155.932 135.478 L 141.788 135.419 141.883 134.773 C 141.935 134.418,142.109 134.128,142.270 134.128 C 142.648 134.128,143.012 133.443,143.012 132.734 C 143.012 132.285,143.117 132.178,143.554 132.178 C 143.987 132.178,144.095 132.069,144.095 131.636 C 144.095 131.259,144.214 131.094,144.485 131.094 C 144.979 131.094,145.395 130.685,145.395 130.199 C 145.395 129.975,145.592 129.796,145.883 129.755 C 146.196 129.711,146.395 129.512,146.440 129.198 C 146.484 128.887,146.659 128.711,146.923 128.711 C 147.185 128.711,147.388 128.510,147.475 128.163 C 147.550 127.862,147.795 127.518,148.019 127.398 C 148.264 127.267,148.481 126.837,148.564 126.320 C 148.679 125.599,148.784 125.460,149.215 125.460 C 149.619 125.460,149.729 125.344,149.729 124.919 C 149.729 124.485,149.837 124.377,150.271 124.377 C 150.704 124.377,150.813 124.269,150.813 123.835 C 150.813 123.402,150.921 123.294,151.354 123.294 C 151.781 123.294,151.896 123.184,151.896 122.775 C 151.896 122.403,152.049 122.219,152.438 122.121 C 152.833 122.022,152.979 121.840,152.979 121.448 C 152.979 121.111,153.103 120.910,153.309 120.910 C 153.490 120.910,153.750 120.666,153.886 120.368 C 154.021 120.070,154.207 119.827,154.299 119.827 C 154.704 119.827,155.146 119.083,155.146 118.403 C 155.146 117.722,155.200 117.660,155.796 117.660 C 156.340 117.660,156.446 117.574,156.446 117.133 C 156.446 116.752,156.581 116.587,156.934 116.537 C 157.247 116.493,157.446 116.294,157.491 115.980 C 157.535 115.669,157.710 115.493,157.974 115.493 C 158.235 115.493,158.439 115.293,158.524 114.951 C 158.599 114.653,158.804 114.410,158.981 114.410 C 159.157 114.410,159.409 114.123,159.541 113.774 C 159.673 113.424,159.954 113.093,160.166 113.037 C 160.422 112.970,160.599 112.639,160.693 112.048 C 160.813 111.297,160.915 111.159,161.349 111.159 C 161.749 111.159,161.863 111.042,161.863 110.633 C 161.863 110.255,161.999 110.086,162.342 110.037 C 162.645 109.993,162.867 109.768,162.947 109.426 C 163.027 109.083,163.249 108.859,163.552 108.815 C 163.895 108.765,164.030 108.597,164.030 108.219 C 164.030 107.929,164.121 107.692,164.232 107.692 C 164.668 107.692,165.114 106.973,165.114 106.268 C 165.114 105.620,165.183 105.525,165.655 105.525 C 166.085 105.525,166.197 105.416,166.197 104.999 C 166.197 104.618,166.332 104.453,166.685 104.403 C 167.077 104.347,167.211 104.133,167.371 103.304 C 167.492 102.680,167.686 102.275,167.864 102.275 C 168.206 102.275,168.581 101.407,168.581 100.617 C 168.581 100.311,168.796 99.896,169.068 99.675 C 169.511 99.317,169.563 99.061,169.629 96.890 C 169.698 94.631,169.728 94.496,170.171 94.433 C 170.913 94.327,170.901 89.203,170.158 89.097 C 169.694 89.031,169.675 88.934,169.616 86.280 C 169.558 83.616,169.541 83.530,169.068 83.463 C 168.661 83.405,168.581 83.259,168.581 82.574 C 168.581 81.532,168.187 80.390,167.828 80.390 C 167.676 80.390,167.493 80.098,167.421 79.740 C 167.318 79.224,167.179 79.090,166.744 79.090 C 166.305 79.090,166.197 78.983,166.197 78.548 C 166.197 78.115,166.089 78.007,165.655 78.007 C 165.222 78.007,165.114 77.898,165.114 77.465 C 165.114 77.031,165.005 76.923,164.572 76.923 C 164.139 76.923,164.030 76.815,164.030 76.381 C 164.030 75.952,163.921 75.840,163.503 75.840 C 163.089 75.840,162.961 75.712,162.907 75.244 C 162.858 74.817,162.700 74.628,162.351 74.579 C 162.038 74.534,161.863 74.360,161.863 74.091 C 161.863 73.851,161.702 73.657,161.484 73.636 C 161.276 73.615,160.910 73.580,160.672 73.558 C 160.433 73.536,160.123 73.504,159.983 73.487 C 159.842 73.470,159.696 73.237,159.658 72.969 C 159.598 72.547,159.459 72.481,158.631 72.481 C 157.780 72.481,157.652 72.415,157.476 71.885 C 157.283 71.307,157.229 71.289,155.685 71.289 C 154.199 71.289,154.088 71.257,154.024 70.802 L 153.954 70.314 148.055 70.257 L 142.155 70.199 142.021 70.735 M58.216 71.434 C 57.868 71.782,58.057 82.072,58.414 82.209 C 58.603 82.281,60.065 82.340,61.665 82.340 L 64.572 82.340 64.572 108.884 L 64.572 135.428 61.565 135.428 C 57.724 135.428,58.051 134.881,58.122 141.197 L 58.180 146.371 70.805 146.426 L 83.431 146.482 83.373 141.009 L 83.315 135.536 80.011 135.476 L 76.706 135.417 76.706 123.830 L 76.706 112.243 80.607 112.243 C 82.862 112.243,84.507 112.328,84.507 112.444 C 84.507 113.077,85.230 113.326,87.071 113.326 C 88.715 113.326,88.987 113.381,89.222 113.757 C 89.383 114.014,89.836 114.243,90.346 114.324 C 90.998 114.429,91.217 114.570,91.267 114.921 C 91.303 115.173,91.521 115.416,91.752 115.460 C 92.355 115.575,93.391 116.681,93.391 117.210 C 93.391 117.545,93.529 117.660,93.933 117.660 C 94.405 117.660,94.475 117.755,94.475 118.400 C 94.475 119.422,94.666 119.827,95.148 119.827 C 95.495 119.827,95.558 119.991,95.558 120.896 C 95.558 122.220,95.845 123.017,96.358 123.116 C 96.694 123.181,96.750 123.421,96.750 124.803 C 96.750 126.344,96.774 126.421,97.291 126.544 C 97.825 126.671,97.832 126.704,97.791 128.668 L 97.749 130.662 98.410 131.004 C 99.057 131.339,99.068 131.369,98.922 132.532 C 98.694 134.356,98.940 135.428,99.586 135.428 C 100.106 135.428,100.108 135.438,100.108 137.796 C 100.108 140.136,100.313 140.845,100.991 140.845 C 101.101 140.845,101.192 141.632,101.192 142.593 C 101.192 144.413,101.419 145.179,101.958 145.179 C 102.166 145.179,102.275 145.402,102.275 145.829 L 102.275 146.479 110.266 146.479 C 116.781 146.479,118.302 146.424,118.504 146.181 C 118.678 145.972,118.734 144.344,118.693 140.710 L 118.635 135.536 115.482 135.477 L 112.330 135.417 112.078 134.475 C 111.906 133.835,111.684 133.496,111.384 133.417 C 110.989 133.314,110.943 133.130,110.943 131.656 C 110.943 130.046,110.931 130.011,110.401 130.011 L 109.859 130.011 109.859 127.306 C 109.859 124.602,109.859 124.602,109.317 124.466 C 108.803 124.337,108.776 124.251,108.773 122.783 C 108.769 120.868,108.628 120.311,108.102 120.144 C 107.774 120.040,107.692 119.804,107.692 118.959 C 107.692 117.678,107.385 116.793,106.939 116.793 C 106.692 116.793,106.609 116.547,106.609 115.813 C 106.609 114.991,106.526 114.796,106.091 114.598 C 105.720 114.428,105.535 114.122,105.437 113.512 C 105.338 112.890,105.166 112.611,104.793 112.469 C 104.513 112.363,104.232 112.073,104.167 111.826 C 104.102 111.578,103.906 111.376,103.731 111.376 C 103.551 111.376,103.356 111.094,103.283 110.726 C 103.180 110.210,103.040 110.076,102.606 110.076 C 101.575 110.076,101.873 109.117,102.979 108.872 C 103.608 108.732,103.968 108.513,104.114 108.180 C 104.262 107.844,104.514 107.692,104.927 107.692 C 105.421 107.692,105.525 107.598,105.525 107.151 C 105.525 106.717,105.634 106.609,106.067 106.609 C 106.501 106.609,106.609 106.501,106.609 106.067 C 106.609 105.634,106.717 105.525,107.151 105.525 C 107.584 105.525,107.692 105.417,107.692 104.984 C 107.692 104.550,107.801 104.442,108.234 104.442 C 108.667 104.442,108.776 104.334,108.776 103.900 C 108.776 103.467,108.884 103.359,109.317 103.359 C 109.765 103.359,109.859 103.254,109.859 102.760 C 109.859 102.347,110.010 102.095,110.347 101.947 C 110.701 101.792,110.864 101.497,110.943 100.867 C 111.027 100.189,111.152 99.986,111.514 99.934 C 112.071 99.855,112.243 99.175,112.243 97.048 C 112.243 95.730,112.290 95.558,112.653 95.558 C 113.245 95.558,113.326 95.167,113.326 92.308 C 113.326 89.448,113.245 89.057,112.653 89.057 C 112.277 89.057,112.243 88.870,112.243 86.796 C 112.243 84.244,112.033 83.424,111.381 83.424 C 110.999 83.424,110.943 83.284,110.943 82.340 C 110.943 81.329,110.906 81.257,110.401 81.257 C 109.895 81.257,109.859 81.185,109.859 80.173 C 109.859 79.162,109.823 79.090,109.317 79.090 C 108.884 79.090,108.776 78.982,108.776 78.548 C 108.776 78.115,108.667 78.007,108.234 78.007 C 107.801 78.007,107.692 77.898,107.692 77.465 C 107.692 77.036,107.583 76.923,107.166 76.923 C 106.784 76.923,106.620 76.788,106.570 76.436 C 106.522 76.100,106.332 75.929,105.959 75.887 C 104.762 75.753,104.471 75.612,104.403 75.135 C 104.357 74.811,104.159 74.623,103.811 74.574 C 103.523 74.533,103.117 74.290,102.909 74.032 C 102.595 73.644,102.307 73.566,101.221 73.573 C 99.977 73.582,99.908 73.555,99.848 73.032 C 99.784 72.483,99.776 72.481,97.671 72.496 C 95.783 72.509,95.558 72.469,95.558 72.124 C 95.558 71.912,95.369 71.637,95.139 71.514 C 94.670 71.263,58.465 71.185,58.216 71.434 M180.861 71.432 C 180.584 71.709,180.693 81.798,180.975 82.080 C 181.152 82.257,182.189 82.340,184.225 82.340 L 187.216 82.340 187.216 108.884 L 187.216 135.428 184.209 135.428 C 180.368 135.428,180.694 134.881,180.765 141.197 L 180.823 146.371 193.449 146.426 L 206.075 146.482 206.017 141.009 L 205.959 135.536 202.654 135.476 L 199.350 135.417 199.350 123.830 L 199.350 112.243 208.898 112.243 C 218.474 112.243,219.285 112.183,219.285 111.477 C 219.285 111.246,219.545 111.159,220.233 111.159 C 221.748 111.159,222.535 110.937,222.535 110.510 C 222.535 110.220,222.787 110.098,223.619 109.988 C 224.503 109.871,224.702 109.766,224.702 109.418 C 224.702 109.097,224.850 108.992,225.304 108.992 C 226.001 108.992,226.869 108.453,226.869 108.019 C 226.869 107.855,227.136 107.690,227.465 107.653 C 227.886 107.604,228.080 107.445,228.128 107.110 C 228.170 106.814,228.374 106.610,228.670 106.568 C 228.970 106.525,229.170 106.322,229.213 106.013 C 229.263 105.660,229.428 105.525,229.809 105.525 C 230.227 105.525,230.336 105.413,230.336 104.984 C 230.336 104.550,230.444 104.442,230.878 104.442 C 231.383 104.442,231.419 104.370,231.419 103.359 C 231.419 102.347,231.455 102.275,231.961 102.275 C 232.414 102.275,232.503 102.172,232.503 101.650 C 232.503 101.209,232.629 100.993,232.933 100.913 C 233.470 100.773,233.803 99.931,233.803 98.712 C 233.803 97.983,233.910 97.706,234.290 97.454 C 234.774 97.133,234.778 97.088,234.778 91.774 C 234.778 86.482,234.772 86.414,234.290 86.024 C 233.962 85.758,233.802 85.393,233.800 84.906 C 233.795 83.340,233.551 82.556,233.027 82.425 C 232.636 82.327,232.512 82.126,232.460 81.507 C 232.412 80.931,232.262 80.657,231.907 80.501 C 231.570 80.354,231.419 80.102,231.419 79.689 C 231.419 79.194,231.325 79.090,230.878 79.090 C 230.444 79.090,230.336 78.982,230.336 78.548 C 230.336 78.115,230.228 78.007,229.794 78.007 C 229.361 78.007,229.252 77.898,229.252 77.465 C 229.252 77.031,229.144 76.923,228.711 76.923 C 228.277 76.923,228.169 76.815,228.169 76.381 C 228.169 75.967,228.057 75.840,227.690 75.840 C 227.426 75.840,227.000 75.576,226.744 75.255 C 226.391 74.812,226.086 74.670,225.490 74.670 C 224.812 74.670,224.702 74.600,224.702 74.171 C 224.702 73.636,224.637 73.617,222.644 73.583 C 221.641 73.566,221.555 73.522,221.494 72.995 L 221.428 72.426 219.337 72.454 C 217.276 72.481,217.245 72.473,217.118 71.939 L 216.990 71.398 198.998 71.342 C 189.103 71.312,180.941 71.352,180.861 71.432 M283.474 76.759 L 283.532 82.232 286.836 82.292 L 290.141 82.351 290.141 108.884 L 290.141 135.417 286.836 135.476 L 283.532 135.536 283.474 141.009 L 283.416 146.482 300.375 146.426 L 317.335 146.371 317.546 145.890 C 317.739 145.450,317.927 145.405,319.821 145.349 C 321.775 145.290,321.889 145.261,321.954 144.800 C 322.016 144.366,322.148 144.312,323.146 144.309 C 324.642 144.305,325.182 144.139,325.312 143.642 C 325.392 143.334,325.614 143.229,326.181 143.229 C 327.207 143.229,327.627 143.041,327.627 142.583 C 327.627 142.288,327.874 142.168,328.711 142.057 C 329.595 141.940,329.794 141.835,329.794 141.488 C 329.794 141.210,329.941 141.062,330.217 141.062 C 330.882 141.062,331.724 140.602,331.863 140.162 C 331.941 139.917,332.195 139.762,332.517 139.762 C 332.931 139.762,333.044 139.648,333.044 139.234 C 333.044 138.820,333.172 138.692,333.640 138.638 C 334.067 138.589,334.256 138.431,334.305 138.082 C 334.356 137.729,334.520 137.595,334.901 137.595 C 335.319 137.595,335.428 137.482,335.428 137.053 C 335.428 136.620,335.536 136.511,335.970 136.511 C 336.403 136.511,336.511 136.403,336.511 135.970 C 336.511 135.536,336.620 135.428,337.053 135.428 C 337.482 135.428,337.595 135.319,337.595 134.901 C 337.595 134.520,337.729 134.356,338.082 134.305 C 338.388 134.262,338.595 134.062,338.636 133.769 C 338.677 133.485,338.910 133.250,339.232 133.169 C 339.611 133.074,339.762 132.887,339.762 132.513 C 339.762 132.190,339.919 131.940,340.172 131.860 C 340.591 131.727,340.837 131.148,340.842 130.282 C 340.844 129.907,340.970 129.794,341.387 129.794 C 341.892 129.794,341.928 129.722,341.928 128.711 C 341.928 127.700,341.965 127.627,342.470 127.627 C 342.976 127.627,343.012 127.555,343.012 126.544 C 343.012 125.533,343.048 125.460,343.554 125.460 C 344.059 125.460,344.095 125.388,344.095 124.381 C 344.095 123.425,344.154 123.287,344.611 123.172 C 345.161 123.035,345.388 122.297,345.393 120.639 C 345.395 119.991,345.477 119.827,345.800 119.827 C 346.331 119.827,346.473 118.949,346.476 115.655 C 346.478 113.569,346.536 113.109,346.795 113.109 C 347.747 113.109,347.903 105.633,346.966 104.875 C 346.512 104.508,346.479 104.312,346.479 101.997 C 346.479 98.992,346.333 98.136,345.796 97.996 C 345.460 97.908,345.395 97.671,345.395 96.525 C 345.395 94.822,345.265 94.475,344.624 94.475 C 344.152 94.475,344.111 94.378,344.052 93.120 C 343.996 91.956,343.919 91.736,343.499 91.552 C 343.128 91.389,343.011 91.157,343.009 90.577 C 343.005 89.712,342.850 89.411,342.308 89.211 C 342.083 89.128,341.928 88.847,341.928 88.523 C 341.928 88.082,341.822 87.974,341.387 87.974 C 340.970 87.974,340.844 87.861,340.842 87.486 C 340.837 86.620,340.591 86.041,340.172 85.908 C 339.924 85.830,339.762 85.578,339.762 85.274 C 339.762 84.922,339.604 84.731,339.235 84.639 C 338.906 84.556,338.682 84.323,338.639 84.019 C 338.590 83.672,338.429 83.537,338.082 83.549 C 337.688 83.563,337.595 83.450,337.595 82.953 C 337.595 82.444,337.503 82.340,337.053 82.340 C 336.620 82.340,336.511 82.232,336.511 81.798 C 336.511 81.365,336.403 81.257,335.970 81.257 C 335.536 81.257,335.428 81.148,335.428 80.715 C 335.428 80.286,335.319 80.173,334.901 80.173 C 334.520 80.173,334.356 80.039,334.305 79.686 C 334.256 79.337,334.067 79.179,333.640 79.130 C 333.172 79.076,333.044 78.948,333.044 78.534 C 333.044 78.116,332.932 78.007,332.503 78.007 C 332.205 78.007,331.961 77.916,331.961 77.805 C 331.961 77.369,331.242 76.923,330.537 76.923 C 329.894 76.923,329.794 76.852,329.794 76.393 C 329.794 75.915,329.694 75.857,328.765 75.797 C 327.887 75.741,327.725 75.660,327.666 75.244 C 327.591 74.713,327.051 74.502,326.002 74.592 C 325.482 74.637,325.339 74.556,325.286 74.185 C 325.210 73.652,324.585 73.476,323.034 73.549 C 322.086 73.594,322.011 73.559,321.950 73.039 L 321.885 72.481 319.610 72.453 C 316.512 72.415,316.615 72.434,316.537 71.885 L 316.468 71.398 299.942 71.342 L 283.416 71.287 283.474 76.759 M93.502 82.828 C 93.674 83.218,93.921 83.328,94.745 83.381 C 95.455 83.427,95.775 83.542,95.775 83.753 C 95.775 84.163,96.462 84.507,97.281 84.507 C 97.886 84.507,97.937 84.559,97.814 85.049 C 97.691 85.538,97.742 85.590,98.338 85.590 C 98.886 85.590,98.994 85.673,98.972 86.078 C 98.899 87.436,99.012 87.757,99.567 87.757 C 100.079 87.757,100.108 87.822,100.108 88.949 C 100.108 90.076,100.138 90.141,100.650 90.141 C 101.436 90.141,101.482 92.294,100.704 92.636 C 100.256 92.832,100.212 93.013,100.154 94.854 C 100.093 96.822,100.083 96.858,99.558 96.858 C 99.013 96.858,98.899 97.185,98.972 98.537 C 98.994 98.942,98.886 99.025,98.338 99.025 C 97.742 99.025,97.691 99.078,97.814 99.567 C 97.944 100.085,97.907 100.108,96.966 100.108 C 96.139 100.108,95.944 100.191,95.746 100.626 C 95.576 101.000,95.270 101.182,94.645 101.282 C 94.037 101.380,93.748 101.547,93.669 101.848 C 93.560 102.264,93.335 102.275,85.132 102.275 L 76.706 102.275 76.706 92.308 L 76.706 82.340 84.997 82.340 L 93.288 82.340 93.502 82.828 M215.168 82.671 C 215.168 83.105,216.045 83.424,217.241 83.424 C 218.121 83.424,218.202 83.469,218.202 83.965 C 218.202 84.395,218.311 84.507,218.728 84.507 C 219.109 84.507,219.274 84.642,219.324 84.995 C 219.373 85.340,219.563 85.502,219.974 85.549 C 220.455 85.605,220.548 85.716,220.516 86.199 C 220.486 86.647,220.585 86.797,220.947 86.849 C 221.348 86.906,221.444 87.114,221.597 88.258 C 221.743 89.347,221.869 89.639,222.264 89.813 C 223.017 90.143,223.021 94.406,222.269 94.514 C 221.874 94.570,221.753 94.777,221.609 95.639 C 221.498 96.305,221.260 96.836,220.966 97.074 C 220.644 97.334,220.498 97.695,220.498 98.228 C 220.498 98.899,220.423 99.013,219.946 99.069 C 219.563 99.114,219.372 99.283,219.324 99.621 C 219.273 99.978,219.110 100.108,218.714 100.108 C 218.001 100.108,217.335 100.478,217.335 100.874 C 217.335 101.083,217.111 101.192,216.685 101.192 C 216.136 101.192,216.035 101.276,216.035 101.733 L 216.035 102.275 207.692 102.275 L 199.350 102.275 199.350 92.308 L 199.350 82.340 207.259 82.340 C 214.202 82.340,215.168 82.381,215.168 82.671 M316.615 82.828 C 316.679 83.274,316.815 83.321,318.234 83.379 C 319.676 83.437,319.794 83.479,319.918 83.974 C 320.038 84.451,320.165 84.507,321.131 84.507 C 322.138 84.507,322.210 84.543,322.210 85.049 C 322.210 85.482,322.319 85.590,322.752 85.590 C 323.185 85.590,323.294 85.699,323.294 86.132 C 323.294 86.524,323.410 86.674,323.715 86.674 C 323.946 86.674,324.263 86.853,324.419 87.073 C 324.776 87.577,325.516 87.974,326.096 87.974 C 326.429 87.974,326.544 88.113,326.544 88.516 C 326.544 88.949,326.652 89.057,327.086 89.057 C 327.519 89.057,327.627 89.166,327.627 89.599 C 327.627 90.020,327.738 90.141,328.127 90.141 C 328.539 90.141,328.664 90.303,328.832 91.062 C 328.987 91.764,329.148 91.999,329.508 92.050 C 329.869 92.101,329.971 92.251,329.941 92.685 C 329.911 93.124,330.023 93.282,330.438 93.384 C 330.857 93.487,330.981 93.666,331.008 94.205 C 331.059 95.222,331.244 95.558,331.750 95.558 C 331.999 95.558,332.144 95.654,332.072 95.771 C 331.822 96.175,332.223 97.561,332.620 97.664 C 333.088 97.787,333.254 98.348,333.258 99.814 C 333.261 100.818,333.314 100.941,333.798 101.063 L 334.334 101.197 334.394 104.923 L 334.453 108.648 334.995 108.799 L 335.536 108.949 334.940 108.971 L 334.345 108.992 334.345 112.761 L 334.345 116.529 333.803 116.665 C 333.347 116.780,333.261 116.929,333.259 117.610 C 333.254 119.161,333.015 120.043,332.600 120.043 C 332.158 120.043,331.843 121.065,332.068 121.772 C 332.182 122.132,332.110 122.210,331.665 122.210 C 331.082 122.210,330.758 122.787,330.966 123.456 C 331.119 123.945,330.882 124.305,330.336 124.413 C 330.056 124.468,329.908 124.665,329.918 124.966 C 329.929 125.280,329.770 125.474,329.434 125.558 C 329.139 125.632,328.879 125.905,328.799 126.222 C 328.725 126.518,328.526 126.761,328.357 126.761 C 328.015 126.761,327.627 127.611,327.627 128.363 C 327.627 128.728,327.506 128.849,327.153 128.836 C 326.820 128.824,326.640 128.980,326.548 129.360 C 326.472 129.670,326.236 129.927,325.993 129.964 C 324.895 130.129,324.613 130.260,324.485 130.661 C 324.397 130.938,324.157 131.094,323.821 131.094 C 323.403 131.094,323.294 131.207,323.294 131.636 C 323.294 132.069,323.185 132.178,322.752 132.178 C 322.319 132.178,322.210 132.286,322.210 132.719 C 322.210 133.225,322.138 133.261,321.131 133.261 C 320.165 133.261,320.038 133.317,319.918 133.793 C 319.795 134.283,319.669 134.331,318.343 134.389 C 317.088 134.445,316.874 134.516,316.688 134.940 L 316.474 135.428 308.833 135.428 L 301.192 135.428 301.192 108.884 L 301.192 82.340 308.869 82.340 L 316.546 82.340 316.615 82.828 " stroke="none" fill="#343434" fill-rule="evenodd"/><path id="path1" d="M98.859 131.961 C 98.859 132.378,98.903 132.549,98.958 132.340 C 99.012 132.132,99.012 131.790,98.958 131.582 C 98.903 131.373,98.859 131.544,98.859 131.961 " stroke="none" fill="#383434" fill-rule="evenodd"/><path id="path2" d="M98.859 131.961 C 98.859 132.378,98.903 132.549,98.958 132.340 C 99.012 132.132,99.012 131.790,98.958 131.582 C 98.903 131.373,98.859 131.544,98.859 131.961 " stroke="none" fill="#383434" fill-rule="evenodd"/><path id="path3" d="M98.859 131.961 C 98.859 132.378,98.903 132.549,98.958 132.340 C 99.012 132.132,99.012 131.790,98.958 131.582 C 98.903 131.373,98.859 131.544,98.859 131.961 " stroke="none" fill="#383434" fill-rule="evenodd"/><path id="path4" d="M98.859 131.961 C 98.859 132.378,98.903 132.549,98.958 132.340 C 99.012 132.132,99.012 131.790,98.958 131.582 C 98.903 131.373,98.859 131.544,98.859 131.961 " stroke="none" fill="#383434" fill-rule="evenodd"/></g></svg>