<svg xmlns="http://www.w3.org/2000/svg" xmlns:xlink="http://www.w3.org/1999/xlink" id="svg" version="1.1" viewBox="95.71 105.52 212.46 87.8"><g id="svgg"><path id="path0" d="M189.547 105.826 C 189.437 105.936,189.347 106.246,189.347 106.514 C 189.347 106.917,189.034 106.991,187.547 106.940 C 185.814 106.881,185.746 106.906,185.746 107.623 C 185.746 108.220,185.633 108.331,185.172 108.185 C 184.238 107.889,183.046 108.323,183.046 108.960 C 183.046 109.422,182.823 109.527,181.845 109.527 C 180.845 109.527,180.645 109.627,180.645 110.128 C 180.645 110.528,180.445 110.728,180.045 110.728 C 179.645 110.728,179.445 110.928,179.445 111.328 C 179.445 111.728,179.245 111.928,178.845 111.928 C 178.445 111.928,178.245 112.128,178.245 112.528 C 178.245 112.968,178.045 113.128,177.494 113.128 C 176.580 113.128,175.560 114.082,175.674 114.831 C 175.727 115.178,175.526 115.438,175.126 115.541 C 174.778 115.630,174.452 115.988,174.402 116.336 C 174.351 116.684,174.047 117.037,173.727 117.121 C 173.285 117.236,173.143 117.536,173.143 118.352 C 173.143 119.230,173.032 119.430,172.543 119.430 C 172.032 119.430,171.943 119.630,171.943 120.780 C 171.943 121.734,171.820 122.131,171.525 122.131 C 170.877 122.131,170.743 122.832,170.743 126.206 L 170.743 129.332 176.894 129.332 L 183.046 129.332 183.046 128.167 C 183.046 127.254,183.176 126.968,183.646 126.845 C 184.109 126.724,184.246 126.435,184.246 125.581 C 184.246 124.727,184.383 124.439,184.846 124.318 C 185.176 124.232,185.446 123.975,185.446 123.748 C 185.446 123.522,185.716 123.167,186.047 122.961 C 186.377 122.755,186.647 122.425,186.647 122.229 C 186.647 122.032,186.917 121.785,187.247 121.680 C 187.577 121.576,187.847 121.296,187.847 121.060 C 187.847 120.824,188.130 120.630,188.475 120.630 C 188.851 120.630,189.166 120.389,189.260 120.030 C 189.347 119.698,189.670 119.430,189.982 119.430 C 190.348 119.430,190.548 119.217,190.548 118.830 C 190.548 118.038,200.550 117.876,200.852 118.663 C 200.944 118.902,201.486 119.184,202.057 119.291 C 202.706 119.413,203.150 119.693,203.240 120.038 C 203.342 120.430,203.720 120.618,204.543 120.685 C 205.452 120.760,205.682 120.893,205.613 121.305 C 205.549 121.690,205.728 121.830,206.285 121.830 C 206.825 121.830,207.032 121.982,207.001 122.356 C 206.887 123.716,207.065 124.231,207.652 124.231 C 208.154 124.231,208.252 124.431,208.252 125.459 C 208.252 126.435,208.375 126.720,208.852 126.845 C 209.403 126.989,209.452 127.254,209.452 130.045 C 209.452 132.764,209.388 133.129,208.852 133.464 C 208.438 133.722,208.252 134.164,208.252 134.886 C 208.252 135.463,208.107 135.934,207.929 135.934 C 207.321 135.934,205.882 137.656,205.768 138.521 C 205.673 139.242,205.497 139.400,204.703 139.479 C 204.139 139.535,203.625 139.809,203.441 140.154 C 203.213 140.579,202.810 140.735,201.940 140.735 C 200.950 140.735,200.750 140.836,200.750 141.335 C 200.750 141.911,200.550 141.935,195.819 141.935 C 189.970 141.935,190.585 141.220,190.590 148.012 L 190.594 153.038 195.037 153.038 C 199.106 153.038,199.492 153.085,199.625 153.593 C 199.764 154.126,200.944 154.539,202.330 154.539 C 202.663 154.539,203.091 154.753,203.282 155.014 C 203.474 155.276,204.096 155.588,204.666 155.708 C 205.410 155.865,205.677 156.069,205.613 156.433 C 205.555 156.766,205.727 156.939,206.115 156.939 C 206.528 156.939,206.764 157.213,206.905 157.854 C 207.015 158.357,207.364 158.929,207.679 159.126 C 207.994 159.323,208.252 159.722,208.252 160.012 C 208.252 160.340,208.479 160.540,208.852 160.540 C 209.355 160.540,209.452 160.740,209.452 161.769 C 209.452 162.745,209.576 163.029,210.053 163.154 C 210.591 163.295,210.653 163.563,210.653 165.754 C 210.653 167.873,210.573 168.248,210.053 168.573 C 209.584 168.865,209.452 169.272,209.452 170.435 C 209.452 171.615,209.328 171.988,208.852 172.243 C 208.459 172.453,208.252 172.871,208.252 173.454 C 208.252 174.051,208.102 174.344,207.795 174.344 C 207.543 174.344,207.216 174.663,207.067 175.053 C 206.919 175.443,206.517 175.835,206.175 175.925 C 205.832 176.015,205.551 176.287,205.551 176.531 C 205.551 176.775,205.281 177.045,204.951 177.131 C 204.621 177.218,204.351 177.503,204.351 177.766 C 204.351 178.077,204.087 178.245,203.598 178.245 C 203.184 178.245,202.614 178.515,202.331 178.845 C 201.966 179.271,201.446 179.445,200.533 179.445 C 199.650 179.445,199.063 179.632,198.650 180.045 C 198.184 180.511,197.649 180.645,196.260 180.645 C 194.777 180.645,194.415 180.542,194.149 180.045 C 193.889 179.560,193.520 179.445,192.222 179.445 C 190.870 179.445,190.593 179.350,190.461 178.845 C 190.340 178.385,190.051 178.245,189.225 178.245 C 188.439 178.245,188.147 178.115,188.147 177.766 C 188.147 177.503,187.877 177.218,187.547 177.131 C 187.217 177.045,186.947 176.775,186.947 176.531 C 186.947 176.287,186.666 176.015,186.324 175.925 C 185.981 175.835,185.579 175.443,185.431 175.053 C 185.282 174.663,184.955 174.344,184.704 174.344 C 184.396 174.344,184.246 174.051,184.246 173.454 C 184.246 172.871,184.039 172.453,183.646 172.243 C 183.268 172.041,183.046 171.615,183.046 171.092 C 183.046 169.595,182.805 169.542,175.975 169.542 L 169.624 169.542 169.445 170.849 C 169.176 172.810,169.499 174.344,170.182 174.344 C 170.668 174.344,170.743 174.586,170.743 176.172 C 170.743 177.748,170.826 178.022,171.343 178.158 C 171.813 178.281,171.943 178.567,171.943 179.480 C 171.943 180.422,172.051 180.645,172.510 180.645 C 172.921 180.645,173.131 180.937,173.276 181.711 C 173.386 182.298,173.672 182.852,173.910 182.944 C 174.148 183.035,174.344 183.366,174.344 183.678 C 174.344 183.990,174.549 184.246,174.801 184.246 C 175.053 184.246,175.387 184.584,175.544 184.996 C 175.719 185.456,176.065 185.746,176.437 185.746 C 176.844 185.746,177.044 185.944,177.044 186.347 C 177.044 186.747,177.244 186.947,177.644 186.947 C 178.045 186.947,178.245 187.147,178.245 187.547 C 178.245 188.047,178.445 188.147,179.445 188.147 C 180.445 188.147,180.645 188.247,180.645 188.747 C 180.645 189.247,180.845 189.347,181.845 189.347 C 182.846 189.347,183.046 189.447,183.046 189.947 C 183.046 190.450,183.246 190.548,184.273 190.548 C 185.184 190.548,185.641 190.722,186.047 191.223 C 186.527 191.816,186.924 191.911,189.321 192.003 C 191.286 192.078,192.048 192.215,192.048 192.493 C 192.048 193.469,199.917 193.644,200.433 192.679 C 200.689 192.203,201.158 192.093,203.321 192.004 C 205.567 191.912,205.976 191.810,206.451 191.223 C 206.828 190.757,207.321 190.548,208.040 190.548 C 208.830 190.548,209.120 190.402,209.239 189.947 C 209.360 189.484,209.649 189.347,210.503 189.347 C 211.357 189.347,211.645 189.210,211.766 188.747 C 211.853 188.415,212.175 188.147,212.488 188.147 C 212.853 188.147,213.053 187.935,213.053 187.547 C 213.053 187.147,213.253 186.947,213.653 186.947 C 214.054 186.947,214.254 186.747,214.254 186.347 C 214.254 185.938,214.454 185.746,214.882 185.746 C 215.248 185.746,215.573 185.507,215.660 185.174 C 215.742 184.859,216.067 184.534,216.382 184.452 C 216.715 184.365,216.954 184.040,216.954 183.674 C 216.954 183.246,217.145 183.046,217.554 183.046 C 217.954 183.046,218.155 182.846,218.155 182.446 C 218.155 182.046,218.355 181.845,218.755 181.845 C 219.155 181.845,219.355 181.645,219.355 181.245 C 219.355 180.845,219.555 180.645,219.955 180.645 C 220.452 180.645,220.555 180.445,220.555 179.480 C 220.555 178.567,220.685 178.281,221.155 178.158 C 221.673 178.022,221.755 177.748,221.755 176.172 C 221.755 174.558,221.824 174.344,222.342 174.344 C 223.601 174.344,223.687 160.045,222.431 159.494 C 221.867 159.247,221.755 158.962,221.755 157.779 C 221.755 156.667,221.626 156.291,221.155 156.039 C 220.763 155.829,220.555 155.411,220.555 154.831 C 220.555 154.269,220.335 153.806,219.955 153.569 C 219.625 153.363,219.355 152.965,219.355 152.686 C 219.355 152.407,219.099 152.097,218.787 151.998 C 218.475 151.899,218.150 151.552,218.065 151.228 C 217.980 150.903,217.705 150.638,217.453 150.638 C 217.201 150.638,216.909 150.368,216.804 150.038 C 216.699 149.707,216.385 149.437,216.106 149.437 C 215.827 149.437,215.430 149.167,215.223 148.837 C 214.984 148.454,214.524 148.237,213.951 148.237 C 213.253 148.237,213.053 148.103,213.053 147.637 C 213.053 147.237,213.253 147.037,213.653 147.037 C 214.094 147.037,214.254 146.837,214.254 146.287 C 214.254 145.693,214.405 145.536,214.979 145.536 C 216.002 145.536,216.654 145.240,216.654 144.774 C 216.654 144.556,216.920 144.292,217.244 144.189 C 217.618 144.071,217.905 143.624,218.027 142.969 C 218.167 142.224,218.380 141.935,218.788 141.935 C 219.163 141.935,219.355 141.723,219.355 141.307 C 219.355 140.931,219.596 140.616,219.955 140.522 C 220.417 140.401,220.555 140.113,220.555 139.272 C 220.555 138.504,220.734 138.067,221.155 137.804 C 221.732 137.444,221.755 137.104,221.755 129.152 C 221.755 121.126,221.737 120.869,221.155 120.717 C 220.766 120.615,220.555 120.308,220.555 119.842 C 220.555 119.447,220.285 118.893,219.955 118.610 C 219.625 118.327,219.355 117.856,219.355 117.563 C 219.355 117.229,219.130 117.029,218.755 117.029 C 218.256 117.029,218.155 116.829,218.155 115.849 C 218.155 114.900,218.027 114.628,217.500 114.461 C 217.139 114.347,216.078 113.460,215.141 112.491 C 213.909 111.215,213.218 110.728,212.645 110.728 C 212.053 110.728,211.853 110.576,211.853 110.128 C 211.853 109.627,211.653 109.527,210.653 109.527 C 209.777 109.527,209.452 109.404,209.452 109.070 C 209.452 108.518,208.084 107.945,207.335 108.182 C 206.938 108.308,206.771 108.172,206.699 107.665 C 206.612 107.050,206.432 106.974,205.015 106.952 C 203.744 106.932,203.337 106.797,202.972 106.277 C 202.516 105.625,190.163 105.211,189.547 105.826 M96.774 107.046 C 95.790 107.292,95.733 107.640,95.729 113.471 C 95.723 120.059,95.214 119.430,100.550 119.430 L 104.426 119.430 104.426 150.038 L 104.426 180.645 100.075 180.645 L 95.724 180.645 95.724 186.162 C 95.724 191.629,95.730 191.680,96.399 191.859 C 98.122 192.321,124.777 192.060,125.260 191.576 C 125.744 191.093,125.988 182.263,125.549 181.120 C 125.395 180.717,124.710 180.645,121.048 180.645 L 116.729 180.645 116.729 167.592 L 116.729 154.539 123.749 154.539 C 129.593 154.539,130.796 154.611,130.935 154.972 C 131.026 155.211,131.581 155.496,132.167 155.606 C 132.942 155.751,133.233 155.961,133.233 156.372 C 133.233 156.742,133.445 156.939,133.843 156.939 C 134.178 156.939,134.530 157.142,134.625 157.389 C 134.720 157.637,134.986 157.839,135.216 157.839 C 135.462 157.839,135.634 158.148,135.634 158.590 C 135.634 159.125,135.796 159.340,136.201 159.340 C 136.604 159.340,136.821 159.624,136.952 160.325 C 137.054 160.866,137.404 161.538,137.730 161.817 C 138.181 162.203,138.278 162.546,138.138 163.250 C 137.985 164.013,138.059 164.204,138.562 164.335 C 139.066 164.467,139.207 164.835,139.382 166.470 C 139.636 168.844,139.771 169.242,140.317 169.242 C 140.637 169.242,140.735 169.768,140.735 171.482 C 140.735 173.415,140.817 173.766,141.335 174.044 C 141.858 174.323,141.935 174.672,141.935 176.735 C 141.935 178.841,142.002 179.126,142.536 179.295 C 143.066 179.463,143.136 179.749,143.136 181.744 C 143.136 183.750,143.203 184.020,143.736 184.159 C 144.265 184.297,144.337 184.570,144.341 186.457 C 144.345 188.692,144.488 189.161,145.236 189.402 C 145.534 189.498,145.688 189.945,145.690 190.723 L 145.693 191.898 154.992 191.898 L 164.291 191.898 164.291 185.746 L 164.291 179.595 160.615 179.511 L 156.939 179.426 156.939 178.357 C 156.939 177.541,156.798 177.251,156.339 177.131 C 155.822 176.996,155.738 176.720,155.735 175.134 C 155.729 172.721,155.502 171.943,154.804 171.943 C 154.297 171.943,154.239 171.693,154.239 169.514 C 154.239 167.338,154.176 167.069,153.638 166.929 C 153.102 166.788,153.038 166.519,153.038 164.406 C 153.038 162.241,152.988 162.041,152.438 162.041 C 151.905 162.041,151.838 161.840,151.838 160.260 C 151.838 158.744,151.749 158.452,151.238 158.290 C 150.787 158.147,150.638 157.836,150.638 157.041 C 150.638 156.253,150.492 155.945,150.066 155.833 C 149.702 155.738,149.424 155.313,149.303 154.665 C 149.197 154.104,148.847 153.504,148.524 153.331 C 148.201 153.159,147.937 152.819,147.937 152.578 C 147.937 152.336,147.731 152.138,147.479 152.138 C 147.228 152.138,146.894 151.800,146.737 151.388 C 146.580 150.975,146.246 150.638,145.994 150.638 C 145.736 150.638,145.536 150.375,145.536 150.038 C 145.536 149.539,145.736 149.437,146.716 149.437 C 147.633 149.437,147.939 149.303,148.087 148.837 C 148.193 148.505,148.541 148.237,148.869 148.237 C 149.194 148.237,150.050 147.629,150.772 146.887 C 151.494 146.144,152.299 145.536,152.561 145.536 C 152.828 145.536,153.038 145.288,153.038 144.971 C 153.038 144.658,153.306 144.336,153.638 144.249 C 154.098 144.129,154.239 143.840,154.239 143.014 C 154.239 142.156,154.355 141.935,154.807 141.935 C 155.423 141.935,155.739 141.380,155.739 140.296 C 155.739 139.857,155.958 139.548,156.339 139.448 C 156.814 139.324,156.939 139.039,156.939 138.078 C 156.939 137.234,157.099 136.775,157.464 136.571 C 158.351 136.075,158.440 124.531,157.557 124.531 C 156.997 124.531,156.939 124.350,156.939 122.581 C 156.939 121.061,156.813 120.504,156.366 120.057 C 156.051 119.742,155.746 119.236,155.688 118.932 C 155.630 118.628,155.280 118.336,154.911 118.284 C 154.345 118.203,154.239 118.001,154.239 117.008 C 154.239 116.029,154.137 115.829,153.638 115.829 C 153.229 115.829,153.038 115.629,153.038 115.201 C 153.038 114.825,152.797 114.509,152.438 114.416 C 152.106 114.329,151.838 114.006,151.838 113.693 C 151.838 113.335,151.626 113.128,151.258 113.128 C 150.939 113.128,150.592 112.858,150.488 112.528 C 150.348 112.087,150.034 111.928,149.302 111.928 C 148.559 111.928,148.267 111.776,148.150 111.328 C 148.025 110.851,147.741 110.728,146.765 110.728 C 145.736 110.728,145.536 110.630,145.536 110.128 C 145.536 109.627,145.336 109.527,144.336 109.527 C 143.491 109.527,143.136 109.399,143.136 109.095 C 143.136 108.360,142.511 108.210,139.204 108.154 C 136.388 108.106,135.931 108.024,135.370 107.463 C 134.759 106.852,99.093 106.467,96.774 107.046 M235.759 107.027 C 235.649 107.137,235.559 109.972,235.559 113.328 L 235.559 119.430 239.310 119.430 L 243.061 119.430 243.061 150.038 L 243.061 180.645 239.303 180.645 L 235.546 180.645 235.627 186.272 L 235.709 191.898 254.614 191.984 C 274.836 192.075,275.318 192.056,275.558 191.140 C 275.695 190.615,275.975 190.548,278.020 190.548 C 280.074 190.548,280.343 190.482,280.483 189.947 C 280.613 189.452,280.893 189.347,282.089 189.347 C 283.156 189.347,283.640 189.201,283.929 188.793 C 284.145 188.488,284.827 188.144,285.446 188.029 C 286.076 187.912,286.572 187.644,286.572 187.422 C 286.572 187.189,287.071 186.944,287.772 186.832 C 288.432 186.726,288.972 186.503,288.972 186.336 C 288.972 186.168,289.310 185.903,289.722 185.746 C 290.135 185.590,290.473 185.319,290.473 185.146 C 290.473 184.973,290.810 184.703,291.223 184.546 C 291.682 184.372,291.973 184.025,291.973 183.653 C 291.973 183.174,292.169 183.046,292.901 183.046 C 293.572 183.046,293.872 182.882,293.984 182.456 C 294.069 182.131,294.381 181.788,294.678 181.694 C 294.975 181.600,295.294 181.325,295.387 181.084 C 295.479 180.843,295.829 180.645,296.165 180.645 C 296.607 180.645,296.774 180.449,296.774 179.930 C 296.774 179.481,296.985 179.160,297.343 179.066 C 297.673 178.980,297.994 178.539,298.110 178.011 C 298.228 177.473,298.546 177.043,298.892 176.953 C 299.235 176.863,299.475 176.542,299.475 176.172 C 299.475 175.744,299.666 175.544,300.075 175.544 C 300.478 175.544,300.675 175.344,300.675 174.934 C 300.675 174.599,300.874 174.248,301.117 174.155 C 301.360 174.062,301.644 173.531,301.749 172.975 C 301.865 172.356,302.159 171.893,302.507 171.783 C 302.938 171.646,303.076 171.317,303.076 170.422 C 303.076 169.442,303.178 169.242,303.676 169.242 C 304.170 169.242,304.276 169.042,304.276 168.114 C 304.276 167.311,304.449 166.878,304.876 166.611 C 305.358 166.310,305.476 165.911,305.476 164.589 C 305.476 163.312,305.579 162.941,305.934 162.941 C 306.610 162.941,306.977 161.667,306.977 159.320 C 306.977 157.639,307.092 157.124,307.577 156.639 C 308.140 156.076,308.177 155.639,308.177 149.587 C 308.177 143.536,308.140 143.099,307.577 142.536 C 307.084 142.043,306.977 141.535,306.977 139.704 C 306.977 137.219,306.621 135.934,305.934 135.934 C 305.579 135.934,305.476 135.563,305.476 134.286 C 305.476 132.963,305.358 132.564,304.876 132.263 C 304.454 132.000,304.276 131.564,304.276 130.796 C 304.276 129.955,304.138 129.666,303.676 129.545 C 303.213 129.424,303.076 129.136,303.076 128.282 C 303.076 127.428,302.939 127.140,302.476 127.019 C 302.143 126.932,301.875 126.609,301.875 126.297 C 301.875 125.931,301.663 125.731,301.275 125.731 C 300.841 125.731,300.675 125.531,300.675 125.006 C 300.675 123.992,300.379 123.331,299.925 123.331 C 299.713 123.331,299.455 122.993,299.352 122.581 C 299.248 122.168,298.979 121.830,298.754 121.830 C 298.529 121.830,298.274 121.560,298.188 121.230 C 298.094 120.871,297.778 120.630,297.402 120.630 C 296.974 120.630,296.774 120.439,296.774 120.030 C 296.774 119.630,296.574 119.430,296.174 119.430 C 295.774 119.430,295.574 119.230,295.574 118.830 C 295.574 118.430,295.374 118.230,294.974 118.230 C 294.574 118.230,294.374 118.030,294.374 117.629 C 294.374 117.229,294.174 117.029,293.773 117.029 C 293.380 117.029,293.173 116.829,293.173 116.449 C 293.173 116.130,292.903 115.784,292.573 115.679 C 292.243 115.574,291.833 115.227,291.662 114.908 C 291.491 114.590,291.168 114.329,290.944 114.329 C 290.720 114.329,290.462 114.133,290.370 113.895 C 290.279 113.657,289.737 113.374,289.166 113.267 C 288.500 113.142,288.074 112.866,287.978 112.500 C 287.867 112.076,287.559 111.928,286.785 111.928 C 285.994 111.928,285.703 111.783,285.584 111.328 C 285.462 110.859,285.175 110.728,284.271 110.728 C 283.440 110.728,283.010 110.559,282.740 110.128 C 282.441 109.648,282.041 109.527,280.753 109.527 C 279.416 109.527,279.114 109.429,278.990 108.953 C 278.828 108.337,275.985 107.765,274.987 108.148 C 273.957 108.543,270.727 107.987,270.571 107.388 C 270.421 106.816,236.323 106.462,235.759 107.027 M135.721 120.030 C 135.846 120.507,136.130 120.630,137.106 120.630 C 138.135 120.630,138.335 120.728,138.335 121.230 C 138.335 121.730,138.535 121.830,139.535 121.830 C 140.535 121.830,140.735 121.930,140.735 122.431 C 140.735 122.831,140.935 123.031,141.335 123.031 C 141.802 123.031,141.935 123.231,141.935 123.928 C 141.935 124.501,142.153 124.962,142.536 125.201 C 142.967 125.470,143.136 125.901,143.136 126.732 C 143.136 127.636,143.267 127.922,143.736 128.045 C 144.644 128.283,144.658 133.233,143.750 133.233 C 143.241 133.233,143.153 133.479,143.075 135.109 C 142.999 136.702,142.907 136.971,142.461 136.896 C 142.075 136.831,141.935 137.011,141.935 137.571 C 141.935 138.135,141.778 138.335,141.335 138.335 C 140.935 138.335,140.735 138.535,140.735 138.935 C 140.735 139.335,140.535 139.535,140.135 139.535 C 139.735 139.535,139.535 139.735,139.535 140.135 C 139.535 140.637,139.335 140.735,138.306 140.735 C 137.330 140.735,137.046 140.858,136.921 141.335 C 136.778 141.884,136.512 141.935,133.819 141.935 C 131.137 141.935,130.856 141.989,130.683 142.536 C 130.499 143.113,130.229 143.136,123.611 143.136 L 116.729 143.136 116.729 131.283 L 116.729 119.430 126.147 119.430 C 135.312 119.430,135.568 119.446,135.721 120.030 M273.155 120.030 C 273.278 120.499,273.565 120.630,274.468 120.630 C 275.300 120.630,275.730 120.799,275.999 121.230 C 276.237 121.611,276.699 121.830,277.261 121.830 C 277.841 121.830,278.260 122.038,278.470 122.431 C 278.680 122.824,279.098 123.031,279.680 123.031 C 280.278 123.031,280.570 123.181,280.570 123.488 C 280.570 123.740,280.889 124.067,281.279 124.215 C 281.669 124.364,282.068 124.691,282.164 124.942 C 282.260 125.193,282.819 125.488,283.405 125.598 C 284.180 125.744,284.471 125.953,284.471 126.365 C 284.471 126.732,284.683 126.932,285.071 126.932 C 285.471 126.932,285.671 127.132,285.671 127.532 C 285.671 127.920,285.871 128.132,286.238 128.132 C 286.650 128.132,286.860 128.424,287.005 129.198 C 287.115 129.784,287.400 130.339,287.638 130.430 C 287.877 130.522,288.072 130.850,288.072 131.159 C 288.072 131.508,288.356 131.793,288.820 131.909 C 289.232 132.013,289.501 132.206,289.418 132.340 C 289.155 132.765,289.840 134.134,290.315 134.134 C 290.638 134.134,290.773 134.442,290.773 135.181 C 290.773 135.904,290.959 136.345,291.373 136.604 C 291.804 136.873,291.973 137.304,291.973 138.135 C 291.973 139.039,292.104 139.325,292.573 139.448 C 293.120 139.591,293.173 139.857,293.173 142.449 C 293.173 145.040,293.227 145.306,293.773 145.449 C 294.334 145.596,294.374 145.859,294.374 149.437 C 294.374 153.016,294.334 153.279,293.773 153.425 C 293.227 153.568,293.173 153.835,293.173 156.426 C 293.173 159.017,293.120 159.284,292.573 159.427 C 292.056 159.562,291.973 159.836,291.973 161.412 C 291.973 163.041,291.907 163.241,291.373 163.241 C 290.874 163.241,290.773 163.441,290.773 164.420 C 290.773 165.415,290.667 165.615,290.098 165.696 C 289.622 165.763,289.429 165.987,289.445 166.452 C 289.457 166.815,289.366 167.050,289.244 166.974 C 288.819 166.712,288.072 167.789,288.072 168.664 C 288.072 169.342,287.935 169.542,287.472 169.542 C 287.072 169.542,286.872 169.742,286.872 170.143 C 286.872 170.543,286.672 170.743,286.272 170.743 C 285.871 170.743,285.671 170.943,285.671 171.343 C 285.671 171.743,285.471 171.943,285.071 171.943 C 284.671 171.943,284.471 172.143,284.471 172.543 C 284.471 172.943,284.271 173.143,283.871 173.143 C 283.471 173.143,283.271 173.343,283.271 173.743 C 283.271 174.074,283.136 174.360,282.971 174.381 C 282.806 174.402,282.502 174.436,282.296 174.457 C 282.089 174.478,281.920 174.765,281.920 175.094 C 281.920 175.424,281.717 175.706,281.470 175.723 C 281.223 175.739,280.704 175.773,280.317 175.798 C 279.890 175.826,279.552 176.080,279.457 176.444 C 279.346 176.869,279.047 177.044,278.437 177.044 C 277.899 177.044,277.433 177.270,277.200 177.644 C 276.936 178.066,276.500 178.245,275.732 178.245 C 274.891 178.245,274.602 178.383,274.482 178.845 C 274.337 179.397,274.072 179.445,271.146 179.445 C 268.367 179.445,267.891 179.520,267.367 180.045 C 266.810 180.602,266.367 180.645,261.215 180.645 L 255.664 180.645 255.664 150.038 L 255.664 119.430 264.331 119.430 C 272.746 119.430,273.003 119.447,273.155 120.030 " stroke="none" fill="#343434" fill-rule="evenodd"/><path id="path1" d="M273.443 108.234 C 273.732 108.309,274.205 108.309,274.494 108.234 C 274.782 108.158,274.546 108.097,273.968 108.097 C 273.391 108.097,273.155 108.158,273.443 108.234 " stroke="none" fill="#383434" fill-rule="evenodd"/><path id="path2" d="M273.443 108.234 C 273.732 108.309,274.205 108.309,274.494 108.234 C 274.782 108.158,274.546 108.097,273.968 108.097 C 273.391 108.097,273.155 108.158,273.443 108.234 " stroke="none" fill="#383434" fill-rule="evenodd"/><path id="path3" d="M273.443 108.234 C 273.732 108.309,274.205 108.309,274.494 108.234 C 274.782 108.158,274.546 108.097,273.968 108.097 C 273.391 108.097,273.155 108.158,273.443 108.234 " stroke="none" fill="#383434" fill-rule="evenodd"/><path id="path4" d="M273.443 108.234 C 273.732 108.309,274.205 108.309,274.494 108.234 C 274.782 108.158,274.546 108.097,273.968 108.097 C 273.391 108.097,273.155 108.158,273.443 108.234 " stroke="none" fill="#383434" fill-rule="evenodd"/></g></svg>