<svg xmlns="http://www.w3.org/2000/svg" xmlns:xlink="http://www.w3.org/1999/xlink" id="svg" version="1.1" viewBox="78.05 55.79 239.28 83.12"><g id="svgg"><path id="path0" d="M180.192 55.885 C 180.118 55.958,180.058 56.220,180.058 56.466 L 180.058 56.914 176.041 56.966 L 172.023 57.018 171.962 57.551 C 171.902 58.075,171.880 58.083,170.546 58.083 C 169.030 58.083,168.441 58.302,168.441 58.865 C 168.441 59.175,168.307 59.245,167.715 59.248 C 166.536 59.252,166.118 59.431,166.118 59.933 C 166.118 60.298,166.001 60.393,165.489 60.443 C 164.911 60.498,164.864 60.554,164.908 61.123 C 164.953 61.711,164.925 61.739,164.358 61.668 C 163.619 61.574,162.872 61.896,162.720 62.374 C 162.657 62.572,162.350 62.866,162.039 63.027 C 161.727 63.189,161.471 63.447,161.471 63.601 C 161.471 63.755,161.221 64.011,160.915 64.169 C 160.345 64.464,160.123 64.939,160.119 65.876 C 160.117 66.338,160.039 66.409,159.535 66.409 C 159.026 66.409,158.955 66.477,158.955 66.958 C 158.955 67.348,158.822 67.569,158.498 67.716 C 157.990 67.948,157.793 68.617,157.793 70.111 C 157.793 70.891,157.732 71.055,157.444 71.055 C 156.647 71.055,156.631 71.213,156.631 79.113 C 156.631 87.279,156.634 87.318,157.330 87.318 C 157.767 87.318,157.793 87.384,157.793 88.485 C 157.793 89.626,157.805 89.654,158.374 89.768 C 158.897 89.872,158.955 89.957,158.955 90.618 C 158.955 91.643,159.118 91.965,159.641 91.965 C 160.008 91.965,160.103 92.082,160.152 92.594 C 160.202 93.115,160.303 93.234,160.734 93.284 C 161.136 93.330,161.268 93.462,161.315 93.865 C 161.361 94.270,161.492 94.399,161.907 94.447 C 162.260 94.487,162.439 94.621,162.439 94.843 C 162.439 95.302,162.818 95.644,163.327 95.644 C 163.586 95.644,163.789 95.793,163.850 96.029 C 163.964 96.465,164.709 96.805,165.550 96.805 C 166.020 96.805,166.118 96.885,166.118 97.269 C 166.118 97.817,166.433 97.967,167.586 97.967 C 168.407 97.967,168.441 97.990,168.441 98.548 L 168.441 99.129 169.608 99.129 C 170.655 99.129,170.792 99.175,170.948 99.586 C 171.145 100.104,171.791 100.290,173.389 100.290 C 174.301 100.290,174.423 100.338,174.478 100.718 C 174.558 101.270,175.084 101.409,177.189 101.433 L 178.871 101.452 178.932 101.985 C 178.993 102.515,179.000 102.517,180.671 102.573 C 182.337 102.628,182.350 102.632,182.549 103.202 L 182.748 103.775 184.404 103.775 C 185.718 103.775,186.060 103.833,186.060 104.055 C 186.060 104.607,186.873 104.937,188.233 104.937 L 189.545 104.937 189.545 105.518 C 189.545 106.098,189.546 106.099,190.694 106.099 L 191.844 106.099 191.904 106.728 C 191.955 107.248,192.055 107.368,192.486 107.417 C 192.850 107.459,193.024 107.605,193.066 107.901 C 193.109 108.201,193.283 108.343,193.659 108.387 C 194.102 108.437,194.192 108.541,194.192 109.003 C 194.192 109.464,194.281 109.568,194.723 109.619 C 195.143 109.668,195.275 109.802,195.353 110.261 C 195.431 110.718,195.564 110.855,195.974 110.903 C 196.465 110.959,196.500 111.029,196.554 112.064 C 196.609 113.105,196.641 113.169,197.144 113.227 L 197.677 113.288 197.677 115.586 L 197.677 117.883 197.144 117.945 C 196.641 118.002,196.609 118.066,196.554 119.106 C 196.499 120.149,196.467 120.212,195.925 120.331 C 195.455 120.434,195.353 120.555,195.353 121.009 C 195.353 121.468,195.263 121.572,194.821 121.623 C 194.410 121.670,194.275 121.800,194.230 122.190 C 194.193 122.504,193.991 122.778,193.697 122.912 C 193.437 123.031,193.224 123.251,193.224 123.401 C 193.224 123.560,192.940 123.727,192.546 123.801 C 192.003 123.903,191.868 124.018,191.868 124.377 C 191.868 124.788,191.760 124.837,190.582 124.957 C 189.107 125.108,188.654 125.300,188.480 125.847 C 188.318 126.358,178.703 126.467,178.703 125.958 C 178.703 125.414,178.130 125.123,176.798 124.992 C 175.590 124.873,175.436 124.811,175.333 124.399 C 175.235 124.007,175.059 123.919,174.153 123.806 C 173.194 123.686,173.088 123.626,173.088 123.206 C 173.088 122.843,172.960 122.714,172.507 122.623 C 172.139 122.550,171.926 122.388,171.926 122.183 C 171.926 121.765,171.552 121.394,171.131 121.394 C 170.881 121.394,170.768 121.155,170.666 120.409 C 170.547 119.549,170.459 119.399,169.970 119.228 C 169.441 119.044,169.409 118.970,169.407 117.938 C 169.403 116.444,169.251 115.989,168.709 115.853 C 168.254 115.739,168.248 115.704,168.248 113.329 L 168.248 110.921 160.997 110.979 C 155.371 111.023,153.690 111.092,153.494 111.287 C 153.148 111.634,153.017 121.876,153.355 122.283 C 153.524 122.487,154.111 122.556,155.677 122.556 L 157.774 122.556 157.832 123.669 C 157.887 124.723,157.918 124.785,158.422 124.843 C 158.935 124.903,158.955 124.946,158.955 126.038 C 158.955 127.140,158.971 127.175,159.535 127.299 C 160.031 127.408,160.117 127.517,160.119 128.041 C 160.123 129.108,160.316 129.526,160.804 129.526 C 161.149 129.526,161.266 129.648,161.313 130.058 C 161.359 130.452,161.526 130.641,161.955 130.784 C 162.394 130.930,162.536 131.096,162.536 131.462 C 162.536 131.846,162.646 131.958,163.069 132.007 C 163.421 132.048,163.601 132.182,163.601 132.404 C 163.601 132.823,163.969 133.204,164.372 133.204 C 164.540 133.204,164.777 133.466,164.897 133.785 C 165.100 134.323,165.187 134.366,166.077 134.366 C 166.990 134.366,167.044 134.395,167.154 134.947 C 167.251 135.430,167.363 135.528,167.825 135.528 C 168.219 135.528,168.439 135.659,168.587 135.984 C 168.819 136.493,169.488 136.689,170.987 136.689 C 171.806 136.689,171.960 136.752,172.110 137.146 C 172.350 137.778,172.890 137.851,177.359 137.851 L 181.194 137.851 181.255 138.383 L 181.317 138.916 182.962 138.916 L 184.608 138.916 184.669 138.383 L 184.730 137.851 188.697 137.851 L 192.663 137.851 192.865 137.270 L 193.068 136.689 194.699 136.689 L 196.331 136.689 196.445 136.117 C 196.554 135.574,196.615 135.543,197.651 135.488 C 198.680 135.434,198.745 135.401,198.803 134.898 C 198.860 134.401,198.925 134.366,199.781 134.366 C 200.744 134.366,201.162 134.124,201.162 133.566 C 201.162 133.343,201.342 133.209,201.694 133.169 C 202.112 133.121,202.240 132.993,202.288 132.575 C 202.335 132.161,202.451 132.043,202.808 132.043 C 203.570 132.043,204.256 131.689,204.442 131.201 C 204.538 130.948,204.797 130.693,205.017 130.636 C 205.447 130.523,205.808 129.790,205.808 129.029 C 205.808 128.634,205.903 128.558,206.389 128.558 C 206.907 128.558,206.970 128.494,206.970 127.972 C 206.970 127.476,207.059 127.368,207.551 127.270 C 208.117 127.157,208.132 127.125,208.132 126.016 C 208.132 124.882,208.133 124.879,208.712 124.879 L 209.293 124.879 209.293 123.136 C 209.293 121.402,209.296 121.394,209.782 121.394 C 210.580 121.394,210.650 120.827,210.626 114.557 C 210.599 107.820,210.572 107.576,209.825 107.490 C 209.313 107.431,209.293 107.386,209.293 106.304 C 209.293 105.213,209.276 105.176,208.722 105.065 C 208.178 104.956,208.149 104.898,208.093 103.831 C 208.037 102.750,208.016 102.711,207.502 102.718 C 207.050 102.725,206.970 102.647,206.970 102.198 C 206.970 101.402,206.623 100.652,206.204 100.542 C 205.978 100.483,205.807 100.244,205.771 99.938 C 205.726 99.558,205.559 99.388,205.099 99.257 C 204.761 99.161,204.444 98.920,204.391 98.721 C 204.288 98.324,203.532 97.967,202.795 97.967 C 202.400 97.967,202.323 97.873,202.323 97.386 C 202.323 96.870,202.259 96.805,201.742 96.805 C 201.368 96.805,201.162 96.707,201.162 96.529 C 201.162 96.001,200.572 95.644,199.699 95.644 C 198.949 95.644,198.831 95.585,198.724 95.158 C 198.599 94.659,198.310 94.531,197.096 94.438 C 196.560 94.396,196.405 94.294,196.356 93.950 C 196.285 93.445,195.958 93.343,194.200 93.273 C 193.043 93.227,192.941 93.187,192.836 92.740 C 192.728 92.275,192.656 92.253,191.049 92.200 C 189.389 92.144,189.375 92.140,189.315 91.619 C 189.255 91.098,189.242 91.093,187.573 91.038 C 185.903 90.983,185.890 90.978,185.830 90.457 C 185.770 89.936,185.758 89.932,184.076 89.876 C 182.608 89.828,182.381 89.775,182.381 89.479 C 182.381 88.850,181.960 88.674,180.449 88.674 C 178.996 88.674,178.979 88.668,178.762 88.093 C 178.543 87.514,178.539 87.512,176.977 87.512 L 175.411 87.512 175.411 86.931 C 175.411 86.445,175.335 86.350,174.941 86.350 C 174.504 86.350,174.334 86.232,173.727 85.505 C 173.599 85.351,173.147 85.167,172.722 85.096 C 172.068 84.985,171.940 84.885,171.889 84.448 C 171.843 84.049,171.710 83.917,171.309 83.870 C 170.907 83.824,170.775 83.692,170.728 83.289 C 170.678 82.853,170.574 82.769,170.087 82.769 L 169.506 82.769 169.454 78.679 L 169.402 74.590 169.960 74.478 C 170.387 74.393,170.546 74.231,170.634 73.791 C 170.699 73.466,170.908 73.166,171.115 73.100 C 171.316 73.036,171.575 72.775,171.692 72.520 C 171.808 72.265,172.069 72.004,172.272 71.939 C 172.476 71.875,172.738 71.613,172.854 71.357 C 172.971 71.101,173.267 70.863,173.513 70.828 C 173.804 70.787,173.981 70.613,174.021 70.329 C 174.076 69.941,174.193 69.894,175.096 69.894 C 176.143 69.894,176.573 69.664,176.573 69.105 C 176.573 68.733,180.734 68.547,185.721 68.697 C 188.332 68.775,188.383 68.785,188.383 69.214 C 188.383 69.673,188.953 69.894,190.137 69.894 C 190.552 69.894,190.694 69.996,190.742 70.329 C 190.794 70.698,190.974 70.792,191.917 70.941 C 192.969 71.108,193.030 71.148,193.030 71.667 C 193.030 72.149,193.102 72.217,193.611 72.217 C 194.186 72.217,194.192 72.227,194.192 73.287 C 194.192 74.317,194.213 74.360,194.765 74.471 L 195.339 74.586 195.395 76.257 C 195.450 77.921,195.453 77.929,195.983 77.990 C 196.497 78.049,196.515 78.090,196.515 79.200 L 196.515 80.348 203.582 80.348 L 210.649 80.348 210.649 75.121 L 210.649 69.894 208.809 69.894 L 206.970 69.894 206.970 69.313 C 206.970 68.796,206.905 68.732,206.389 68.732 C 205.876 68.732,205.808 68.666,205.808 68.164 C 205.808 67.327,205.497 66.652,205.045 66.509 C 204.766 66.420,204.647 66.218,204.647 65.830 C 204.647 65.376,204.545 65.255,204.077 65.153 C 203.643 65.057,203.494 64.904,203.448 64.508 C 203.398 64.077,203.299 63.994,202.867 64.023 C 202.414 64.054,202.338 63.978,202.286 63.442 C 202.234 62.902,202.163 62.833,201.707 62.880 C 201.248 62.928,201.180 62.860,201.126 62.300 C 201.075 61.768,200.986 61.665,200.581 61.665 C 200.194 61.665,200.077 61.549,200.000 61.084 C 199.923 60.624,199.793 60.491,199.371 60.442 C 199.002 60.400,198.804 60.242,198.726 59.928 C 198.605 59.448,198.157 59.252,197.168 59.248 C 196.652 59.245,196.546 59.160,196.447 58.664 L 196.331 58.083 194.705 58.083 L 193.078 58.083 192.962 57.502 L 192.846 56.922 189.950 56.922 L 187.054 56.922 186.993 56.389 L 186.931 55.857 183.628 55.804 C 181.811 55.775,180.265 55.811,180.192 55.885 M78.845 57.122 C 78.041 57.445,78.013 57.871,78.069 68.944 C 78.118 78.833,78.146 79.584,78.467 79.906 C 78.782 80.220,79.355 80.257,84.784 80.308 L 90.754 80.364 90.873 79.921 C 90.938 79.677,90.993 76.755,90.994 73.427 L 90.997 67.377 98.548 67.377 L 106.099 67.377 106.099 96.801 L 106.099 126.225 102.662 126.278 L 99.226 126.331 99.174 131.290 C 99.132 135.313,99.173 136.291,99.389 136.471 C 99.585 136.633,103.306 136.679,113.381 136.642 L 127.106 136.592 127.157 131.413 L 127.209 126.234 123.140 126.234 L 119.071 126.234 119.071 96.805 L 119.071 67.377 127.880 67.377 L 136.689 67.377 136.689 73.645 C 136.689 78.716,136.740 79.956,136.954 80.134 C 137.143 80.291,138.973 80.339,143.295 80.303 L 149.371 80.252 149.371 68.635 L 149.371 57.018 114.327 56.982 C 93.598 56.960,79.105 57.018,78.845 57.122 M218.911 57.049 C 218.839 57.121,218.780 59.987,218.780 63.417 L 218.780 69.655 219.216 69.771 C 219.455 69.836,221.024 69.889,222.701 69.891 L 225.750 69.894 225.750 98.064 L 225.750 126.234 222.265 126.234 L 218.780 126.234 218.780 131.462 L 218.780 136.689 232.236 136.689 L 245.692 136.689 245.692 131.462 L 245.692 126.234 241.626 126.234 L 237.561 126.234 237.563 100.629 C 237.565 86.546,237.630 75.121,237.709 75.240 C 237.787 75.359,238.043 75.516,238.277 75.589 C 238.641 75.702,238.712 75.884,238.761 76.825 C 238.816 77.868,238.848 77.932,239.351 77.990 C 239.876 78.050,239.884 78.072,239.884 79.406 C 239.884 80.915,240.102 81.510,240.655 81.510 C 240.971 81.510,241.035 81.676,241.084 82.623 C 241.139 83.677,241.171 83.740,241.675 83.798 C 242.193 83.858,242.207 83.891,242.207 85.092 C 242.207 86.683,242.445 87.318,243.039 87.318 C 243.464 87.318,243.490 87.385,243.448 88.335 C 243.397 89.454,243.592 89.835,244.215 89.835 C 244.581 89.835,244.625 89.939,244.604 90.755 C 244.559 92.488,244.723 93.127,245.212 93.127 C 245.722 93.127,245.935 93.541,245.768 94.207 C 245.568 95.003,245.832 95.644,246.360 95.644 C 246.880 95.644,247.151 96.174,246.951 96.803 C 246.699 97.599,247.055 98.930,247.554 99.055 C 247.901 99.142,248.015 99.303,248.015 99.706 C 248.015 100.881,248.237 101.452,248.694 101.452 C 249.101 101.452,249.142 101.567,249.299 103.146 C 249.464 104.803,249.479 104.842,250.000 104.902 C 250.514 104.961,250.532 105.002,250.532 106.116 C 250.532 107.240,250.547 107.273,251.106 107.385 C 251.679 107.499,251.679 107.500,251.735 109.074 C 251.790 110.625,251.799 110.649,252.314 110.709 C 252.813 110.767,252.841 110.826,252.895 111.967 C 252.950 113.114,252.975 113.168,253.485 113.227 C 254.016 113.288,254.017 113.291,254.017 114.841 C 254.017 116.388,254.019 116.394,254.598 116.613 C 255.151 116.822,255.179 116.886,255.179 117.951 C 255.179 119.066,255.182 119.071,255.760 119.071 L 256.341 119.071 256.341 120.581 C 256.341 122.140,256.512 122.556,257.154 122.556 C 257.451 122.556,257.502 122.728,257.502 123.717 L 257.502 124.879 258.083 124.879 C 258.649 124.879,258.664 124.903,258.664 125.823 C 258.664 127.317,258.861 127.987,259.369 128.218 C 259.773 128.402,259.826 128.557,259.826 129.562 C 259.826 130.668,259.840 130.700,260.407 130.813 C 260.964 130.925,260.987 130.970,260.987 131.957 C 260.987 133.221,261.259 133.985,261.755 134.115 C 262.068 134.196,262.141 134.414,262.189 135.403 L 262.246 136.592 268.054 136.592 L 273.863 136.592 273.920 135.491 C 273.975 134.455,274.009 134.386,274.501 134.329 C 275.000 134.272,275.027 134.213,275.082 133.059 C 275.135 131.939,275.173 131.849,275.589 131.849 C 276.088 131.849,276.276 131.210,276.281 129.501 C 276.283 128.662,276.319 128.599,276.864 128.490 C 277.432 128.376,277.444 128.348,277.444 127.207 C 277.444 126.177,277.489 126.041,277.825 126.041 C 278.389 126.041,278.606 125.452,278.606 123.924 L 278.606 122.556 279.187 122.556 L 279.768 122.556 279.768 121.394 C 279.768 120.368,279.812 120.232,280.148 120.232 C 280.711 120.232,280.929 119.644,280.929 118.128 C 280.929 116.794,280.937 116.772,281.462 116.712 C 281.965 116.654,281.997 116.590,282.052 115.547 C 282.101 114.606,282.172 114.425,282.536 114.311 C 283.164 114.115,283.246 113.888,283.250 112.356 C 283.253 110.983,283.260 110.964,283.785 110.903 C 284.295 110.845,284.320 110.791,284.375 109.642 C 284.423 108.638,284.496 108.422,284.822 108.319 C 285.345 108.153,285.576 107.468,285.576 106.086 C 285.576 104.938,285.577 104.937,286.157 104.937 L 286.738 104.937 286.738 103.757 C 286.738 102.726,286.788 102.564,287.140 102.472 C 287.672 102.333,287.899 101.676,287.899 100.278 C 287.899 99.130,287.900 99.129,288.480 99.129 L 289.061 99.129 289.061 97.891 C 289.061 96.764,289.100 96.644,289.504 96.543 C 290.049 96.406,290.416 95.473,290.416 94.226 C 290.416 93.455,290.473 93.320,290.797 93.320 C 291.306 93.320,291.578 92.757,291.578 91.701 C 291.578 91.007,291.655 90.805,291.955 90.710 C 292.409 90.566,292.572 90.113,292.722 88.577 C 292.820 87.581,292.896 87.407,293.250 87.356 C 293.673 87.296,293.901 86.682,293.901 85.607 C 293.901 85.299,294.096 84.951,294.408 84.702 C 294.848 84.351,294.929 84.113,295.015 82.904 C 295.107 81.617,295.148 81.510,295.550 81.510 C 296.046 81.510,296.218 81.081,296.222 79.839 C 296.224 79.204,296.304 79.018,296.609 78.938 C 297.117 78.805,297.386 78.048,297.386 76.754 C 297.386 75.870,297.442 75.702,297.735 75.702 C 297.926 75.702,298.188 75.597,298.316 75.470 C 298.496 75.289,298.548 80.904,298.548 100.736 L 298.548 126.234 294.482 126.234 L 290.416 126.234 290.416 131.462 L 290.416 136.689 303.872 136.689 L 317.328 136.689 317.328 131.462 L 317.328 126.234 313.843 126.234 L 310.358 126.234 310.358 98.080 L 310.358 69.926 313.657 69.861 C 316.328 69.809,316.990 69.741,317.139 69.506 C 317.425 69.054,317.384 57.442,317.096 57.154 C 316.785 56.843,293.288 56.818,292.401 57.127 C 291.722 57.364,291.584 57.727,291.581 59.280 C 291.578 60.336,291.556 60.383,291.045 60.442 C 290.535 60.501,290.511 60.554,290.455 61.713 C 290.413 62.606,290.325 62.924,290.121 62.924 C 289.657 62.924,289.302 63.728,289.164 65.090 C 289.049 66.219,288.979 66.393,288.616 66.445 C 288.118 66.517,287.820 67.753,287.983 69.071 C 288.083 69.875,288.073 69.894,287.517 69.894 C 286.892 69.894,286.566 70.733,286.812 71.713 C 287.031 72.584,286.748 73.351,286.183 73.416 C 285.697 73.473,285.675 73.524,285.716 74.504 C 285.757 75.476,285.729 75.542,285.207 75.725 C 284.592 75.939,284.417 76.569,284.503 78.267 C 284.545 79.112,284.513 79.187,284.101 79.187 C 283.488 79.187,283.246 79.737,283.321 80.961 C 283.406 82.353,283.304 82.639,282.701 82.709 C 282.215 82.766,282.185 82.832,282.130 83.969 C 282.084 84.941,282.004 85.190,281.711 85.283 C 281.236 85.434,280.929 86.354,280.929 87.625 C 280.929 88.597,280.903 88.651,280.397 88.709 C 279.866 88.770,279.864 88.776,279.809 90.465 L 279.753 92.159 279.179 92.159 L 278.606 92.159 278.606 93.395 C 278.606 94.465,278.555 94.644,278.221 94.731 C 277.716 94.863,277.444 95.620,277.444 96.896 C 277.444 97.870,277.411 97.941,276.864 98.132 C 276.284 98.334,276.283 98.336,276.283 99.880 C 276.283 101.423,276.282 101.426,275.750 101.488 C 275.241 101.546,275.215 101.600,275.160 102.749 C 275.112 103.753,275.039 103.969,274.714 104.072 C 274.192 104.238,273.959 104.922,273.959 106.292 C 273.959 107.388,273.940 107.430,273.427 107.490 C 272.896 107.551,272.894 107.556,272.839 109.245 L 272.783 110.939 272.209 110.939 L 271.636 110.939 271.636 112.197 C 271.636 113.332,271.597 113.456,271.244 113.456 C 270.730 113.456,270.474 114.154,270.474 115.556 C 270.474 116.596,270.441 116.675,269.919 116.872 C 269.346 117.088,268.833 119.612,269.230 120.255 C 269.320 120.401,269.290 120.435,269.147 120.347 C 268.741 120.095,268.177 120.428,268.095 120.968 C 268.051 121.255,268.002 120.922,267.986 120.227 C 267.956 118.922,267.605 118.103,267.075 118.103 C 266.860 118.103,266.796 117.812,266.796 116.844 L 266.796 115.586 266.222 115.586 L 265.649 115.586 265.593 113.892 C 265.537 112.203,265.535 112.197,265.005 112.136 C 264.475 112.075,264.472 112.067,264.472 110.578 C 264.472 109.032,264.300 108.616,263.659 108.616 C 263.371 108.616,263.311 108.452,263.311 107.672 C 263.311 106.178,263.114 105.508,262.606 105.277 C 262.202 105.092,262.149 104.938,262.149 103.933 C 262.149 102.826,262.134 102.795,261.568 102.682 L 260.987 102.565 260.987 101.079 C 260.987 99.545,260.814 99.129,260.174 99.129 C 259.881 99.129,259.826 98.961,259.826 98.076 C 259.826 96.790,259.557 96.026,259.058 95.895 C 258.745 95.813,258.672 95.595,258.624 94.607 C 258.570 93.474,258.542 93.414,258.042 93.357 C 257.521 93.297,257.517 93.283,257.461 91.614 C 257.406 89.939,257.403 89.932,256.873 89.871 C 256.359 89.812,256.340 89.769,256.321 88.613 C 256.295 86.989,256.126 86.460,255.607 86.385 C 255.227 86.330,255.179 86.208,255.179 85.301 C 255.179 84.023,254.871 83.110,254.388 82.957 C 254.090 82.862,254.017 82.656,254.017 81.900 C 254.017 80.661,253.877 80.348,253.319 80.348 C 252.882 80.348,252.855 80.280,252.836 79.138 C 252.810 77.502,252.642 76.974,252.122 76.898 C 251.767 76.847,251.694 76.712,251.694 76.103 C 251.694 74.410,251.471 73.572,250.990 73.451 C 250.589 73.351,250.532 73.222,250.532 72.418 C 250.532 71.172,250.195 70.290,249.637 70.078 C 249.223 69.921,249.177 69.787,249.177 68.737 C 249.177 67.573,249.176 67.570,248.604 67.570 L 248.031 67.570 247.975 65.876 C 247.919 64.188,247.917 64.182,247.386 64.121 C 246.873 64.062,246.854 64.019,246.854 62.923 C 246.854 61.557,246.594 60.791,246.086 60.658 C 245.773 60.576,245.700 60.358,245.652 59.370 C 245.598 58.239,245.570 58.177,245.075 58.120 C 244.672 58.073,244.540 57.942,244.494 57.539 L 244.434 57.018 231.737 56.969 C 224.754 56.941,218.982 56.978,218.911 57.049 " stroke="none" fill="#343434" fill-rule="evenodd"/><path id="path1" d="" stroke="none" fill="#383434" fill-rule="evenodd"/><path id="path2" d="" stroke="none" fill="#383434" fill-rule="evenodd"/><path id="path3" d="" stroke="none" fill="#383434" fill-rule="evenodd"/><path id="path4" d="" stroke="none" fill="#383434" fill-rule="evenodd"/></g></svg>