<svg xmlns="http://www.w3.org/2000/svg" xmlns:xlink="http://www.w3.org/1999/xlink" id="svg" version="1.1" viewBox="93.27 47.51 214.66 82.17"><g id="svgg"><path id="path0" d="M191.934 47.632 C 191.870 47.696,191.817 47.971,191.817 48.243 L 191.817 48.737 188.957 48.786 L 186.098 48.834 186.041 49.421 L 185.985 50.008 185.141 49.892 C 183.979 49.732,182.873 50.049,182.663 50.603 C 182.541 50.922,182.368 51.034,181.993 51.034 C 181.131 51.034,180.385 51.384,180.270 51.843 C 180.184 52.185,180.051 52.266,179.567 52.266 C 179.011 52.266,178.971 52.305,178.971 52.839 C 178.971 53.370,178.927 53.413,178.399 53.411 C 177.884 53.410,177.821 53.466,177.772 53.971 C 177.725 54.460,177.645 54.540,177.156 54.587 C 176.738 54.628,176.590 54.731,176.577 54.993 C 176.540 55.725,176.494 55.785,175.979 55.785 C 175.511 55.785,175.451 55.845,175.451 56.305 C 175.451 56.760,175.374 56.840,174.835 56.941 L 174.219 57.056 174.219 58.181 L 174.219 59.305 173.608 59.305 L 172.997 59.305 173.068 60.438 L 173.140 61.572 172.580 61.626 L 172.019 61.681 171.970 64.002 L 171.921 66.322 171.354 66.377 L 170.788 66.432 170.735 70.832 C 170.677 75.667,170.778 76.444,171.487 76.622 C 171.904 76.727,171.920 76.789,171.969 78.444 C 172.019 80.153,172.021 80.159,172.485 80.212 C 173.006 80.273,173.202 80.714,173.048 81.483 C 172.915 82.147,173.254 82.710,173.785 82.710 C 174.146 82.710,174.219 82.795,174.219 83.219 C 174.219 83.737,174.473 83.942,175.113 83.942 C 175.370 83.942,175.451 84.067,175.451 84.459 C 175.451 84.913,175.520 84.982,176.023 85.031 C 176.529 85.079,176.595 85.147,176.595 85.614 C 176.595 86.081,176.661 86.148,177.167 86.197 C 177.664 86.245,177.739 86.317,177.739 86.750 C 177.739 87.256,177.997 87.462,178.633 87.462 C 178.841 87.462,178.971 87.583,178.971 87.778 C 178.971 88.309,179.349 88.517,180.314 88.517 C 181.225 88.517,181.237 88.524,181.291 89.089 C 181.346 89.660,181.348 89.661,182.434 89.713 C 183.468 89.763,183.527 89.790,183.631 90.264 C 183.755 90.827,184.255 90.976,186.042 90.979 C 187.002 90.981,187.044 91.001,187.098 91.465 L 187.154 91.949 188.869 91.999 C 190.414 92.045,190.585 92.083,190.585 92.381 C 190.585 93.206,190.715 93.269,192.430 93.269 L 194.061 93.269 194.161 93.772 C 194.276 94.347,194.788 94.495,196.672 94.499 C 197.626 94.500,197.765 94.546,197.933 94.916 C 198.150 95.391,198.751 95.557,200.267 95.557 C 201.191 95.557,201.291 95.594,201.388 95.979 C 201.523 96.516,202.278 96.788,203.634 96.788 C 204.611 96.788,204.663 96.811,204.663 97.222 C 204.663 97.786,205.124 98.020,206.236 98.020 C 207.109 98.020,207.127 98.031,207.127 98.548 C 207.127 99.015,207.187 99.076,207.644 99.076 C 208.098 99.076,208.167 99.145,208.216 99.648 C 208.264 100.151,208.340 100.227,208.843 100.275 C 209.340 100.323,209.415 100.395,209.415 100.828 C 209.415 101.334,209.673 101.540,210.309 101.540 C 210.582 101.540,210.647 101.667,210.647 102.205 C 210.647 102.930,211.047 103.652,211.449 103.652 C 211.734 103.652,211.726 103.553,211.773 107.904 L 211.805 110.837 211.270 110.989 C 210.835 111.113,210.724 111.248,210.680 111.708 C 210.640 112.118,210.536 112.275,210.305 112.275 C 209.835 112.275,209.559 112.703,209.459 113.585 C 209.378 114.310,209.331 114.371,208.821 114.421 C 208.318 114.470,208.275 114.523,208.316 115.046 L 208.360 115.618 207.139 115.618 L 205.918 115.618 205.862 116.184 L 205.807 116.750 204.363 116.772 C 202.849 116.796,202.376 116.987,202.376 117.575 C 202.376 117.889,202.168 117.906,198.240 117.906 L 194.105 117.906 194.105 117.476 C 194.105 116.872,193.885 116.791,192.180 116.766 L 190.673 116.744 190.584 116.225 C 190.498 115.723,190.459 115.704,189.407 115.654 C 188.323 115.602,188.318 115.599,188.264 115.038 C 188.216 114.547,188.137 114.467,187.648 114.420 C 187.186 114.375,187.077 114.282,187.032 113.892 C 186.990 113.528,186.870 113.406,186.511 113.364 C 186.135 113.321,186.023 113.194,185.931 112.704 C 185.833 112.179,185.750 112.099,185.306 112.099 C 184.802 112.099,184.794 112.083,184.742 111.009 C 184.691 109.943,184.678 109.917,184.118 109.772 L 183.546 109.625 183.546 106.220 L 183.546 102.816 182.996 102.706 C 182.288 102.564,169.058 102.561,168.690 102.703 C 168.267 102.865,168.267 114.117,168.690 114.279 C 168.843 114.338,169.873 114.386,170.978 114.386 C 172.083 114.386,172.996 114.446,173.006 114.518 C 173.016 114.591,173.041 115.274,173.062 116.037 C 173.099 117.431,173.329 117.906,173.966 117.906 C 174.081 117.906,174.213 118.258,174.263 118.698 C 174.363 119.589,174.638 120.018,175.110 120.018 C 175.352 120.018,175.443 120.177,175.484 120.678 C 175.534 121.280,175.589 121.342,176.111 121.393 C 176.628 121.442,176.673 121.491,176.572 121.895 C 176.446 122.396,176.704 122.650,177.343 122.655 C 177.665 122.657,177.739 122.756,177.739 123.185 C 177.739 123.671,177.788 123.713,178.355 123.713 C 178.941 123.713,178.971 123.742,178.971 124.329 C 178.971 124.890,179.016 124.945,179.476 124.945 C 179.893 124.945,180.000 125.035,180.083 125.450 C 180.196 126.014,180.554 126.171,181.742 126.174 C 182.455 126.177,182.490 126.201,182.490 126.705 L 182.490 127.233 183.623 127.233 L 184.756 127.233 184.811 127.805 L 184.866 128.377 186.582 128.427 L 188.297 128.477 188.297 128.978 C 188.297 129.700,188.199 129.692,197.272 129.684 C 206.496 129.675,206.838 129.649,206.918 128.953 L 206.973 128.477 208.678 128.427 L 210.383 128.377 210.437 127.812 L 210.492 127.248 211.669 127.197 C 212.808 127.146,212.848 127.129,212.902 126.661 C 212.953 126.219,213.022 126.177,213.694 126.174 C 214.917 126.170,215.222 126.026,215.222 125.452 C 215.222 125.008,215.287 124.945,215.739 124.945 C 216.532 124.945,217.147 124.644,217.328 124.168 C 217.449 123.851,217.646 123.722,218.073 123.681 C 218.561 123.634,218.663 123.547,218.710 123.134 C 218.754 122.754,218.880 122.621,219.272 122.542 C 219.645 122.468,219.807 122.312,219.886 121.953 C 219.965 121.591,220.126 121.439,220.511 121.362 C 220.967 121.271,221.029 121.184,221.029 120.638 C 221.029 120.148,221.099 120.018,221.360 120.018 C 221.842 120.018,222.117 119.595,222.218 118.698 C 222.295 118.011,222.362 117.906,222.718 117.906 C 223.256 117.906,223.493 117.428,223.493 116.345 C 223.493 115.516,223.521 115.462,223.977 115.410 L 224.461 115.354 224.510 113.059 L 224.559 110.764 225.055 110.577 C 225.724 110.325,225.781 109.943,225.781 105.730 C 225.781 101.987,225.696 101.540,224.983 101.540 C 224.551 101.540,224.549 101.532,224.549 99.791 C 224.549 97.859,224.369 97.152,223.843 97.015 C 223.606 96.953,223.493 96.773,223.491 96.460 C 223.486 95.202,223.282 94.661,222.774 94.559 C 222.376 94.480,222.270 94.354,222.227 93.909 C 222.180 93.430,222.098 93.350,221.612 93.302 C 221.123 93.255,221.043 93.175,220.996 92.687 C 220.949 92.202,220.875 92.126,220.458 92.132 C 220.026 92.138,219.974 92.076,219.974 91.560 C 219.974 91.016,219.937 90.981,219.358 90.981 C 218.771 90.981,218.742 90.952,218.742 90.365 C 218.742 89.779,218.712 89.749,218.126 89.749 C 217.561 89.749,217.510 89.706,217.510 89.229 C 217.510 88.774,217.433 88.695,216.894 88.594 C 216.404 88.502,216.278 88.396,216.278 88.077 C 216.278 87.588,215.985 87.462,214.856 87.462 C 214.048 87.462,213.990 87.432,213.990 87.017 C 213.990 86.494,213.455 86.230,212.395 86.230 C 211.835 86.230,211.703 86.166,211.703 85.899 C 211.703 85.295,211.213 85.097,209.704 85.091 L 208.274 85.086 208.183 84.558 L 208.092 84.030 206.389 83.980 L 204.685 83.929 204.630 83.364 L 204.575 82.798 202.860 82.748 C 201.179 82.698,201.144 82.689,201.144 82.274 C 201.144 81.676,200.919 81.595,199.221 81.580 L 197.716 81.566 197.625 81.038 L 197.534 80.510 195.819 80.460 C 194.170 80.412,194.105 80.394,194.105 80.011 C 194.105 79.325,193.781 79.190,192.134 79.190 L 190.585 79.190 190.585 78.666 C 190.585 78.064,190.217 77.900,189.076 77.991 C 188.412 78.044,188.383 78.024,188.330 77.475 C 188.280 76.953,188.223 76.903,187.681 76.903 C 187.140 76.903,187.083 76.852,187.033 76.331 C 186.987 75.858,186.896 75.749,186.504 75.704 C 186.139 75.662,186.019 75.542,185.976 75.176 C 185.935 74.815,185.787 74.663,185.350 74.535 C 184.818 74.378,184.778 74.313,184.778 73.599 C 184.778 72.608,184.526 72.151,183.980 72.151 C 183.548 72.151,183.546 72.145,183.546 70.392 C 183.546 68.638,183.548 68.632,183.980 68.632 C 184.598 68.632,184.778 68.158,184.778 66.532 L 184.778 65.112 185.287 65.112 C 185.805 65.112,186.010 64.858,186.010 64.218 C 186.010 63.960,186.135 63.880,186.538 63.880 C 187.008 63.880,187.066 63.822,187.066 63.348 C 187.066 62.895,187.146 62.800,187.603 62.708 C 188.013 62.626,188.163 62.484,188.239 62.105 C 188.333 61.632,188.391 61.606,189.418 61.556 C 190.495 61.505,190.497 61.503,190.552 60.933 L 190.607 60.361 192.870 60.361 L 195.133 60.361 195.249 59.833 L 195.365 59.305 197.157 59.305 C 198.838 59.305,198.959 59.329,199.122 59.695 C 199.351 60.209,199.834 60.322,201.892 60.343 C 203.604 60.361,203.608 60.362,203.608 60.805 C 203.608 61.326,204.143 61.593,205.191 61.593 C 205.799 61.593,205.878 61.643,205.928 62.066 C 205.971 62.438,206.111 62.573,206.574 62.692 C 206.932 62.784,207.201 62.980,207.255 63.188 C 207.305 63.377,207.538 63.581,207.773 63.640 C 208.070 63.714,208.233 63.908,208.307 64.279 C 208.381 64.649,208.563 64.868,208.906 64.997 C 209.274 65.136,209.411 65.318,209.450 65.719 C 209.496 66.183,209.581 66.264,210.075 66.311 L 210.647 66.366 210.647 69.087 L 210.647 71.808 211.103 71.982 C 211.384 72.088,214.288 72.138,218.626 72.109 L 225.693 72.063 225.740 66.828 L 225.786 61.593 224.024 61.593 C 222.444 61.593,222.261 61.560,222.261 61.276 C 222.261 60.842,221.920 60.537,221.434 60.537 C 221.089 60.537,221.029 60.446,221.029 59.921 C 221.029 59.362,220.983 59.305,220.532 59.305 C 220.057 59.305,220.028 59.256,219.873 58.205 C 219.721 57.183,219.675 57.101,219.226 57.049 C 218.803 57.001,218.742 56.918,218.742 56.390 C 218.742 55.816,218.710 55.785,218.126 55.785 C 217.539 55.785,217.510 55.756,217.510 55.169 C 217.510 54.606,217.466 54.553,216.996 54.553 C 216.568 54.553,216.463 54.465,216.366 54.026 C 216.270 53.589,216.163 53.498,215.747 53.498 C 215.309 53.498,215.237 53.425,215.189 52.926 C 215.141 52.421,215.066 52.347,214.553 52.298 C 214.127 52.257,213.929 52.128,213.809 51.811 C 213.628 51.335,213.012 51.034,212.219 51.034 C 211.831 51.034,211.703 50.952,211.703 50.703 C 211.703 50.180,211.250 49.938,210.230 49.913 C 209.382 49.892,209.265 49.842,209.111 49.433 C 208.897 48.868,208.370 48.746,206.137 48.746 C 204.591 48.746,204.487 48.723,204.487 48.385 C 204.487 47.613,203.712 47.514,197.659 47.514 C 194.575 47.514,191.999 47.567,191.934 47.632 M93.269 59.833 L 93.269 70.919 99.692 70.919 L 106.115 70.919 106.115 65.112 L 106.115 59.305 113.770 59.305 L 121.425 59.305 121.425 87.970 L 121.425 116.636 118.091 116.699 C 116.053 116.738,114.683 116.835,114.568 116.949 C 114.442 117.076,114.396 118.959,114.428 122.757 L 114.474 128.377 127.849 128.377 L 141.223 128.377 141.270 122.757 C 141.301 118.961,141.255 117.076,141.129 116.949 C 141.012 116.832,139.493 116.739,137.079 116.701 L 133.216 116.640 133.216 87.972 L 133.216 59.305 142.543 59.305 L 151.870 59.305 151.891 64.716 C 151.903 67.692,151.914 70.306,151.915 70.524 L 151.918 70.919 158.309 70.919 L 164.700 70.919 164.806 70.348 C 165.042 69.072,164.816 49.342,164.563 49.037 C 164.340 48.768,161.619 48.746,128.795 48.746 L 93.269 48.746 93.269 59.833 M232.912 49.142 C 232.675 50.176,232.907 60.021,233.172 60.189 C 233.317 60.280,234.881 60.357,236.648 60.358 L 239.859 60.361 239.859 88.497 L 239.859 116.633 236.898 116.701 C 233.417 116.781,233.090 116.898,232.906 118.124 C 232.747 119.185,232.877 128.053,233.055 128.230 C 233.350 128.525,260.617 128.409,260.804 128.113 C 261.040 127.741,261.026 118.277,260.790 117.598 C 260.532 116.859,260.315 116.817,256.269 116.722 L 252.706 116.638 252.736 92.415 C 252.753 79.092,252.797 68.523,252.834 68.928 C 252.893 69.578,252.961 69.677,253.419 69.778 C 253.729 69.846,253.945 70.010,253.955 70.186 C 253.964 70.347,253.989 70.638,254.010 70.832 C 254.031 71.025,254.063 71.355,254.081 71.565 C 254.104 71.835,254.269 71.982,254.641 72.063 C 255.078 72.159,255.169 72.267,255.169 72.682 C 255.169 73.467,255.474 74.078,255.958 74.262 C 256.316 74.398,256.401 74.550,256.401 75.051 C 256.401 75.623,256.442 75.671,256.929 75.671 C 257.224 75.671,257.465 75.768,257.476 75.891 C 257.486 76.012,257.506 76.507,257.520 76.991 C 257.544 77.849,257.559 77.872,258.117 77.926 C 258.682 77.980,258.689 77.991,258.689 78.902 C 258.689 79.859,258.897 80.246,259.413 80.246 C 259.631 80.246,259.747 80.452,259.834 80.994 C 259.975 81.867,260.352 82.534,260.705 82.534 C 260.980 82.534,261.234 83.139,261.070 83.405 C 260.872 83.725,261.465 84.822,261.837 84.822 C 262.115 84.822,262.199 84.958,262.242 85.482 C 262.289 86.046,262.363 86.149,262.759 86.195 C 263.238 86.251,263.433 86.781,263.438 88.033 C 263.440 88.462,263.506 88.517,264.012 88.518 C 264.576 88.518,264.584 88.530,264.591 89.354 C 264.601 90.474,264.753 90.805,265.258 90.805 C 265.633 90.805,265.691 90.903,265.786 91.704 C 265.897 92.647,266.139 93.093,266.538 93.093 C 266.670 93.093,266.825 93.311,266.883 93.577 C 267.072 94.438,267.118 94.501,267.570 94.501 C 268.049 94.501,268.047 94.498,268.081 95.821 C 268.103 96.676,268.119 96.702,268.668 96.755 C 269.229 96.809,269.232 96.814,269.284 97.899 C 269.333 98.936,269.358 98.991,269.810 99.043 C 270.307 99.100,270.274 99.013,270.537 101.012 C 270.556 101.157,270.768 101.304,271.009 101.338 C 271.509 101.408,271.750 101.690,271.617 102.051 C 271.444 102.520,271.893 103.470,272.341 103.583 C 272.688 103.670,272.767 103.802,272.767 104.291 C 272.767 104.815,272.833 104.905,273.282 104.995 C 273.764 105.091,273.807 105.169,273.942 106.179 C 274.083 107.230,274.102 107.261,274.649 107.314 C 275.166 107.364,275.206 107.412,275.143 107.911 C 275.016 108.914,275.228 109.467,275.783 109.578 C 276.190 109.659,276.287 109.771,276.287 110.159 C 276.287 110.907,276.628 111.703,276.990 111.797 C 277.202 111.853,277.362 112.110,277.439 112.519 C 277.543 113.075,277.622 113.154,278.066 113.154 C 278.612 113.154,278.612 113.154,278.642 114.474 C 278.661 115.306,278.693 115.363,279.227 115.520 C 279.773 115.681,279.793 115.721,279.843 116.752 C 279.892 117.763,279.919 117.821,280.367 117.872 C 280.797 117.922,280.850 118.012,280.959 118.879 C 281.082 119.870,281.239 120.111,281.830 120.221 C 282.113 120.273,282.184 120.430,282.193 121.018 C 282.205 121.801,282.450 122.227,282.990 122.398 C 283.235 122.476,283.326 122.669,283.326 123.109 C 283.326 123.658,283.373 123.713,283.833 123.713 C 284.328 123.713,284.344 123.742,284.463 124.852 C 284.583 125.971,284.595 125.992,285.173 126.100 C 285.750 126.209,285.759 126.225,285.677 126.977 C 285.502 128.568,284.954 128.465,293.528 128.465 C 298.007 128.465,301.261 128.395,301.528 128.293 L 301.980 128.121 301.980 94.241 L 301.980 60.361 304.800 60.361 L 307.620 60.361 307.794 59.903 C 307.899 59.627,307.950 57.334,307.922 54.139 L 307.875 48.834 294.468 48.789 L 281.060 48.744 280.946 49.504 C 280.789 50.554,280.917 59.869,281.093 60.141 C 281.200 60.306,282.218 60.361,285.184 60.361 L 289.133 60.361 289.133 83.907 L 289.133 107.452 288.525 107.381 L 287.917 107.310 287.865 106.229 C 287.817 105.213,287.786 105.144,287.359 105.095 C 286.946 105.047,286.890 104.943,286.743 103.951 C 286.593 102.938,286.547 102.856,286.098 102.804 C 285.699 102.758,285.614 102.662,285.614 102.258 C 285.614 101.412,285.260 100.666,284.804 100.552 C 284.462 100.466,284.382 100.332,284.382 99.845 C 284.382 99.317,284.317 99.230,283.854 99.138 C 283.362 99.039,283.326 98.978,283.326 98.251 C 283.326 97.252,283.076 96.788,282.536 96.788 C 282.137 96.788,282.108 96.720,282.059 95.689 C 282.006 94.592,282.004 94.588,281.442 94.534 C 280.881 94.480,280.878 94.475,280.826 93.390 C 280.777 92.348,280.754 92.299,280.290 92.245 C 279.892 92.199,279.806 92.103,279.806 91.700 C 279.806 90.853,279.453 90.107,278.997 89.993 C 278.658 89.908,278.575 89.772,278.575 89.309 C 278.575 88.721,278.347 88.517,277.689 88.517 C 277.408 88.517,277.352 88.356,277.307 87.418 C 277.257 86.363,277.235 86.315,276.771 86.262 C 276.352 86.214,276.287 86.128,276.287 85.624 C 276.287 84.358,276.107 83.942,275.561 83.942 C 275.078 83.942,275.055 83.906,275.055 83.138 C 275.055 82.112,274.809 81.654,274.257 81.654 C 273.880 81.654,273.823 81.575,273.823 81.050 C 273.823 80.210,273.530 79.525,273.127 79.419 C 272.899 79.360,272.769 79.148,272.733 78.777 C 272.689 78.324,272.576 78.192,272.115 78.056 C 271.569 77.895,271.549 77.856,271.499 76.824 C 271.448 75.767,271.443 75.759,270.884 75.704 C 270.322 75.650,270.320 75.645,270.268 74.561 C 270.219 73.536,270.188 73.468,269.761 73.418 C 269.348 73.370,269.292 73.267,269.145 72.275 C 268.995 71.262,268.949 71.179,268.500 71.128 C 268.128 71.085,268.016 70.978,268.016 70.666 C 268.016 69.657,267.786 69.109,267.285 68.920 C 266.873 68.764,266.784 68.627,266.784 68.149 C 266.784 67.643,266.715 67.553,266.256 67.462 C 265.751 67.361,265.728 67.316,265.728 66.445 C 265.728 65.452,265.519 65.112,264.909 65.112 C 264.546 65.112,264.509 65.020,264.461 64.012 C 264.408 62.916,264.406 62.912,263.844 62.858 C 263.283 62.804,263.280 62.799,263.229 61.714 C 263.179 60.671,263.156 60.622,262.692 60.569 C 262.294 60.523,262.209 60.427,262.209 60.023 C 262.209 59.177,261.855 58.431,261.399 58.317 C 261.060 58.232,260.977 58.096,260.977 57.633 C 260.977 57.045,260.749 56.841,260.091 56.841 C 259.810 56.841,259.754 56.680,259.709 55.741 C 259.659 54.687,259.637 54.639,259.173 54.586 C 258.731 54.535,258.689 54.465,258.687 53.794 C 258.683 52.571,258.538 52.266,257.965 52.266 C 257.479 52.266,257.457 52.230,257.457 51.462 C 257.457 50.436,257.211 49.978,256.659 49.978 C 256.281 49.978,256.225 49.899,256.225 49.362 L 256.225 48.746 244.614 48.746 L 233.003 48.746 232.912 49.142 " stroke="none" fill="#343434" fill-rule="evenodd"/><path id="path1" d="M198.020 81.600 C 198.190 81.644,198.467 81.644,198.636 81.600 C 198.806 81.555,198.667 81.519,198.328 81.519 C 197.989 81.519,197.851 81.555,198.020 81.600 M211.743 105.587 C 211.743 105.926,211.780 106.065,211.824 105.895 C 211.868 105.726,211.868 105.449,211.824 105.279 C 211.780 105.110,211.743 105.249,211.743 105.587 M211.751 108.931 C 211.751 109.366,211.785 109.545,211.827 109.327 C 211.869 109.109,211.869 108.753,211.827 108.535 C 211.785 108.317,211.751 108.495,211.751 108.931 " stroke="none" fill="#383434" fill-rule="evenodd"/><path id="path2" d="M198.020 81.600 C 198.190 81.644,198.467 81.644,198.636 81.600 C 198.806 81.555,198.667 81.519,198.328 81.519 C 197.989 81.519,197.851 81.555,198.020 81.600 M211.743 105.587 C 211.743 105.926,211.780 106.065,211.824 105.895 C 211.868 105.726,211.868 105.449,211.824 105.279 C 211.780 105.110,211.743 105.249,211.743 105.587 M211.751 108.931 C 211.751 109.366,211.785 109.545,211.827 109.327 C 211.869 109.109,211.869 108.753,211.827 108.535 C 211.785 108.317,211.751 108.495,211.751 108.931 " stroke="none" fill="#383434" fill-rule="evenodd"/><path id="path3" d="M198.020 81.600 C 198.190 81.644,198.467 81.644,198.636 81.600 C 198.806 81.555,198.667 81.519,198.328 81.519 C 197.989 81.519,197.851 81.555,198.020 81.600 M211.743 105.587 C 211.743 105.926,211.780 106.065,211.824 105.895 C 211.868 105.726,211.868 105.449,211.824 105.279 C 211.780 105.110,211.743 105.249,211.743 105.587 M211.751 108.931 C 211.751 109.366,211.785 109.545,211.827 109.327 C 211.869 109.109,211.869 108.753,211.827 108.535 C 211.785 108.317,211.751 108.495,211.751 108.931 " stroke="none" fill="#383434" fill-rule="evenodd"/><path id="path4" d="M198.020 81.600 C 198.190 81.644,198.467 81.644,198.636 81.600 C 198.806 81.555,198.667 81.519,198.328 81.519 C 197.989 81.519,197.851 81.555,198.020 81.600 M211.743 105.587 C 211.743 105.926,211.780 106.065,211.824 105.895 C 211.868 105.726,211.868 105.449,211.824 105.279 C 211.780 105.110,211.743 105.249,211.743 105.587 M211.751 108.931 C 211.751 109.366,211.785 109.545,211.827 109.327 C 211.869 109.109,211.869 108.753,211.827 108.535 C 211.785 108.317,211.751 108.495,211.751 108.931 " stroke="none" fill="#383434" fill-rule="evenodd"/></g></svg>